<?xml version="1.0" encoding="UTF-8"?>
<!DOCTYPE svg PUBLIC "-//W3C//DTD SVG 1.1//EN" "http://www.w3.org/Graphics/SVG/1.1/DTD/svg11.dtd">
<svg xmlns="http://www.w3.org/2000/svg" xmlns:xlink="http://www.w3.org/1999/xlink" version="1.1" width="26px" height="47px" viewBox="-0.5 -0.5 26 47"><defs/><g><rect x="0" y="0" width="26" height="47" fill="none" stroke="none" pointer-events="all"/><path d="M 23.03 37.31 L 23.03 5.96 L 2.97 5.96 L 2.97 37.31 Z M 14.89 43.28 C 15.39 43.28 15.6 42.85 15.6 42.54 L 15.6 40.99 C 15.6 40.56 15.23 40.28 14.88 40.28 L 11.13 40.28 C 10.63 40.28 10.4 40.67 10.4 41.03 L 10.4 42.53 C 10.4 43.09 10.83 43.28 11.09 43.28 Z M 2.88 47 C 1.23 47 0 45.45 0 44.15 L 0 2.91 C 0 1.57 1.14 0 3 0 L 23.03 0 C 24.85 0 26 1.6 26 2.92 L 26 44.11 C 26 45.48 24.8 47 23.05 47 Z" fill="#505050" stroke="none" pointer-events="all"/></g></svg>