<?xml version="1.0" encoding="UTF-8"?>
<!DOCTYPE svg PUBLIC "-//W3C//DTD SVG 1.1//EN" "http://www.w3.org/Graphics/SVG/1.1/DTD/svg11.dtd">
<svg xmlns="http://www.w3.org/2000/svg" xmlns:xlink="http://www.w3.org/1999/xlink" version="1.1" width="39px" height="52px" viewBox="-0.5 -0.5 39 52"><defs/><g><rect x="0" y="0" width="39" height="52" fill="none" stroke="none" pointer-events="all"/><path d="M 19.5 3.72 C 19.93 3.72 20.25 3.38 20.25 2.98 C 20.25 2.66 20.01 2.23 19.5 2.23 C 19.05 2.23 18.75 2.61 18.75 2.98 C 18.75 3.46 19.17 3.72 19.5 3.72 Z M 3.75 46.07 L 35.25 46.07 L 35.25 5.94 L 3.75 5.94 Z M 19.57 50.51 C 20.2 50.51 21 49.95 21 49.06 C 21 48.16 20.26 47.55 19.51 47.55 C 18.52 47.55 18 48.38 18 48.98 C 18 49.85 18.62 50.51 19.57 50.51 Z M 2.9 52 C 1.39 52 0 50.63 0 49.13 L 0 2.88 C 0 1.5 1.24 0 2.97 0 L 35.96 0 C 37.77 0 39 1.45 39 2.98 L 39 49.01 C 39 50.75 37.51 52 36.09 52 Z" fill="#505050" stroke="none" pointer-events="all"/></g></svg>