<?xml version="1.0" encoding="UTF-8"?>
<!DOCTYPE svg PUBLIC "-//W3C//DTD SVG 1.1//EN" "http://www.w3.org/Graphics/SVG/1.1/DTD/svg11.dtd">
<svg xmlns="http://www.w3.org/2000/svg" xmlns:xlink="http://www.w3.org/1999/xlink" version="1.1" width="58px" height="34px" viewBox="-0.5 -0.5 58 34"><defs/><g><rect x="0" y="0" width="58" height="34" fill="none" stroke="none" pointer-events="all"/><path d="M 33.53 31.86 C 34.09 31.86 34.48 31.64 34.37 31.48 L 33.26 29.86 C 33.12 29.61 32.92 29.57 32.59 29.57 L 25.41 29.57 C 25.06 29.57 24.88 29.62 24.71 29.87 L 23.68 31.47 C 23.48 31.72 24.08 31.86 24.51 31.86 Z M 50.32 26.61 L 50.32 2.96 L 7.65 2.96 L 7.65 26.61 Z M 3 34 C 1.87 33.99 0.85 33.62 0.42 33.03 C 0 32.46 0.17 31.89 0.53 31.5 L 4.66 27.35 L 4.66 2.83 C 4.66 1.6 5.78 0 7.63 0 L 50.33 0 C 51.77 0 53.31 1.14 53.31 2.99 L 53.31 27.35 L 57.48 31.54 C 57.83 31.93 58 32.45 57.58 33.01 C 57.03 33.72 55.99 33.95 55.02 34 Z" fill="#505050" stroke="none" pointer-events="all"/></g></svg>