<svg xmlns="http://www.w3.org/2000/svg" xmlns:xlink="http://www.w3.org/1999/xlink" version="1.1" width="58px" height="48px" viewBox="-0.5 -0.5 58 48"><defs/><g><rect x="0" y="-0.5" width="58" height="48" fill="none" stroke="none" pointer-events="all"/><path d="M 3.77 33.25 L 54.23 33.25 L 54.23 3.25 L 3.77 3.25 Z M 2.89 37 C 1.59 37 0 35.74 0 34.05 L 0 2.51 C 0 0.9 1.43 -0.5 2.85 -0.5 L 55.12 -0.5 C 56.64 -0.5 58 0.97 58 2.43 L 58 34.02 C 58 35.38 56.91 37 55.01 37 L 35.63 37 C 35.31 38.11 35.02 39.23 35.01 40.34 C 35 42.2 36.09 42.91 37.7 43.33 C 39.7 43.78 41.82 43.78 43.93 43.82 C 44.8 43.82 45.8 44.56 45.8 45.73 C 45.8 46.68 44.91 47.5 44.12 47.5 L 13.82 47.5 C 12.98 47.5 12.05 46.71 12.05 45.76 C 12.05 44.68 12.83 43.82 13.86 43.82 C 16.33 43.76 19.53 43.8 21.38 42.94 C 22.22 42.55 22.93 41.93 22.97 40.58 C 23.04 39.4 22.69 38.19 22.38 37 Z" fill="#505050" stroke="none" pointer-events="all"/></g></svg>
