<?xml version="1.0" encoding="UTF-8"?>
<!DOCTYPE svg PUBLIC "-//W3C//DTD SVG 1.1//EN" "http://www.w3.org/Graphics/SVG/1.1/DTD/svg11.dtd">
<svg xmlns="http://www.w3.org/2000/svg" xmlns:xlink="http://www.w3.org/1999/xlink" version="1.1" width="58px" height="48px" viewBox="-0.5 -0.5 58 48"><defs/><g><rect x="0" y="0" width="58" height="48" fill="none" stroke="none" pointer-events="all"/><path d="M 38.42 15.75 L 38.42 7.5 L 46.7 7.5 L 46.7 15.75 Z M 38.42 29.24 L 38.42 21 L 46.7 21 L 46.7 29.24 Z M 24.86 15.75 L 24.86 7.5 L 33.14 7.5 L 33.14 15.75 Z M 24.86 29.24 L 24.86 21 L 33.14 21 L 33.14 29.24 Z M 11.3 15.75 L 11.3 7.5 L 19.58 7.5 L 19.58 15.75 Z M 11.3 29.24 L 11.3 21 L 19.58 21 L 19.58 29.24 Z M 3.77 33.75 L 54.23 33.75 L 54.23 3.75 L 3.77 3.75 Z M 2.89 37.5 C 1.59 37.5 0 36.24 0 34.55 L 0 3.01 C 0 1.4 1.43 0 2.85 0 L 55.12 0 C 56.64 0 58 1.47 58 2.93 L 58 34.52 C 58 35.88 56.91 37.5 55.01 37.5 L 35.63 37.5 C 35.31 38.61 35.02 39.73 35.01 40.84 C 35 42.7 36.09 43.41 37.7 43.83 C 39.7 44.28 41.82 44.28 43.93 44.32 C 44.8 44.32 45.8 45.06 45.8 46.23 C 45.8 47.18 44.91 48 44.12 48 L 13.82 48 C 12.98 48 12.05 47.21 12.05 46.26 C 12.05 45.18 12.83 44.32 13.86 44.32 C 16.33 44.26 19.53 44.3 21.38 43.44 C 22.22 43.05 22.93 42.43 22.97 41.08 C 23.04 39.9 22.69 38.69 22.38 37.5 Z" fill="#505050" stroke="none" pointer-events="all"/></g></svg>