<!DOCTYPE svg PUBLIC "-//W3C//DTD SVG 20010904//EN" "http://www.w3.org/TR/2001/REC-SVG-20010904/DTD/svg10.dtd">
<svg version="1.0" xmlns="http://www.w3.org/2000/svg" width="300px" height="300px" viewBox="0 0 3000 3000" preserveAspectRatio="xMidYMid meet">
<g id="layer101" fill="#6db33f" stroke="none">
 <path d="M853 2779 c-120 -38 -136 -59 -463 -633 -159 -280 -294 -525 -300 -545 -17 -62 -12 -151 13 -211 13 -30 148 -273 300 -540 316 -553 330 -572 455 -610 66 -20 86 -21 663 -18 679 4 648 0 745 92 46 43 95 123 331 536 152 267 287 510 300 540 25 60 30 149 13 211 -6 20 -141 265 -300 545 -329 578 -342 595 -466 634 -63 19 -90 20 -648 19 -550 0 -584 -1 -643 -20z m749 -540 c261 -41 473 -197 588 -434 59 -123 80 -212 80 -348 0 -231 -106 -459 -279 -603 -43 -36 -60 -44 -93 -44 -56 0 -98 42 -98 99 0 38 6 47 83 123 129 129 187 260 187 428 0 161 -58 299 -175 415 -110 111 -242 165 -400 165 -162 0 -290 -53 -405 -169 -117 -118 -170 -246 -170 -411 0 -171 51 -290 177 -419 46 -47 86 -96 89 -108 16 -61 -34 -123 -97 -123 -74 0 -217 149 -294 308 -71 144 -96 331 -66 492 75 401 476 691 873 629z m-35 -690 c41 -35 43 -53 43 -434 0 -402 -2 -414 -59 -448 -36 -21 -73 -22 -111 -2 -59 31 -60 38 -60 448 0 373 0 374 23 408 37 55 115 68 164 28z"/>
 </g>

</svg>