<?xml version="1.0" encoding="UTF-8"?>
<!DOCTYPE svg PUBLIC "-//W3C//DTD SVG 1.1//EN" "http://www.w3.org/Graphics/SVG/1.1/DTD/svg11.dtd">
<svg xmlns="http://www.w3.org/2000/svg" xmlns:xlink="http://www.w3.org/1999/xlink" version="1.1" width="433px" height="440px" viewBox="-0.5 -0.5 433 440"><defs/><g><g><rect x="0" y="0" width="59" height="49" fill="none" stroke="none" pointer-events="all"/><path d="M 47.73 26.25 C 48.47 26.55 48.9 27.16 48.8 27.9 L 47.7 32.43 C 47.43 33.03 46.99 33.39 46.23 33.32 L 40.92 32.12 C 39.89 34.13 38.51 35.98 36.89 37.67 L 39.64 42.22 C 40.08 42.95 39.78 43.67 39.35 43.98 L 34.89 46.77 C 34.26 46.98 33.68 47.03 33.27 46.26 L 30.44 41.6 C 28.69 42.41 26.44 42.91 24.01 42.68 L 22.8 47.93 C 22.57 48.49 22.27 49 21.35 48.93 L 16.36 47.74 C 15.62 47.38 15.23 46.84 15.52 45.97 L 17.02 41.19 C 14.82 40.01 12.94 38.71 11.37 37.24 L 6.92 39.96 C 6.21 40.36 5.58 40.27 5.02 39.65 L 2.39 35.39 C 2.09 34.82 2.13 34.09 2.78 33.62 L 7.38 30.69 C 6.83 28.57 6.47 26.43 6.32 24.25 L 6.32 24.25 L 1.15 23.02 C 0.39 22.74 0 22.23 0.15 21.37 L 1.28 16.67 C 1.58 15.94 2.04 15.47 2.92 15.67 L 7.81 17.22 C 8.99 15.28 10.29 13.33 11.8 11.57 L 9.05 7.03 C 8.8 6.48 8.65 5.91 9.41 5.24 L 13.64 2.59 C 14.47 2.17 15.01 2.47 15.39 2.93 L 18.22 7.57 C 20.2 6.85 22.2 6.33 24.69 6.64 L 25.92 1.26 C 26.26 0.5 26.81 0.21 27.53 0.35 L 32.13 1.43 L 32.13 14.93 C 29.44 12.78 25.93 11.77 22.59 12.31 C 16.54 13.29 10.92 18.87 12.15 26.51 C 13.37 34.11 20.39 37.81 26.5 36.84 C 32.6 35.85 36.97 30.26 36.82 24.27 Z" fill="#505050" stroke="none" pointer-events="all"/><path d="M 48.56 7.38 C 50.26 7.81 53.29 8.01 55.87 7.27 C 56.9 6.95 57.96 6.42 57.96 5.64 C 57.96 4.85 56.7 4.29 55.85 4.05 C 53.64 3.44 50.82 3.42 48.56 3.97 Z M 48.56 11.55 C 50.87 12.12 53.8 12.08 55.97 11.42 C 56.95 11.11 57.96 10.53 57.96 9.89 L 57.96 6.96 C 57.6 7.72 56.63 8.08 56.05 8.28 C 53.88 8.95 50.66 8.99 48.56 8.39 Z M 48.56 15.73 C 50.67 16.27 53.64 16.28 55.91 15.62 C 56.86 15.33 57.96 14.75 57.96 14.05 L 57.96 11.13 C 57.66 11.86 56.68 12.27 55.79 12.54 C 53.52 13.13 50.58 13.14 48.56 12.56 Z M 48.56 19.91 C 50.26 20.37 53.49 20.52 55.91 19.8 C 56.69 19.56 57.96 19.01 57.96 18.21 L 57.96 15.24 C 57.73 16.06 56.56 16.47 55.9 16.68 C 53.5 17.37 50.47 17.27 48.56 16.75 Z M 40.22 13 L 41.1 9.7 L 42.01 12.97 Z M 37.6 16.38 L 39.37 16.64 L 39.77 14.73 L 42.38 14.73 L 42.89 16.78 L 44.85 16.92 L 42.07 7.5 L 40.11 7.59 Z M 34.39 21.65 L 34.39 2.24 L 48.56 0 L 48.56 2.92 C 51.11 2.34 54.62 2.39 56.95 3.34 C 57.78 3.69 59 4.42 59 5.63 L 59 18.25 C 59 19.48 57.81 20.24 56.77 20.62 C 54.26 21.56 50.78 21.48 48.56 20.97 L 48.56 23.89 Z" fill="#b92025" stroke="none" pointer-events="all"/></g><g><rect x="100" y="2" width="56" height="49" fill="none" stroke="none" pointer-events="all"/><path d="M 137.21 6.49 L 139.44 6.49 L 139.44 4.24 L 137.21 4.24 Z M 141.67 6.49 L 143.91 6.49 L 143.91 4.24 L 141.67 4.24 Z M 129.67 42.37 L 102.93 42.37 C 101.57 42.37 100 41.23 100 39.38 L 100 5.02 C 100 3.03 101.74 2 102.82 2 L 147.68 2 C 149.27 2 150.6 3.41 150.6 4.94 L 150.6 20.73 C 150.32 20.92 150.19 21.15 148.37 22.93 L 148.37 9.48 L 102.23 9.48 L 102.23 39.37 C 102.23 39.71 102.38 40.13 103.07 40.13 L 131.33 40.13 L 130.6 40.87 Z M 135.03 36.39 L 132 36.39 L 132 30.41 L 135.72 30.41 L 135.72 25.92 L 126.05 25.92 L 126.05 30.41 L 129.77 30.41 L 129.77 36.39 L 120.84 36.39 L 120.84 30.41 L 124.56 30.41 L 124.56 25.92 L 114.88 25.92 L 114.88 30.41 L 118.6 30.41 L 118.6 36.39 L 109.67 36.39 L 109.67 30.41 L 113.39 30.41 L 113.39 24.43 L 124.56 24.43 L 124.56 19.94 L 120.09 19.94 L 120.09 13.21 L 130.51 13.21 L 130.51 19.94 L 126.05 19.94 L 126.05 24.43 L 137.21 24.43 L 137.21 30.41 L 140.97 30.41 Z M 135.89 45.88 L 127.97 50.77 C 127.58 51 127.21 50.56 127.41 50.24 L 132.37 42.3 L 151.87 22.55 C 152.34 22.09 153.11 22.06 153.55 22.45 L 155.53 24.45 C 156 24.94 155.84 25.66 155.45 26.13 Z M 134.54 45.66 L 132.52 43.63 L 129.92 47.82 L 130.37 48.28 Z M 142.49 42.37 L 144.71 40.13 L 147.66 40.13 C 148.13 40.12 148.38 39.77 148.37 39.38 L 148.37 36.42 L 150.6 34.17 L 150.6 39.42 C 150.6 40.91 149.35 42.37 147.64 42.37 Z M 146.14 6.49 L 148.37 6.49 L 148.37 4.24 L 146.14 4.24 Z" fill="#505050" stroke="none" pointer-events="all"/></g><g><rect x="200" y="2" width="34" height="51" fill="none" stroke="none" pointer-events="all"/><path d="M 223.42 47.74 L 234 47.74 L 234 51.5 L 223.42 51.5 Z M 215.11 44.72 L 215.11 40.21 L 218.89 40.21 L 218.89 44.72 Z M 212.09 53 L 212.09 46.23 L 221.9 46.23 L 221.9 53 Z M 200 51.5 L 200 47.74 L 210.58 47.74 L 210.58 51.5 Z M 217.1 20.2 C 212.67 20.2 208.91 16.35 208.91 10.71 C 208.91 6.93 211.99 2 217.18 2 C 221.7 2 225.39 6.06 225.39 11.14 C 225.39 16.16 221.66 20.2 217.1 20.2 Z M 200.3 38.48 C 200.53 35.5 200.93 31.56 201.62 28.18 C 201.99 26 202.79 24.42 204 23.47 C 204.45 23.02 207.54 21.24 208.14 20.99 C 208.76 20.7 209.39 20.59 209.99 20.98 C 214.84 25.11 220.36 24.36 224.31 21.05 C 224.73 20.74 225.27 20.77 225.69 20.9 C 226.64 21.23 229.82 23.11 230.07 23.36 C 231.34 24.21 231.99 25.52 232.39 27.01 C 233.27 30.18 233.7 34.7 233.99 38.48 Z" fill="#505050" stroke="none" pointer-events="all"/></g><g><rect x="270" y="0" width="60" height="49" fill="none" stroke="none" pointer-events="all"/><path d="M 317.95 26.22 C 318.69 26.53 319.12 27.15 319.02 27.89 L 317.91 32.41 C 317.64 33.02 317.2 33.38 316.45 33.31 L 311.11 32.1 C 310.07 34.11 308.68 35.97 307.06 37.66 L 309.82 42.21 C 310.26 42.94 309.96 43.66 309.53 43.98 L 305.05 46.76 C 304.42 46.98 303.83 47.02 303.42 46.26 L 300.58 41.59 C 298.83 42.41 296.56 42.9 294.12 42.68 L 292.9 47.92 C 292.67 48.49 292.37 49 291.44 48.93 L 286.43 47.73 C 285.69 47.37 285.3 46.84 285.59 45.97 L 287.1 41.18 C 284.89 40.01 282.99 38.69 281.43 37.23 L 276.95 39.95 C 276.24 40.36 275.6 40.27 275.04 39.64 L 272.4 35.38 C 272.1 34.81 272.14 34.07 272.8 33.61 L 277.41 30.66 C 276.86 28.55 276.5 26.4 276.35 24.22 L 276.35 24.22 L 271.16 23 C 270.39 22.72 270 22.21 270.15 21.35 L 271.29 16.64 C 271.59 15.92 272.05 15.45 272.94 15.64 L 277.85 17.19 C 279.03 15.25 280.34 13.3 281.86 11.53 L 279.09 6.99 C 278.84 6.44 278.69 5.89 279.45 5.2 L 283.7 2.55 C 284.53 2.14 285.08 2.44 285.46 2.9 L 288.31 7.55 C 290.3 6.81 292.3 6.29 294.8 6.61 L 296.04 1.23 C 296.38 0.46 296.93 0.18 297.66 0.32 L 302.28 1.4 L 302.28 14.9 C 299.58 12.76 296.05 11.74 292.69 12.28 C 286.62 13.26 280.97 18.85 282.21 26.48 C 283.43 34.1 290.49 37.81 296.62 36.82 C 302.75 35.83 307.14 30.24 306.99 24.24 Z" fill="#505050" stroke="none" pointer-events="all"/><path d="M 322.5 7.48 L 322.5 5.24 L 326.99 5.24 L 326.99 7.48 Z M 322.5 10.47 L 322.5 8.23 L 326.99 8.23 L 326.99 10.47 Z M 322.5 13.46 L 322.5 11.21 L 326.99 11.21 L 326.99 13.46 Z M 322.5 16.44 L 322.5 14.2 L 326.99 14.2 L 326.99 16.44 Z M 322.5 19.42 L 322.5 17.19 L 326.99 17.19 L 326.99 19.42 Z M 318.76 21.29 L 328.88 21.29 L 328.88 3.36 L 318.76 3.36 L 318.76 5.24 L 321.76 5.24 L 321.76 7.48 L 318.76 7.48 L 318.76 8.23 L 321.76 8.23 L 321.76 10.47 L 318.76 10.47 L 318.76 11.21 L 321.76 11.21 L 321.76 13.46 L 318.76 13.46 L 318.76 14.2 L 321.76 14.2 L 321.76 16.44 L 318.76 16.44 L 318.76 17.19 L 321.76 17.19 L 321.76 19.42 L 318.76 19.42 Z M 304.53 21.66 L 304.53 2.24 L 318.76 0 L 318.76 2.25 L 328.88 2.25 C 329.57 2.25 330 2.84 330 3.35 L 330 21.32 C 330 21.77 329.57 22.41 328.89 22.41 L 318.76 22.42 L 318.76 23.9 Z M 307.83 16.58 L 309.7 16.73 L 311.14 13.44 L 312.55 16.81 L 314.65 16.96 L 312.25 12.1 L 314.8 7.32 L 312.85 7.47 L 311.34 11.02 L 309.99 7.62 L 308.06 7.77 L 310.07 12.18 Z" fill="#02723b" stroke="none" pointer-events="all"/></g><g><rect x="370" y="0" width="58" height="50" fill="none" stroke="none" pointer-events="all"/><path d="M 407.47 4.47 L 409.72 4.47 L 409.72 2.24 L 407.47 2.24 Z M 411.96 4.47 L 414.21 4.47 L 414.21 2.24 L 411.96 2.24 Z M 372.99 40.23 C 371.38 40.23 370 38.9 370 37.28 L 370 2.97 C 370 1.28 371.41 0 373 0 L 417.95 0 C 419.56 0 420.96 1.3 420.96 2.96 L 420.96 29.93 C 419.99 30.06 419.29 30.41 418.71 30.78 L 418.71 7.45 L 372.25 7.45 L 372.25 37.23 C 372.25 37.85 372.72 38 372.96 38 L 393.63 38 C 392.54 38.59 391.79 39.29 391.34 40.23 Z M 379.74 28.31 L 383.49 28.31 L 383.49 22.35 L 394.73 22.35 L 394.73 17.88 L 390.23 17.88 L 390.23 11.18 L 400.72 11.18 L 400.72 17.88 L 396.23 17.88 L 396.23 22.35 L 407.47 22.35 L 407.47 24.93 C 406.9 25.31 406.38 25.88 405.97 26.54 L 405.97 23.84 L 396.23 23.84 L 396.23 28.31 L 399.97 28.31 L 399.97 30 C 398.57 29.8 397.23 30.14 395.98 31.05 C 395.07 31.74 394.23 32.83 393.82 34.27 L 390.98 34.27 L 390.98 28.31 L 394.73 28.31 L 394.73 23.84 L 384.99 23.84 L 384.99 28.31 L 388.73 28.31 L 388.73 34.27 L 379.74 34.27 Z M 392.86 46.26 C 392.95 45.18 393.06 44.1 393.23 43.05 C 393.34 42.33 393.59 40.98 394.56 40.34 C 394.71 40.24 395.48 39.79 395.86 39.59 C 396.08 39.47 396.44 39.43 396.71 39.59 C 398.19 40.79 400.2 41.12 402.07 39.52 L 397.24 46.26 Z M 399.21 39.27 C 397.76 39.27 396.08 37.96 396.08 35.79 C 396.08 34.18 397.29 32.42 399.32 32.42 C 401.14 32.5 402.39 34.15 402.37 35.89 C 402.37 37.6 401.02 39.27 399.21 39.27 Z M 404.7 37.32 C 404.82 36.58 404.9 35.79 405.12 35.16 C 405.35 34.43 405.79 34.03 406.27 33.76 L 407.2 33.23 C 407.42 33.12 407.75 32.96 408.03 33.19 C 409.43 34.43 411.45 34.63 413.02 33.21 C 413.21 32.99 413.52 33.07 413.82 33.21 C 414.19 33.38 414.62 33.64 415.03 33.87 C 415.6 34.21 415.87 34.74 416.02 35.37 C 416.23 36.11 416.28 36.69 416.39 37.32 Z M 410.48 32.78 C 409.09 32.78 407.62 31.47 407.62 29.51 C 407.62 27.68 409.02 26.23 410.53 26.23 C 412.33 26.23 413.46 27.9 413.46 29.47 C 413.46 31.31 412.21 32.78 410.48 32.78 Z M 397.48 50 C 397.1 50 396.83 49.5 396.99 49.24 L 404.09 39.42 C 404.44 38.92 404.68 38.82 405.04 38.82 L 416.08 38.82 C 416.37 38.82 416.6 38.99 416.77 39.19 L 425.16 49.18 C 425.47 49.54 425.03 50 424.74 50 Z M 424.54 46.26 L 418.78 39.49 C 418.85 39.49 418.96 39.52 419.09 39.56 C 420.62 40.83 422.65 41.07 424.34 39.61 C 424.54 39.41 424.82 39.48 425.02 39.57 L 426.37 40.32 C 426.94 40.65 427.26 41.15 427.43 41.76 C 427.84 43.24 427.95 44.92 428 46.26 Z M 421.61 39.26 C 420.07 39.21 418.55 37.83 418.56 35.76 C 418.57 34.21 419.77 32.38 421.83 32.41 C 423.5 32.49 424.94 34.09 424.84 35.98 C 424.79 37.33 423.66 39.33 421.61 39.26 Z M 416.46 4.47 L 418.71 4.47 L 418.71 2.24 L 416.46 2.24 Z" fill="#505050" stroke="none" pointer-events="all"/></g><g><rect x="1" y="91" width="58" height="49" fill="none" stroke="none" pointer-events="all"/><path d="M 38.66 95.52 L 40.92 95.52 L 40.92 93.26 L 38.66 93.26 Z M 43.18 95.52 L 45.44 95.52 L 45.44 93.26 L 43.18 93.26 Z M 3.93 131.71 C 2.45 131.71 1 130.4 1 128.74 L 1 93.92 C 1 92.33 2.44 91 3.91 91 L 49.33 91 C 50.7 91 52.22 92.27 52.22 93.93 L 52.22 111.96 C 51.61 111.2 50.81 110.42 49.96 109.92 L 49.96 98.54 L 3.26 98.54 L 3.26 128.74 C 3.26 129.1 3.55 129.45 3.96 129.45 L 31.61 129.45 C 31.37 130.18 31.13 130.97 31.02 131.71 Z M 32.42 140 C 32.65 136.73 32.98 132.95 33.87 130.11 C 34.27 128.97 34.92 128.24 35.81 127.7 C 36.74 127.16 37.68 126.61 38.38 126.27 C 38.93 125.98 39.58 125.82 40.07 126.18 C 43.03 128.97 48.05 129.07 51.18 126.18 C 51.63 125.89 52.14 125.94 52.65 126.17 C 53.3 126.47 55.48 127.68 55.73 127.91 C 56.95 128.75 57.48 130.15 57.87 131.95 L 59 140 Z M 45.78 125.45 C 41.78 125.45 39.04 122.36 39.04 117.86 C 39.04 114.24 42.09 110.97 45.45 110.97 C 49.47 110.97 51.99 114.59 51.99 118.16 C 51.99 123 48.35 125.45 45.78 125.45 Z M 33.39 125.68 L 33.39 119.65 L 36.95 119.65 C 37.2 121.29 37.81 122.63 38.51 123.72 C 37.69 123.83 35.56 125.07 34.58 125.68 Z M 31.13 125.68 L 22.09 125.68 L 22.09 119.65 L 25.86 119.65 L 25.86 115.12 L 16.06 115.12 L 16.06 119.65 L 19.83 119.65 L 19.83 125.68 L 10.79 125.68 L 10.79 119.65 L 14.56 119.65 L 14.56 113.62 L 25.86 113.62 L 25.86 109.09 L 21.34 109.08 L 21.34 102.31 L 31.88 102.31 L 31.88 109.09 L 27.36 109.09 L 27.36 113.62 L 37.9 113.62 C 37.67 114.09 37.46 114.59 37.3 115.11 L 27.36 115.11 L 27.36 119.65 L 31.13 119.65 Z M 47.7 95.52 L 49.96 95.52 L 49.96 93.26 L 47.7 93.26 Z" fill="#505050" stroke="none" pointer-events="all"/></g><g><rect x="97" y="91" width="59" height="49" fill="none" stroke="none" pointer-events="all"/><path d="M 129.2 105.94 C 126.55 103.81 122.96 102.68 119.45 103.23 C 112.43 104.33 108.09 111.09 109.04 117.29 C 109.98 123.36 115.52 129.02 123.14 127.84 C 129.91 126.78 133.62 121.08 133.67 115.5 L 144.57 117.28 C 145.13 117.52 145.63 117.82 145.56 118.75 L 144.34 123.74 C 143.97 124.48 143.44 124.87 142.58 124.57 L 137.82 123.03 C 136.63 125.24 135.31 127.13 133.84 128.67 L 136.53 133.15 C 136.92 133.87 136.83 134.51 136.21 135.06 L 131.95 137.68 C 131.37 137.98 130.65 137.94 130.18 137.28 L 127.28 132.65 C 125.17 133.19 123.03 133.54 120.85 133.67 L 120.85 133.67 L 119.6 138.85 C 119.32 139.61 118.81 140 117.95 139.85 L 113.27 138.68 C 112.54 138.37 112.08 137.92 112.28 137.03 L 113.85 132.13 C 111.92 130.95 109.98 129.63 108.24 128.1 L 103.7 130.84 C 103.14 131.08 102.59 131.23 101.91 130.48 L 99.29 126.21 C 98.89 125.38 99.18 124.83 99.65 124.45 L 104.3 121.64 C 103.58 119.65 103.07 117.65 103.4 115.16 L 98.05 113.89 C 97.28 113.55 97 113 97.15 112.27 L 98.36 107.43 C 98.71 106.61 99.25 106.45 99.88 106.53 L 105.16 107.79 C 106.3 105.79 107.55 103.92 109.05 102.34 L 106.32 97.76 C 105.94 96.91 106.19 96.34 106.8 95.91 L 111.02 93.3 C 111.65 93.07 112.24 93.12 112.71 93.73 L 115.48 98.39 C 117.38 97.85 119.81 97.5 121.97 97.38 L 123.21 92.11 C 123.51 91.37 124.01 91 124.74 91.1 L 129.2 92.24 Z" fill="#505050" stroke="none" pointer-events="all"/><path d="M 147.81 100.94 L 147.81 96.45 C 150.36 96.45 152.27 98.55 152.27 100.94 Z M 145.58 111.79 L 154.51 111.79 C 154.75 111.79 154.89 111.64 154.89 111.39 L 154.89 94.97 C 154.89 94.76 154.76 94.59 154.52 94.59 L 145.58 94.59 L 145.58 97.46 C 146.09 97.27 146.58 97.2 147.07 97.2 L 147.07 101.69 L 151.53 101.69 C 151.53 103.45 150.51 104.81 149.39 105.52 C 147.94 106.38 146.56 106.25 145.58 105.91 L 145.58 108.42 L 152.28 108.42 L 152.28 109.54 L 145.58 109.54 Z M 137.94 102.88 L 137.94 100.07 C 138.27 100.01 138.68 99.9 139.12 99.99 C 139.48 100.08 139.74 100.38 139.84 100.77 C 139.95 101.25 139.95 101.76 139.83 102.12 C 139.71 102.46 139.48 102.73 139.09 102.88 C 138.7 103.02 138.3 102.96 137.94 102.88 Z M 136.2 107.91 L 137.94 108.12 L 137.94 104.68 C 138.4 104.73 138.81 104.76 139.28 104.68 C 140.37 104.51 141.11 103.76 141.49 102.75 C 141.76 102.04 141.83 100.62 141.29 99.61 C 140.91 98.74 140.33 98.3 138.89 98.33 L 136.2 98.49 Z M 131.43 112.9 L 131.43 93.46 L 145.58 91.22 L 145.58 93.46 L 154.49 93.46 C 155.45 93.46 156 94.26 156 94.94 L 156 111.36 C 156 112.43 155.14 112.9 154.53 112.9 L 145.58 112.9 L 145.58 115.15 Z" fill="#dc5b26" stroke="none" pointer-events="all"/></g><g><rect x="190" y="96" width="57" height="48" fill="none" stroke="none" pointer-events="all"/><path d="M 247 134.24 L 242.5 129.75 L 242.5 132.41 C 242.5 137.99 238.06 144 230.81 144 C 225.7 144 219.25 140.02 219.25 132.2 C 219.25 126.66 223.82 120.82 230.66 120.82 C 233.76 120.8 236.51 121.89 238.6 123.75 L 236.5 125.85 C 235.22 124.77 233.38 123.74 230.74 123.74 C 226.57 123.74 222.25 127.31 222.25 132.31 C 222.25 137.11 226.15 141 230.85 141 C 235.6 141 239.5 137.06 239.5 132.57 L 239.5 129.74 L 235 134.24 L 235 130.5 L 241 124.5 L 247 130.5 Z M 236.5 100.5 L 238.75 100.5 L 238.75 98.25 L 236.5 98.25 Z M 217.13 130.5 L 211 130.5 L 211 124.5 L 214.75 124.5 L 214.75 120 L 205 120 L 205 124.5 L 208.75 124.5 L 208.75 130.5 L 199.75 130.5 L 199.75 124.5 L 203.5 124.5 L 203.5 118.5 L 214.75 118.5 L 214.75 114 L 210.25 113.99 L 210.25 107.25 L 220.75 107.25 L 220.75 114 L 216.25 114 L 216.25 118.5 L 227.5 118.5 L 227.5 118.96 C 226.53 119.19 225.54 119.55 224.67 119.99 L 216.25 119.99 L 216.25 124.5 L 219.45 124.5 C 218.38 126.05 217.45 128.04 217.13 130.5 Z M 192.92 136.5 C 191.44 136.5 190 135.2 190 133.55 L 190 98.91 C 190 97.32 191.43 96 192.9 96 L 238.12 96 C 239.49 96 241 97.26 241 98.92 L 241 121.35 L 240.18 122.18 C 239.79 121.8 239.31 121.43 238.75 121.05 L 238.75 103.5 L 192.25 103.5 L 192.25 133.55 C 192.25 133.91 192.54 134.25 192.95 134.25 L 217.12 134.25 C 217.23 135.06 217.41 135.82 217.63 136.5 Z M 232 100.5 L 234.25 100.5 L 234.25 98.25 L 232 98.25 Z M 227.5 100.5 L 229.75 100.5 L 229.75 98.25 L 227.5 98.25 Z" fill="#505050" stroke="none" pointer-events="all"/></g><g><rect x="281" y="100" width="52" height="40" fill="none" stroke="none" pointer-events="all"/><path d="M 324.83 132.59 L 315.91 132.59 L 315.91 125.93 L 319.63 125.93 L 319.63 121.48 L 307.74 121.48 L 307.74 125.93 L 311.46 125.93 L 311.46 132.59 L 302.54 132.59 L 302.54 125.93 L 306.26 125.93 L 306.26 121.48 L 294.37 121.48 L 294.37 125.93 L 298.09 125.93 L 298.09 132.59 L 289.17 132.59 L 289.17 125.93 L 292.89 125.93 L 292.89 120 L 306.26 120 L 306.26 115.56 L 301.06 115.56 L 301.06 107.41 L 312.94 107.41 L 312.94 115.56 L 307.74 115.56 L 307.74 120 L 321.11 120 L 321.11 125.93 L 324.83 125.93 Z M 330.06 137.78 C 330.4 137.78 330.77 137.53 330.77 137.07 L 330.77 102.91 C 330.77 102.69 330.61 102.22 330.02 102.22 L 283.93 102.22 C 283.55 102.22 283.23 102.52 283.23 102.95 L 283.23 137.09 C 283.23 137.44 283.51 137.78 283.93 137.78 Z M 283.94 140 C 282.54 140 281 138.84 281 137.03 L 281 102.92 C 281 101.2 282.52 100 283.87 100 L 330.1 100 C 331.51 100 333 101.22 333 102.9 L 333 137.05 C 333 138.8 331.48 140 330.13 140 Z" fill="#505050" stroke="none" pointer-events="all"/></g><g><rect x="372" y="100" width="56" height="50" fill="none" stroke="none" pointer-events="all"/><path d="M 408.51 132.85 C 409.77 130.75 411.98 129.37 414.78 129.47 C 414.88 130.68 415.91 132.13 417.64 132.13 C 419.13 132.13 420.26 130.85 420.26 129.51 C 420.26 127.83 418.99 126.75 417.57 126.75 C 416.87 126.76 416.2 126.99 415.6 127.62 C 411.23 127.05 408.09 129.59 406.72 132.17 C 407.41 132.24 408.06 132.5 408.51 132.85 Z M 413.96 144.93 C 413.68 144.32 413.51 143.65 413.51 142.91 C 411.2 142.63 408.88 140.99 407.99 138.37 C 408.6 137.8 408.98 137.15 408.99 136.22 C 408.99 134.87 407.94 133.55 406.25 133.55 C 404.8 133.55 403.61 134.79 403.61 136.21 C 403.65 137.93 404.96 138.84 406.19 138.96 C 407.54 142.93 411.09 144.79 413.96 144.93 Z M 420.22 142.63 C 423.09 140.17 424.52 135.17 421.35 130.97 C 421.04 131.71 420.59 132.22 420.16 132.61 C 422.15 135.88 420.99 139.07 419.34 140.89 C 418.9 140.55 418.38 140.29 417.67 140.27 C 416.2 140.27 414.89 141.33 414.89 142.96 C 414.89 144.55 416.22 145.65 417.51 145.65 C 419.27 145.65 420.49 144.15 420.22 142.63 Z M 414.23 150 C 407.05 150 400.37 144.59 400.37 135.83 C 400.37 129.8 405.6 122.39 414.15 122.39 C 422.47 122.39 428 129.26 428 136.14 C 428 143.48 422.1 150 414.23 150 Z M 418.29 104.48 L 420.53 104.48 L 420.53 102.24 L 418.29 102.24 Z M 398.25 134.34 L 392.91 134.34 L 392.91 128.36 L 396.64 128.36 L 396.64 123.89 L 386.93 123.89 L 386.93 128.36 L 390.67 128.36 L 390.67 134.34 L 381.71 134.34 L 381.71 128.36 L 385.44 128.36 L 385.44 122.39 L 396.64 122.39 L 396.64 117.91 L 392.16 117.9 L 392.16 111.2 L 402.61 111.2 L 402.61 117.91 L 398.13 117.91 L 398.13 122.39 L 405.96 122.39 C 405.31 122.78 404.62 123.27 403.89 123.88 L 398.13 123.88 L 398.13 128.36 L 400.16 128.36 C 399.1 130.21 398.43 132.38 398.25 134.34 Z M 374.91 140.31 C 373.43 140.31 372 139.01 372 137.37 L 372 102.9 C 372 101.31 373.42 100 374.89 100 L 419.9 100 C 421.27 100 422.77 101.25 422.77 102.91 L 422.77 122.64 C 422.12 122.22 421.39 121.82 420.53 121.45 L 420.53 107.46 L 374.24 107.46 L 374.24 137.37 C 374.24 137.73 374.53 138.07 374.94 138.07 L 398.23 138.07 C 398.32 138.85 398.47 139.62 398.66 140.31 Z M 413.81 104.48 L 416.05 104.48 L 416.05 102.24 L 413.81 102.24 Z M 409.33 104.48 L 411.57 104.48 L 411.57 102.24 L 409.33 102.24 Z" fill="#505050" stroke="none" pointer-events="all"/></g><g><rect x="1" y="190" width="60" height="49" fill="none" stroke="none" pointer-events="all"/><path d="M 51.1 223.4 C 48.45 223.4 46.23 221.02 46.23 218.02 C 46.23 215.14 48.34 212.69 51.16 212.69 C 53.45 212.69 55.93 214.88 55.93 217.98 C 55.93 221.39 53.34 223.42 51.1 223.4 Z M 46.76 234.33 C 46.59 232.94 46.28 231.62 45.75 230.59 C 45.36 229.82 44.78 229.27 44.1 228.83 C 42.68 227.88 42.56 227.78 41.91 227.76 C 42.11 227.1 42.31 226.56 42.54 226.26 C 42.82 225.79 43.25 225.4 43.84 225.08 C 44.49 224.69 45.31 224.21 45.76 224.03 C 46.19 223.86 46.56 223.91 46.86 224.15 C 49.65 226.22 52.41 226.31 55.18 224.13 C 55.39 223.94 55.8 223.86 56.12 223.99 C 56.89 224.3 57.64 224.8 58.39 225.21 C 59.34 225.83 59.69 226.55 59.94 227.31 C 60.44 228.87 60.78 231.31 61 234.33 Z M 36.11 228.23 C 33.64 228.23 31.23 226.07 31.23 222.72 C 31.23 220.49 32.98 217.52 36.19 217.52 C 38.16 217.52 40.89 219.36 40.93 222.85 C 40.93 225.65 38.8 228.23 36.11 228.23 Z M 26 239 C 26.24 236.9 26.47 234.75 26.81 232.97 C 27.16 231.16 27.72 230.45 28.66 229.85 C 29.25 229.52 29.87 229.15 30.38 228.89 C 31.06 228.51 31.47 228.54 31.77 228.76 C 34.55 230.92 37.34 230.99 40.15 228.84 C 40.59 228.5 40.95 228.53 41.61 228.88 C 42.41 229.36 43.42 229.81 43.99 230.35 C 44.57 230.92 44.88 231.68 45.1 232.52 C 45.63 234.97 45.8 237.24 45.78 239 Z M 47.97 194.52 L 50.24 194.52 L 50.24 192.26 L 47.97 192.26 Z M 29.18 224.68 L 22.21 224.68 L 22.21 218.65 L 26 218.65 L 26 214.13 L 16.15 214.13 L 16.15 218.65 L 19.94 218.65 L 19.94 224.68 L 10.85 224.68 L 10.85 218.65 L 14.64 218.65 L 14.64 212.62 L 26 212.62 L 26 208.1 L 21.45 208.09 L 21.45 201.31 L 32.06 201.31 L 32.06 208.1 L 27.52 208.1 L 27.52 212.62 L 38.88 212.62 L 38.88 215.88 C 38.46 215.67 37.97 215.5 37.36 215.38 L 37.36 214.12 L 27.52 214.12 L 27.52 218.65 L 30.14 218.65 C 29.24 220.07 28.58 222.35 29.18 224.68 Z M 3.95 230.72 C 2.45 230.72 1 229.41 1 227.75 L 1 192.93 C 1 191.33 2.44 190 3.93 190 L 49.61 190 C 50.99 190 52.52 191.27 52.52 192.94 L 52.52 210.66 C 51.7 210.47 50.82 210.48 50.24 210.57 L 50.24 197.54 L 3.27 197.54 L 3.27 227.75 C 3.27 228.11 3.57 228.45 3.98 228.45 L 26.9 228.45 C 26.29 228.99 25.74 229.66 25.32 230.72 Z M 43.42 194.52 L 45.7 194.52 L 45.7 192.26 L 43.42 192.26 Z M 38.88 194.52 L 41.15 194.52 L 41.15 192.26 L 38.88 192.26 Z" fill="#505050" stroke="none" pointer-events="all"/></g><g><rect x="100" y="190" width="53" height="40" fill="none" stroke="none" pointer-events="all"/><path d="M 139.56 194.44 L 141.8 194.44 L 141.8 192.22 L 139.56 192.22 Z M 144.04 194.44 L 146.28 194.44 L 146.28 192.22 L 144.04 192.22 Z M 102.94 230 C 101.27 230 100 228.55 100 227.11 L 100 193.04 C 100 191.03 101.67 190 102.91 190 L 150.06 190 C 151.65 190 153 191.33 153 192.96 L 153 227.04 C 153 228.76 151.54 230 150.08 230 Z M 112.69 227.78 L 112.69 197.41 L 102.24 197.41 L 102.24 227.07 C 102.24 227.47 102.54 227.78 102.97 227.78 Z M 114.93 227.78 L 150.02 227.78 C 150.49 227.78 150.76 227.45 150.76 227.06 L 150.76 197.41 L 114.93 197.41 Z M 119.41 224.07 L 119.41 218.15 L 122.39 218.15 L 122.39 212.22 L 132.1 212.22 L 132.1 207.78 L 128.37 207.78 L 128.37 201.11 L 137.32 201.11 L 137.32 207.78 L 133.59 207.78 L 133.59 212.22 L 143.3 212.22 L 143.3 218.15 L 146.28 218.15 L 146.28 224.07 L 138.82 224.07 L 138.82 218.15 L 141.8 218.15 L 141.8 213.7 L 133.59 213.7 L 133.59 218.15 L 136.58 218.15 L 136.58 224.07 L 129.11 224.07 L 129.11 218.15 L 132.1 218.15 L 132.1 213.7 L 123.89 213.7 L 123.89 218.15 L 126.87 218.15 L 126.87 224.07 Z M 148.52 194.44 L 150.76 194.44 L 150.76 192.22 L 148.52 192.22 Z" fill="#505050" stroke="none" pointer-events="all"/></g><g><rect x="190" y="190" width="53" height="40" fill="none" stroke="none" pointer-events="all"/><path d="M 229.56 194.44 L 231.8 194.44 L 231.8 192.22 L 229.56 192.22 Z M 234.04 194.44 L 236.28 194.44 L 236.28 192.22 L 234.04 192.22 Z M 192.94 230 C 191.27 230 190 228.55 190 227.11 L 190 193.04 C 190 191.03 191.67 190 192.91 190 L 240.06 190 C 241.65 190 243 191.33 243 192.96 L 243 227.04 C 243 228.76 241.54 230 240.08 230 Z M 202.69 227.78 L 202.69 197.41 L 192.24 197.41 L 192.24 227.07 C 192.24 227.47 192.54 227.78 192.97 227.78 Z M 204.93 227.78 L 240.02 227.78 C 240.49 227.78 240.76 227.45 240.76 227.06 L 240.76 197.41 L 204.93 197.41 Z M 209.41 224.07 L 209.41 218.15 L 212.39 218.15 L 212.39 212.22 L 222.1 212.22 L 222.1 207.78 L 218.37 207.78 L 218.37 201.11 L 227.32 201.11 L 227.32 207.78 L 223.59 207.78 L 223.59 212.22 L 233.3 212.22 L 233.3 218.15 L 236.28 218.15 L 236.28 224.07 L 228.82 224.07 L 228.82 218.15 L 231.8 218.15 L 231.8 213.7 L 223.59 213.7 L 223.59 218.15 L 226.58 218.15 L 226.58 224.07 L 219.11 224.07 L 219.11 218.15 L 222.1 218.15 L 222.1 213.7 L 213.89 213.7 L 213.89 218.15 L 216.87 218.15 L 216.87 224.07 Z M 238.52 194.44 L 240.76 194.44 L 240.76 192.22 L 238.52 192.22 Z" fill="#2072b8" stroke="none" pointer-events="all"/></g><g><rect x="280" y="190" width="53" height="40" fill="none" stroke="none" pointer-events="all"/><path d="M 319.56 194.44 L 321.8 194.44 L 321.8 192.22 L 319.56 192.22 Z M 324.04 194.44 L 326.28 194.44 L 326.28 192.22 L 324.04 192.22 Z M 282.94 230 C 281.27 230 280 228.55 280 227.11 L 280 193.04 C 280 191.03 281.67 190 282.91 190 L 330.06 190 C 331.65 190 333 191.33 333 192.96 L 333 227.04 C 333 228.76 331.54 230 330.08 230 Z M 292.69 227.78 L 292.69 197.41 L 282.24 197.41 L 282.24 227.07 C 282.24 227.47 282.54 227.78 282.97 227.78 Z M 294.93 227.78 L 330.02 227.78 C 330.49 227.78 330.76 227.45 330.76 227.06 L 330.76 197.41 L 294.93 197.41 Z M 299.41 224.07 L 299.41 218.15 L 302.39 218.15 L 302.39 212.22 L 312.1 212.22 L 312.1 207.78 L 308.37 207.78 L 308.37 201.11 L 317.32 201.11 L 317.32 207.78 L 313.59 207.78 L 313.59 212.22 L 323.3 212.22 L 323.3 218.15 L 326.28 218.15 L 326.28 224.07 L 318.82 224.07 L 318.82 218.15 L 321.8 218.15 L 321.8 213.7 L 313.59 213.7 L 313.59 218.15 L 316.58 218.15 L 316.58 224.07 L 309.11 224.07 L 309.11 218.15 L 312.1 218.15 L 312.1 213.7 L 303.89 213.7 L 303.89 218.15 L 306.87 218.15 L 306.87 224.07 Z M 328.52 194.44 L 330.76 194.44 L 330.76 192.22 L 328.52 192.22 Z" fill="#da4026" stroke="none" pointer-events="all"/></g><g><rect x="375" y="190" width="53" height="40" fill="none" stroke="none" pointer-events="all"/><path d="M 414.56 194.44 L 416.8 194.44 L 416.8 192.22 L 414.56 192.22 Z M 419.04 194.44 L 421.28 194.44 L 421.28 192.22 L 419.04 192.22 Z M 377.94 230 C 376.27 230 375 228.55 375 227.11 L 375 193.04 C 375 191.03 376.67 190 377.91 190 L 425.06 190 C 426.65 190 428 191.33 428 192.96 L 428 227.04 C 428 228.76 426.54 230 425.08 230 Z M 387.69 227.78 L 387.69 197.41 L 377.24 197.41 L 377.24 227.07 C 377.24 227.47 377.54 227.78 377.97 227.78 Z M 389.93 227.78 L 425.02 227.78 C 425.49 227.78 425.76 227.45 425.76 227.06 L 425.76 197.41 L 389.93 197.41 Z M 394.41 224.07 L 394.41 218.15 L 397.39 218.15 L 397.39 212.22 L 407.1 212.22 L 407.1 207.78 L 403.37 207.78 L 403.37 201.11 L 412.32 201.11 L 412.32 207.78 L 408.59 207.78 L 408.59 212.22 L 418.3 212.22 L 418.3 218.15 L 421.28 218.15 L 421.28 224.07 L 413.82 224.07 L 413.82 218.15 L 416.8 218.15 L 416.8 213.7 L 408.59 213.7 L 408.59 218.15 L 411.58 218.15 L 411.58 224.07 L 404.11 224.07 L 404.11 218.15 L 407.1 218.15 L 407.1 213.7 L 398.89 213.7 L 398.89 218.15 L 401.87 218.15 L 401.87 224.07 Z M 423.52 194.44 L 425.76 194.44 L 425.76 192.22 L 423.52 192.22 Z" fill="#7fba42" stroke="none" pointer-events="all"/></g><g><rect x="375" y="282" width="58" height="48" fill="none" stroke="none" pointer-events="all"/><path d="M 412.18 286.5 L 414.41 286.5 L 414.41 284.25 L 412.18 284.25 Z M 416.64 286.5 L 418.87 286.5 L 418.87 284.25 L 416.64 284.25 Z M 377.89 322.5 C 376.39 322.5 375 321.16 375 319.54 L 375 284.99 C 375 283.12 376.64 282 377.87 282 L 422.64 282 C 424.03 282 425.56 283.17 425.56 284.97 L 425.56 302.25 L 423.33 302.25 L 423.33 289.5 L 377.23 289.5 L 377.23 319.54 C 377.23 320.01 377.64 320.25 377.92 320.25 L 405.49 320.25 L 405.49 322.5 Z M 384.67 316.5 L 384.67 310.5 L 388.38 310.5 L 388.38 304.5 L 399.54 304.5 L 399.54 300 L 395.08 300 L 395.08 293.25 L 405.49 293.25 L 405.49 300 L 401.03 300 L 401.03 304.5 L 406.09 304.5 C 405.84 304.94 405.65 305.43 405.56 305.99 L 401.03 305.99 L 401.03 310.5 L 404.74 310.5 L 404.74 316.5 L 395.82 316.5 L 395.82 310.5 L 399.54 310.5 L 399.54 305.99 L 389.87 305.99 L 389.87 310.5 L 393.59 310.5 L 393.59 316.5 Z M 421.1 286.5 L 423.33 286.5 L 423.33 284.25 L 421.1 284.25 Z M 409.88 330 C 408.86 330 407.72 329.18 407.72 327.72 L 407.72 306.69 C 407.72 305.54 408.67 304.5 409.91 304.5 L 430.8 304.5 C 431.79 304.5 433 305.24 433 306.82 L 433 327.77 C 433 329.22 431.79 330 430.85 330 Z M 419.64 324.71 C 418.25 324.59 416.92 324.03 415.9 323.24 C 415.57 322.84 415.22 322.48 414.85 322.27 C 414.72 322.13 414.58 321.95 414.44 321.78 C 414.25 321.24 413.97 320.61 413.92 320.21 C 413.86 319.84 413.91 319.6 414.23 319.41 C 414.65 319.18 415.2 319 415.76 318.82 C 415.62 318.57 415.25 318.24 414.94 317.94 C 414.47 317.49 414.02 317.05 413.69 316.66 C 413.43 316.37 413.22 316.11 413.1 315.54 C 413.82 312.52 415.9 310.94 417.62 310.25 C 418.03 310.48 418.26 310.89 418.36 311.26 C 418.43 311.53 418.5 311.56 418.83 311.55 C 419.02 311.53 419.62 310.85 419.92 310.72 C 420.28 310.52 420.66 310.53 420.91 310.72 C 421.33 310.98 421.38 311.34 421.44 311.71 C 421.46 312.09 421.43 312.57 421.24 312.93 C 421.16 313.06 421.13 313.06 420.97 313.05 C 420.53 313.08 420.16 313.14 419.77 313.6 C 419.53 313.9 419.37 314.03 418.87 314.02 C 418.73 314.03 418.61 314.14 418.53 314.23 C 418.2 314.6 417.93 315.19 417.79 315.79 C 417.74 315.97 417.75 316.18 417.85 316.42 C 417.97 316.78 418.26 317.38 418.12 317.39 C 417.7 317.23 417.35 317 417.18 316.79 C 417 316.59 416.86 316.37 416.87 316.06 C 416.62 315.81 416.31 315.7 415.95 315.77 C 415.62 315.83 415.41 316.01 415.48 316.48 C 415.6 316.98 416.1 317.52 416.54 317.95 C 416.91 318.3 417.29 318.64 417.68 318.97 C 417.78 318.97 417.86 319.04 418.04 319.06 C 418.48 319.04 419.14 319 419.53 318.98 C 419.91 318.98 420.33 318.96 420.6 319.05 C 420.82 319.12 420.83 319.26 420.81 319.35 C 421.5 320.07 421.21 321.22 420.66 321.97 C 420.4 322.37 420.25 322.82 420.14 323.29 C 420.01 323.87 419.89 324.39 419.64 324.71 Z M 426.57 321.36 C 426.09 321.31 425.19 319.75 425.12 318.75 C 424.62 318.65 423.4 318.27 422.68 317.67 C 422.33 317.4 422.3 317.01 422.42 316.45 C 422.61 315.75 423.24 315.02 424.1 314.36 C 424.48 314.06 425.16 313.6 425.23 313.47 C 425.32 313.39 425.25 313.35 425.03 313.35 C 424.71 313.36 424.37 313.36 424.14 313.33 C 423.42 313.24 423.16 312.93 423.36 312.37 C 423.58 311.76 424.06 311.22 424.45 310.99 C 425.74 311.85 427.32 313.52 427.74 316.26 C 427.98 318.37 427.43 320.04 426.57 321.36 Z M 420.33 325.5 C 424.82 325.5 428.54 321.79 428.54 317.27 C 428.54 312.44 424.63 309 420.45 309 C 415.91 309 412.18 312.6 412.18 317.22 C 412.18 322.08 416.04 325.5 420.33 325.5 Z" fill="#505050" stroke="none" pointer-events="all"/></g><g><rect x="280" y="275.5" width="59" height="49" fill="none" stroke="none" pointer-events="all"/><path d="M 329.78 297.26 C 331.64 297.93 333 298.91 334.15 300.01 C 333.5 300.39 332.81 300.73 332 301.05 C 331.19 299.12 330.47 298.08 329.78 297.26 Z M 332.59 302.46 C 333.57 302.05 334.49 301.6 335.35 301.06 C 337.34 303.33 337.79 304.86 338.31 306.3 C 336.91 307.26 335.43 308.09 333.79 308.59 C 333.61 306.73 333.35 304.8 332.59 302.46 Z M 333.81 310.04 C 335.69 309.49 337.28 308.74 338.59 307.83 C 339 310.39 338.82 311.93 338.54 313.29 C 336.42 314.87 334.75 315.56 333.12 316.17 C 333.34 314.87 333.56 315.47 333.81 310.04 Z M 332.64 317.98 C 334.15 317.51 335.66 317 337.88 315.59 C 335.92 320.24 332.55 322.64 329.59 323.66 C 330.67 322.46 331.72 320.98 332.64 317.98 Z M 330.88 318.44 C 329.43 322.28 327.34 324.02 325.54 324.43 L 325.54 319.15 C 327.39 319.11 329.18 318.88 330.88 318.44 Z M 325.53 317.72 L 325.53 311.58 C 327.34 311.63 329.72 311.22 332.29 310.65 C 332.3 313.25 331.91 315.08 331.49 316.85 C 329.09 317.49 327.25 317.66 325.53 317.72 Z M 325.62 310.04 L 325.62 303.81 C 327.51 303.71 329.38 303.45 331.18 302.92 C 331.79 304.71 332.13 306.85 332.37 309.07 C 330.29 309.67 328.02 309.95 325.62 310.04 Z M 325.47 296.39 L 326.05 296.39 C 327.39 296.83 328.34 297.89 328.88 298.57 C 329.7 299.6 330.15 300.56 330.58 301.5 C 329.21 301.89 327.61 302.24 325.46 302.32 Z M 324.05 302.39 C 322.35 302.32 320.67 302.04 319.02 301.57 C 319.57 300.21 320.29 298.97 321.27 297.92 C 321.86 297.32 322.52 296.78 323.46 296.46 L 324.05 296.46 Z M 324.13 310.05 C 321.58 309.95 319.34 309.62 317.37 309.07 C 317.5 307.28 317.55 305.59 318.56 302.92 C 320.77 303.61 323.34 303.82 324.14 303.8 Z M 324.05 311.52 L 324.06 317.66 C 322.1 317.72 320.15 317.39 318.18 316.88 C 317.57 314.7 317.3 312.6 317.31 310.58 C 319.52 311.18 321.78 311.47 324.05 311.52 Z M 324.05 319.23 L 324.05 324.5 C 323 324.27 322.12 323.71 321.36 322.93 C 320.13 321.68 319.31 320.16 318.7 318.65 C 320.48 319 322.25 319.27 324.05 319.23 Z M 316.98 318.1 C 317.98 321.17 319.05 322.47 320.12 323.7 C 315.44 321.94 313.16 318.73 311.89 316 C 313.56 316.86 315.21 317.72 316.98 318.1 Z M 311.12 313.73 C 310.66 312.06 310.53 310.13 310.92 307.82 C 312.27 308.65 313.79 309.45 315.8 310.12 C 315.79 312.37 316.02 314.45 316.47 316.33 C 315 315.92 313.32 315.19 311.12 313.73 Z M 311.36 306.32 C 311.98 304.26 313 302.54 314.34 301.06 C 315.3 301.72 316.18 302.05 317.08 302.46 C 316.34 304.49 316.01 306.74 315.89 308.61 C 314.46 308.11 313.03 307.57 311.36 306.32 Z M 315.36 299.95 C 316.89 298.66 318.37 297.81 319.83 297.26 C 319.09 298.13 318.32 299.26 317.53 300.98 C 316.71 300.64 315.98 300.29 315.36 299.95 Z M 328.4 294.52 L 328.4 282.93 L 282.23 282.93 L 282.23 312.72 C 282.23 313.21 282.62 313.45 282.95 313.45 L 308.56 313.45 C 308.74 314.4 308.94 315.04 309.15 315.68 L 282.87 315.68 C 281.33 315.68 280 314.25 280 312.81 L 280 278.48 C 280 276.5 281.74 275.5 282.83 275.5 L 327.58 275.5 C 329.3 275.5 330.63 276.79 330.63 278.53 L 330.63 295.21 C 329.95 294.95 329.19 294.68 328.4 294.52 Z M 328.4 279.96 L 328.4 277.72 L 326.16 277.72 L 326.16 279.96 Z M 300.85 309.72 L 300.85 303.77 L 304.57 303.77 L 304.57 299.31 L 294.89 299.31 L 294.89 303.77 L 298.61 303.77 L 298.61 309.72 L 289.68 309.72 L 289.68 303.77 L 293.4 303.77 L 293.4 297.82 L 304.57 297.82 L 304.57 293.34 L 300.11 293.34 L 300.11 286.65 L 310.53 286.64 L 310.53 293.34 L 306.06 293.34 L 306.06 297.82 L 314.27 297.82 C 313.71 298.26 313.2 298.75 312.71 299.31 L 306.06 299.31 L 306.06 303.77 L 309.72 303.77 C 308.85 305.59 308.39 307.79 308.3 309.72 Z M 323.93 279.96 L 323.93 277.72 L 321.7 277.72 L 321.7 279.96 Z M 319.47 279.96 L 319.47 277.72 L 317.24 277.72 L 317.24 279.96 Z" fill="#505050" stroke="none" pointer-events="all"/></g><g><rect x="190" y="286" width="59" height="48" fill="none" stroke="none" pointer-events="all"/><path d="M 232.57 334 L 232.57 329.38 C 236.05 328.36 238.54 325.53 238.54 323.05 L 238.54 313.65 L 232.57 319.39 L 232.57 313.8 L 240.71 305.68 L 249 313.88 L 249 319.46 L 243.03 313.65 L 243.03 322.99 C 243.05 325.48 241.88 328.25 239.44 330.57 C 237.24 332.52 234.87 333.57 232.57 334 Z M 236.3 290.47 L 238.54 290.47 L 238.54 288.24 L 236.3 288.24 Z M 230.33 320.29 L 222.11 320.29 L 222.11 314.32 L 225.85 314.32 L 225.85 309.85 L 216.14 309.85 L 216.14 314.32 L 219.87 314.32 L 219.87 320.29 L 210.91 320.29 L 210.91 314.32 L 214.65 314.32 L 214.65 309.85 L 204.94 309.85 L 204.94 314.32 L 208.67 314.32 L 208.67 320.29 L 199.71 320.29 L 199.71 314.32 L 203.44 314.32 L 203.44 308.36 L 214.65 308.36 L 214.65 303.89 L 210.16 303.89 L 210.16 297.18 L 220.62 297.18 L 220.62 303.89 L 216.14 303.89 L 216.14 308.36 L 227.34 308.36 L 227.34 314.32 L 230.33 314.32 Z M 234 326.25 L 192.94 326.25 C 191.57 326.25 190 325.12 190 323.27 L 190 289.01 C 190 287.02 191.74 286 192.83 286 L 237.85 286 C 239.45 286 240.78 287.4 240.78 288.93 L 240.78 302.32 L 238.54 304.56 L 238.54 293.45 L 192.24 293.45 L 192.24 323.26 C 192.24 323.6 192.39 324.01 193.08 324.01 L 236.04 324.01 C 235.67 324.9 234.85 325.69 234 326.25 Z M 231.82 290.47 L 234.06 290.47 L 234.06 288.24 L 231.82 288.24 Z M 227.34 290.47 L 229.58 290.47 L 229.58 288.24 L 227.34 288.24 Z" fill="#505050" stroke="none" pointer-events="all"/></g><g><rect x="109" y="295.5" width="38" height="29" fill="none" stroke="none" pointer-events="all"/><path d="M 137.37 298.72 L 138.97 298.72 L 138.97 297.11 L 137.37 297.11 Z M 140.58 298.72 L 142.18 298.72 L 142.18 297.11 L 140.58 297.11 Z M 111.11 324.5 C 109.91 324.5 109 323.45 109 322.4 L 109 297.71 C 109 296.24 110.2 295.5 111.08 295.5 L 144.89 295.5 C 146.03 295.5 147 296.47 147 297.65 L 147 322.35 C 147 323.6 145.95 324.5 144.91 324.5 Z M 118.1 322.89 L 118.1 300.87 L 110.61 300.87 L 110.61 322.37 C 110.61 322.67 110.82 322.89 111.13 322.89 Z M 119.7 322.89 L 144.87 322.89 C 145.2 322.89 145.39 322.65 145.39 322.37 L 145.39 300.87 L 119.7 300.87 Z M 122.92 320.2 L 122.92 315.91 L 125.06 315.91 L 125.06 311.61 L 132.01 311.61 L 132.01 308.39 L 129.34 308.39 L 129.34 303.56 L 135.76 303.56 L 135.76 308.39 L 133.08 308.39 L 133.08 311.61 L 140.04 311.61 L 140.04 315.91 L 142.18 315.91 L 142.18 320.2 L 136.83 320.2 L 136.83 315.91 L 138.97 315.91 L 138.97 312.69 L 133.08 312.69 L 133.08 315.91 L 135.23 315.91 L 135.23 320.2 L 129.87 320.2 L 129.87 315.91 L 132.01 315.91 L 132.01 312.69 L 126.13 312.69 L 126.13 315.91 L 128.27 315.91 L 128.27 320.2 Z M 143.79 298.72 L 145.39 298.72 L 145.39 297.11 L 143.79 297.11 Z" fill="#505050" stroke="none" pointer-events="all"/></g><g><rect x="3" y="290" width="53" height="40" fill="none" stroke="none" pointer-events="all"/><path d="M 42.56 294.44 L 44.8 294.44 L 44.8 292.22 L 42.56 292.22 Z M 47.04 294.44 L 49.28 294.44 L 49.28 292.22 L 47.04 292.22 Z M 5.94 330 C 4.27 330 3 328.55 3 327.11 L 3 293.04 C 3 291.03 4.67 290 5.91 290 L 53.06 290 C 54.65 290 56 291.33 56 292.96 L 56 327.04 C 56 328.76 54.54 330 53.08 330 Z M 15.69 327.78 L 15.69 297.41 L 5.24 297.41 L 5.24 327.07 C 5.24 327.47 5.54 327.78 5.97 327.78 Z M 17.93 327.78 L 53.02 327.78 C 53.49 327.78 53.76 327.45 53.76 327.06 L 53.76 297.41 L 17.93 297.41 Z M 22.41 324.07 L 22.41 318.15 L 25.39 318.15 L 25.39 312.22 L 35.1 312.22 L 35.1 307.78 L 31.37 307.78 L 31.37 301.11 L 40.32 301.11 L 40.32 307.78 L 36.59 307.78 L 36.59 312.22 L 46.3 312.22 L 46.3 318.15 L 49.28 318.15 L 49.28 324.07 L 41.82 324.07 L 41.82 318.15 L 44.8 318.15 L 44.8 313.7 L 36.59 313.7 L 36.59 318.15 L 39.58 318.15 L 39.58 324.07 L 32.11 324.07 L 32.11 318.15 L 35.1 318.15 L 35.1 313.7 L 26.89 313.7 L 26.89 318.15 L 29.87 318.15 L 29.87 324.07 Z M 51.52 294.44 L 53.76 294.44 L 53.76 292.22 L 51.52 292.22 Z" fill="#cccbcb" stroke="none" pointer-events="all"/></g><g><rect x="97" y="390" width="60" height="49" fill="none" stroke="none" pointer-events="all"/><path d="M 129.3 404.85 C 126.61 402.66 123.08 401.61 119.72 402.13 C 113.65 403.08 107.97 408.66 109.16 416.34 C 110.34 423.99 117.37 427.76 123.5 426.8 C 129.46 425.88 133.79 420.56 133.92 414.72 L 145.43 416.54 C 145.76 416.87 146.02 417.22 145.92 417.96 L 144.78 422.5 C 144.51 423.11 144.06 423.47 143.31 423.39 L 137.99 422.15 C 136.94 424.17 135.55 426.02 133.91 427.71 L 136.65 432.29 C 137.07 433.03 136.78 433.75 136.35 434.07 L 131.85 436.83 C 131.22 437.04 130.63 437.09 130.22 436.32 L 127.42 431.62 C 125.66 432.42 123.4 432.91 120.97 432.67 L 119.72 437.93 C 119.48 438.5 119.18 439 118.25 438.93 L 113.26 437.7 C 112.52 437.33 112.13 436.79 112.43 435.92 L 113.96 431.12 C 111.76 429.93 109.88 428.6 108.32 427.12 L 103.84 429.83 C 103.12 430.23 102.49 430.14 101.94 429.51 L 99.31 425.21 C 99.02 424.64 99.06 423.9 99.72 423.44 L 104.35 420.51 C 103.81 418.38 103.46 416.23 103.32 414.02 L 103.32 414.02 L 98.15 412.76 C 97.39 412.48 97 411.96 97.15 411.11 L 98.32 406.39 C 98.62 405.65 99.08 405.18 99.97 405.39 L 104.87 406.98 C 106.06 405.03 107.37 403.08 108.91 401.32 L 106.17 396.74 C 105.93 396.19 105.78 395.63 106.53 394.94 L 110.79 392.31 C 111.63 391.9 112.18 392.2 112.56 392.66 L 115.37 397.35 C 117.36 396.63 119.36 396.12 121.86 396.45 L 123.13 391.06 C 123.47 390.28 124.02 390 124.74 390.15 L 129.3 391.28 Z" fill="#505050" stroke="none" pointer-events="all"/><path d="M 145.77 410.98 L 155.5 410.98 C 155.7 410.98 155.87 410.85 155.87 410.59 L 155.87 394.08 C 155.87 393.93 155.77 393.72 155.5 393.72 L 145.77 393.72 L 145.77 395.6 L 154 395.6 L 154 396.72 L 145.77 396.72 L 145.77 398.6 L 154 398.6 L 154 399.72 L 145.77 399.72 L 145.77 401.6 L 154 401.6 L 154 402.73 L 145.77 402.73 L 145.77 404.6 L 154 404.6 L 154 405.73 L 145.77 405.73 L 145.77 407.6 L 154 407.6 L 154 408.72 L 145.77 408.72 Z M 135.33 405.8 L 136.81 405.98 L 137.8 401.28 L 139 406.05 L 140.65 406.16 L 142.52 398.13 L 140.9 398.13 L 139.99 403.44 L 138.86 398.2 L 137.48 398.24 L 136.42 403.33 L 135.58 398.59 L 133.92 398.59 Z M 131.56 412.03 L 131.56 392.53 L 145.77 390.28 L 145.77 392.6 L 155.49 392.6 C 156.25 392.6 157 393.22 156.99 394.11 L 156.99 410.61 C 156.98 411.52 156.22 412.09 155.55 412.1 L 145.77 412.1 L 145.77 414.28 Z" fill="#2c3580" stroke="none" pointer-events="all"/></g><g><rect x="3" y="390" width="59" height="50" fill="none" stroke="none" pointer-events="all"/><path d="M 40.29 394.47 L 42.53 394.47 L 42.53 392.23 L 40.29 392.23 Z M 44.77 394.47 L 47 394.47 L 47 392.23 L 44.77 392.23 Z M 33.58 430.21 L 5.93 430.21 C 4.4 430.21 3 428.9 3 427.26 L 3 392.92 C 3 391.29 4.42 390 5.9 390 L 50.79 390 C 52.34 390 53.72 391.37 53.72 392.9 L 53.72 406.97 L 53.12 406.38 L 51.48 406.38 L 51.48 397.45 L 5.24 397.45 L 5.24 427.27 C 5.24 427.62 5.49 427.98 5.96 427.98 L 33.58 427.98 Z M 32.83 424.25 L 23.88 424.25 L 23.88 418.3 L 27.61 418.3 L 27.61 413.83 L 17.92 413.83 L 17.92 418.3 L 21.65 418.3 L 21.65 424.25 L 12.7 424.25 L 12.7 418.3 L 16.42 418.3 L 16.42 412.34 L 27.61 412.34 L 27.61 407.87 L 23.14 407.87 L 23.14 401.17 L 33.58 401.17 L 33.58 407.87 L 29.1 407.87 L 29.1 412.34 L 33.58 412.34 L 33.58 413.83 L 29.1 413.83 L 29.1 418.3 L 32.83 418.3 Z M 49.24 394.47 L 51.48 394.47 L 51.48 392.22 L 49.24 392.22 Z M 42.76 436.91 L 35.82 436.91 L 35.82 408.62 L 52.22 408.62 L 59.68 416.05 L 59.68 419.58 C 59.17 419.62 58.65 419.82 58.19 420.13 L 58.19 417.55 L 50.73 417.55 L 50.73 410.11 L 37.31 410.11 L 37.31 435.42 L 43.69 435.42 Z M 47.31 430.96 L 41.78 430.96 L 41.78 429.47 L 48.79 429.47 Z M 51.04 427.23 L 41.78 427.23 L 41.78 425.74 L 52.52 425.74 Z M 53.72 423.51 L 41.78 423.51 L 41.78 422.02 L 53.72 422.02 Z M 52.17 436.9 L 53.66 435.42 L 58.19 435.42 L 58.19 430.89 L 59.68 429.41 L 59.68 436.9 Z M 44.1 439.88 C 43.93 440 43.6 439.68 43.73 439.5 L 46.93 434.45 L 59.4 421.99 C 59.74 421.69 60.25 421.68 60.51 421.93 L 61.73 423.17 C 61.96 423.46 62 423.86 61.71 424.15 L 49.17 436.75 Z M 45.66 438.25 L 48.28 436.61 L 47 435.35 L 45.36 437.95 Z" fill="#505050" stroke="none" pointer-events="all"/></g></g></svg>