<!DOCTYPE svg PUBLIC "-//W3C//DTD SVG 20010904//EN" "http://www.w3.org/TR/2001/REC-SVG-20010904/DTD/svg10.dtd">
<svg version="1.0" xmlns="http://www.w3.org/2000/svg" width="211px" height="239px" viewBox="0 0 2110 2390" preserveAspectRatio="xMidYMid meet">
<g id="layer101" fill="#87bf42" stroke="none">
 <path d="M995 2359 c-38 -12 -337 -191 -342 -204 -3 -10 131 -75 154 -75 6 0 60 29 120 65 59 36 115 65 124 65 9 0 166 -87 350 -193 184 -106 380 -219 437 -252 l102 -59 0 -513 0 -513 -37 -24 c-83 -53 -841 -486 -852 -486 -9 0 -338 187 -806 459 l-80 47 0 514 0 515 90 54 c148 88 198 111 247 111 24 0 54 -7 66 -16 52 -36 52 -34 52 -582 0 -575 -9 -522 85 -522 33 0 57 5 64 14 9 10 11 153 9 548 l-3 534 -30 59 c-43 84 -98 117 -203 123 -98 5 -153 -13 -322 -110 -142 -81 -174 -107 -201 -162 -18 -38 -19 -68 -19 -563 l0 -524 24 -47 c13 -26 32 -54 42 -63 11 -9 138 -85 284 -169 146 -85 345 -200 443 -256 212 -123 236 -132 303 -112 67 21 889 496 941 544 27 26 45 54 52 81 8 30 11 200 9 565 -3 599 1 571 -93 632 -73 48 -851 496 -891 512 -37 16 -75 17 -119 3z"/>
 <path d="M1154 1655 c-39 -7 -93 -22 -120 -34 -100 -44 -174 -148 -174 -244 l0 -48 77 3 c75 3 77 3 85 33 20 69 41 95 97 123 52 25 64 27 186 27 84 0 144 -5 170 -14 78 -27 120 -92 97 -152 -16 -41 -89 -66 -268 -89 -186 -25 -233 -35 -294 -65 -54 -28 -84 -58 -105 -107 -17 -42 -20 -126 -5 -179 22 -77 113 -151 220 -177 127 -30 295 -22 408 20 105 39 182 145 182 250 l0 38 -75 0 c-63 0 -76 -3 -81 -17 -15 -50 -51 -105 -80 -124 -59 -36 -291 -43 -353 -10 -33 18 -61 62 -61 96 0 62 47 82 275 115 234 34 305 58 363 124 40 45 56 105 48 179 -14 140 -115 227 -298 257 -83 13 -206 11 -294 -5z"/>
 </g>

</svg>