<?xml version="1.0" encoding="UTF-8"?>
<!DOCTYPE svg PUBLIC "-//W3C//DTD SVG 1.1//EN" "http://www.w3.org/Graphics/SVG/1.1/DTD/svg11.dtd">
<svg xmlns="http://www.w3.org/2000/svg" xmlns:xlink="http://www.w3.org/1999/xlink" version="1.1" width="60px" height="59px" viewBox="-0.5 -0.5 60 59"><defs/><g><g><path d="M 34.25 46.51 C 34.28 47.53 35.81 48.43 37.2 48.85 C 40.8 50.14 49.72 50.41 54.57 48.89 C 56.16 48.41 57.54 47.62 57.73 46.65 L 57.73 21.96 C 54.54 23.8 50.28 24.14 45.78 24.16 C 41.76 24.11 37.61 23.88 34.25 21.96 Z M 34.25 18.45 C 34.25 20.61 39.25 21.9 46.46 21.9 C 52.2 21.9 57.73 20.53 57.73 18.42 C 57.73 16.34 52.08 14.95 46.29 14.95 C 39.6 14.95 34.25 16.39 34.25 18.45 Z M 31.97 18.36 C 32.18 15.49 35.25 14.24 38.15 13.51 C 43.98 12.38 50.48 12.68 54.65 13.77 C 58.12 14.66 59.99 16.57 59.99 18.26 L 59.99 46.63 C 60 48.38 58.27 49.81 56.77 50.46 C 52.21 52.61 43.81 52.47 38.19 51.48 C 34.87 50.78 31.97 49.05 31.97 46.59 Z M 0 7.66 C 3.95 10.45 10.26 10.69 14.33 10.77 C 18.28 10.66 24.56 10.3 28.09 7.66 L 28.09 33.45 C 27.86 36.28 24.46 37.55 21.69 38.13 C 17.4 39.1 10.67 39.1 6.13 38.08 C 4.53 37.71 0.17 36.61 0 33.4 Z M 0 4.49 C 0 1.79 7.19 0 13.45 0 C 21.89 0 28.09 1.96 28.09 4.48 C 28.09 7.26 20.67 8.96 14.33 8.96 C 6.51 8.96 0 7.08 0 4.49 Z M 16.84 59 L 22.74 52.94 L 15.31 52.94 C 9.48 52.7 5.36 47.37 4.4 42.34 L 8.95 42.34 C 9.86 45.41 12.27 48.2 15.26 48.4 L 22.67 48.4 L 16.83 42.34 L 22.59 42.34 L 30.84 50.6 L 22.52 59 Z" fill="#505050" stroke="none" pointer-events="all"/></g></g></svg>