<?xml version="1.0" encoding="UTF-8"?>
<!DOCTYPE svg PUBLIC "-//W3C//DTD SVG 1.1//EN" "http://www.w3.org/Graphics/SVG/1.1/DTD/svg11.dtd">
<svg xmlns="http://www.w3.org/2000/svg" xmlns:xlink="http://www.w3.org/1999/xlink" version="1.1" width="334px" height="687px" viewBox="-0.5 -0.5 334 687"><defs/><g><g><path d="M 18 11.28 C 9.52 11.28 0.12 9.36 0 5.67 C 0 2.68 6.93 0 18.99 0.05 C 24.19 0.05 35.07 1.81 35.07 5.66 C 34.88 9.45 25.21 11.19 18 11.28 Z M 18.65 48.72 C 13.86 48.86 8.71 48.31 5.14 47.07 C 2.64 46.14 0.23 44.67 0 41.96 L 0 9.64 C 5.7 14.39 27.73 15.26 35.07 9.64 L 35.07 29.63 C 34.25 29.04 33.31 28.54 32.15 28.52 L 24.12 28.52 C 21.88 28.61 20.37 30.32 20.15 32.26 C 19.29 32.91 18.7 34.01 18.65 35.06 Z M 48.81 49.18 L 48.81 46.4 C 48.81 45.97 48.5 45.58 48.04 45.58 L 47.6 45.58 L 47.6 49.98 L 47.99 49.98 C 48.55 49.98 48.81 49.5 48.81 49.18 Z M 37.62 45.18 L 37.62 43.98 L 44.41 43.98 L 44.41 45.18 Z M 37.62 47.59 L 37.62 46.39 L 44.41 46.39 L 44.41 47.59 Z M 47.6 39.56 L 48.04 39.56 C 48.45 39.56 48.81 39.18 48.81 38.79 L 48.81 35.98 C 48.81 35.52 48.44 35.16 48.02 35.16 L 47.6 35.16 Z M 41.04 38.24 C 40.12 38.24 39.39 37.44 39.39 36.37 C 39.39 35.49 40.09 34.56 41 34.56 C 42.03 34.56 42.66 35.48 42.66 36.4 C 42.66 37.55 41.81 38.24 41.04 38.24 Z M 37.75 41.97 C 37.83 41.17 37.9 40.35 38.05 39.72 C 38.14 39.37 38.28 39.06 38.55 38.87 C 38.93 38.62 39.16 38.49 39.35 38.4 C 39.5 38.33 39.65 38.36 39.7 38.44 C 40.62 39.22 41.85 39.05 42.48 38.41 C 42.55 38.34 42.69 38.33 42.88 38.43 C 43.1 38.56 43.59 38.83 43.63 38.89 C 43.95 39.15 44.04 39.46 44.12 39.77 C 44.23 40.25 44.3 40.76 44.38 41.26 C 44.43 41.52 44.47 41.76 44.54 41.97 Z M 29.07 38.24 C 28.15 38.24 27.42 37.46 27.42 36.36 C 27.42 35.38 28.2 34.56 29.04 34.56 C 29.8 34.56 30.68 35.19 30.68 36.42 C 30.68 37.4 29.97 38.24 29.07 38.24 Z M 25.78 41.97 C 25.85 41.18 25.92 40.41 26.06 39.78 C 26.18 39.32 26.36 38.95 26.72 38.78 L 27.36 38.4 C 27.6 38.32 27.69 38.37 27.75 38.46 C 28.67 39.18 29.84 39.08 30.5 38.41 C 30.56 38.35 30.65 38.35 30.76 38.37 C 30.86 38.39 31.18 38.59 31.59 38.83 C 31.86 39.02 32.02 39.29 32.11 39.6 C 32.21 39.96 32.25 40.27 32.3 40.59 C 32.37 41.12 32.46 41.59 32.56 41.97 Z M 25.66 45.18 L 25.66 43.98 L 32.44 43.98 L 32.44 45.18 Z M 25.66 47.59 L 25.66 46.39 L 32.44 46.39 L 32.44 47.59 Z M 23.66 50.79 L 31.18 50.79 C 32.41 50.79 33.57 51.07 34.44 52.4 L 34.44 35.17 C 34.44 33.79 33.33 31.95 31.66 31.95 L 24.46 31.95 C 24.18 31.95 23.66 32.14 23.66 32.79 Z M 48.81 43.98 L 48.81 41.19 C 48.81 40.76 48.5 40.36 48.04 40.36 L 47.6 40.36 L 47.6 44.78 L 47.99 44.78 C 48.55 44.78 48.81 44.29 48.81 43.98 Z M 36.09 54 L 33.96 54 C 33.69 53.99 33.48 53.88 33.33 53.59 L 22.46 53.59 C 21.55 53.59 20.86 52.84 20.86 52.04 L 20.86 35.19 C 20.86 34.15 21.7 33.56 22.46 33.56 L 22.46 32.74 C 22.46 31.59 23.4 30.75 24.45 30.75 L 31.69 30.75 C 33.2 30.77 34.32 31.74 34.95 32.79 C 36.01 31.01 37.65 30.75 38.43 30.75 L 45.68 30.75 C 46.76 30.75 47.61 31.7 47.61 32.68 L 47.61 33.55 L 48.37 33.55 C 49.46 33.55 50 34.45 50 35.12 L 50 52.01 C 50 52.83 49.33 53.59 48.43 53.59 L 36.75 53.59 C 36.6 53.82 36.41 54 36.09 54 Z M 46.41 32.76 C 46.41 32.31 46.07 31.95 45.59 31.95 L 38.41 31.95 C 36.69 31.95 35.63 33.41 35.63 34.73 L 35.63 52.39 C 36.49 51.32 37.39 50.79 38.65 50.79 L 46.41 50.79 C 46.43 44.79 46.42 38.77 46.41 32.76 Z" fill="#505050" stroke="none" pointer-events="all"/></g><g><path d="M 121.57 33.85 L 121.57 32.35 L 120.09 32.35 L 120.09 33.85 Z M 124.55 33.85 L 124.55 32.35 L 123.06 32.35 L 123.06 33.85 Z M 80 6.66 C 80 2.95 89.7 1 97.13 1 C 106.23 1 114.88 3.24 114.88 6.57 C 114.88 10.38 104.54 12.19 98.28 12.19 C 88.34 12.25 80 9.86 80 6.66 Z M 97.82 49.52 C 93.78 49.57 89.23 49.15 85.74 48.06 C 82.47 47.08 80 45.08 80 42.64 L 80 10.56 C 83.04 12.91 89.73 14.55 97.82 14.44 C 103.53 14.35 110.73 13.66 114.89 10.56 L 114.89 28.62 L 101.5 28.62 C 99.27 28.62 97.82 30.5 97.82 32.29 Z M 127.52 33.85 L 127.52 32.35 L 126.03 32.35 L 126.03 33.85 Z M 127.52 52.52 L 127.52 35.34 L 101.53 35.34 L 101.53 52.52 Z M 101.46 54 C 100.79 54 100.05 53.35 100.05 52.55 L 100.05 32.3 C 100.05 31.59 100.56 30.87 101.48 30.87 L 127.53 30.87 C 128.51 30.87 129 31.61 129 32.28 L 129 52.55 C 129 53.4 128.37 54 127.59 54 Z" fill="#505050" stroke="none" pointer-events="all"/></g><g><path d="M 143 5.63 C 143 2.25 151.96 0 159.76 0 C 170.28 0 178 2.46 178 5.62 C 178 9.1 168.76 11.23 160.86 11.23 C 151.11 11.23 143 8.88 143 5.63 Z M 143 9.59 C 147.91 13.1 155.78 13.39 160.85 13.48 C 165.77 13.36 173.59 12.91 178 9.59 L 178 41.91 C 177.7 45.45 173.46 47.05 170.03 47.78 C 164.68 48.99 156.3 49 150.64 47.72 C 148.65 47.25 143.21 45.87 143 41.85 Z" fill="#505050" stroke="none" pointer-events="all"/></g><g><path d="M 208 5.63 C 208 2.25 216.96 0 224.76 0 C 235.28 0 243 2.46 243 5.62 C 243 9.1 233.76 11.23 225.86 11.23 C 216.11 11.23 208 8.88 208 5.63 Z M 208 9.59 C 212.91 13.1 220.78 13.39 225.85 13.48 C 230.77 13.36 238.59 12.91 243 9.59 L 243 41.91 C 242.7 45.45 238.46 47.05 235.03 47.78 C 229.68 48.99 221.3 49 215.64 47.72 C 213.65 47.25 208.21 45.87 208 41.85 Z" fill="#2072b8" stroke="none" pointer-events="all"/></g><g><path d="M 268 5.63 C 268 2.25 276.96 0 284.76 0 C 295.28 0 303 2.46 303 5.62 C 303 9.1 293.76 11.23 285.86 11.23 C 276.11 11.23 268 8.88 268 5.63 Z M 268 9.59 C 272.91 13.1 280.78 13.39 285.85 13.48 C 290.77 13.36 298.59 12.91 303 9.59 L 303 41.91 C 302.7 45.45 298.46 47.05 295.03 47.78 C 289.68 48.99 281.3 49 275.64 47.72 C 273.65 47.25 268.21 45.87 268 41.85 Z" fill="#da4026" stroke="none" pointer-events="all"/></g><g><path d="M 7.5 88.63 C 7.5 85.25 16.46 83 24.26 83 C 34.78 83 42.5 85.46 42.5 88.62 C 42.5 92.1 33.26 94.23 25.36 94.23 C 15.61 94.23 7.5 91.88 7.5 88.63 Z M 7.5 92.59 C 12.41 96.1 20.28 96.39 25.35 96.48 C 30.27 96.36 38.09 95.91 42.5 92.59 L 42.5 124.91 C 42.2 128.45 37.96 130.05 34.53 130.78 C 29.18 131.99 20.8 132 15.14 130.72 C 13.15 130.25 7.71 128.87 7.5 124.85 Z" fill="#7fba42" stroke="none" pointer-events="all"/></g><g><path d="M 87 88.63 C 87 85.25 95.96 83 103.76 83 C 114.28 83 122 85.46 122 88.62 C 122 92.1 112.76 94.23 104.86 94.23 C 95.11 94.23 87 91.88 87 88.63 Z M 87 92.59 C 91.91 96.1 99.78 96.39 104.85 96.48 C 109.77 96.36 117.59 95.91 122 92.59 L 122 124.91 C 121.7 128.45 117.46 130.05 114.03 130.78 C 108.68 131.99 100.3 132 94.64 130.72 C 92.65 130.25 87.21 128.87 87 124.85 Z" fill="#cccbcb" stroke="none" pointer-events="all"/></g><g><path d="M 146.5 87.37 C 146.5 84.74 153.66 83 159.91 83 C 168.32 83 174.5 84.91 174.5 87.36 C 174.5 90.06 167.1 91.71 160.79 91.71 C 152.99 91.71 146.5 89.89 146.5 87.37 Z M 146.5 90.44 C 150.43 93.16 156.72 93.39 160.78 93.46 C 164.71 93.36 170.97 93.02 174.5 90.44 L 174.5 115.5 C 174.26 118.25 170.87 119.49 168.12 120.06 C 163.84 120.99 157.14 121 152.61 120.01 C 151.02 119.64 146.67 118.58 146.5 115.45 Z" fill="#505050" stroke="none" pointer-events="all"/></g><g><path d="M 200 87.54 C 200 84.75 207.02 83 213.5 83 C 222.61 83 227.62 85.35 227.62 87.52 C 227.62 89.71 222.64 92.01 212.98 92.01 C 207.45 92.01 200 90.28 200 87.54 Z M 213.51 122.08 C 211.23 122.08 207.04 121.9 203.61 120.59 C 202.16 119.95 200.19 118.91 200 116.63 L 200 91.27 C 201.89 92.53 204.15 93.15 206.28 93.59 C 209.18 94.16 212.02 94.31 214.82 94.26 C 213.97 95.11 213.51 95.88 213.51 97.27 Z M 215.69 97.34 C 215.69 94.49 222.65 92.77 229.68 92.77 C 235.82 92.77 243.32 94.43 243.32 97.27 C 243.32 99.67 237.43 101.79 229.27 101.79 C 222.79 101.79 215.69 99.94 215.69 97.34 Z M 229.2 131.85 C 225.83 131.87 220.91 131.45 218.11 129.8 C 216.89 129.08 215.77 127.93 215.68 126.44 L 215.68 101.04 C 217.34 102.15 219.79 102.96 222.01 103.37 C 224.43 103.84 227.73 104.13 230.5 104.04 C 229.74 104.83 229.2 105.52 229.2 107.09 Z M 231.37 107.11 C 231.37 105.1 235.45 102.55 246.23 102.55 C 252.15 102.55 259 104.45 259 107.05 C 259 109.82 251.68 111.55 246.02 111.55 C 235.19 111.55 231.45 108.85 231.37 107.11 Z M 231.37 110.82 C 234.11 112.71 239.46 113.82 245.32 113.82 C 250.68 113.82 256 112.83 258.93 110.82 L 258.93 136.2 C 258.76 138.36 256.78 139.81 253.7 140.66 C 247.9 141.9 242.1 142 236.34 140.6 C 234.15 139.97 231.47 138.67 231.37 136.11 Z" fill="#505050" stroke="none" pointer-events="all"/></g><g><path d="M 268 110.77 L 268 103.76 L 274.6 107.6 L 274.6 114.61 Z M 276.07 115.49 L 276.07 108.48 L 282.67 112.32 L 282.67 119.34 Z M 284.13 120.14 L 284.13 113.12 L 290.74 116.97 L 290.74 123.98 Z M 268 119.72 L 268 112.7 L 274.6 116.54 L 274.6 123.55 Z M 276.08 124.44 L 276.07 117.43 L 282.67 121.26 L 282.67 128.27 Z M 284.14 129.08 L 284.13 122.07 L 290.74 125.9 L 290.74 132.91 Z M 268.01 128.8 L 268.01 121.79 L 274.61 125.63 L 274.61 132.64 Z M 276.08 133.52 L 276.08 126.51 L 282.68 130.35 L 282.68 137.36 Z M 284.14 138.16 L 284.14 131.15 L 290.75 134.99 L 290.75 142 Z M 308.41 107.41 L 315 103.59 L 315 110.58 L 308.41 114.4 Z M 300.33 112.07 L 306.93 108.24 L 306.93 115.23 L 300.33 119.07 Z M 292.25 116.79 L 298.86 112.95 L 298.86 119.95 L 292.25 123.77 Z M 308.41 116.34 L 315 112.5 L 315 119.51 L 308.41 123.33 Z M 300.33 120.99 L 306.93 117.17 L 306.93 124.16 L 300.33 127.98 Z M 292.25 125.7 L 298.86 121.88 L 298.86 128.87 L 292.25 132.69 Z M 300.98 102.52 L 307.25 99 L 313.54 102.52 L 307.26 106.12 Z M 293.11 98.02 L 299.39 94.5 L 305.68 98.02 L 299.39 101.62 Z M 285.22 93.52 L 291.51 90 L 297.79 93.52 L 291.51 97.12 Z M 293.03 107.09 L 299.3 103.57 L 305.59 107.09 L 299.3 110.69 Z M 285.16 102.6 L 291.43 99.07 L 297.72 102.6 L 291.44 106.2 Z M 277.28 98.1 L 283.55 94.57 L 289.84 98.1 L 283.55 101.7 Z M 285.21 111.6 L 291.48 108.07 L 297.78 111.59 L 291.49 115.19 Z M 277.35 107.1 L 283.63 103.57 L 289.92 107.1 L 283.63 110.7 Z M 269.46 102.6 L 275.74 99.08 L 282.02 102.6 L 275.74 106.2 Z M 308.4 125.57 L 315 121.75 L 315 128.74 L 308.4 132.56 Z M 300.32 130.23 L 306.92 126.4 L 306.92 133.39 L 300.32 137.21 Z M 292.25 134.93 L 298.85 131.11 L 298.85 138.1 L 292.25 141.92 Z" fill="#505050" stroke="none" pointer-events="all"/></g><g><path d="M 7.5 180.77 L 7.5 173.76 L 14.1 177.6 L 14.1 184.61 Z M 15.57 185.49 L 15.57 178.48 L 22.17 182.32 L 22.17 189.34 Z M 23.63 190.14 L 23.63 183.12 L 30.24 186.97 L 30.24 193.98 Z M 7.5 189.72 L 7.5 182.7 L 14.1 186.54 L 14.1 193.55 Z M 15.58 194.44 L 15.57 187.43 L 22.17 191.26 L 22.17 198.27 Z M 23.64 199.08 L 23.63 192.07 L 30.24 195.9 L 30.24 202.91 Z M 7.51 198.8 L 7.51 191.79 L 14.11 195.63 L 14.11 202.64 Z M 15.58 203.52 L 15.58 196.51 L 22.18 200.35 L 22.18 207.36 Z M 23.64 208.16 L 23.64 201.15 L 30.25 204.99 L 30.25 212 Z M 47.91 177.41 L 54.5 173.59 L 54.5 180.58 L 47.91 184.4 Z M 39.83 182.07 L 46.43 178.24 L 46.43 185.23 L 39.83 189.07 Z M 31.75 186.79 L 38.36 182.95 L 38.36 189.95 L 31.75 193.77 Z M 47.91 186.34 L 54.5 182.5 L 54.5 189.51 L 47.91 193.33 Z M 39.83 190.99 L 46.43 187.17 L 46.43 194.16 L 39.83 197.98 Z M 31.75 195.7 L 38.36 191.88 L 38.36 198.87 L 31.75 202.69 Z M 40.48 172.52 L 46.75 169 L 53.04 172.52 L 46.76 176.12 Z M 32.61 168.02 L 38.89 164.5 L 45.18 168.02 L 38.89 171.62 Z M 24.72 163.52 L 31.01 160 L 37.29 163.52 L 31.01 167.12 Z M 32.53 177.09 L 38.8 173.57 L 45.09 177.09 L 38.8 180.69 Z M 24.66 172.6 L 30.93 169.07 L 37.22 172.6 L 30.94 176.2 Z M 16.78 168.1 L 23.05 164.57 L 29.34 168.1 L 23.05 171.7 Z M 24.71 181.6 L 30.98 178.07 L 37.28 181.59 L 30.99 185.19 Z M 16.85 177.1 L 23.13 173.57 L 29.42 177.1 L 23.13 180.7 Z M 8.96 172.6 L 15.24 169.08 L 21.52 172.6 L 15.24 176.2 Z M 47.9 195.57 L 54.5 191.75 L 54.5 198.74 L 47.9 202.56 Z M 39.82 200.23 L 46.42 196.4 L 46.42 203.39 L 39.82 207.21 Z M 31.75 204.93 L 38.35 201.11 L 38.35 208.1 L 31.75 211.92 Z" fill="#2072b8" stroke="none" pointer-events="all"/></g><g><path d="M 81 180.77 L 81 173.76 L 87.6 177.6 L 87.6 184.61 Z M 89.07 185.49 L 89.07 178.48 L 95.67 182.32 L 95.67 189.34 Z M 97.13 190.14 L 97.13 183.12 L 103.74 186.97 L 103.74 193.98 Z M 81 189.72 L 81 182.7 L 87.6 186.54 L 87.6 193.55 Z M 89.08 194.44 L 89.07 187.43 L 95.67 191.26 L 95.67 198.27 Z M 97.14 199.08 L 97.13 192.07 L 103.74 195.9 L 103.74 202.91 Z M 81.01 198.8 L 81.01 191.79 L 87.61 195.63 L 87.61 202.64 Z M 89.08 203.52 L 89.08 196.51 L 95.68 200.35 L 95.68 207.36 Z M 97.14 208.16 L 97.14 201.15 L 103.75 204.99 L 103.75 212 Z M 121.41 177.41 L 128 173.59 L 128 180.58 L 121.41 184.4 Z M 113.33 182.07 L 119.93 178.24 L 119.93 185.23 L 113.33 189.07 Z M 105.25 186.79 L 111.86 182.95 L 111.86 189.95 L 105.25 193.77 Z M 121.41 186.34 L 128 182.5 L 128 189.51 L 121.41 193.33 Z M 113.33 190.99 L 119.93 187.17 L 119.93 194.16 L 113.33 197.98 Z M 105.25 195.7 L 111.86 191.88 L 111.86 198.87 L 105.25 202.69 Z M 113.98 172.52 L 120.25 169 L 126.54 172.52 L 120.26 176.12 Z M 106.11 168.02 L 112.39 164.5 L 118.68 168.02 L 112.39 171.62 Z M 98.22 163.52 L 104.51 160 L 110.79 163.52 L 104.51 167.12 Z M 106.03 177.09 L 112.3 173.57 L 118.59 177.09 L 112.3 180.69 Z M 98.16 172.6 L 104.43 169.07 L 110.72 172.6 L 104.44 176.2 Z M 90.28 168.1 L 96.55 164.57 L 102.84 168.1 L 96.55 171.7 Z M 98.21 181.6 L 104.48 178.07 L 110.78 181.59 L 104.49 185.19 Z M 90.35 177.1 L 96.63 173.57 L 102.92 177.1 L 96.63 180.7 Z M 82.46 172.6 L 88.74 169.08 L 95.02 172.6 L 88.74 176.2 Z M 121.4 195.57 L 128 191.75 L 128 198.74 L 121.4 202.56 Z M 113.32 200.23 L 119.92 196.4 L 119.92 203.39 L 113.32 207.21 Z M 105.25 204.93 L 111.85 201.11 L 111.85 208.1 L 105.25 211.92 Z" fill="#da4026" stroke="none" pointer-events="all"/></g><g><path d="M 146.5 180.77 L 146.5 173.76 L 153.1 177.6 L 153.1 184.61 Z M 154.57 185.49 L 154.57 178.48 L 161.17 182.32 L 161.17 189.34 Z M 162.63 190.14 L 162.63 183.12 L 169.24 186.97 L 169.24 193.98 Z M 146.5 189.72 L 146.5 182.7 L 153.1 186.54 L 153.1 193.55 Z M 154.58 194.44 L 154.57 187.43 L 161.17 191.26 L 161.17 198.27 Z M 162.64 199.08 L 162.63 192.07 L 169.24 195.9 L 169.24 202.91 Z M 146.51 198.8 L 146.51 191.79 L 153.11 195.63 L 153.11 202.64 Z M 154.58 203.52 L 154.58 196.51 L 161.18 200.35 L 161.18 207.36 Z M 162.64 208.16 L 162.64 201.15 L 169.25 204.99 L 169.25 212 Z M 186.91 177.41 L 193.5 173.59 L 193.5 180.58 L 186.91 184.4 Z M 178.83 182.07 L 185.43 178.24 L 185.43 185.23 L 178.83 189.07 Z M 170.75 186.79 L 177.36 182.95 L 177.36 189.95 L 170.75 193.77 Z M 186.91 186.34 L 193.5 182.5 L 193.5 189.51 L 186.91 193.33 Z M 178.83 190.99 L 185.43 187.17 L 185.43 194.16 L 178.83 197.98 Z M 170.75 195.7 L 177.36 191.88 L 177.36 198.87 L 170.75 202.69 Z M 179.48 172.52 L 185.75 169 L 192.04 172.52 L 185.76 176.12 Z M 171.61 168.02 L 177.89 164.5 L 184.18 168.02 L 177.89 171.62 Z M 163.72 163.52 L 170.01 160 L 176.29 163.52 L 170.01 167.12 Z M 171.53 177.09 L 177.8 173.57 L 184.09 177.09 L 177.8 180.69 Z M 163.66 172.6 L 169.93 169.07 L 176.22 172.6 L 169.94 176.2 Z M 155.78 168.1 L 162.05 164.57 L 168.34 168.1 L 162.05 171.7 Z M 163.71 181.6 L 169.98 178.07 L 176.28 181.59 L 169.99 185.19 Z M 155.85 177.1 L 162.13 173.57 L 168.42 177.1 L 162.13 180.7 Z M 147.96 172.6 L 154.24 169.08 L 160.52 172.6 L 154.24 176.2 Z M 186.9 195.57 L 193.5 191.75 L 193.5 198.74 L 186.9 202.56 Z M 178.82 200.23 L 185.42 196.4 L 185.42 203.39 L 178.82 207.21 Z M 170.75 204.93 L 177.35 201.11 L 177.35 208.1 L 170.75 211.92 Z" fill="#7fba42" stroke="none" pointer-events="all"/></g><g><path d="M 208 180.77 L 208 173.76 L 214.6 177.6 L 214.6 184.61 Z M 216.07 185.49 L 216.07 178.48 L 222.67 182.32 L 222.67 189.34 Z M 224.13 190.14 L 224.13 183.12 L 230.74 186.97 L 230.74 193.98 Z M 208 189.72 L 208 182.7 L 214.6 186.54 L 214.6 193.55 Z M 216.08 194.44 L 216.07 187.43 L 222.67 191.26 L 222.67 198.27 Z M 224.14 199.08 L 224.13 192.07 L 230.74 195.9 L 230.74 202.91 Z M 208.01 198.8 L 208.01 191.79 L 214.61 195.63 L 214.61 202.64 Z M 216.08 203.52 L 216.08 196.51 L 222.68 200.35 L 222.68 207.36 Z M 224.14 208.16 L 224.14 201.15 L 230.75 204.99 L 230.75 212 Z M 248.41 177.41 L 255 173.59 L 255 180.58 L 248.41 184.4 Z M 240.33 182.07 L 246.93 178.24 L 246.93 185.23 L 240.33 189.07 Z M 232.25 186.79 L 238.86 182.95 L 238.86 189.95 L 232.25 193.77 Z M 248.41 186.34 L 255 182.5 L 255 189.51 L 248.41 193.33 Z M 240.33 190.99 L 246.93 187.17 L 246.93 194.16 L 240.33 197.98 Z M 232.25 195.7 L 238.86 191.88 L 238.86 198.87 L 232.25 202.69 Z M 240.98 172.52 L 247.25 169 L 253.54 172.52 L 247.26 176.12 Z M 233.11 168.02 L 239.39 164.5 L 245.68 168.02 L 239.39 171.62 Z M 225.22 163.52 L 231.51 160 L 237.79 163.52 L 231.51 167.12 Z M 233.03 177.09 L 239.3 173.57 L 245.59 177.09 L 239.3 180.69 Z M 225.16 172.6 L 231.43 169.07 L 237.72 172.6 L 231.44 176.2 Z M 217.28 168.1 L 223.55 164.57 L 229.84 168.1 L 223.55 171.7 Z M 225.21 181.6 L 231.48 178.07 L 237.78 181.59 L 231.49 185.19 Z M 217.35 177.1 L 223.63 173.57 L 229.92 177.1 L 223.63 180.7 Z M 209.46 172.6 L 215.74 169.08 L 222.02 172.6 L 215.74 176.2 Z M 248.4 195.57 L 255 191.75 L 255 198.74 L 248.4 202.56 Z M 240.32 200.23 L 246.92 196.4 L 246.92 203.39 L 240.32 207.21 Z M 232.25 204.93 L 238.85 201.11 L 238.85 208.1 L 232.25 211.92 Z" fill="#cccbcb" stroke="none" pointer-events="all"/></g><g><path d="M 274 185.68 C 274 183.06 279.43 180.31 291.17 180 C 302.81 180 309 183.01 309 185.67 C 309 188.61 301.5 191.31 292.3 191.31 C 282.86 191.44 274 189.05 274 185.68 Z M 274 189.65 C 275.69 191 278.73 192.16 282.14 192.78 C 288.15 193.84 294.56 193.82 300.3 192.88 C 303.86 192.28 306.95 191.23 309 189.66 L 309 199.59 C 308.73 202.34 306.31 203.78 303.69 204.76 C 297.75 206.75 287.55 207 280.31 205.09 C 277.31 204.19 274.26 202.67 274 199.59 Z" fill="#505050" stroke="none" pointer-events="all"/></g><g><path d="M 15 243.18 C 15 240.56 20.43 237.81 32.17 237.5 C 43.81 237.5 50 240.51 50 243.17 C 50 246.11 42.5 248.81 33.3 248.81 C 23.86 248.94 15 246.55 15 243.18 Z M 15 247.15 C 16.69 248.5 19.73 249.66 23.14 250.28 C 29.15 251.34 35.56 251.32 41.3 250.38 C 44.86 249.78 47.95 248.73 50 247.16 L 50 257.09 C 49.73 259.84 47.31 261.28 44.69 262.26 C 38.75 264.25 28.55 264.5 21.31 262.59 C 18.31 261.69 15.26 260.17 15 257.09 Z" fill="#2072b8" stroke="none" pointer-events="all"/></g><g><path d="M 87 243.68 C 87 241.06 92.43 238.31 104.17 238 C 115.81 238 122 241.01 122 243.67 C 122 246.61 114.5 249.31 105.3 249.31 C 95.86 249.44 87 247.05 87 243.68 Z M 87 247.65 C 88.69 249 91.73 250.16 95.14 250.78 C 101.15 251.84 107.56 251.82 113.3 250.88 C 116.86 250.28 119.95 249.23 122 247.66 L 122 257.59 C 121.73 260.34 119.31 261.78 116.69 262.76 C 110.75 264.75 100.55 265 93.31 263.09 C 90.31 262.19 87.26 260.67 87 257.59 Z" fill="#da4026" stroke="none" pointer-events="all"/></g><g><path d="M 152.5 243.18 C 152.5 240.56 157.93 237.81 169.67 237.5 C 181.31 237.5 187.5 240.51 187.5 243.17 C 187.5 246.11 180 248.81 170.8 248.81 C 161.36 248.94 152.5 246.55 152.5 243.18 Z M 152.5 247.15 C 154.19 248.5 157.23 249.66 160.64 250.28 C 166.65 251.34 173.06 251.32 178.8 250.38 C 182.36 249.78 185.45 248.73 187.5 247.16 L 187.5 257.09 C 187.23 259.84 184.81 261.28 182.19 262.26 C 176.25 264.25 166.05 264.5 158.81 262.59 C 155.81 261.69 152.76 260.17 152.5 257.09 Z" fill="#7fba42" stroke="none" pointer-events="all"/></g><g><path d="M 214 243.18 C 214 240.56 219.43 237.81 231.17 237.5 C 242.81 237.5 249 240.51 249 243.17 C 249 246.11 241.5 248.81 232.3 248.81 C 222.86 248.94 214 246.55 214 243.18 Z M 214 247.15 C 215.69 248.5 218.73 249.66 222.14 250.28 C 228.15 251.34 234.56 251.32 240.3 250.38 C 243.86 249.78 246.95 248.73 249 247.16 L 249 257.09 C 248.73 259.84 246.31 261.28 243.69 262.26 C 237.75 264.25 227.55 264.5 220.31 262.59 C 217.31 261.69 214.26 260.17 214 257.09 Z" fill="#cccbcb" stroke="none" pointer-events="all"/></g><g><path d="M 274 254.66 C 275.69 256 278.73 257.17 282.14 257.78 C 288.15 258.85 294.56 258.82 300.3 257.88 C 303.86 257.29 306.95 256.23 309 254.66 L 309 264.6 C 308.73 267.34 306.31 268.79 303.69 269.75 C 297.75 271.75 287.55 272 280.31 270.08 C 277.31 269.18 274.26 267.66 274 264.59 Z M 274 239.64 C 275.69 240.99 278.73 242.15 282.14 242.77 C 288.15 243.83 294.56 243.81 300.3 242.87 C 303.86 242.28 306.95 241.22 309 239.65 L 309 249.58 C 308.73 252.32 306.31 253.77 303.69 254.74 C 297.75 256.73 287.55 256.98 280.31 255.07 C 277.31 254.17 274.26 252.65 274 249.58 Z M 274 235.68 C 274 233.05 279.43 230.31 291.17 230 C 302.81 230 309 233 309 235.67 C 309 238.61 301.5 241.3 292.3 241.3 C 282.86 241.43 274 239.04 274 235.68 Z" fill="#505050" stroke="none" pointer-events="all"/></g><g><path d="M 13.5 324.66 C 15.19 326 18.23 327.17 21.64 327.78 C 27.65 328.85 34.06 328.82 39.8 327.88 C 43.36 327.29 46.45 326.23 48.5 324.66 L 48.5 334.6 C 48.23 337.34 45.81 338.79 43.19 339.75 C 37.25 341.75 27.05 342 19.81 340.08 C 16.81 339.18 13.76 337.66 13.5 334.59 Z M 13.5 309.64 C 15.19 310.99 18.23 312.15 21.64 312.77 C 27.65 313.83 34.06 313.81 39.8 312.87 C 43.36 312.28 46.45 311.22 48.5 309.65 L 48.5 319.58 C 48.23 322.32 45.81 323.77 43.19 324.74 C 37.25 326.73 27.05 326.98 19.81 325.07 C 16.81 324.17 13.76 322.65 13.5 319.58 Z M 13.5 305.68 C 13.5 303.05 18.93 300.31 30.67 300 C 42.31 300 48.5 303 48.5 305.67 C 48.5 308.61 41 311.3 31.8 311.3 C 22.36 311.43 13.5 309.04 13.5 305.68 Z" fill="#2072b8" stroke="none" pointer-events="all"/></g><g><path d="M 87 324.66 C 88.69 326 91.73 327.17 95.14 327.78 C 101.15 328.85 107.56 328.82 113.3 327.88 C 116.86 327.29 119.95 326.23 122 324.66 L 122 334.6 C 121.73 337.34 119.31 338.79 116.69 339.75 C 110.75 341.75 100.55 342 93.31 340.08 C 90.31 339.18 87.26 337.66 87 334.59 Z M 87 309.64 C 88.69 310.99 91.73 312.15 95.14 312.77 C 101.15 313.83 107.56 313.81 113.3 312.87 C 116.86 312.28 119.95 311.22 122 309.65 L 122 319.58 C 121.73 322.32 119.31 323.77 116.69 324.74 C 110.75 326.73 100.55 326.98 93.31 325.07 C 90.31 324.17 87.26 322.65 87 319.58 Z M 87 305.68 C 87 303.05 92.43 300.31 104.17 300 C 115.81 300 122 303 122 305.67 C 122 308.61 114.5 311.3 105.3 311.3 C 95.86 311.43 87 309.04 87 305.68 Z" fill="#da4026" stroke="none" pointer-events="all"/></g><g><path d="M 152.5 324.66 C 154.19 326 157.23 327.17 160.64 327.78 C 166.65 328.85 173.06 328.82 178.8 327.88 C 182.36 327.29 185.45 326.23 187.5 324.66 L 187.5 334.6 C 187.23 337.34 184.81 338.79 182.19 339.75 C 176.25 341.75 166.05 342 158.81 340.08 C 155.81 339.18 152.76 337.66 152.5 334.59 Z M 152.5 309.64 C 154.19 310.99 157.23 312.15 160.64 312.77 C 166.65 313.83 173.06 313.81 178.8 312.87 C 182.36 312.28 185.45 311.22 187.5 309.65 L 187.5 319.58 C 187.23 322.32 184.81 323.77 182.19 324.74 C 176.25 326.73 166.05 326.98 158.81 325.07 C 155.81 324.17 152.76 322.65 152.5 319.58 Z M 152.5 305.68 C 152.5 303.05 157.93 300.31 169.67 300 C 181.31 300 187.5 303 187.5 305.67 C 187.5 308.61 180 311.3 170.8 311.3 C 161.36 311.43 152.5 309.04 152.5 305.68 Z" fill="#7fba42" stroke="none" pointer-events="all"/></g><g><path d="M 212 324.66 C 213.69 326 216.73 327.17 220.14 327.78 C 226.15 328.85 232.56 328.82 238.3 327.88 C 241.86 327.29 244.95 326.23 247 324.66 L 247 334.6 C 246.73 337.34 244.31 338.79 241.69 339.75 C 235.75 341.75 225.55 342 218.31 340.08 C 215.31 339.18 212.26 337.66 212 334.59 Z M 212 309.64 C 213.69 310.99 216.73 312.15 220.14 312.77 C 226.15 313.83 232.56 313.81 238.3 312.87 C 241.86 312.28 244.95 311.22 247 309.65 L 247 319.58 C 246.73 322.32 244.31 323.77 241.69 324.74 C 235.75 326.73 225.55 326.98 218.31 325.07 C 215.31 324.17 212.26 322.65 212 319.58 Z M 212 305.68 C 212 303.05 217.43 300.31 229.17 300 C 240.81 300 247 303 247 305.67 C 247 308.61 239.5 311.3 230.3 311.3 C 220.86 311.43 212 309.04 212 305.68 Z" fill="#cccbcb" stroke="none" pointer-events="all"/></g><g><path d="M 274 339.71 C 275.69 341.05 278.73 342.21 282.14 342.82 C 288.15 343.88 294.56 343.86 300.3 342.92 C 303.86 342.33 306.95 341.28 309 339.72 L 309 349.62 C 308.73 352.35 306.31 353.79 303.69 354.77 C 297.75 356.75 287.55 357 280.31 355.1 C 277.31 354.19 274.26 352.68 274 349.62 Z M 274 305.66 C 274 303.05 279.43 300.31 291.17 300 C 302.81 300 309 303 309 305.65 C 309 308.59 301.5 311.27 292.3 311.27 C 282.86 311.4 274 309.02 274 305.66 Z M 274 309.62 C 275.69 310.96 278.73 312.12 282.14 312.73 C 288.15 313.8 294.56 313.78 300.3 312.83 C 303.86 312.24 306.95 311.19 309 309.63 L 309 319.53 C 308.73 322.26 306.31 323.71 303.69 324.68 C 297.75 326.66 287.55 326.91 280.31 325.01 C 277.31 324.11 274.26 322.59 274 319.53 Z M 274 324.6 C 275.69 325.93 278.73 327.1 282.14 327.7 C 288.15 328.78 294.56 328.75 300.3 327.8 C 303.86 327.22 306.95 326.16 309 324.6 L 309 334.51 C 308.73 337.24 306.31 338.68 303.69 339.65 C 297.75 341.64 287.55 341.89 280.31 339.98 C 277.31 339.08 274.26 337.56 274 334.5 Z" fill="#505050" stroke="none" pointer-events="all"/></g><g><path d="M 290.82 439 L 296.71 432.94 L 289.28 432.94 C 283.47 432.7 279.35 427.37 278.4 422.34 L 282.93 422.34 C 283.84 425.41 286.25 428.2 289.23 428.4 L 296.63 428.4 L 290.81 422.34 L 296.55 422.34 L 304.79 430.6 L 296.48 439 Z M 305.95 397.44 C 305.95 394.73 313.12 392.95 319.38 392.95 C 327.81 392.95 334 394.9 334 397.43 C 334 400.2 326.59 401.91 320.26 401.91 C 312.45 401.91 305.95 400.03 305.95 397.44 Z M 305.95 400.59 C 309.89 403.4 316.19 403.63 320.26 403.7 C 324.2 403.61 330.47 403.25 334 400.59 L 334 426.4 C 333.77 429.22 330.37 430.5 327.61 431.08 C 323.32 432.04 316.61 432.05 312.07 431.03 C 310.48 430.66 306.12 429.56 305.95 426.34 Z M 274 384.49 C 274 381.79 281.18 380 287.43 380 C 295.86 380 302.05 381.96 302.05 384.48 C 302.05 387.26 294.64 388.96 288.31 388.96 C 280.5 388.96 274 387.08 274 384.49 Z M 274 387.66 C 277.94 390.45 284.24 390.69 288.31 390.77 C 292.25 390.66 298.52 390.3 302.05 387.66 L 302.05 413.45 C 301.82 416.28 298.42 417.55 295.66 418.13 C 291.37 419.1 284.66 419.1 280.12 418.08 C 278.53 417.71 274.17 416.61 274 413.4 Z" fill="#505050" stroke="none" pointer-events="all"/></g><g><path d="M 220 409.71 C 221.69 411.05 224.73 412.21 228.14 412.82 C 234.15 413.88 240.56 413.86 246.3 412.92 C 249.86 412.33 252.95 411.28 255 409.72 L 255 419.62 C 254.73 422.35 252.31 423.79 249.69 424.77 C 243.75 426.75 233.55 427 226.31 425.1 C 223.31 424.19 220.26 422.68 220 419.62 Z M 220 375.66 C 220 373.05 225.43 370.31 237.17 370 C 248.81 370 255 373 255 375.65 C 255 378.59 247.5 381.27 238.3 381.27 C 228.86 381.4 220 379.02 220 375.66 Z M 220 379.62 C 221.69 380.96 224.73 382.12 228.14 382.73 C 234.15 383.8 240.56 383.78 246.3 382.83 C 249.86 382.24 252.95 381.19 255 379.63 L 255 389.53 C 254.73 392.26 252.31 393.71 249.69 394.68 C 243.75 396.66 233.55 396.91 226.31 395.01 C 223.31 394.11 220.26 392.59 220 389.53 Z M 220 394.6 C 221.69 395.93 224.73 397.1 228.14 397.7 C 234.15 398.78 240.56 398.75 246.3 397.8 C 249.86 397.22 252.95 396.16 255 394.6 L 255 404.51 C 254.73 407.24 252.31 408.68 249.69 409.65 C 243.75 411.64 233.55 411.89 226.31 409.98 C 223.31 409.08 220.26 407.56 220 404.5 Z" fill="#cccbcb" stroke="none" pointer-events="all"/></g><g><path d="M 152.5 409.71 C 154.19 411.05 157.23 412.21 160.64 412.82 C 166.65 413.88 173.06 413.86 178.8 412.92 C 182.36 412.33 185.45 411.28 187.5 409.72 L 187.5 419.62 C 187.23 422.35 184.81 423.79 182.19 424.77 C 176.25 426.75 166.05 427 158.81 425.1 C 155.81 424.19 152.76 422.68 152.5 419.62 Z M 152.5 375.66 C 152.5 373.05 157.93 370.31 169.67 370 C 181.31 370 187.5 373 187.5 375.65 C 187.5 378.59 180 381.27 170.8 381.27 C 161.36 381.4 152.5 379.02 152.5 375.66 Z M 152.5 379.62 C 154.19 380.96 157.23 382.12 160.64 382.73 C 166.65 383.8 173.06 383.78 178.8 382.83 C 182.36 382.24 185.45 381.19 187.5 379.63 L 187.5 389.53 C 187.23 392.26 184.81 393.71 182.19 394.68 C 176.25 396.66 166.05 396.91 158.81 395.01 C 155.81 394.11 152.76 392.59 152.5 389.53 Z M 152.5 394.6 C 154.19 395.93 157.23 397.1 160.64 397.7 C 166.65 398.78 173.06 398.75 178.8 397.8 C 182.36 397.22 185.45 396.16 187.5 394.6 L 187.5 404.51 C 187.23 407.24 184.81 408.68 182.19 409.65 C 176.25 411.64 166.05 411.89 158.81 409.98 C 155.81 409.08 152.76 407.56 152.5 404.5 Z" fill="#7fba42" stroke="none" pointer-events="all"/></g><g><path d="M 87 409.71 C 88.69 411.05 91.73 412.21 95.14 412.82 C 101.15 413.88 107.56 413.86 113.3 412.92 C 116.86 412.33 119.95 411.28 122 409.72 L 122 419.62 C 121.73 422.35 119.31 423.79 116.69 424.77 C 110.75 426.75 100.55 427 93.31 425.1 C 90.31 424.19 87.26 422.68 87 419.62 Z M 87 375.66 C 87 373.05 92.43 370.31 104.17 370 C 115.81 370 122 373 122 375.65 C 122 378.59 114.5 381.27 105.3 381.27 C 95.86 381.4 87 379.02 87 375.66 Z M 87 379.62 C 88.69 380.96 91.73 382.12 95.14 382.73 C 101.15 383.8 107.56 383.78 113.3 382.83 C 116.86 382.24 119.95 381.19 122 379.63 L 122 389.53 C 121.73 392.26 119.31 393.71 116.69 394.68 C 110.75 396.66 100.55 396.91 93.31 395.01 C 90.31 394.11 87.26 392.59 87 389.53 Z M 87 394.6 C 88.69 395.93 91.73 397.1 95.14 397.7 C 101.15 398.78 107.56 398.75 113.3 397.8 C 116.86 397.22 119.95 396.16 122 394.6 L 122 404.51 C 121.73 407.24 119.31 408.68 116.69 409.65 C 110.75 411.64 100.55 411.89 93.31 409.98 C 90.31 409.08 87.26 407.56 87 404.5 Z" fill="#da4026" stroke="none" pointer-events="all"/></g><g><path d="M 15 409.71 C 16.69 411.05 19.73 412.21 23.14 412.82 C 29.15 413.88 35.56 413.86 41.3 412.92 C 44.86 412.33 47.95 411.28 50 409.72 L 50 419.62 C 49.73 422.35 47.31 423.79 44.69 424.77 C 38.75 426.75 28.55 427 21.31 425.1 C 18.31 424.19 15.26 422.68 15 419.62 Z M 15 375.66 C 15 373.05 20.43 370.31 32.17 370 C 43.81 370 50 373 50 375.65 C 50 378.59 42.5 381.27 33.3 381.27 C 23.86 381.4 15 379.02 15 375.66 Z M 15 379.62 C 16.69 380.96 19.73 382.12 23.14 382.73 C 29.15 383.8 35.56 383.78 41.3 382.83 C 44.86 382.24 47.95 381.19 50 379.63 L 50 389.53 C 49.73 392.26 47.31 393.71 44.69 394.68 C 38.75 396.66 28.55 396.91 21.31 395.01 C 18.31 394.11 15.26 392.59 15 389.53 Z M 15 394.6 C 16.69 395.93 19.73 397.1 23.14 397.7 C 29.15 398.78 35.56 398.75 41.3 397.8 C 44.86 397.22 47.95 396.16 50 394.6 L 50 404.51 C 49.73 407.24 47.31 408.68 44.69 409.65 C 38.75 411.64 28.55 411.89 21.31 409.98 C 18.31 409.08 15.26 407.56 15 404.5 Z" fill="#2072b8" stroke="none" pointer-events="all"/></g><g><path d="M 41.75 506.51 C 41.78 507.53 43.31 508.43 44.7 508.85 C 48.3 510.14 57.22 510.41 62.07 508.89 C 63.66 508.41 65.04 507.62 65.23 506.65 L 65.23 481.96 C 62.04 483.8 57.78 484.14 53.28 484.16 C 49.26 484.11 45.11 483.88 41.75 481.96 Z M 41.75 478.45 C 41.75 480.61 46.75 481.9 53.96 481.9 C 59.7 481.9 65.23 480.53 65.23 478.42 C 65.23 476.34 59.58 474.95 53.79 474.95 C 47.1 474.95 41.75 476.39 41.75 478.45 Z M 39.47 478.36 C 39.68 475.49 42.75 474.24 45.65 473.51 C 51.48 472.38 57.98 472.68 62.15 473.77 C 65.62 474.66 67.49 476.57 67.49 478.26 L 67.49 506.63 C 67.5 508.38 65.77 509.81 64.27 510.46 C 59.71 512.61 51.31 512.47 45.69 511.48 C 42.37 510.78 39.47 509.05 39.47 506.59 Z M 7.5 467.66 C 11.45 470.45 17.76 470.69 21.83 470.77 C 25.78 470.66 32.06 470.3 35.59 467.66 L 35.59 493.45 C 35.36 496.28 31.96 497.55 29.19 498.13 C 24.9 499.1 18.17 499.1 13.63 498.08 C 12.03 497.71 7.67 496.61 7.5 493.4 Z M 7.5 464.49 C 7.5 461.79 14.69 460 20.95 460 C 29.39 460 35.59 461.96 35.59 464.48 C 35.59 467.26 28.17 468.96 21.83 468.96 C 14.01 468.96 7.5 467.08 7.5 464.49 Z M 24.34 519 L 30.24 512.94 L 22.81 512.94 C 16.98 512.7 12.86 507.37 11.9 502.34 L 16.45 502.34 C 17.36 505.41 19.77 508.2 22.76 508.4 L 30.17 508.4 L 24.33 502.34 L 30.09 502.34 L 38.34 510.6 L 30.02 519 Z" fill="#505050" stroke="none" pointer-events="all"/></g><g><path d="M 104.24 462.93 L 106.5 462.93 L 106.5 460.68 L 104.24 460.68 Z M 104.24 467.45 L 106.5 467.45 L 106.5 465.18 L 104.24 465.18 Z M 104.24 471.95 L 106.5 471.95 L 106.5 469.7 L 104.24 469.7 Z M 104.24 476.46 L 106.5 476.46 L 106.5 474.21 L 104.24 474.21 Z M 104.24 480.97 L 106.5 480.97 L 106.5 478.72 L 104.24 478.72 Z M 104.24 485.49 L 106.5 485.49 L 106.5 483.23 L 104.24 483.23 Z M 104.24 489.99 L 106.5 489.99 L 106.5 487.74 L 104.24 487.74 Z M 104.24 494.5 L 106.5 494.5 L 106.5 492.25 L 104.24 492.25 Z M 104.24 499.02 L 106.5 499.02 L 106.5 496.76 L 104.24 496.76 Z M 104.24 508.03 L 106.5 508.03 L 106.5 505.78 L 104.24 505.78 Z M 104.24 503.53 L 106.5 503.53 L 106.5 501.27 L 104.24 501.27 Z M 114 507.21 C 111.47 508.19 108.37 508.78 105.68 508.78 C 91.45 508.78 81 497.55 81 484.55 C 81 471.4 91.21 460 105.58 460 C 117.47 460 129.76 469.4 129.76 484.89 C 129.71 486.5 129.56 487.6 129.39 488.6 C 125.39 488.33 120.89 488.79 118.03 489.88 C 115.79 490.73 114 492.1 114 494.23 Z M 116.26 494.21 C 116.26 492.66 119.95 490.77 127.67 490.77 C 132.11 490.77 138 492.1 138 494.18 C 138 496.5 131.76 497.67 127.69 497.67 C 119.78 497.67 116.26 495.78 116.26 494.21 Z M 116.26 496.77 C 118.78 498.72 124.06 499.18 127.31 499.18 C 131.37 499.18 135.67 498.48 137.85 496.77 L 137.85 514.31 C 137.85 515.72 136.59 516.77 135.23 517.32 C 131.52 518.95 122.52 519 118.62 517.18 C 117.1 516.51 116.26 515.36 116.26 514.38 Z" fill="#505050" stroke="none" pointer-events="all"/></g><g><path d="M 173.47 485.97 L 174.58 484.01 L 172.62 482.9 L 171.51 484.86 Z M 177.39 488.2 L 178.51 486.24 L 176.55 485.13 L 175.44 487.09 Z M 181.31 490.43 L 182.42 488.47 L 180.47 487.36 L 179.35 489.31 Z M 150.61 495.97 L 149.5 494.02 L 148.66 494.48 C 147.38 491.65 146.5 488.03 146.5 484.55 C 146.5 471.4 156.71 460 171.08 460 C 182.97 460 195.26 469.4 195.26 484.89 C 195.21 486.5 195.06 487.6 194.89 488.6 C 190.89 488.33 186.39 488.79 183.53 489.88 C 181.29 490.73 179.5 492.1 179.5 494.23 L 179.5 507.21 C 176.97 508.19 173.87 508.78 171.18 508.78 C 161.99 508.78 154.03 503.9 149.71 496.49 Z M 154.53 493.74 L 153.41 491.78 L 151.46 492.9 L 152.57 494.86 Z M 158.44 491.51 L 157.33 489.55 L 155.37 490.67 L 156.49 492.62 Z M 162.36 489.27 L 161.24 487.32 L 159.29 488.43 L 160.4 490.39 Z M 166.27 487.04 L 165.16 485.08 L 163.2 486.2 L 164.32 488.15 Z M 170.19 484.8 L 169.07 482.85 L 167.12 483.96 L 168.23 485.92 Z M 181.76 496.77 C 184.28 498.72 189.56 499.18 192.81 499.18 C 196.87 499.18 201.17 498.48 203.35 496.77 L 203.35 514.31 C 203.35 515.72 202.09 516.77 200.73 517.32 C 197.02 518.95 188.02 519 184.12 517.18 C 182.6 516.51 181.76 515.36 181.76 514.38 Z M 181.76 494.21 C 181.76 492.66 185.45 490.77 193.17 490.77 C 197.61 490.77 203.5 492.1 203.5 494.18 C 203.5 496.5 197.26 497.67 193.19 497.67 C 185.28 497.67 181.76 495.78 181.76 494.21 Z M 169.74 462.93 L 172 462.93 L 172 460.68 L 169.74 460.68 Z M 169.74 467.45 L 172 467.45 L 172 465.18 L 169.74 465.18 Z M 169.74 471.95 L 172 471.95 L 172 469.7 L 169.74 469.7 Z M 169.74 476.46 L 172 476.46 L 172 474.21 L 169.74 474.21 Z M 169.74 480.97 L 172 480.97 L 172 478.72 L 169.74 478.72 Z" fill="#505050" stroke="none" pointer-events="all"/></g><g><path d="M 211.75 485.5 L 214 485.5 L 214 483.25 L 211.75 483.25 Z M 216.25 485.5 L 218.5 485.5 L 218.5 483.25 L 216.25 483.25 Z M 220.75 485.5 L 223 485.5 L 223 483.25 L 220.75 483.25 Z M 225.25 485.5 L 227.5 485.5 L 227.5 483.25 L 225.25 483.25 Z M 229.75 485.5 L 232 485.5 L 232 483.25 L 229.75 483.25 Z M 256.76 485.5 L 259.01 485.5 L 259.01 483.25 L 256.76 483.25 Z M 252.26 485.5 L 254.51 485.5 L 254.51 483.25 L 252.26 483.25 Z M 247.76 485.5 L 250.01 485.5 L 250.01 483.25 L 247.76 483.25 Z M 243.26 485.5 L 245.51 485.5 L 245.51 483.25 L 243.26 483.25 Z M 238.75 485.5 L 241.01 485.5 L 241.01 483.25 L 238.75 483.25 Z M 246.26 496.77 C 248.78 498.72 254.06 499.18 257.31 499.18 C 261.37 499.18 265.67 498.48 267.85 496.77 L 267.85 514.31 C 267.85 515.72 266.59 516.77 265.23 517.32 C 261.52 518.95 252.52 519 248.62 517.18 C 247.1 516.51 246.26 515.36 246.26 514.38 Z M 246.26 494.21 C 246.26 492.66 249.95 490.77 257.67 490.77 C 262.11 490.77 268 492.1 268 494.18 C 268 496.5 261.76 497.67 257.69 497.67 C 249.78 497.67 246.26 495.78 246.26 494.21 Z M 244 507.21 C 241.47 508.19 238.37 508.78 235.68 508.78 C 221.45 508.78 211 497.55 211 484.55 C 211 471.4 221.21 460 235.58 460 C 247.47 460 259.76 469.4 259.76 484.89 C 259.71 486.5 259.56 487.6 259.39 488.6 C 255.39 488.33 250.89 488.79 248.03 489.88 C 245.79 490.73 244 492.1 244 494.23 Z M 234.24 503.53 L 236.5 503.53 L 236.5 501.27 L 234.24 501.27 Z M 234.24 508.03 L 236.5 508.03 L 236.5 505.78 L 234.24 505.78 Z M 234.24 499.02 L 236.5 499.02 L 236.5 496.76 L 234.24 496.76 Z M 234.24 494.5 L 236.5 494.5 L 236.5 492.25 L 234.24 492.25 Z M 234.24 489.99 L 236.5 489.99 L 236.5 487.74 L 234.24 487.74 Z M 234.25 485.5 L 236.5 485.5 L 236.5 483.25 L 234.25 483.25 Z M 234.24 480.97 L 236.5 480.97 L 236.5 478.72 L 234.24 478.72 Z M 234.24 476.46 L 236.5 476.46 L 236.5 474.21 L 234.24 474.21 Z M 234.24 471.95 L 236.5 471.95 L 236.5 469.7 L 234.24 469.7 Z M 234.24 467.45 L 236.5 467.45 L 236.5 465.18 L 234.24 465.18 Z M 234.24 462.93 L 236.5 462.93 L 236.5 460.68 L 234.24 460.68 Z" fill="#505050" stroke="none" pointer-events="all"/></g><g><path d="M 306.76 493.34 L 304.95 494.68 L 306.29 496.49 L 307.01 495.96 L 307.01 507.21 C 304.48 508.19 301.37 508.78 298.68 508.78 C 284.45 508.78 274 497.55 274 484.55 C 274 471.4 284.21 460 298.58 460 C 310.47 460 322.76 469.4 322.76 484.89 C 322.71 486.5 322.57 487.56 322.4 488.56 C 318.4 488.29 313.88 488.76 311.03 489.86 C 308.96 490.63 307.31 491.79 307.04 493.72 Z M 303.61 492.87 L 305.42 491.53 L 304.08 489.71 L 302.26 491.05 Z M 300.92 489.24 L 302.74 487.9 L 301.39 486.09 L 299.58 487.43 Z M 318.74 477.64 L 319.29 479.83 L 321.47 479.28 L 320.93 477.1 Z M 314.37 478.74 L 314.91 480.92 L 317.1 480.38 L 316.55 478.19 Z M 309.99 479.83 L 310.54 482.02 L 312.73 481.47 L 312.18 479.29 Z M 305.62 480.93 L 306.17 483.12 L 308.35 482.58 L 307.81 480.38 Z M 301.24 482.02 L 301.79 484.22 L 303.98 483.67 L 303.44 481.48 Z M 283.4 502.5 L 285.22 503.83 L 286.55 502.01 L 284.73 500.68 Z M 286.06 498.86 L 287.88 500.19 L 289.2 498.37 L 287.38 497.04 Z M 288.71 495.21 L 290.53 496.53 L 291.86 494.71 L 290.04 493.39 Z M 291.37 491.57 L 293.19 492.89 L 294.51 491.07 L 292.69 489.75 Z M 294.02 487.92 L 295.84 489.25 L 297.17 487.43 L 295.35 486.1 Z M 296.68 484.28 L 298.5 485.61 L 299.82 483.79 L 298 482.46 Z M 277.46 479.89 L 278 477.71 L 275.81 477.16 L 275.27 479.35 Z M 281.83 480.98 L 282.37 478.8 L 280.19 478.25 L 279.64 480.44 Z M 286.2 482.07 L 286.75 479.89 L 284.56 479.34 L 284.02 481.53 Z M 290.58 483.17 L 291.12 480.98 L 288.94 480.43 L 288.39 482.63 Z M 294.95 484.26 L 295.5 482.06 L 293.31 481.52 L 292.77 483.72 Z M 309.26 496.77 C 311.78 498.72 317.06 499.18 320.31 499.18 C 324.37 499.18 328.67 498.48 330.85 496.77 L 330.85 514.31 C 330.85 515.72 329.59 516.77 328.23 517.32 C 324.52 518.95 315.52 519 311.62 517.18 C 310.1 516.51 309.26 515.36 309.26 514.38 Z M 309.26 494.21 C 309.26 492.66 312.95 490.77 320.67 490.77 C 325.11 490.77 331 492.1 331 494.18 C 331 496.5 324.76 497.67 320.69 497.67 C 312.78 497.67 309.26 495.78 309.26 494.21 Z M 297.24 462.93 L 299.5 462.93 L 299.5 460.68 L 297.24 460.68 Z M 297.24 467.45 L 299.5 467.45 L 299.5 465.18 L 297.24 465.18 Z M 297.24 471.95 L 299.5 471.95 L 299.5 469.7 L 297.24 469.7 Z M 297.24 476.46 L 299.5 476.46 L 299.5 474.21 L 297.24 474.21 Z M 297.24 480.97 L 299.5 480.97 L 299.5 478.72 L 297.24 478.72 Z" fill="#505050" stroke="none" pointer-events="all"/></g><g><path d="M 303.63 584.57 C 306.27 586.42 310.56 586.93 314.3 586.99 C 317.61 586.96 322.46 586.67 325.36 584.64 L 325.36 602.2 C 325.36 603.51 324.18 604.64 322.51 605.27 C 319.47 606.54 311.94 607 307.03 605.46 C 305.27 604.86 303.68 603.86 303.63 602.13 Z M 303.63 582.03 C 303.63 579.76 309.78 578.55 314.33 578.55 C 318.64 578.42 325.5 579.64 325.5 582.03 C 325.5 584.17 319.78 585.48 314.32 585.48 C 309.49 585.48 303.63 584.17 303.63 582.03 Z" fill="#7fba42" stroke="none" pointer-events="all"/><rect x="282.5" y="550" width="0" height="0" fill="none" stroke="none" pointer-events="all"/><path d="M 282.5 602.73 L 282.5 552.92 C 282.5 551.45 283.86 550 285.42 550 L 306.74 550 C 308.11 550 309.66 551.24 309.66 552.92 L 309.66 576.62 C 307.76 576.9 305.91 577.3 304.25 578.16 C 302.53 579.02 301.34 580.33 301.36 581.98 L 301.36 587.67 L 287.78 587.67 L 287.78 589.93 L 301.36 589.93 L 301.36 594.44 L 287.78 594.44 L 287.78 596.7 L 301.36 596.7 L 301.36 602.5 C 301.36 602.58 301.37 602.66 301.39 602.73 Z M 287.78 559.04 L 304.38 559.04 L 304.38 556.78 L 287.78 556.78 Z" fill="#505050" stroke="none" pointer-events="all"/></g><g><path d="M 241.13 584.57 C 243.77 586.42 248.06 586.93 251.8 586.99 C 255.11 586.96 259.96 586.67 262.86 584.64 L 262.86 602.2 C 262.86 603.51 261.68 604.64 260.01 605.27 C 256.97 606.54 249.44 607 244.53 605.46 C 242.77 604.86 241.18 603.86 241.13 602.13 Z M 241.13 582.03 C 241.13 579.76 247.28 578.55 251.83 578.55 C 256.14 578.42 263 579.64 263 582.03 C 263 584.17 257.28 585.48 251.82 585.48 C 246.99 585.48 241.13 584.17 241.13 582.03 Z" fill="#da4026" stroke="none" pointer-events="all"/><rect x="220" y="550" width="0" height="0" fill="none" stroke="none" pointer-events="all"/><path d="M 220 602.73 L 220 552.92 C 220 551.45 221.36 550 222.92 550 L 244.24 550 C 245.61 550 247.16 551.24 247.16 552.92 L 247.16 576.62 C 245.26 576.9 243.41 577.3 241.75 578.16 C 240.03 579.02 238.84 580.33 238.86 581.98 L 238.86 587.67 L 225.28 587.67 L 225.28 589.93 L 238.86 589.93 L 238.86 594.44 L 225.28 594.44 L 225.28 596.7 L 238.86 596.7 L 238.86 602.5 C 238.86 602.58 238.87 602.66 238.89 602.73 Z M 225.28 559.04 L 241.88 559.04 L 241.88 556.78 L 225.28 556.78 Z" fill="#505050" stroke="none" pointer-events="all"/></g><g><path d="M 178.13 584.57 C 180.77 586.42 185.06 586.93 188.8 586.99 C 192.11 586.96 196.96 586.67 199.86 584.64 L 199.86 602.2 C 199.86 603.51 198.68 604.64 197.01 605.27 C 193.97 606.54 186.44 607 181.53 605.46 C 179.77 604.86 178.18 603.86 178.13 602.13 Z M 178.13 582.03 C 178.13 579.76 184.28 578.55 188.83 578.55 C 193.14 578.42 200 579.64 200 582.03 C 200 584.17 194.28 585.48 188.82 585.48 C 183.99 585.48 178.13 584.17 178.13 582.03 Z" fill="#2072b8" stroke="none" pointer-events="all"/><rect x="157" y="550" width="0" height="0" fill="none" stroke="none" pointer-events="all"/><path d="M 157 602.73 L 157 552.92 C 157 551.45 158.36 550 159.92 550 L 181.24 550 C 182.61 550 184.16 551.24 184.16 552.92 L 184.16 576.62 C 182.26 576.9 180.41 577.3 178.75 578.16 C 177.03 579.02 175.84 580.33 175.86 581.98 L 175.86 587.67 L 162.28 587.67 L 162.28 589.93 L 175.86 589.93 L 175.86 594.44 L 162.28 594.44 L 162.28 596.7 L 175.86 596.7 L 175.86 602.5 C 175.86 602.58 175.87 602.66 175.89 602.73 Z M 162.28 559.04 L 178.88 559.04 L 178.88 556.78 L 162.28 556.78 Z" fill="#505050" stroke="none" pointer-events="all"/></g><g><path d="M 109.13 585.53 C 109.13 583.26 115.28 582.05 119.83 582.05 C 124.14 581.92 131 583.14 131 585.53 C 131 587.67 125.28 588.98 119.82 588.98 C 114.99 588.98 109.13 587.67 109.13 585.53 Z M 109.13 588.07 C 111.77 589.92 116.06 590.43 119.8 590.49 C 123.11 590.46 127.96 590.17 130.86 588.14 L 130.86 605.7 C 130.86 607.01 129.68 608.14 128.01 608.77 C 124.97 610.04 117.44 610.5 112.53 608.96 C 110.77 608.36 109.18 607.36 109.13 605.63 Z M 93.28 562.54 L 109.88 562.54 L 109.88 560.28 L 93.28 560.28 Z M 88 606.23 L 88 556.42 C 88 554.95 89.36 553.5 90.92 553.5 L 112.24 553.5 C 113.61 553.5 115.16 554.74 115.16 556.42 L 115.16 580.12 C 113.26 580.4 111.41 580.8 109.75 581.66 C 108.03 582.52 106.84 583.83 106.86 585.48 L 106.86 591.17 L 93.28 591.17 L 93.28 593.43 L 106.86 593.43 L 106.86 597.94 L 93.28 597.94 L 93.28 600.2 L 106.86 600.2 L 106.86 606 C 106.86 606.08 106.87 606.16 106.89 606.23 Z" fill="#505050" stroke="none" pointer-events="all"/></g><g><path d="M 58.1 580.88 L 58.1 584.03 L 59.69 582.45 L 59.69 578.25 L 55.36 578.25 L 53.79 579.83 L 56.95 579.83 L 52.65 584.1 C 51.95 583.52 50.68 583.48 49.91 584.09 L 45.61 579.83 L 48.78 579.83 L 47.35 578.25 L 43.03 578.25 L 43.03 582.53 L 44.62 584.1 L 44.62 580.95 L 49.17 585.45 C 48.91 586.28 49.32 587.1 49.77 587.54 C 50.63 588.32 51.93 588.35 52.82 587.65 C 53.47 587.13 53.79 586.18 53.57 585.38 Z M 51.89 570.75 L 54.83 568.05 C 55.46 567.39 56.02 566.97 56.77 566.99 L 64.66 566.99 C 65.84 566.99 66.5 568.11 66.5 568.91 L 66.5 570.75 Z M 36.21 594 L 36.21 574.25 C 36.21 572.73 37.39 572.25 38.04 572.25 L 66.5 572.25 L 66.5 594 Z M 13.5 545.64 C 13.5 542.71 20.59 540 31.87 540 C 40.49 540 49.09 542.36 49.09 545.6 C 49.09 548.93 40.5 551.24 31.35 551.24 C 20.97 551.24 13.5 548.59 13.5 545.64 Z M 33.94 588.69 C 28.73 588.93 22.55 588.5 18.32 586.92 C 16.23 586.14 13.5 584.45 13.5 581.86 L 13.5 549.59 C 17.02 552.32 24.99 553.6 31.18 553.49 C 37.06 553.49 44.66 552.79 49.09 549.59 L 49.09 570.08 L 38.08 570.08 C 35.39 570.08 33.94 572.31 33.94 573.95 Z" fill="#505050" stroke="none" pointer-events="all"/></g><g><path d="M 284 635.68 C 284 632.55 291.87 630 301.93 630 C 311.12 630 319.51 632.43 319.51 635.64 C 319.51 639.32 309.67 641.28 302.21 641.28 C 292.55 641.28 284 638.96 284 635.68 Z M 284 639.63 C 287.96 642.63 295.46 643.53 301.69 643.55 C 307.38 643.55 315.48 642.74 319.51 639.64 L 319.51 653.31 C 311.76 653.31 302.9 659.08 302.9 670.37 C 303.01 674.22 304.29 676.79 305.5 678.77 C 300.46 679 294.06 678.9 289.29 677.22 C 286.36 676.26 284 674.33 284 672.02 Z M 324.64 656.59 C 326.53 657.27 327.91 658.25 329.07 659.36 C 328.41 659.73 327.71 660.09 326.89 660.41 C 326.07 658.46 325.35 657.43 324.64 656.59 Z M 327.49 661.82 C 328.49 661.42 329.43 660.96 330.29 660.41 C 332.31 662.7 332.77 664.24 333.29 665.69 C 331.86 666.66 330.37 667.48 328.71 668 C 328.53 666.12 328.27 664.18 327.49 661.82 Z M 328.73 669.45 C 330.64 668.89 332.25 668.15 333.59 667.22 C 334 669.8 333.82 671.34 333.54 672.71 C 331.38 674.31 329.69 674.99 328.03 675.62 C 328.26 674.3 328.47 674.91 328.73 669.45 Z M 327.54 677.44 C 329.06 676.96 330.61 676.45 332.86 675.04 C 330.88 679.71 327.45 682.12 324.45 683.15 C 325.55 681.93 326.62 680.45 327.54 677.44 Z M 325.76 677.89 C 324.29 681.75 322.17 683.52 320.34 683.93 L 320.34 678.62 C 322.22 678.56 324.04 678.33 325.76 677.89 Z M 320.33 677.17 L 320.33 670.99 C 322.17 671.04 324.58 670.63 327.19 670.06 C 327.19 672.68 326.81 674.52 326.38 676.3 C 323.95 676.95 322.07 677.12 320.33 677.17 Z M 320.42 669.45 L 320.42 663.18 C 322.34 663.08 324.24 662.82 326.06 662.28 C 326.69 664.09 327.03 666.23 327.27 668.48 C 325.16 669.08 322.86 669.37 320.42 669.45 Z M 320.27 655.71 L 320.86 655.71 C 322.22 656.16 323.18 657.23 323.73 657.91 C 324.56 658.95 325.02 659.91 325.46 660.86 C 324.07 661.25 322.44 661.6 320.26 661.69 Z M 318.83 661.76 C 317.1 661.69 315.4 661.41 313.72 660.93 C 314.28 659.56 315.01 658.31 316.01 657.26 C 316.61 656.66 317.28 656.1 318.23 655.79 L 318.83 655.79 Z M 318.91 669.46 C 316.32 669.36 314.05 669.02 312.06 668.48 C 312.19 666.68 312.24 664.97 313.26 662.29 C 315.51 662.99 318.12 663.19 318.92 663.17 Z M 318.83 670.93 L 318.84 677.12 C 316.85 677.17 314.87 676.83 312.88 676.33 C 312.26 674.13 311.99 672.02 312 669.99 C 314.23 670.6 316.52 670.88 318.83 670.93 Z M 318.83 678.7 L 318.83 684 C 317.77 683.77 316.88 683.19 316.1 682.42 C 314.86 681.15 314.02 679.63 313.4 678.1 C 315.2 678.46 317.01 678.74 318.83 678.7 Z M 311.65 677.55 C 312.67 680.64 313.75 681.94 314.84 683.19 C 310.09 681.41 307.78 678.18 306.5 675.44 C 308.18 676.31 309.87 677.17 311.65 677.55 Z M 305.72 673.17 C 305.24 671.48 305.12 669.54 305.51 667.21 C 306.89 668.06 308.43 668.85 310.46 669.53 C 310.46 671.8 310.68 673.88 311.15 675.78 C 309.65 675.36 307.95 674.63 305.72 673.17 Z M 305.95 665.71 C 306.58 663.63 307.62 661.9 308.98 660.41 C 309.95 661.08 310.85 661.42 311.76 661.83 C 311 663.86 310.67 666.13 310.56 668.02 C 309.11 667.5 307.64 666.97 305.95 665.71 Z M 310.02 659.3 C 311.56 658.01 313.08 657.15 314.55 656.59 C 313.79 657.48 313.02 658.6 312.22 660.33 C 311.39 659.99 310.65 659.64 310.02 659.3 Z" fill="#505050" stroke="none" pointer-events="all"/></g><g><path d="M 260.5 670.12 L 260.5 668.64 L 269.5 668.64 L 269.5 670.12 Z M 260.5 673.84 L 260.5 672.35 L 269.5 672.35 L 269.5 673.84 Z M 220 634.13 C 220 630.74 228.61 628.5 237.97 628.5 C 245.75 628.5 255.25 630.58 255.25 634.06 C 255.25 637.29 247.06 639.65 237.24 639.65 C 228.59 639.65 220 637.29 220 634.13 Z M 232 676.53 C 230.11 676.35 226.22 675.84 223.37 674.37 C 221.3 673.36 220 671.61 220 670.01 L 220 638.01 C 223.99 641.07 231.86 641.88 237.25 641.89 C 241.85 641.86 250.63 641.46 255.25 638.02 L 255.25 651.55 L 232 651.55 Z M 234.25 676.06 L 234.25 653.77 L 266.5 653.77 L 266.5 656 L 265 656 L 265 655.27 L 235.75 655.27 L 235.75 674.58 L 236.5 674.58 L 236.5 676.06 Z M 238.06 679.78 L 238.06 657.47 L 270.25 657.47 L 270.25 659.72 L 268.75 659.72 L 268.75 658.97 L 239.5 658.97 L 239.5 678.3 L 240.25 678.3 L 240.25 679.78 Z M 252.24 672.2 C 250.63 672.2 249.32 670.75 249.32 669.08 C 249.32 667.17 250.74 665.81 252.25 665.81 C 253.44 665.81 255.17 666.74 255.17 669.07 C 255.17 670.47 254.11 672.2 252.24 672.2 Z M 260.5 677.55 L 260.5 676.07 L 269.5 676.07 L 269.5 677.55 Z M 246.4 679.04 C 246.56 677.43 246.67 675.74 247.06 674.44 C 247.36 673.32 248.22 673.07 249.16 672.55 C 249.29 672.46 249.68 672.31 249.94 672.6 C 250.87 673.35 251.63 673.58 252.5 673.54 C 253.37 673.49 254.25 673.05 254.77 672.54 C 254.87 672.39 255.15 672.39 255.43 672.5 C 255.68 672.59 256.46 673.02 256.82 673.29 C 257.29 673.63 257.51 674.18 257.63 674.6 C 257.81 675.02 258.14 677.55 258.4 679.04 Z M 243.25 682.01 L 272.5 682.01 L 272.5 662.7 L 243.25 662.7 Z M 241.75 683.5 L 241.75 661.2 L 274 661.2 L 274 683.5 Z" fill="#505050" stroke="none" pointer-events="all"/></g><g><path d="M 193.16 661.46 C 193.16 659.41 198.22 657.96 204.46 657.96 C 209.15 657.96 215 659.27 215 661.43 C 215 663.68 208.87 664.91 204.63 664.91 C 196.93 664.91 193.16 663.08 193.16 661.46 Z M 193.16 664.02 C 195.89 665.99 200.76 666.45 204.46 666.43 C 207.63 666.36 212.23 666.02 214.85 664.09 L 214.85 681.64 C 214.85 683.25 213.44 684.21 212.26 684.71 C 208.3 686.5 199.38 686.23 196.26 684.89 C 195.15 684.5 193.16 683.56 193.16 681.57 Z M 160.77 646.7 L 160.77 632.29 L 204.45 632.29 L 204.45 646.7 L 194.44 646.7 C 194.12 646.7 193.8 646.83 193.67 647.26 L 192.33 651.28 L 189.67 640.61 C 189.6 640.32 189.39 640.06 188.93 640.06 C 188.51 640.07 188.31 640.27 188.17 640.62 L 185.24 646.7 L 180.23 646.7 C 180 646.7 179.68 646.82 179.6 647.12 L 177.19 654.47 L 173.48 639.47 C 173.41 639.2 173.17 638.94 172.76 638.94 C 172.41 638.94 172.16 639.15 172.03 639.47 L 168.97 646.7 Z M 160.77 664.09 L 160.77 648.22 L 169.43 648.22 C 169.79 648.22 170.04 647.86 170.19 647.48 L 172.52 642.06 L 176.3 657.42 C 176.39 657.75 176.68 657.96 177.01 657.96 C 177.34 657.96 177.62 657.75 177.72 657.42 L 180.8 648.22 L 185.71 648.22 C 185.95 648.22 186.16 648.05 186.4 647.62 L 188.71 643.03 L 191.52 654.26 C 191.64 654.58 191.85 654.74 192.16 654.78 C 192.58 654.78 192.83 654.53 192.9 654.28 L 194.96 648.22 L 204.45 648.22 L 204.45 655.68 C 201.67 655.69 197.93 655.85 194.58 657.2 C 192.5 658.07 190.9 659.4 190.9 661.41 L 190.9 664.09 Z M 157 667.86 L 157 628.5 L 208.22 628.5 L 208.22 655.92 C 207.47 655.83 206.71 655.76 205.96 655.73 L 205.96 630.77 L 159.26 630.77 L 159.26 665.6 L 190.9 665.6 L 190.9 667.86 Z" fill="#505050" stroke="none" pointer-events="all"/></g><g><path d="M 90 635.67 C 90 632.42 97.97 630 108.27 630 C 115.62 630 125.12 632.08 125.12 635.62 C 125.12 639.4 114.96 641.3 108.13 641.3 C 97.45 641.3 90 638.72 90 635.67 Z M 110.92 678.89 C 105.82 679.13 100.19 678.94 95.5 677.42 C 92.8 676.54 90 674.81 90 671.97 L 90 639.64 C 94.15 642.76 101.82 643.6 108.07 643.56 C 112.33 643.56 120.75 642.93 125.12 639.64 L 125.12 654.87 L 114.66 654.87 L 114.66 658.64 L 113.91 658.64 L 113.91 665.41 L 113.69 665.42 L 110.92 676.43 Z M 143 685 L 113.14 685 L 113.14 676.4 L 115.27 667.4 L 116.13 667.4 L 116.13 660.48 L 140.01 660.48 L 140.01 667.4 L 140.87 667.4 L 143 676.39 Z M 138.74 676.4 L 138.74 661.76 L 117.4 661.76 L 117.4 676.4 Z M 131.91 673.81 L 120.39 673.81 L 120.39 672.53 L 131.91 672.53 Z M 129.35 670.8 L 120.39 670.8 L 120.39 669.51 L 129.35 669.51 Z M 133.61 667.36 L 133.61 663.49 L 137.03 663.49 L 137.03 667.36 Z M 118.26 659.18 L 116.97 659.18 L 116.97 657.03 L 139.15 657.03 L 139.15 659.18 L 137.88 659.18 L 137.88 658.32 L 118.26 658.32 Z" fill="#505050" stroke="none" pointer-events="all"/></g><g><path d="M 37.13 664.57 C 39.77 666.42 44.06 666.93 47.8 666.99 C 51.11 666.96 55.96 666.67 58.86 664.64 L 58.86 682.2 C 58.86 683.51 57.68 684.64 56.01 685.27 C 52.97 686.54 45.44 687 40.53 685.46 C 38.77 684.86 37.18 683.86 37.13 682.13 Z M 37.13 662.03 C 37.13 659.76 43.28 658.55 47.83 658.55 C 52.14 658.42 59 659.64 59 662.03 C 59 664.17 53.28 665.48 47.82 665.48 C 42.99 665.48 37.13 664.17 37.13 662.03 Z" fill="#cccbcb" stroke="none" pointer-events="all"/><rect x="16" y="630" width="0" height="0" fill="none" stroke="none" pointer-events="all"/><path d="M 16 682.73 L 16 632.92 C 16 631.45 17.36 630 18.92 630 L 40.24 630 C 41.61 630 43.16 631.24 43.16 632.92 L 43.16 656.62 C 41.26 656.9 39.41 657.3 37.75 658.16 C 36.03 659.02 34.84 660.33 34.86 661.98 L 34.86 667.67 L 21.28 667.67 L 21.28 669.93 L 34.86 669.93 L 34.86 674.44 L 21.28 674.44 L 21.28 676.7 L 34.86 676.7 L 34.86 682.5 C 34.86 682.58 34.87 682.66 34.89 682.73 Z M 21.28 639.04 L 37.88 639.04 L 37.88 636.78 L 21.28 636.78 Z" fill="#505050" stroke="none" pointer-events="all"/></g></g></svg>