<svg xmlns="http://www.w3.org/2000/svg" width="45.088" height="45.04" shape-rendering="geometricPrecision" image-rendering="optimizeQuality" fill-rule="evenodd" xmlns:v="https://vecta.io/nano"><path fill="#d31a1a" d="M42.538 12.107h-.4-17.5c-4.016-.634-7.399.533-10.15 3.5a15.172 15.172 0 0 0-1.55 2.4 391.45 391.45 0 0 0-9.4-7.1.3.3 0 0 0-.2-.2c3.498-5.52 8.465-8.97 14.9-10.35 8.516-1.351 15.666 1.133 21.45 7.45a20.62 20.62 0 0 1 2.85 4.3z" opacity=".997"/><path fill="#0fa05f" d="M3.338 10.707a.3.3 0 0 1 .2.2l8.6 13.5c1.21 5.027 4.377 7.91 9.5 8.65a13.73 13.73 0 0 0 2.3-.05l-2.4 11.4c.004.092.038.158.1.2l-.2.4c-7.132-.49-12.849-3.557-17.15-9.2-4.486-6.567-5.452-13.634-2.9-21.2.509-1.383 1.159-2.683 1.95-3.9z" opacity=".996"/><path fill="#be1817" d="M3.538 10.907a391.45 391.45 0 0 1 9.4 7.1c-.923 2.05-1.19 4.183-.8 6.4z"/><path fill="#fdfdfd" d="M24.638 12.107a11.02 11.02 0 0 1 6.2 3.8c2.77 3.868 3.02 7.901.75 12.1a27.003 27.003 0 0 1-1.35 1.8 11.44 11.44 0 0 1-6.3 3.2 13.73 13.73 0 0 1-2.3.05c-5.123-.74-8.29-3.623-9.5-8.65-.39-2.217-.123-4.35.8-6.4a15.172 15.172 0 0 1 1.55-2.4c2.751-2.967 6.134-4.134 10.15-3.5z"/><path fill="#e6b42c" d="M24.638 12.107h17.5l-11.2 3.65c-.056.038-.089.088-.1.15a11.02 11.02 0 0 0-6.2-3.8z"/><path fill="#fec831" d="M42.138 12.107h.4c2.452 4.812 3.135 9.879 2.05 15.2-1.708 7.07-5.791 12.254-12.25 15.55a22.36 22.36 0 0 1-10.9 2.15l.2-.4 8.6-14.8a27.003 27.003 0 0 0 1.35-1.8c2.27-4.199 2.02-8.232-.75-12.1.011-.062.044-.112.1-.15z" opacity=".997"/><path fill="#367bf0" d="M21.238 13.807c3.823-.313 6.773 1.12 8.85 4.3 1.385 2.602 1.518 5.269.4 8-2.078 3.914-5.328 5.564-9.75 4.95-3.836-1.003-6.12-3.453-6.85-7.35-.219-5.3 2.231-8.6 7.35-9.9z"/><path fill="#139156" d="M30.238 29.807l-8.6 14.8c-.062-.042-.096-.108-.1-.2l2.4-11.4a11.44 11.44 0 0 0 6.3-3.2z" opacity=".999"/></svg>