<?xml version="1.0" encoding="UTF-8" standalone="no"?> <svg viewBox="0 0 48.000008 48.245232" version="1.1" id="svg24" width="45" height="45" xmlns="http://www.w3.org/2000/svg" xmlns:svg="http://www.w3.org/2000/svg">   <path   d="m 43.32991,35.985065 a 17.568203,17.568203 0 0 1 -1.98744,0.88122 19.105655,19.105655 0 0 1 -6.73104,1.19997 c -8.86847,0 -16.59323,-6.09356 -16.59323,-13.93082 a 5.906066,5.906066 0 0 1 3.0749,-5.11859 c -8.02475,0.33749 -10.08719,8.69973 -10.08719,13.59333 0,13.87457 12.76836,15.26202 15.52452,15.26202 1.48121,0 3.71239,-0.43123 5.06235,-0.86247 l 0.24374,-0.075 a 24.055501,24.055501 0 0 0 12.48711,-9.89969 0.74997664,0.74997664 0 0 0 -0.99372,-1.04997 z"   style="fill:#0000b9;stroke-width:0.187494"   id="path19" />   <path   d="m 19.81814,45.509775 a 14.849538,14.849538 0 0 1 -4.25612,-3.99363 15.130778,15.130778 0 0 1 5.53108,-22.4993 c 0.59998,-0.28124 1.5937,-0.76873 2.92491,-0.74998 a 6.0748108,6.0748108 0 0 1 4.8186,2.43743 5.9810637,5.9810637 0 0 1 1.18122,3.50614 c 0,-0.0375 4.5936,-14.9245401 -14.99954,-14.9245401 -8.231,0 -14.99954,7.7997601 -14.99954,14.6620501 a 24.41174,24.41174 0 0 0 2.26868,10.49967 23.999253,23.999253 0 0 0 29.3241,12.56211 14.155809,14.155809 0 0 1 -11.77464,-1.49995 z"   style="fill:#0798ba;stroke-width:0.187494"   id="path21" />   <path   d="m 28.57412,28.166555 c -0.16874,0.1875 -0.63748,0.46874 -0.63748,1.04997 0,0.48749 0.31874,0.97497 0.89997,1.36871 2.68117,1.87494 7.76226,1.61245 7.78101,1.61245 a 11.174652,11.174652 0 0 0 5.68107,-1.5562 11.512141,11.512141 0 0 0 5.69983,-9.91844 c 0.0563,-4.19987 -1.49996,-6.99354 -2.11869,-8.231 C 41.88621,4.7297849 33.31772,0.26742488 23.99926,0.26742488 A 23.999253,23.999253 0 0 0 0,23.929195 c 0.0937,-6.84354 6.89979,-12.37462 14.99954,-12.37462 0.65623,0 4.40611,0.0562 7.87476,1.87494 a 13.612076,13.612076 0 0 1 5.79357,5.49358 c 1.14371,1.98744 1.34996,4.51861 1.34996,5.53108 0,1.01247 -0.50624,2.49367 -1.46246,3.73113 z"   style="fill:#77d953;stroke:none;stroke-width:0.187494"   id="path23" />   <path   d="m 28.898939,26.42683 c -0.124918,0.2137 -0.519279,0.577606 -0.404407,1.134873 0.09634,0.467391 0.498649,0.870678 1.13439,1.131304 2.944221,1.258482 7.769695,-0.01495 7.787695,-0.01872 A 10.928992,10.969609 48.19344 0 0 42.562329,26.039836 11.259061,11.300906 48.194584 0 0 46.07337,15.384132 C 45.297366,11.346095 43.251376,8.9805538 42.41289,7.9185328 37.045298,1.2793747 27.938454,-1.2759675 18.993639,0.59788746 A 23.471661,23.558895 48.194795 0 0 0.633102,28.110156 C -0.6294867,21.52992 4.8105575,14.858235 12.58553,13.229452 c 0.629917,-0.131962 4.240546,-0.832143 7.929562,0.214098 a 13.312832,13.362309 48.193039 0 1 6.646995,4.102057 c 1.490641,1.675513 2.188872,4.060853 2.388973,5.03158 0.2001,0.970727 0.0069,2.492662 -0.666414,3.871389 z"   style="fill:#41a8a6;stroke-width:0.183711"   id="path24" /> </svg>