<?xml version="1.0" encoding="UTF-8"?>
<!DOCTYPE svg PUBLIC "-//W3C//DTD SVG 1.1//EN" "http://www.w3.org/Graphics/SVG/1.1/DTD/svg11.dtd">
<svg xmlns="http://www.w3.org/2000/svg" xmlns:xlink="http://www.w3.org/1999/xlink" version="1.1" width="45px" height="56px" viewBox="-0.5 -0.5 45 56"><defs/><g><g><rect x="0" y="0" width="45" height="56" fill="none" stroke="none" pointer-events="all"/><path d="M 5.29 9.07 L 21.94 9.07 L 21.94 6.8 L 5.29 6.8 Z M 0 52.92 L 0 2.93 C 0 1.37 1.43 0 2.9 0 L 24.21 0 C 25.95 0 27.23 1.46 27.23 2.97 L 27.23 27.78 C 27.04 28.01 26.87 28.24 26.74 28.5 L 21.67 37.8 L 5.29 37.8 L 5.29 40.07 L 20.44 40.07 L 17.98 44.59 L 5.29 44.59 L 5.29 46.88 L 16.75 46.88 L 13.46 52.92 Z M 25.66 48.08 L 28.92 41.93 C 28.44 41.77 27.92 41.51 27.62 41.18 L 24.26 47.43 C 24.76 47.49 25.32 47.81 25.66 48.08 Z M 34.05 47.9 C 34.44 47.61 34.88 47.43 35.44 47.33 L 32.08 41.09 C 31.74 41.47 31.28 41.73 30.78 41.84 Z M 32.74 51.42 C 32.61 51.2 32.63 50.2 32.73 49.94 L 26.88 49.94 C 27.01 50.3 27 51.11 26.88 51.42 Z M 23.58 53.3 C 25.15 53.3 26.23 52.03 26.23 50.75 C 26.23 48.99 24.84 48.08 23.55 48.08 C 22.52 48.08 21.02 48.9 21.02 50.73 C 21.02 52.09 22.16 53.3 23.58 53.3 Z M 16.47 55.99 C 15.57 55.99 14.82 55.35 15.3 54.27 L 28.73 29.57 C 29.49 28.37 30.43 28.69 30.97 29.55 L 44.45 54.15 C 45 55.21 44.43 56 43.3 55.99 Z M 35.96 53.29 C 37.54 53.29 38.61 52.03 38.61 50.75 C 38.61 48.98 37.22 48.07 35.93 48.07 C 34.9 48.07 33.39 48.9 33.39 50.73 C 33.39 52.09 34.53 53.29 35.96 53.29 Z M 29.82 41.29 C 31.4 41.29 32.46 40.03 32.46 38.74 C 32.46 36.99 31.08 36.07 29.79 36.07 C 28.76 36.07 27.25 36.91 27.25 38.72 C 27.25 40.1 28.39 41.29 29.82 41.29 Z" fill="#505050" stroke="none" pointer-events="all"/></g></g></svg>