<?xml version="1.0" encoding="UTF-8"?>
<!DOCTYPE svg PUBLIC "-//W3C//DTD SVG 1.1//EN" "http://www.w3.org/Graphics/SVG/1.1/DTD/svg11.dtd">
<svg xmlns="http://www.w3.org/2000/svg" xmlns:xlink="http://www.w3.org/1999/xlink" version="1.1" width="48px" height="57px" viewBox="-0.5 -0.5 48 57"><defs/><g><rect x="0" y="0" width="48" height="57" fill="none" stroke="none" pointer-events="all"/><path d="M 5.23 9.01 L 21.67 9.01 L 21.67 6.76 L 5.23 6.76 Z M 0 52.56 L 0 2.9 C 0 1.39 1.39 0 2.91 0 L 24.01 0 C 25.5 0 26.9 1.37 26.9 2.91 L 26.9 27.72 C 22.69 29.59 19.41 33.34 18.03 37.55 L 5.23 37.55 L 5.23 39.8 L 17.45 39.8 C 17.23 41.12 17.1 42.64 17.26 44.3 L 5.23 44.3 L 5.23 46.56 L 17.6 46.56 C 18.16 48.88 19.1 50.86 20.36 52.56 Z M 24.21 32.14 C 25.73 30.84 27.24 29.97 28.7 29.43 C 27.95 30.31 27.19 31.44 26.38 33.19 C 25.56 32.84 24.83 32.49 24.21 32.14 Z M 20.17 38.59 C 20.79 36.5 21.83 34.76 23.17 33.27 C 24.14 33.93 25.03 34.27 25.93 34.68 C 25.18 36.74 24.85 39.02 24.74 40.92 C 23.29 40.4 21.86 39.86 20.17 38.59 Z M 19.94 46.1 C 19.47 44.39 19.34 42.45 19.73 40.11 C 21.09 40.95 22.63 41.75 24.65 42.43 C 24.64 44.71 24.86 46.82 25.33 48.73 C 23.84 48.31 22.15 47.58 19.94 46.1 Z M 25.83 50.52 C 26.84 53.62 27.92 54.93 28.99 56.18 C 24.28 54.4 21.98 51.15 20.71 48.38 C 22.39 49.26 24.06 50.13 25.83 50.52 Z M 32.96 51.66 L 32.96 57 C 31.89 56.77 31.01 56.19 30.24 55.41 C 29 54.14 28.17 52.6 27.56 51.07 C 29.35 51.43 31.14 51.7 32.96 51.66 Z M 32.96 43.85 L 32.96 50.08 C 30.98 50.13 29.02 49.79 27.05 49.28 C 26.42 47.07 26.15 44.95 26.16 42.9 C 28.39 43.51 30.66 43.8 32.96 43.85 Z M 33.03 42.36 C 30.46 42.27 28.2 41.92 26.22 41.38 C 26.35 39.57 26.4 37.85 27.42 35.15 C 29.66 35.85 32.24 36.05 33.04 36.03 Z M 32.96 34.61 C 31.23 34.54 29.55 34.26 27.89 33.78 C 28.44 32.4 29.16 31.15 30.15 30.09 C 30.75 29.49 31.4 28.93 32.36 28.61 L 32.96 28.61 Z M 34.37 28.54 L 34.96 28.54 C 36.31 28.99 37.27 30.05 37.82 30.75 C 38.64 31.79 39.09 32.75 39.52 33.71 C 38.15 34.1 36.54 34.46 34.37 34.54 Z M 34.52 42.36 L 34.52 36.04 C 36.43 35.95 38.32 35.69 40.13 35.14 C 40.75 36.97 41.09 39.12 41.33 41.37 C 39.23 41.98 36.94 42.27 34.52 42.36 Z M 34.44 50.13 L 34.44 43.91 C 36.26 43.96 38.66 43.55 41.25 42.97 C 41.26 45.61 40.87 47.47 40.45 49.25 C 38.03 49.9 36.16 50.07 34.44 50.13 Z M 39.83 50.85 C 38.37 54.74 36.26 56.52 34.45 56.93 L 34.45 51.58 C 36.32 51.53 38.12 51.3 39.83 50.85 Z M 41.6 50.4 C 43.11 49.92 44.65 49.4 46.87 47.98 C 44.91 52.68 41.5 55.11 38.53 56.15 C 39.61 54.93 40.68 53.44 41.6 50.4 Z M 42.78 42.36 C 44.67 41.8 46.27 41.04 47.59 40.11 C 48 42.71 47.82 44.26 47.54 45.65 C 45.41 47.25 43.73 47.94 42.08 48.57 C 42.31 47.25 42.52 47.86 42.78 42.36 Z M 41.55 34.68 C 42.54 34.27 43.47 33.8 44.32 33.27 C 46.33 35.57 46.78 37.11 47.3 38.58 C 45.89 39.55 44.4 40.38 42.76 40.89 C 42.58 39.01 42.32 37.06 41.55 34.68 Z M 38.71 29.42 C 40.6 30.09 41.96 31.09 43.12 32.21 C 42.46 32.58 41.76 32.94 40.95 33.26 C 40.14 31.3 39.41 30.26 38.71 29.42 Z" fill="#505050" stroke="none" pointer-events="all"/></g></svg>