<?xml version="1.0" encoding="UTF-8"?>
<!DOCTYPE svg PUBLIC "-//W3C//DTD SVG 1.1//EN" "http://www.w3.org/Graphics/SVG/1.1/DTD/svg11.dtd">
<svg xmlns="http://www.w3.org/2000/svg" xmlns:xlink="http://www.w3.org/1999/xlink" version="1.1" width="59px" height="47px" viewBox="-0.5 -0.5 59 47"><defs/><g><rect x="0" y="0" width="59" height="47" fill="none" stroke="none" pointer-events="all"/><path d="M 39.58 4.2 L 41.82 4.2 L 41.82 2.1 L 39.58 2.1 Z M 44.06 4.2 L 46.3 4.2 L 46.3 2.1 L 44.06 2.1 Z M 23.15 37.79 L 2.92 37.79 C 1.36 37.79 0 36.47 0 35.05 L 0 2.78 C 0 1.08 1.57 0 2.9 0 L 50.08 0 C 51.81 0 53.03 1.45 53.03 2.72 L 53.03 14.28 L 50.78 14.58 L 50.78 7 L 2.24 7 L 2.24 35.01 C 2.24 35.48 2.66 35.69 2.94 35.69 L 23.15 35.69 Z M 48.54 4.2 L 50.78 4.2 L 50.78 2.1 L 48.54 2.1 Z M 25.44 42.41 L 25.44 31.49 L 38.84 31.49 L 38.84 44.23 Z M 39.57 44.3 L 39.57 31.49 L 59 31.49 L 59 47 Z M 39.57 30.76 L 39.57 17.98 L 59 15.4 L 59 30.76 Z M 38.84 30.76 L 25.44 30.76 L 25.44 19.88 L 38.84 18.09 Z" fill="#505050" stroke="none" pointer-events="all"/></g></svg>