<?xml version="1.0" encoding="UTF-8"?>
<!DOCTYPE svg PUBLIC "-//W3C//DTD SVG 1.1//EN" "http://www.w3.org/Graphics/SVG/1.1/DTD/svg11.dtd">
<svg xmlns="http://www.w3.org/2000/svg" xmlns:xlink="http://www.w3.org/1999/xlink" version="1.1" width="45px" height="45px" viewBox="-0.5 -0.5 45 45"><defs/><g><rect x="0" y="-0.5" width="45" height="45" fill="none" stroke="none" pointer-events="all"/><path d="M 27.13 22.87 C 27.51 22.49 27.76 21.55 27.03 20.81 L 13.88 8.34 C 12.97 7.6 11.62 7.45 10.53 8.41 C 9.45 9.53 9.76 11.1 10.56 11.87 L 21.04 21.81 L 10.68 30.97 C 9.82 31.77 9.46 33.06 10.14 34.2 C 11.05 35.66 12.84 35.57 13.82 34.73 Z M 34.15 35.42 C 34.97 35.42 35.98 34.74 35.98 33.53 C 35.98 32.53 35.22 31.65 34.13 31.65 L 23.66 31.65 C 22.99 31.65 21.86 32.24 21.86 33.49 C 21.86 34.63 22.74 35.42 23.69 35.42 Z M 2.88 44.5 C 1.4 44.5 0 43.24 0 41.63 L 0 2.32 C 0 0.69 1.53 -0.5 2.79 -0.5 L 42.05 -0.5 C 43.64 -0.5 45 0.76 45 2.41 L 45 41.61 C 45 43.4 43.5 44.5 42.21 44.5 Z" fill="#505050" stroke="none" pointer-events="all"/></g></svg>