<?xml version="1.0" encoding="UTF-8"?>
<svg xmlns="http://www.w3.org/2000/svg" width="18.922" height="30.721" preserveAspectRatio="xMidYMid" viewBox="0 0 31.454 51.12"><path d="M24.806 28.314c-1.991 0-3.776.882-4.998 2.27l-3.132-2.216a8.55 8.55 0 0 0 .524-2.927 8.55 8.55 0 0 0-.506-2.879l3.125-2.194a6.644 6.644 0 0 0 4.987 2.26 6.672 6.672 0 0 0 6.664-6.665A6.672 6.672 0 0 0 24.806 9.3a6.672 6.672 0 0 0-6.664 6.664c0 .658.099 1.292.277 1.893l-3.127 2.194a8.602 8.602 0 0 0-5.33-3.097v-3.768c3.02-.634 5.294-3.316 5.294-6.52A6.672 6.672 0 0 0 8.592 0a6.672 6.672 0 0 0-6.664 6.664c0 3.162 2.215 5.81 5.174 6.49v3.818c-4.038.708-7.118 4.232-7.118 8.469 0 4.258 3.11 7.794 7.177 8.479v4.03c-2.988.658-5.233 3.323-5.233 6.506a6.672 6.672 0 0 0 6.664 6.664 6.672 6.672 0 0 0 6.664-6.664c0-3.183-2.245-5.848-5.233-6.505V33.92a8.605 8.605 0 0 0 5.239-3.047l3.153 2.231a6.632 6.632 0 0 0-.273 1.874 6.672 6.672 0 0 0 6.664 6.664 6.672 6.672 0 0 0 6.664-6.664 6.672 6.672 0 0 0-6.664-6.664zm0-15.582c1.781 0 3.23 1.45 3.23 3.231s-1.449 3.231-3.23 3.231a3.235 3.235 0 0 1-3.231-3.23 3.235 3.235 0 0 1 3.23-3.232zM5.36 6.664c0-1.781 1.45-3.23 3.231-3.23 1.782 0 3.23 1.449 3.23 3.23s-1.448 3.231-3.23 3.231a3.235 3.235 0 0 1-3.231-3.23zm6.462 37.792c0 1.781-1.45 3.231-3.231 3.231a3.235 3.235 0 0 1-3.231-3.23c0-1.782 1.45-3.232 3.231-3.232 1.782 0 3.23 1.45 3.23 3.231zM8.592 29.947a4.511 4.511 0 0 1-4.507-4.506 4.512 4.512 0 0 1 4.507-4.507 4.512 4.512 0 0 1 4.506 4.507 4.511 4.511 0 0 1-4.506 4.506zm16.214 8.262a3.235 3.235 0 0 1-3.231-3.23c0-1.782 1.449-3.232 3.23-3.232 1.782 0 3.232 1.45 3.232 3.231a3.235 3.235 0 0 1-3.231 3.231z" style="fill:#231f20;stroke-width:.12299"/></svg>