<?xml version="1.0" encoding="UTF-8" standalone="no"?>
<!-- Generator: Adobe Illustrator 14.0.0, SVG Export Plug-In . SVG Version: 6.00 Build 43363)  -->

<svg
   xmlns:dc="http://purl.org/dc/elements/1.1/"
   xmlns:cc="http://creativecommons.org/ns#"
   xmlns:rdf="http://www.w3.org/1999/02/22-rdf-syntax-ns#"
   xmlns:svg="http://www.w3.org/2000/svg"
   xmlns="http://www.w3.org/2000/svg"
   xmlns:sodipodi="http://sodipodi.sourceforge.net/DTD/sodipodi-0.dtd"
   xmlns:inkscape="http://www.inkscape.org/namespaces/inkscape"
   version="1.1"
   x="0px"
   y="0px"
   width="108.95398"
   height="129.71484"
   viewBox="0 0 108.95398 129.71484"
   enable-background="new 0 0 300 200"
   xml:space="preserve"
   id="svg1064"
   sodipodi:docname="Tomcat-lhead-ogo.svg"
   inkscape:version="0.92.4 (5da689c313, 2019-01-14)"><metadata
   id="metadata1070"><rdf:RDF><cc:Work
       rdf:about=""><dc:format>image/svg+xml</dc:format><dc:type
         rdf:resource="http://purl.org/dc/dcmitype/StillImage" /><dc:title></dc:title></cc:Work></rdf:RDF></metadata><defs
   id="defs1068" /><sodipodi:namedview
   pagecolor="#ffffff"
   bordercolor="#666666"
   borderopacity="1"
   objecttolerance="10"
   gridtolerance="10"
   guidetolerance="10"
   inkscape:pageopacity="0"
   inkscape:pageshadow="2"
   inkscape:window-width="1870"
   inkscape:window-height="947"
   id="namedview1066"
   showgrid="false"
   inkscape:zoom="3.815"
   inkscape:cx="9.5599359"
   inkscape:cy="40.110308"
   inkscape:window-x="50"
   inkscape:window-y="0"
   inkscape:window-maximized="1"
   inkscape:current-layer="svg1064"
   fit-margin-top="0"
   fit-margin-left="0"
   fit-margin-right="0"
   fit-margin-bottom="0" />
<g
   id="Calque_3"
   transform="translate(-140.44006,-8.7158203)">
	<g
   id="XMLID_1_">
		
		
		<path
   d="m 244.5,44.849609 c 0.81055,39.69043 -19.43945,71.280271 -47.79004,87.480471 -48.12012,-23.96973 -57.18017,-84.709963 -48.97998,-117.290041 2.27979,12.459961 6.43018,20.270508 15.39014,24.100586 19.54004,-5.59082 46.42968,-6.03125 66.24023,-0.570313 8.25,-6 11.4502,-15.169921 13.2002,-23.179687 2.17968,9.319336 1.92968,29.458984 1.93945,29.458984 z"
   id="path1019"
   inkscape:connector-curvature="0"
   style="fill:#ffdc76" />
	</g>
</g>
<g
   id="Layer_1"
   transform="translate(-140.44006,-8.7158203)">
	
	
	
	
	
	<polygon
   points="202.86523,33.207031 188.99609,33.478516 197.42676,51.970703 "
   id="polygon1033" />
	<polygon
   points="147.66113,68.287109 146.30176,60.400391 159.62695,67.470703 "
   id="polygon1035" />
	<polygon
   points="150.9248,79.980469 149.56494,74.814453 157.72314,78.077148 "
   id="polygon1037" />
	<polygon
   points="242.84082,71.550781 244.74512,65.568359 233.86719,70.191406 "
   id="polygon1039" />
	<polygon
   points="238.76172,83.788086 240.39355,78.892578 231.96387,81.34082 "
   id="polygon1041" />
</g>
<g
   id="Calque_4"
   transform="translate(-140.44006,-8.7158203)">
	<rect
   x="141.92334"
   y="99.302734"
   width="26.244629"
   height="3.2392578"
   id="rect1044" />
	<rect
   x="141.92334"
   y="91.525391"
   width="26.244629"
   height="3.2402344"
   id="rect1046" />
	<rect
   x="222.06348"
   y="99.302734"
   width="26.244141"
   height="3.2392578"
   id="rect1048" />
	<rect
   x="222.06348"
   y="91.525391"
   width="26.244141"
   height="3.2402344"
   id="rect1050" />
	<g
   id="g1056">
		<path
   d="m 212.81348,72.316406 h -27.1875 -3.02051 -12.56055 v -2.916015 h 13.30957 c 1.63867,-7.017578 1.96289,-13.72461 -0.0137,-17.125 -0.84375,-1.445313 -2.00977,-2.121094 -3.67383,-2.121094 -7.60937,0 -10.75293,8.046875 -10.88379,8.388672 l 0.002,-0.002 -2.73047,-1.024414 c 0.15625,-0.419922 3.96484,-10.278321 13.6123,-10.278321 2.69238,0 4.83399,1.236328 6.19141,3.570313 2.41015,4.140625 2.12695,11.304687 0.49414,18.591797 h 23.35449 c 3.10254,-9.115235 9.58106,-13.413086 20.40527,-13.413086 v 2.915039 c -11.73242,0 -15.01855,4.973633 -17.36621,10.498047 h 12.74317 l -0.0293,2.901367 z"
   id="path1052"
   inkscape:connector-curvature="0" />
		<path
   d="m 214.73047,86.717773 0.0186,-0.0029 c -3.45898,-5.100586 -4.55468,-9.455078 -3.10839,-14.413086 l -2.97071,0.01465 c -1.03515,3.300781 -0.62012,8.273438 1.92871,12.540039 h -29.6748 c 1.80566,-3.616211 3.47949,-8.02539 4.70215,-12.540039 h -3.02051 c -1.34766,4.78711 -3.24121,9.524414 -5.37207,13.277344 l -0.68945,1.212891 16.65234,10.482421 -9.375,6.177737 1.60547,2.43554 10.47851,-6.908198 11.31153,7.381838 1.55371,-2.46778 -10.48828,-6.488277 c 0,0 15.68164,-10.186523 16.46093,-10.683594 -0.005,-0.0068 -0.008,-0.01269 -0.0127,-0.01856 z m -18.86035,8.808594 -12.31739,-7.754883 24.07129,0.0059 z"
   id="path1054"
   inkscape:connector-curvature="0" />
	</g>
</g>
<g
   id="Calque_2"
   transform="translate(-140.44006,-8.7158203)">
	<path
   d="m 249.39404,41.333008 c -0.0185,-5.070313 -1.59765,-26.5 -4.5,-32.4003908 -7.86914,2.9902348 -22.18945,12.6796878 -25.43066,22.5878908 -15.53223,-2.319336 -33.04199,-2.044922 -48.38086,0.609375 -2.5625,-10.660157 -15.42432,-18.81836 -25.12744,-23.4140627 -4.09278,6.9062497 -5.90625,22.9199217 -5.44483,34.2792967 -0.0176,0.01172 -0.0366,0.02344 -0.0542,0.03613 1.79981,47.700195 25.19971,77.399413 55.79932,95.399413 31.48145,-17.98828 53.97168,-53.05664 53.10059,-97.119139 0.0127,0.0078 0.0264,0.01367 0.0381,0.02148 z m -26.19629,-9.196289 c 0.11426,0.02051 0.22852,0.04199 0.34375,0.06348 -0.11425,-0.02148 -0.22851,-0.04297 -0.34375,-0.06348 z m -1.958,-0.337891 c 0.27539,0.04395 0.55371,0.09375 0.83007,0.140625 -0.27636,-0.04687 -0.55273,-0.09473 -0.83007,-0.140625 z m 23.25683,12.975586 c 0.80957,39.69043 -19.44043,71.279296 -47.79004,87.480466 -48.11816,-23.97656 -57.18261,-84.710935 -48.97705,-117.28906 2.28272,12.455078 6.42432,20.266602 15.39356,24.098633 19.53271,-5.59082 46.42334,-6.032226 66.23095,-0.569336 8.25489,-6.001953 11.45606,-15.169922 13.20411,-23.179687 2.18359,9.321289 1.93164,29.455078 1.93847,29.458984 z"
   id="path1059"
   inkscape:connector-curvature="0" />
	
</g>
</svg>