<svg xmlns="http://www.w3.org/2000/svg" width="681.513" height="743.649" viewBox="0 0 180.317 196.757" xmlns:v="https://vecta.io/nano"><path d="M134.05 36.032c-1.458 3.496-3.308 6.816-5.535 9.865-9.747-9.784-22.977-15.286-36.761-15.286-28.512 0-51.976 23.579-51.976 52.24 0 14.296 5.832 27.983 16.146 37.848l1.917 1.707c9.369 7.927 21.236 12.291 33.48 12.291 27.108 0 49.897-21.33 51.827-48.513 1.418-13.307-2.471-30.138-9.099-50.153zm-70.741 84.966a4.45 4.45 0 0 1-3.456 1.653c-2.444 0-4.442-2.019-4.442-4.472s2.012-4.472 4.442-4.472a4.39 4.39 0 0 1 2.795 1.003 4.5 4.5 0 0 1 .662 6.288zm70.525-15.638c-12.825 17.169-40.217 11.383-57.781 12.21 0 0-3.119.19-6.251.705 0 0 1.175-.501 2.7-1.084 12.326-4.309 18.158-5.149 25.65-9.012 14.108-7.209 28.053-22.983 30.956-39.393-5.373 15.787-21.654 29.352-36.491 34.867-10.166 3.767-28.526 7.426-28.526 7.426l-.743-.393c-12.501-6.112-12.879-33.309 9.842-42.09 9.95-3.849 19.467-1.735 30.213-4.309 11.475-2.737 24.746-11.383 30.146-22.658 6.048 18.037 13.325 46.277.284 63.731zm-46.909 90.362c-5.622-3.248-22.454-15.895-25.623-19.253-.922-.977-2.719-2.612-3.994-3.633l-2.318-1.857h-6.88-6.88l-.142 3.228c-.129 2.933-.251 3.272-1.339 3.712-.772.312-8.032.398-20.432.244l-19.234-.239 4.958-5.508c2.727-3.029 5.219-5.986 5.538-6.57.527-.967.287-1.389-2.678-4.701-1.791-2.002-4.303-4.521-5.58-5.598S0 153.405 0 153.182s4.64-.404 10.31-.404h10.31l-.314-3.069c-.705-6.883.346-8.044 7.235-7.989 3.549.028 4.518-.099 4.241-.559-.197-.328-1.043-1.673-1.879-2.991-4.31-6.787-10.317-20.9-13.86-32.567C8.603 81.108 6.507 61.52 8.585 35.92c1.199-14.765 2.172-21.561 3.444-24.056 1.931-3.786 5.623-4.12 13.354-1.205 12.809 4.829 28.596 4.707 43.862-.34 4.69-1.55 12.288-5.263 16.674-8.146C87.736.977 89.537 0 89.922 0s2.302 1.072 4.26 2.382c14.428 9.65 35.581 14.026 51.891 10.735 1.976-.399 6.06-1.573 9.076-2.611 5.959-2.049 7.938-2.276 10.1-1.158 2.325 1.202 3.32 3.901 4.301 11.666 4.722 37.377 1.427 67.14-10.9 98.478-2.802 7.124-6.452 14.736-8.955 18.678l-1.877 2.988c-.275.457.687.576 4.182.52 6.873-.11 7.974 1.099 7.326 8.043l-.285 3.056 10.638.015 10.638.015-6.46 6.146-6.46 6.146 6.12 6.352c3.366 3.494 6.047 6.424 5.959 6.513s-9.069.186-19.958.218c-22.806.066-21.347.364-21.347-4.349v-2.856h-6.718c-7.669 0-7.169-.191-12.441 4.755-4.911 4.607-9.611 8.34-17.958 14.261-10.628 7.54-10.841 7.627-14.128 5.728zm7.184-6.352l8.86-6.08c5.869-3.994 13.889-10.863 13.889-11.897 0-.228-1.578-.415-3.506-.415-3.336 0-3.604.084-5.531 1.733-2.19 1.875-3.219 2.023-1.259.181.657-.618 1.195-1.301 1.195-1.518s-8.082-.395-17.96-.395-17.96.182-17.96.405.432.796.961 1.274.859.971.734 1.096-.995-.449-1.935-1.274c-1.615-1.418-1.923-1.501-5.598-1.501H62.11l.912 1.03c2.724 3.075 22.283 17.871 25.229 19.084 1.557.642 3.156.171 5.856-1.723zm-60.585-13.875c0-.15-2.652-1.541-5.894-3.092-4.326-2.069-6.078-3.165-6.585-4.117-.496-.931-.689-2.967-.684-7.205l.006-5.908H13.04c-8.701 0-8.585-.334-2.051 5.884l4.335 4.125-1.762 1.341c-1.864 1.419-7.816 8.149-7.816 8.838 0 .223 6.25.406 13.889.406s13.889-.123 13.889-.272zm140.326-.018c0-.159-2.147-2.648-4.77-5.53l-4.77-5.24 4.89-4.723c2.689-2.598 4.771-4.844 4.626-4.992s-3.486-.136-7.423.025l-7.159.294v6.037c0 7.204-.461 8.273-4.028 9.332-2.602.773-8.929 3.874-9.374 4.595-.205.331 4.308.491 13.853.491 7.786 0 14.157-.13 14.157-.29zm-135.058-2.344v-2.155H35.48c-5.371 0-5.574.406-1.219 2.448 2.098.983 3.976 1.805 4.173 1.825s.359-.932.359-2.118zm107.814-.758c.76-.541 1.382-1.131 1.383-1.31s-1.616-.256-3.592-.169l-3.593.158v2.1 2.1l2.21-.947c1.216-.521 2.832-1.39 3.592-1.931zm8.597-4.767c.875-.469.926-1.113.926-11.734v-11.238h-66.33-66.332v11.159c0 8.041.161 11.32.575 11.734.764.764 129.738.841 131.162.079zM43.247 140.925c-.291-.798-.26-.798.651 0 .897.785 3.781.838 45.901.838s45.004-.053 45.901-.838c.911-.798.942-.798.651 0-.27.739.034.838 2.576.838 3.714 0 3.921-.23 8.908-9.892 9.874-19.131 15.736-38.677 18.364-61.229.876-7.519 1.123-23.403.507-32.567-.588-8.743-2.096-21.806-2.696-23.361-.641-1.66-1.92-1.868-4.871-.791-19.162 6.991-37.785 6.322-56.876-2.042-2.377-1.041-5.859-2.847-7.739-4.014-1.913-1.187-4.007-2.12-4.756-2.12-.755 0-2.638.847-4.32 1.943-5.834 3.801-16.658 7.909-26.06 9.891-3.093.652-6.258.858-13.171.858-10.312 0-13.501-.503-22.915-3.616-6.302-2.084-7.076-2.023-7.916.619-.551 1.732-1.649 11.648-2.505 22.626-.681 8.73-.315 26.33.723 34.73 2.242 18.146 6.556 34 13.404 49.257 3.232 7.201 8.723 17.604 9.927 18.808.681.681 1.6.901 3.759.901 2.52 0 2.822-.099 2.553-.838z" fill="#77bc1f"/><text xml:space="preserve" x="-98.145" y="285.952" transform="matrix(1.3249 0 0 .754774 165.949 -51.006)" font-size="35.18" fill="#77bc1f"><tspan x="-98.145" y="285.952" font-weight="bold" font-family="Calibri">ASPIS</tspan></text></svg>