<?xml version="1.0" encoding="UTF-8" standalone="no"?>
<svg
   xmlns:dc="http://purl.org/dc/elements/1.1/"
   xmlns:cc="http://creativecommons.org/ns#"
   xmlns:rdf="http://www.w3.org/1999/02/22-rdf-syntax-ns#"
   xmlns:svg="http://www.w3.org/2000/svg"
   xmlns="http://www.w3.org/2000/svg"
   xmlns:sodipodi="http://sodipodi.sourceforge.net/DTD/sodipodi-0.dtd"
   xmlns:inkscape="http://www.inkscape.org/namespaces/inkscape"
   aria-label="Docker"
   role="img"
   viewBox="0 0 512 512"
   version="1.1"
   id="svg853"
   sodipodi:docname="docker_icon.svg"
   width="512"
   height="512"
   inkscape:version="1.0.1 (3bc2e813f5, 2020-09-07)">
  <metadata
     id="metadata859">
    <rdf:RDF>
      <cc:Work
         rdf:about="">
        <dc:format>image/svg+xml</dc:format>
        <dc:type
           rdf:resource="http://purl.org/dc/dcmitype/StillImage" />
        <dc:title></dc:title>
      </cc:Work>
    </rdf:RDF>
  </metadata>
  <defs
     id="defs857" />
  <sodipodi:namedview
     pagecolor="#ffffff"
     bordercolor="#666666"
     borderopacity="1"
     objecttolerance="10"
     gridtolerance="10"
     guidetolerance="10"
     inkscape:pageopacity="0.34117647"
     inkscape:pageshadow="2"
     inkscape:window-width="1812"
     inkscape:window-height="1057"
     id="namedview855"
     showgrid="false"
     inkscape:pagecheckerboard="true"
     fit-margin-top="0"
     fit-margin-left="0"
     fit-margin-right="0"
     fit-margin-bottom="0"
     inkscape:zoom="1.6621094"
     inkscape:cx="220.20212"
     inkscape:cy="256"
     inkscape:window-x="100"
     inkscape:window-y="-8"
     inkscape:window-maximized="1"
     inkscape:current-layer="layer1" />
  <rect
     width="512"
     height="512"
     rx="15.000001%"
     fill="#fff"
     id="rect847"
     style="opacity:0;fill:#ffffff;fill-opacity:0.162602"
     x="0"
     y="0" />
  <g
     inkscape:groupmode="layer"
     id="layer1"
     inkscape:label="baleine"
     style="display:inline;opacity:1"
     sodipodi:insensitive="true">
    <path
       stroke="#066da5"
       stroke-width="38"
       d="m 296,226 h 42 m -92,0 h 42 m -91,0 h 42 m -91,0 h 41 m -91,0 h 42 m 8,-46 h 41 m 8,0 h 42 m 7,0 h 42 m -42,-46 h 42"
       id="path849"
       style="opacity:1" />
    <path
       fill="#066da5"
       d="m 472,228 c 0,0 -18,-17 -55,-11 -4,-29 -35,-46 -35,-46 0,0 -29,35 -8,74 -6,3 -16,7 -31,7 H 68 c -5,19 -5,145 133,145 99,0 173,-46 208,-130 52,4 63,-39 63,-39"
       id="path851"
       style="opacity:1" />
  </g>
</svg>
