<svg xmlns="http://www.w3.org/2000/svg" width="167.114" height="150.658" viewBox="0 0 44.216 39.861" xmlns:v="https://vecta.io/nano"><path fill="#4d4d4d" d="M5.795 9.868L11.511.002 34.53-.001l5.685 9.964.007 19.932-5.691 9.958-23.012.008-5.782-9.965z"/><path fill="#ededed" d="M5.738 29.893h10.374l-5.698-10.041 4.634-9.982-9.252-.002L0 19.933"/><path fill="#e0e0e0" d="M19.258 29.893h7.583l6.705-9.773-6.588-10.156h-8.92l-5.373 9.814z"/><path fill="#acacac" d="M0 19.932l5.738 9.964h10.375l-5.636-9.93z"/><path fill="#9e9e9e" d="M12.774 19.934l6.485 9.962h7.582l6.6-9.958z"/><path fill="#00b8e3" d="M15.342 19.939l-1.957.57-1.878-.571 7.667-13.29 1.918 3.318"/><path fill="#33c6e9" d="M21.084 29.893l-1.908 3.332-5.093-5.487-2.58-7.797v-.004h3.838"/><path fill="#008aaa" d="M11.508 19.938h-.004v.003l-1.917 3.322-1.925-3.307 1.952-3.386 5.728-9.92h3.834"/><path fill="#d4d4d4" d="M32.604 29.893h11.612l-.007-19.93H32.604z"/><path fill="#919191" d="M32.604 19.965v9.93h11.591v-9.93z"/><path fill="#00b8e3" d="M19.178 33.229h-3.837l-5.754-9.967 1.917-3.32z"/><path fill="#008aaa" d="M34.519 19.938L26.85 33.226c-.705-1.036-1.913-3.33-1.913-3.33l5.753-9.96z"/><path fill="#00b8e3" d="M30.68 33.226l-3.83-.001 7.67-13.288 1.916-3.318 1.922 3.34m-3.839-.021h-3.828l-5.755-9.973 1.905-3.314 4.658 5.922z"/><path fill="#33c6e9" d="M36.436 16.617v.003l-1.917 3.318-7.677-13.286 3.841.002z"/></svg>