<?xml version="1.0" encoding="UTF-8"?>
<svg width="800px" height="800px" viewBox="0 -172.5 512 512" version="1.1" xmlns="http://www.w3.org/2000/svg" xmlns:xlink="http://www.w3.org/1999/xlink" preserveAspectRatio="xMidYMid"><g><g><polygon fill="#169FCC" points="59.7333333 142.373926 64.258586 136.533333 97.7454545 136.533333 115.2 158.833778 112.09697 166.4 68.9131315 166.4 69.9474748 158.833778"/><polygon fill="#14B59A" points="69.9733333 66.334426 86.1427593 38.4 104.984817 38.4 189.44 136.498361 182.892051 166.4 146.677882 166.4 148.94962 158.006557"/><polygon fill="#1BC263" points="89.6 33.0924891 97.3423219 18.7749224 120.569289 0 160.36754 31.2014897 155.205993 36.4692737 162.133333 46.0593421 162.133333 56.3247671 142.302122 72.5333333 109.023721 33.0924891"/><polygon fill="#16BDCC" points="28.096749 95.4785186 38.6163849 95.4785186 66.0473344 72.5333333 102.4 114.773333 92.1466842 130.157037 58.590377 130.157037 35.4205462 159.620741 30.0941482 166.4 0 166.4 0 130.287407"/></g></g></svg>