<?xml version="1.0" encoding="UTF-8" standalone="no"?>
<!-- Generator: Adobe Illustrator 16.0.4, SVG Export Plug-In . SVG Version: 6.00 Build 0)  -->

<svg
   xmlns:dc="http://purl.org/dc/elements/1.1/"
   xmlns:cc="http://creativecommons.org/ns#"
   xmlns:rdf="http://www.w3.org/1999/02/22-rdf-syntax-ns#"
   xmlns:svg="http://www.w3.org/2000/svg"
   xmlns="http://www.w3.org/2000/svg"
   xmlns:sodipodi="http://sodipodi.sourceforge.net/DTD/sodipodi-0.dtd"
   xmlns:inkscape="http://www.inkscape.org/namespaces/inkscape"
   version="1.2"
   id="logo"
   x="0px"
   y="0px"
   width="43.907001"
   height="38.836391"
   viewBox="0 0 43.907001 38.836391"
   overflow="visible"
   xml:space="preserve"
   sodipodi:docname="red-hat.svg"
   inkscape:version="0.92.4 (5da689c313, 2019-01-14)"
   style="overflow:visible"><metadata
   id="metadata297"><rdf:RDF><cc:Work
       rdf:about=""><dc:format>image/svg+xml</dc:format><dc:type
         rdf:resource="http://purl.org/dc/dcmitype/StillImage" /><dc:title></dc:title></cc:Work></rdf:RDF></metadata><defs
   id="defs295" /><sodipodi:namedview
   pagecolor="#baffff"
   bordercolor="#666666"
   borderopacity="1"
   objecttolerance="10"
   gridtolerance="10"
   guidetolerance="10"
   inkscape:pageopacity="0.04313725"
   inkscape:pageshadow="2"
   inkscape:window-width="1870"
   inkscape:window-height="1051"
   id="namedview293"
   showgrid="false"
   inkscape:zoom="3.1678832"
   inkscape:cx="15.640135"
   inkscape:cy="8.9043652"
   inkscape:window-x="50"
   inkscape:window-y="0"
   inkscape:window-maximized="1"
   inkscape:current-layer="logo"
   inkscape:pagecheckerboard="true"
   showborder="true"
   fit-margin-top="0"
   fit-margin-left="0"
   fit-margin-right="0"
   fit-margin-bottom="0" />

<g
   style="overflow:visible"
   id="g4553"
   transform="translate(46.575616,-7.9476619)"><path
     style="overflow:visible;opacity:1"
     id="path4499-6"
     d="m -6.1916162,41.835662 c -0.846,-0.194 -1.743,-0.315 -2.651,-0.315 -1.5529998,0 -2.9649998,0.27 -4.0079998,0.702 -0.114,0.058 -0.197,0.176 -0.197,0.314 0,0.048 0.014,0.101 0.031,0.142 0.124,0.357 -0.079,0.745 -1.087,0.967 -1.494,0.326998 -2.44,1.869998 -2.979,2.382998 -0.636,0.602 -2.426,0.974 -2.157,0.614 0.21,-0.28 1.018,-1.157 1.508,-2.102 0.438,-0.844998 0.829,-1.087998 1.367,-1.892998 0.156,-0.238 0.77,-1.069 0.947,-1.727 0.201,-0.643 0.134,-1.448 0.21,-1.78 0.11,-0.48 0.563,-1.517 0.596,-2.104 0.021,-0.332 -1.384,0.472 -2.05,0.472 -0.666,0 -1.315,-0.398 -1.912,-0.426 -0.736,-0.035 -1.208,0.568 -1.876,0.461 -0.379,-0.061 -0.701,-0.395 -1.365,-0.421 -0.948,-0.034 -2.104,0.528 -4.279,0.456 -2.137,-0.068 -4.113,-2.7 -4.382,-3.117 -0.315,-0.493 -0.702,-0.493 -1.122,-0.107 -0.421,0.385 -0.939,0.082 -1.087,-0.176 -0.279,-0.491 -1.029,-1.924 -2.191,-2.225 -1.605,-0.419 -2.419,0.889 -2.312,1.928 0.107,1.052 0.787,1.347 1.104,1.908 0.315,0.561 0.477,0.923 1.07,1.173 0.421,0.174 0.577,0.436 0.453,0.779 -0.111,0.301 -0.549,0.369 -0.837,0.384 -0.61,0.03 -1.04,-0.138 -1.354,-0.338 -0.363,-0.231 -0.659,-0.553 -0.978,-1.1 -0.368,-0.604 -0.945,-0.866 -1.62,-0.866 -0.321,0 -0.621,0.086 -0.889,0.221 -1.057,0.552 -2.313,0.877 -3.667,0.877 h -1.524 c -0.743,-2.203 -1.146,-4.564 -1.146,-7.017 0,-12.127 9.83,-21.9550001 21.953,-21.9550001 12.125,0 21.9539998,9.8280001 21.9539998,21.9550001 0,4.399 -1.294,8.495 -3.523,11.933 z"
     inkscape:connector-curvature="0" /><path
     d="m -26.86252,17.911589 c -2.536,0.183 -2.799,0.457 -3.274,0.962 -0.67,0.713 -1.553,-0.925 -1.553,-0.925 -0.529,-0.111 -1.171,-0.965 -0.825,-1.763 0.34,-0.788 0.97,-0.552 1.169,-0.306 0.24,0.299 0.753,0.787 1.419,0.771 0.665,-0.018 1.434,-0.158 2.504,-0.158 1.085,0 1.815,0.405 1.855,0.753 0.036,0.299 -0.086,0.578 -1.295,0.666 z m 2.663,-4.190995 c -0.003,0 -0.007,0 -0.012,0 -0.039,0 -0.071,-0.029 -0.071,-0.065 0,-0.026 0.017,-0.049 0.041,-0.061 0.492,-0.259 1.225,-0.467 2.064,-0.551 0.252,-0.028 0.499,-0.04 0.735,-0.042 0.042,0 0.084,0 0.126,0 1.408,0.032 2.533,0.59 2.516,1.247995 -0.017,0.659 -1.169,1.167 -2.577,1.135 -0.455,-0.011 -0.883,-0.077 -1.25,-0.183 -0.044,-0.011 -0.075,-0.049 -0.075,-0.091 0,-0.044 0.031,-0.083 0.075,-0.094 0.879,-0.203 1.472,-0.535 1.43,-0.849 -0.054,-0.415995 -1.204,-0.642995 -2.565,-0.504995 -0.151,0.017 -0.295,0.036 -0.437,0.058 z m 11.434,9.849995 c -0.218,0.729 -0.526,1.661 -1.898,2.367 -0.2,0.102 -0.277,-0.065 -0.184,-0.223 0.518,-0.882 0.611,-1.104 0.761,-1.449 0.211,-0.511 0.321,-1.233 -0.098,-2.744 -0.827,-2.972 -2.548,-6.944 -3.8,-8.230995 -1.208,-1.244 -3.397,-1.594 -5.376,-1.086 -0.73,0.188 -2.154,0.929 -4.799,0.334 -4.576,-1.031 -5.254,1.261 -5.516,2.257995 -0.261,0.999 -0.893,3.835 -0.893,3.835 -0.21,1.156 -0.485,3.165 6.62,4.52 3.31,0.628 3.478,1.484 3.623,2.1 0.264,1.104 0.683,1.734 1.157,2.049 0.473,0.317 0,0.579 -0.524,0.63 -1.409,0.147 -6.62,-1.346 -9.702,-3.098 -2.522,-1.541 -2.564,-2.929 -1.987,-4.105 -3.809,-0.411 -6.669,0.357 -7.186,2.16 -0.892,3.095 6.803,8.381 15.563,11.034 9.195,2.785 18.6509998,0.842 19.7029998,-4.937 0.476,-2.631 -1.736,-4.574 -5.4639998,-5.414 z"
     id="red-3-5"
     inkscape:connector-curvature="0"
     style="overflow:visible;opacity:1;fill:#cc0000" /></g></svg>