<?xml version="1.0" encoding="UTF-8"?>
<!DOCTYPE svg PUBLIC "-//W3C//DTD SVG 1.1//EN" "http://www.w3.org/Graphics/SVG/1.1/DTD/svg11.dtd">
<svg xmlns="http://www.w3.org/2000/svg" style="background: transparent; background-color: transparent; color-scheme: light dark;" xmlns:xlink="http://www.w3.org/1999/xlink" version="1.1" width="64px" height="79px" viewBox="-0.5 -0.5 64 79"><defs/><g><g data-cell-id="0"><g data-cell-id="1"><g data-cell-id="_Z8IAIMnlE5cnoSQw-qF-9"/><g data-cell-id="_Z8IAIMnlE5cnoSQw-qF-10"/><g data-cell-id="_Z8IAIMnlE5cnoSQw-qF-11"/><g data-cell-id="_Z8IAIMnlE5cnoSQw-qF-12"/><g data-cell-id="_Z8IAIMnlE5cnoSQw-qF-13"/><g data-cell-id="_Z8IAIMnlE5cnoSQw-qF-14"/><g data-cell-id="_Z8IAIMnlE5cnoSQw-qF-15"/><g data-cell-id="_Z8IAIMnlE5cnoSQw-qF-16"/><g data-cell-id="_Z8IAIMnlE5cnoSQw-qF-17"/><g data-cell-id="_Z8IAIMnlE5cnoSQw-qF-18"/><g data-cell-id="_Z8IAIMnlE5cnoSQw-qF-19"/><g data-cell-id="_Z8IAIMnlE5cnoSQw-qF-20"/><g data-cell-id="_Z8IAIMnlE5cnoSQw-qF-21"/><g data-cell-id="Z7AQE61eg4iGhcxUgYCl-1"/><g data-cell-id="tKw0cLmiNkK-d66ffKtU-1"/><g data-cell-id="tKw0cLmiNkK-d66ffKtU-4"/><g data-cell-id="tKw0cLmiNkK-d66ffKtU-6"/><g data-cell-id="tKw0cLmiNkK-d66ffKtU-8"/><g data-cell-id="tKw0cLmiNkK-d66ffKtU-10"><g><rect x="-0.18" y="22" width="48" height="57" fill="none" stroke="none" pointer-events="all"/><path d="M 5.05 31.01 L 21.49 31.01 L 21.49 28.76 L 5.05 28.76 Z M -0.18 74.56 L -0.18 24.9 C -0.18 23.39 1.21 22 2.73 22 L 23.83 22 C 25.32 22 26.72 23.37 26.72 24.91 L 26.72 49.72 C 22.51 51.59 19.23 55.34 17.85 59.55 L 5.05 59.55 L 5.05 61.8 L 17.27 61.8 C 17.05 63.12 16.92 64.64 17.08 66.3 L 5.05 66.3 L 5.05 68.56 L 17.42 68.56 C 17.98 70.88 18.92 72.86 20.18 74.56 Z M 24.03 54.14 C 25.55 52.84 27.06 51.97 28.52 51.43 C 27.77 52.31 27.01 53.44 26.2 55.19 C 25.38 54.84 24.65 54.49 24.03 54.14 Z M 19.99 60.59 C 20.61 58.5 21.65 56.76 22.99 55.27 C 23.96 55.93 24.85 56.27 25.75 56.68 C 25 58.74 24.67 61.02 24.56 62.92 C 23.11 62.4 21.68 61.86 19.99 60.59 Z M 19.76 68.1 C 19.29 66.39 19.16 64.45 19.55 62.11 C 20.91 62.95 22.45 63.75 24.47 64.43 C 24.46 66.71 24.68 68.82 25.15 70.73 C 23.66 70.31 21.97 69.58 19.76 68.1 Z M 25.65 72.52 C 26.66 75.62 27.74 76.93 28.81 78.18 C 24.1 76.4 21.8 73.15 20.53 70.38 C 22.21 71.26 23.88 72.13 25.65 72.52 Z M 32.78 73.66 L 32.78 79 C 31.71 78.77 30.83 78.19 30.06 77.41 C 28.82 76.14 27.99 74.6 27.38 73.07 C 29.17 73.43 30.96 73.7 32.78 73.66 Z M 32.78 65.85 L 32.78 72.08 C 30.8 72.13 28.84 71.79 26.87 71.28 C 26.24 69.07 25.97 66.95 25.98 64.9 C 28.21 65.51 30.48 65.8 32.78 65.85 Z M 32.85 64.36 C 30.28 64.27 28.02 63.92 26.04 63.38 C 26.17 61.57 26.22 59.85 27.24 57.15 C 29.48 57.85 32.06 58.05 32.86 58.03 Z M 32.78 56.61 C 31.05 56.54 29.37 56.26 27.71 55.78 C 28.26 54.4 28.98 53.15 29.97 52.09 C 30.57 51.49 31.22 50.93 32.18 50.61 L 32.78 50.61 Z M 34.19 50.54 L 34.78 50.54 C 36.13 50.99 37.09 52.05 37.64 52.75 C 38.46 53.79 38.91 54.75 39.34 55.71 C 37.97 56.1 36.36 56.46 34.19 56.54 Z M 34.34 64.36 L 34.34 58.04 C 36.25 57.95 38.14 57.69 39.95 57.14 C 40.57 58.97 40.91 61.12 41.15 63.37 C 39.05 63.98 36.76 64.27 34.34 64.36 Z M 34.26 72.13 L 34.26 65.91 C 36.08 65.96 38.48 65.55 41.07 64.97 C 41.08 67.61 40.69 69.47 40.27 71.25 C 37.85 71.9 35.98 72.07 34.26 72.13 Z M 39.65 72.85 C 38.19 76.74 36.08 78.52 34.27 78.93 L 34.27 73.58 C 36.14 73.53 37.94 73.3 39.65 72.85 Z M 41.42 72.4 C 42.93 71.92 44.47 71.4 46.69 69.98 C 44.73 74.68 41.32 77.11 38.35 78.15 C 39.43 76.93 40.5 75.44 41.42 72.4 Z M 42.6 64.36 C 44.49 63.8 46.09 63.04 47.41 62.11 C 47.82 64.71 47.64 66.26 47.36 67.65 C 45.23 69.25 43.55 69.94 41.9 70.57 C 42.13 69.25 42.34 69.86 42.6 64.36 Z M 41.37 56.68 C 42.36 56.27 43.29 55.8 44.14 55.27 C 46.15 57.57 46.6 59.11 47.12 60.58 C 45.71 61.55 44.22 62.38 42.58 62.89 C 42.4 61.01 42.14 59.06 41.37 56.68 Z M 38.53 51.42 C 40.42 52.09 41.78 53.09 42.94 54.21 C 42.28 54.58 41.58 54.94 40.77 55.26 C 39.96 53.3 39.23 52.26 38.53 51.42 Z" fill="#505050" stroke="none" pointer-events="all" style="fill: light-dark(rgb(80, 80, 80), rgb(168, 168, 168));"/></g></g><g data-cell-id="tKw0cLmiNkK-d66ffKtU-11"><g><rect x="23.5" y="0" width="40" height="44" fill="none" stroke="none" pointer-events="all"/><path d="M 27.37 38.5 L 23.5 38.5 L 23.5 0 L 47.37 0 L 51.25 3.67 L 46.08 3.67 L 46.08 1.83 L 25.44 1.83 L 25.44 36.67 L 27.37 36.67 Z M 37.69 25.66 L 37.69 23.83 L 55.11 23.83 L 55.11 25.66 Z M 37.69 30.55 L 37.69 28.72 L 55.11 28.72 L 55.11 30.55 Z M 37.69 35.44 L 37.69 33.61 L 55.11 33.61 L 55.11 35.44 Z M 31.24 42.17 L 61.56 42.17 L 61.56 17.11 L 51.89 17.11 L 51.89 7.33 L 31.24 7.33 Z M 29.31 44 L 29.31 5.5 L 53.18 5.5 L 63.5 15.28 L 63.5 44 Z" fill="#505050" stroke="none" pointer-events="all" style="fill: light-dark(rgb(80, 80, 80), rgb(168, 168, 168));"/></g></g></g></g></g></svg>