<svg xmlns="http://www.w3.org/2000/svg" style="background: transparent; background-color: transparent; color-scheme: light dark;" xmlns:xlink="http://www.w3.org/1999/xlink" version="1.1" width="70px" height="70px" viewBox="-0.5 -0.5 70 70"><defs/><g><g data-cell-id="0"><g data-cell-id="1"><g data-cell-id="_Z8IAIMnlE5cnoSQw-qF-9"/><g data-cell-id="_Z8IAIMnlE5cnoSQw-qF-10"/><g data-cell-id="_Z8IAIMnlE5cnoSQw-qF-11"/><g data-cell-id="_Z8IAIMnlE5cnoSQw-qF-12"/><g data-cell-id="_Z8IAIMnlE5cnoSQw-qF-13"/><g data-cell-id="_Z8IAIMnlE5cnoSQw-qF-14"/><g data-cell-id="_Z8IAIMnlE5cnoSQw-qF-15"/><g data-cell-id="_Z8IAIMnlE5cnoSQw-qF-16"/><g data-cell-id="_Z8IAIMnlE5cnoSQw-qF-17"/><g data-cell-id="_Z8IAIMnlE5cnoSQw-qF-18"/><g data-cell-id="_Z8IAIMnlE5cnoSQw-qF-19"/><g data-cell-id="_Z8IAIMnlE5cnoSQw-qF-20"/><g data-cell-id="_Z8IAIMnlE5cnoSQw-qF-21"/><g data-cell-id="Z7AQE61eg4iGhcxUgYCl-1"/><g data-cell-id="tKw0cLmiNkK-d66ffKtU-1"><g><rect x="0" y="0" width="70" height="70" fill="none" stroke="none" pointer-events="all"/><path d="M 8.72 30.22 L 1.49 27.22 C 0.44 26.64 0 25.8 0.41 24.6 L 3.17 18.01 C 3.77 17.01 4.56 16.44 5.79 16.94 L 12.55 20.34 C 14.7 17.79 17.06 15.25 19.68 13.05 L 16.72 5.8 C 16.5 4.93 16.42 4.08 17.66 3.27 L 24.45 0.41 C 25.75 0 26.48 0.56 26.92 1.32 L 29.96 8.75 C 33.01 8.14 36.03 7.87 39.59 8.91 L 42.64 1.36 C 43.3 0.32 44.16 0.03 45.19 0.41 L 51.94 3.27 C 53.06 3.98 53.16 4.81 52.9 5.71 L 49.89 13.13 C 52.53 15.25 54.96 17.51 56.93 20.06 L 64.2 17.1 C 65.5 16.73 66.28 17.23 66.76 18.2 L 69.6 24.95 C 69.79 25.95 69.57 26.78 68.59 27.34 L 61.21 30.33 C 61.56 33.22 61.51 36.85 61.19 40.05 L 68.58 43.04 C 69.57 43.66 70 44.47 69.69 45.51 L 67.02 51.83 C 66.5 52.65 65.76 53.08 64.69 52.8 L 57.23 49.79 C 55.27 52.48 52.82 54.86 50.07 56.92 L 53.01 64.2 C 53.48 65.36 52.88 66.35 52.19 66.71 L 45.03 69.71 C 44.07 69.87 43.21 69.79 42.78 68.59 L 39.76 61.14 C 37.04 61.91 33.64 62.1 30.16 61.21 L 27.17 68.56 C 26.69 69.32 26.15 70 24.83 69.68 L 17.84 66.77 C 16.86 66.07 16.4 65.2 17.03 64.01 L 20.34 57.39 C 17.41 55.18 14.96 52.82 13.04 50.32 L 5.92 53.24 C 4.79 53.65 3.88 53.37 3.24 52.35 L 0.4 45.52 C 0.09 44.63 0.32 43.56 1.38 43.04 L 8.75 39.84 C 8.46 36.63 8.43 33.43 8.72 30.22 Z M 16.68 34.87 C 16.68 46.23 26.03 53.27 35.15 53.27 C 45.07 53.27 53.26 44.85 53.26 35.04 C 53.26 24.54 44.44 16.66 35.21 16.66 C 26.16 16.66 16.68 23.48 16.68 34.87 Z" fill="#505050" stroke="none" pointer-events="all" style="fill: light-dark(rgb(80, 80, 80), rgb(168, 168, 168));"/></g></g><g data-cell-id="tKw0cLmiNkK-d66ffKtU-4"><g><rect x="14.5" y="13.5" width="42.5" height="42.5" fill="none" stroke="none" pointer-events="all"/><path d="M 45.35 42.13 C 45.76 42.48 45.83 43.12 45.41 43.61 C 45.08 43.95 44.51 44.12 44.02 43.79 L 34.74 36.64 C 34.54 36.44 34.35 36.22 34.36 35.77 L 34.36 20.22 C 34.36 19.58 34.92 19.17 35.42 19.17 C 36.09 19.17 36.48 19.78 36.48 20.22 L 36.48 35.32 Z M 35.86 52.49 C 46.33 52.49 53.46 43.66 53.46 34.77 C 53.46 23.97 44.57 17.04 35.8 17.04 C 24.16 17.04 18.06 27.11 18.06 34.28 C 18.06 46.36 27.66 52.49 35.86 52.49 Z M 35.64 56 C 25.17 56 14.75 47.99 14.5 34.5 C 14.5 24.17 23.19 13.5 35.67 13.5 C 46.64 13.5 57 21.99 57 34.87 C 57 46.28 47.78 56 35.64 56 Z" fill="#505050" stroke="none" pointer-events="all" style="fill: light-dark(rgb(80, 80, 80), rgb(168, 168, 168));"/></g></g></g></g></g></svg>