<svg fill="#000000" height="99.329079" width="90" version="1.1" id="Capa_1" viewBox="0 0 53.55 59.100802" xml:space="preserve" xmlns="http://www.w3.org/2000/svg" xmlns:svg="http://www.w3.org/2000/svg"><defs id="defs18" /> <g id="g13" transform="matrix(0.30460374,0,0,0.30460374,-46.436762,-44.873139)"> 	 	 <path d="m 272.88009,203.98886 a 35.16688,35.16688 0 0 1 -4.06802,7.22092 38.228155,38.228155 0 0 0 -27.01895,-11.18898 c -20.95649,0 -38.20197,17.25976 -38.20197,38.23946 a 38.26802,38.26802 0 0 0 11.86727,27.70439 l 1.40896,1.2495 a 38.2109,38.2109 0 0 0 24.60801,8.99759 c 19.92477,0 36.67402,-15.6128 38.0925,-35.51138 1.04184,-9.74075 -1.81535,-22.06082 -6.6878,-36.7115 z m -51.99408,62.19356 a 3.2725,3.2725 0 0 1 -2.54005,1.21023 c -1.79571,0 -3.26477,-1.47798 -3.26477,-3.27369 0,-1.79511 1.47858,-3.27309 3.26477,-3.27309 0.74375,0 1.47857,0.25763 2.05394,0.73423 1.39884,1.1305 1.61721,3.20348 0.48611,4.60232 z m 51.83581,-11.44661 c -9.42659,12.56759 -29.5596,8.33179 -42.46872,8.9369 0,0 -2.29194,0.13923 -4.594,0.51587 0,0 0.86275,-0.36712 1.98433,-0.79373 9.05947,-3.1541 13.34585,-3.76933 18.85257,-6.59617 10.36907,-5.27706 20.61913,-16.82303 22.7528,-28.83549 -3.94901,11.55609 -15.91625,21.48545 -26.82081,25.52253 -7.47142,2.75782 -20.96661,5.43592 -20.96661,5.43592 l -0.54562,-0.28798 c -9.18799,-4.47321 -9.46645,-24.38132 7.23342,-30.8091 7.31314,-2.81733 14.30856,-1.26973 22.20718,-3.15469 8.43413,-2.00337 18.18796,-8.33238 22.15661,-16.58503 4.44525,13.20305 9.7937,33.87454 0.20825,46.65097 z" fill="#77bc1f" id="path457" style="stroke-width:0.595" /><path style="fill:#77bc1f;fill-opacity:1;stroke-width:0.678407" d="m 235.9454,319.24296 c -31.4763,-23.77592 -52.96225,-57.9405 -61.16191,-97.25288 -2.56387,-12.29225 -3.14806,-18.46774 -3.15879,-33.3919 -0.0102,-14.16801 0.0455,-14.7917 1.44394,-16.1911 l 1.45454,-1.45547 7.704,1.59066 c 6.22994,1.28632 9.71597,1.58285 18.21935,1.54979 12.12753,-0.0471 20.20534,-1.45924 31.05648,-5.42909 3.6274,-1.32707 7.11176,-2.57162 7.74302,-2.76568 0.63126,-0.19405 3.53146,0.61233 6.44489,1.79197 16.52597,6.69135 34.90494,8.35167 52.57908,4.74991 7.44913,-1.51803 8.98932,-1.21952 9.86607,1.91221 0.80131,2.86223 0.51624,26.1949 -0.40797,33.3921 -4.81859,37.52417 -21.01358,71.17526 -46.5378,96.69949 -6.76005,6.76004 -19.56571,17.27335 -21.0397,17.27335 -0.51193,0 -2.40427,-1.11301 -4.2052,-2.47336 z m 9.48424,-10.92523 c 34.40821,-28.14594 55.42154,-72.87959 55.42154,-117.98267 v -9.87642 l -2.54404,0.36167 c -11.77527,1.67402 -18.87928,2.01216 -26.53493,1.263 -8.7145,-0.85276 -21.04844,-3.70381 -27.60779,-6.38166 l -4.11,-1.67792 -5.04854,1.94029 c -10.20725,3.92293 -24.57166,6.65888 -35.03341,6.67273 -2.31293,0.003 -7.78318,-0.46345 -12.15611,-1.03669 -6.4559,-0.8463 -8.065,-0.87818 -8.55821,-0.1696 -0.79679,1.14473 -0.0373,19.34257 1.16894,28.00904 5.32378,38.24914 23.63926,72.55697 51.4877,96.44466 4.06159,3.48394 7.69102,6.33443 8.06539,6.33443 0.37438,0 2.82664,-1.75539 5.44946,-3.90086 z" id="path1279" /><path style="fill:#77bc1f;fill-opacity:1;stroke-width:0.678407" d="m 225.73614,331.71434 c -26.57715,-20.11597 -42.45367,-38.616 -55.24143,-64.36985 -10.62922,-21.40665 -15.95802,-41.0571 -17.7214,-65.34931 -1.42739,-19.66358 2.08376,-49.39396 6.29697,-53.31917 2.10838,-1.96425 4.65879,-1.68671 10.20936,1.11101 20.49622,10.33093 44.25803,10.33093 64.75426,0 2.69585,-1.35882 5.63575,-2.47058 6.53313,-2.47058 0.89737,0 4.03416,1.2048 6.97063,2.67734 11.42085,5.72714 21.71298,7.85479 35.18908,7.27448 11.70378,-0.50401 19.60897,-2.57569 30.16868,-7.90622 4.75309,-2.39935 6.667,-2.54359 9.03502,-0.68091 1.92548,1.51459 2.99735,5.35239 5.04833,18.07539 1.71046,10.61063 1.69401,38.96641 -0.0287,49.41851 -5.73573,34.80058 -19.81384,64.5156 -42.61252,89.94332 -7.30213,8.14417 -15.7546,15.58703 -29.91615,26.34277 -9.26065,7.0335 -12.13691,8.88052 -13.82911,8.88052 -1.69859,0 -4.74407,-1.97358 -14.85616,-9.6273 z m 22.81844,-9.11302 c 19.4937,-14.78426 30.78519,-26.3589 41.58944,-42.63235 17.23771,-25.96357 25.74941,-52.8537 26.63532,-84.14623 0.34892,-12.32421 -0.97165,-30.83396 -2.37689,-33.31577 -0.35045,-0.61893 -1.4424,-0.41682 -4.32376,0.8003 -16.38166,6.91979 -39.10225,7.59661 -56.34735,1.67851 -3.08193,-1.05764 -7.31295,-2.71971 -9.4023,-3.69349 l -3.7988,-1.7705 -5.0881,2.35085 c -11.65333,5.38417 -23.10237,7.51547 -37.43302,6.96836 -10.26904,-0.39205 -18.34463,-2.0485 -26.82538,-5.50238 -2.39484,-0.97533 -4.42718,-1.69751 -4.5163,-1.60485 -0.0891,0.0927 -0.67782,4.13718 -1.30821,8.9878 -1.42894,10.9952 -1.471,30.41076 -0.0882,40.7277 4.02628,30.04016 15.57566,56.99559 34.5862,80.72177 6.32073,7.88861 19.79352,20.60281 30.67371,28.94664 5.20081,3.9884 9.64803,7.2702 9.88274,7.2929 0.23471,0.0227 3.89812,-2.59146 8.14092,-5.80926 z" id="path1281" /></g> </svg>