<!DOCTYPE svg PUBLIC "-//W3C//DTD SVG 20010904//EN" "http://www.w3.org/TR/2001/REC-SVG-20010904/DTD/svg10.dtd">
<svg version="1.0" xmlns="http://www.w3.org/2000/svg" width="512px" height="512px" viewBox="0 0 5120 5120" preserveAspectRatio="xMidYMid meet">
<g id="layer101" fill="#6e9e3c" stroke="none">
 <path d="M740 4809 c-273 -53 -390 -175 -440 -453 -6 -39 -10 -460 -10 -1235 0 -1237 -1 -1208 44 -1363 23 -76 96 -173 168 -220 31 -21 96 -50 145 -65 86 -26 95 -27 430 -32 207 -4 346 -10 352 -16 5 -6 11 -153 14 -340 6 -373 16 -455 71 -572 67 -140 188 -219 389 -253 42 -7 454 -10 1267 -8 l1205 3 89 28 c205 64 302 185 346 431 6 39 10 459 10 1227 0 1263 1 1247 -54 1386 -47 119 -111 189 -222 239 -120 53 -146 57 -519 63 l-350 6 -6 335 c-7 373 -19 471 -68 576 -34 73 -104 152 -167 189 -49 29 -140 58 -228 74 -73 13 -2399 13 -2466 0z m2155 -568 c79 -31 134 -88 160 -166 19 -56 20 -94 25 -525 l5 -465 445 -6 c391 -5 452 -8 502 -24 74 -23 130 -71 165 -143 l28 -57 3 -835 c3 -869 1 -926 -39 -1004 -50 -96 -132 -134 -319 -147 -155 -10 -1312 -10 -1475 0 -206 14 -291 60 -337 185 -22 59 -23 75 -28 531 l-5 470 -455 5 c-445 5 -456 6 -512 28 -64 26 -119 77 -148 137 -33 71 -40 226 -40 940 0 887 5 933 103 1022 51 45 97 64 177 73 36 5 430 7 875 6 l810 -1 60 -24z"/>
 <path d="M1458 3836 c-56 -15 -112 -56 -133 -97 -9 -16 -20 -73 -25 -127 -13 -128 -12 -781 0 -902 12 -115 38 -160 115 -199 l49 -26 482 -5 c265 -3 485 -8 489 -12 4 -4 8 -224 9 -490 2 -526 3 -536 60 -611 20 -26 43 -40 94 -57 63 -21 89 -22 412 -27 557 -8 692 8 755 91 42 55 46 121 43 647 -3 481 -3 484 -26 526 -12 24 -41 55 -63 70 -56 37 -159 43 -647 42 -221 -1 -397 2 -402 7 -5 5 -10 233 -12 509 -3 456 -5 504 -21 540 -23 51 -52 81 -102 108 -39 22 -49 22 -535 24 -377 2 -506 -1 -542 -11z"/>
 </g>
<g id="layer102" fill="#f9c839" stroke="none">
 <path d="M2563 4281 c9 -11 34 -13 121 -8 106 7 196 -5 196 -24 0 -5 8 -9 18 -9 9 0 40 -14 69 -30 55 -31 102 -95 107 -144 4 -34 16 -46 16 -17 0 31 -45 119 -78 154 -58 61 -150 85 -354 89 -90 3 -105 1 -95 -11z"/>
 <path d="M3077 4001 c-3 -12 -2 -19 1 -17 4 2 8 -190 10 -427 2 -238 6 -435 10 -439 4 -4 6 193 6 438 -1 274 -6 450 -12 456 -6 6 -11 2 -15 -11z"/>
 <path d="M1458 3836 c-56 -15 -112 -56 -133 -97 -9 -16 -20 -73 -25 -127 -13 -128 -12 -781 0 -902 12 -115 38 -160 115 -199 l49 -26 482 -5 c265 -3 485 -8 489 -12 4 -4 8 -224 9 -490 2 -525 3 -537 60 -611 20 -26 43 -40 94 -57 62 -20 90 -22 402 -27 406 -6 625 5 693 36 64 29 96 74 108 154 6 39 9 256 7 548 -3 450 -4 486 -22 519 -22 42 -58 75 -106 98 -31 14 -92 17 -515 19 -264 1 -485 5 -492 7 -9 4 -13 125 -15 508 l-3 503 -25 50 c-29 59 -96 109 -159 119 -78 12 -962 5 -1013 -8z"/>
 <path d="M299 3050 c-2 -393 -3 -789 -3 -880 1 -162 20 -335 44 -395 82 -213 216 -308 439 -314 35 -1 68 -4 73 -8 6 -3 132 -5 280 -4 l271 2 28 -27 c22 -21 29 -24 29 -12 0 42 -16 45 -327 51 -164 4 -329 11 -368 17 -205 30 -335 119 -394 267 -54 137 -54 139 -61 1113 l-6 905 -5 -715z"/>
 <path d="M3819 3077 c5 -5 19 -7 32 -5 20 3 19 5 -9 9 -20 3 -29 2 -23 -4z"/>
 <path d="M4000 3078 c0 -8 15 -14 36 -15 45 -2 112 -42 143 -84 14 -18 28 -55 32 -81 4 -27 15 -63 23 -80 18 -35 21 -109 6 -124 -14 -14 -7 -1432 7 -1494 8 -32 11 195 9 810 l-1 855 -28 57 c-34 69 -101 131 -164 152 -56 19 -63 20 -63 4z"/>
 <path d="M2024 1695 c0 -181 2 -257 3 -168 2 89 2 237 0 330 -1 92 -3 20 -3 -162z"/>
 <path d="M4236 1112 c-3 -24 -10 -40 -15 -37 -5 3 -7 -5 -3 -17 3 -13 1 -19 -5 -15 -7 4 -9 0 -6 -11 2 -10 -10 -37 -28 -62 -21 -30 -25 -39 -10 -26 12 11 30 33 40 50 21 35 45 128 39 148 -3 7 -8 -6 -12 -30z"/>
 <path d="M1466 765 c4 -44 7 -92 8 -107 0 -16 4 -28 8 -28 3 0 11 -22 18 -49 6 -27 29 -76 50 -108 21 -32 36 -61 33 -66 -2 -4 -1 -6 4 -5 7 2 122 -68 151 -92 6 -6 12 -8 12 -4 0 3 6 1 14 -5 18 -15 39 -19 144 -27 48 -3 92 -9 97 -13 6 -3 141 -4 300 -1 282 6 284 6 90 8 -441 6 -590 25 -707 95 -101 60 -167 167 -193 312 -28 158 -35 179 -29 90z"/>
 </g>

</svg>