<?xml version="1.0" encoding="utf-8"?>
<!-- Generator: Adobe Illustrator 28.0.0, SVG Export Plug-In . SVG Version: 6.00 Build 0)  -->
<svg version="1.1" id="Calque_1" xmlns="http://www.w3.org/2000/svg" xmlns:xlink="http://www.w3.org/1999/xlink" x="0px" y="0px"
	 viewBox="0 0 800 270" style="enable-background:new 0 0 800 270;" xml:space="preserve">
<style type="text/css">
	.st0{fill:#E24480;}
	.st1{fill:#1D1D1B;}
	.st2{fill:#5580B9;}
	.st3{fill:#8E9423;}
	.st4{fill:none;}
	.st5{fill:#6C367E;}
	.st6{fill:#1D672E;}
</style>
<polygon class="st0" points="500.6,159.2 471.9,116 446.6,159.2 407.6,159.2 452.8,87.5 406.6,18.3 446.6,18.3 474.9,60.9 
	499.8,18.3 538.7,18.3 493.9,89.4 540.5,159.2 "/>
<path class="st1" d="M25.2,51.2c5.8-10.8,14.6-19.6,25.3-25.6c10.8-6.1,23.1-9.2,36.8-9.2c16.8,0,31.2,4.4,43.1,13.3
	c12,8.9,20,21,24,36.3h-37.9c-2.6-5.6-6.7-10.3-12-13.5c-5.3-3.1-11.5-4.8-17.7-4.7c-10.6,0-19.2,3.7-25.8,11.1
	c-6.6,7.4-9.9,17.3-9.9,29.6c0,12.4,3.3,22.2,9.9,29.6c6.6,7.4,15.2,11.1,25.8,11.1c6.2,0.1,12.3-1.5,17.6-4.6
	c5.3-3.2,9.4-7.9,12-13.5h37.9c-4,15.3-12,27.4-24,36.2c-11.9,8.8-26.3,13.2-43.1,13.2c-13.7,0-26-3.1-36.8-9.2
	c-10.7-6-19.4-14.8-25.3-25.5c-6-10.9-9.1-23.3-9.1-37.3S19.2,62.1,25.2,51.2L25.2,51.2z"/>
<path class="st2" d="M204.6,117.7c-6.4-7.4-9.5-17.1-9.6-29.2c0-12.6,3.4-22.6,10.2-30c6.6-7.2,15.4-10.8,26.4-11l11.7-30.5
	c-3.6-0.5-7.2-0.7-10.8-0.7c-12.8-0.1-25.4,3.1-36.6,9.3c-11,6.1-20.1,15-26.4,25.8c-6.5,11-9.8,23.4-9.8,37.3s3.3,26.3,9.8,37.4
	c5.6,9.6,13.4,17.8,22.8,23.7L204.6,117.7z"/>
<path class="st3" d="M732.4,18.3h-39.7l-51,140.9h35.9l8.4-24.8h52.6l8.4,24.8h36.3L732.4,18.3z M694.2,107.8l17.3-51.6l17.5,51.6
	H694.2z"/>
<path class="st1" d="M293.7,51.2c-5.6-9.7-13.4-17.9-22.9-23.8l-12.2,31.8c6.4,7.4,9.6,17.1,9.6,29.3c0,12.4-3.4,22.3-10.2,29.8
	c-6.7,7.4-15.5,11.1-26.5,11.3l-11.8,30.7c3.7,0.5,7.4,0.8,11.2,0.8c12.8,0.1,25.3-3.1,36.5-9.3c10.9-6.1,20-15,26.2-25.9
	c6.5-11.1,9.7-23.5,9.7-37.4C303.3,74.7,300.1,62.2,293.7,51.2L293.7,51.2z"/>
<polygon class="st1" points="345.3,45.6 345.3,74.3 391.5,74.3 391.5,100.9 345.3,100.9 345.3,131.9 397.5,131.9 397.5,159.5 
	310.8,159.5 310.8,18 397.5,18 397.5,45.6 "/>
<polygon class="st1" points="627.5,18 600.3,77.3 581.8,37.3 543.7,37.3 582.8,112.7 582.8,159.5 617.2,159.5 617.2,112.7 666.2,18 
	627.5,18 "/>
<polygon class="st3" points="758.8,252 758.8,252 743.7,252 "/>
<polygon class="st3" points="808.7,252 815.3,252 808.7,252 "/>
<g>
	<g>
		<polygon class="st2" points="354.4,191.1 354.4,205.1 373.4,205.1 373.4,241.5 389.9,241.5 389.9,205.1 404,205.1 409.4,191.1 		
			"/>
		<polygon class="st4" points="414.3,221.9 423.6,221.9 418.9,208.2 		"/>
		<path class="st3" d="M442.3,227.5l-14-36.3l-19,0l0,14l-5.4,0l-14,36.3l17.6,0l2.1-6.1l18.4,0l2,6.1l12.2,0l5.4,0l-5.4,0
			L442.3,227.5z M414.3,221.9l4.6-13.7l4.6,13.7L414.3,221.9z"/>
		<polygon class="st5" points="442.3,241.5 447.7,241.5 442.3,227.5 		"/>
		<polygon class="st6" points="409.4,191.1 404,205.1 409.4,205.1 		"/>
		<polygon class="st0" points="458.8,227.5 458.8,191.1 442.3,191.1 442.3,227.5 447.7,241.5 458,241.5 463.4,227.5 		"/>
		<polygon class="st3" points="470.2,241.5 470.2,241.5 458,241.5 		"/>
		<polygon class="st3" points="510.5,241.5 515.8,241.5 510.5,241.5 		"/>
		<polygon class="st3" points="561.1,241.5 561.1,191.1 544.6,191.1 544.6,214.9 524,191.1 510.5,191.1 510.5,227.6 515.8,241.5 
			527,241.5 527,218.8 547.6,241.5 		"/>
		<path class="st2" d="M496.4,191.1l-19,0l-14,36.3l11.6,0l-4.8,14l5.4,0l2.1-6.1l18.4,0l2,6.1l12.3,0l0,0l0-13.8L496.4,191.1z
			 M482.3,221.9l4.6-13.7l4.6,13.7L482.3,221.9z"/>
		<polygon class="st6" points="510.5,241.5 515.8,241.5 510.5,227.6 		"/>
		<polygon class="st5" points="463.4,227.5 458,241.5 470.2,241.5 475,227.5 		"/>
	</g>
	<path d="M358.3,238.9v3.2h-6.6v-7.3c-0.4,1.7-1.2,3.2-2.4,4.4c-1.9,2-4.9,3.5-8.4,3.5c-4.4,0-7.5-2.8-7.5-6.7
		c0-5.2,4.6-6.7,10.1-7.8c3-0.6,5.8-1.1,7.1-2.4c0.6-0.6,0.9-1.2,0.9-2.2c0-2.5-1.7-4.3-5.8-4.3c-4.4,0-7.7,2.4-8,5.4v0.5h-3.1V217
		h3.3v3.7c1.6-2.8,5-4.3,8.5-4.3c5.3,0,8.5,3,8.5,7.7v13.5c0,0.9,0.5,1.4,1.4,1.4H358.3z M351.6,228.4c-1.2,1.5-3.9,2.1-6.6,2.6
		c-4.2,0.8-7.9,1.7-7.9,5c0,2.2,1.9,3.8,4.6,3.8c2.4,0,4.8-1,6.6-2.8C350.1,235.1,351.5,232.4,351.6,228.4z"/>
	<g>
		<path d="M569.8,228.8c0-7.7,5.2-13.3,11.7-13.3c3.6,0,6.7,1.8,8.3,4.9v-4.3h3.2v10.4h-3v-0.4c-0.4-4.2-3.7-7.4-8-7.4
			c-4.9,0-8.4,4.3-8.4,9.9c0,5.9,3.7,9.9,9.1,9.9c4.6,0,8.1-2.5,10-5.3h0.2l0,3.8c-1.9,2.6-6.1,4.8-10.4,4.8
			C575.1,242.1,569.8,236.6,569.8,228.8z"/>
		<path d="M597.2,228.8c0-7.6,5.3-13.3,12.4-13.3c7.3,0,12.4,5.7,12.4,13.3c0,7.7-5.2,13.2-12.4,13.2
			C602.5,242.1,597.2,236.5,597.2,228.8z M618.2,228.8c0-5.8-3.6-9.9-8.6-9.9c-4.9,0-8.5,4.2-8.5,9.9c0,5.9,3.6,9.9,8.5,9.9
			C614.6,238.8,618.2,234.7,618.2,228.8z"/>
		<path d="M625,238.2h2c0.9,0,1.4-0.6,1.4-1.4v-15.9c0-0.9-0.5-1.4-1.4-1.4h-2v-3.2h6.9v5.2c1.3-3.5,4.9-5.9,8.7-5.9
			c3.7,0,6.7,2,7.9,5.8c1.6-3.4,5.1-5.8,9.1-5.8c5.2,0,8.6,3.3,8.6,8.7v12.5c0,0.9,0.6,1.4,1.4,1.4h2v3.2h-11.4v-3.2h2.9
			c0.9,0,1.4-0.6,1.4-1.4v-11.9c0-3.8-2.1-6.1-5.6-6.1c-4.4,0-7.6,3.3-7.6,8.4v9.7c0,0.9,0.5,1.4,1.4,1.4h2.9v3.2h-12.3v-3.2h3
			c0.9,0,1.4-0.6,1.4-1.4v-11.8c0-3.9-2.2-6.2-5.7-6.2c-4.5,0-7.8,3.6-7.8,9v9.1c0,0.9,0.5,1.4,1.4,1.4h2.9v3.2H625V238.2z"/>
		<path d="M671.4,247.6h1.9c0.8,0,1.3-0.6,1.3-1.4v-25.3c0-0.9-0.5-1.4-1.3-1.4h-1.9v-3.2h6.6v5.7c1.8-4.3,5.6-6.3,9.2-6.3
			c6.7,0,11.5,5.6,11.5,13.2c0,7.6-4.9,13.3-11.6,13.3c-3.4,0-7.1-1.9-8.9-6v10.2c0,0.9,0.5,1.4,1.3,1.4h3.5v3.2h-11.7V247.6z
			 M694.9,228.8c0-5.9-3.4-9.9-8.3-9.9c-5,0-8.8,4.2-8.8,10c0,5.6,3.7,9.9,8.8,9.9C691.5,238.8,694.9,234.6,694.9,228.8z"/>
		<path d="M727.5,238.2v3.2h-6.6v-7.3c-0.4,1.7-1.2,3.2-2.4,4.4c-1.9,2-4.9,3.5-8.4,3.5c-4.4,0-7.5-2.8-7.5-6.7
			c0-5.2,4.6-6.7,10.1-7.8c3-0.6,5.8-1.1,7.1-2.4c0.6-0.6,0.9-1.2,0.9-2.2c0-2.5-1.7-4.3-5.8-4.3c-4.4,0-7.7,2.4-8,5.4v0.5h-3.1
			v-8.4h3.3v3.7c1.6-2.8,5-4.3,8.5-4.3c5.3,0,8.5,3,8.5,7.7v13.5c0,0.9,0.5,1.4,1.4,1.4H727.5z M720.8,227.6
			c-1.2,1.5-3.9,2.1-6.6,2.6c-4.2,0.8-7.9,1.7-7.9,5c0,2.2,1.9,3.8,4.6,3.8c2.4,0,4.8-1,6.6-2.8
			C719.3,234.3,720.7,231.6,720.8,227.6z"/>
		<path d="M730.3,238.2h2c0.9,0,1.4-0.6,1.4-1.4v-15.9c0-0.9-0.5-1.4-1.4-1.4h-2v-3.2h6.9v5.4c1.3-3.5,5.1-6.1,9.3-6.1
			c5.1,0,8.4,3.3,8.4,8.7v12.5c0,0.9,0.5,1.4,1.4,1.4h2v3.2h-11.4v-3.2h2.9c0.9,0,1.4-0.6,1.4-1.4v-11.9c0-3.8-2.1-6.1-5.7-6.1
			c-4.4,0-8.1,3.3-8.1,9.1v9c0,0.9,0.5,1.4,1.4,1.4h2.9v3.2h-11.4V238.2z"/>
		<path d="M759.6,250.5v-3.3c0.6,0.5,1.9,0.9,3.3,0.9c2.4,0,4.3-1.3,6-4.7l0.5-0.9l-9.2-22c-0.3-0.7-0.8-1.1-1.6-1.1h-0.7v-3.2h10.7
			v3.2h-3.8c-0.9,0-1.2,0.6-0.9,1.3l7.3,17.7l7.2-17.7c0.3-0.8-0.1-1.4-0.9-1.4h-3.6v-3.2h10.6v3.2h-0.8c-0.7,0-1.2,0.3-1.5,1.1
			L772,244.3c-2.2,5.2-5.5,7.1-8.7,7.1C761.8,251.4,760.3,251,759.6,250.5z"/>
	</g>
</g>
</svg>
