<?xml version="1.0" encoding="UTF-8"?><svg id="Pilot" width="84.5" height="84.5" version="1.1" viewBox="0 0 84.5 84.5" xmlns="http://www.w3.org/2000/svg"> <circle class="cls-1" cx="42.25" cy="42.25" r="42.25" fill="#4242e3" data-name="Ellipse 3598"/> <g fill="#fff">  <g transform="translate(6.665 6.695)" data-name="Groupe 549">   <path class="cls-2" transform="translate(-810.11 -229.91)" d="M876.673,247.631a1.027,1.027,0,0,0-1.541-.314l-.017.014a1.015,1.015,0,0,0-.264,1.317A33.621,33.621,0,1,1,862.93,236.66a1,1,0,0,0,1.308-.25h0a1.067,1.067,0,0,0-.3-1.572,35.668,35.668,0,1,0,12.74,12.793Z" data-name="Tracé 4889"/>   <path class="cls-2" transform="translate(-990.9 -256.81)" d="m1048.8 271.11a3.239 3.239 0 1 0-1.321-2.1 3.239 3.239 0 0 0 1.321 2.1z" data-name="Tracé 4890"/>  </g>  <path class="cls-2" transform="translate(-836.41 -281.39)" d="M900.211,309.777a11.971,11.971,0,0,0-16.935,0l-15.22,15.243-11.149-.91a1.217,1.217,0,0,0-.965.355l-2.2,2.2a1.222,1.222,0,0,0,0,1.732l5.478,5.478-1.963,1.96a1.227,1.227,0,0,0,0,1.734l7.6,7.6a1.227,1.227,0,0,0,.867.36h0a1.217,1.217,0,0,0,.867-.36l10.971-10.982,5.257,13.769a1.229,1.229,0,0,0,.891.762,1.143,1.143,0,0,0,.255.026,1.231,1.231,0,0,0,.867-.357l5.4-5.4a1.227,1.227,0,0,0,.357-.867V321.126l5.688-5.693,3.932-3.916a1.227,1.227,0,0,0,0-1.736Zm-12.08,31.816-3.708,3.708-4.971-13.021,8.679-8.689Zm-31.792-14.069.936-.934,8.508.693-4.842,4.842Zm38.2-13.826-28.82,28.858-5.871-5.864,25.173-25.178a9.527,9.527,0,0,1,12.543-.815Z" data-name="Tracé 4891"/>  <path class="cls-2" transform="translate(-870.39 -266.92)" d="m899.21 305.08a1.227 1.227 0 0 1-0.867-2.091l15.317-15.32a1.227 1.227 0 1 1 1.734 1.734l-15.317 15.317a1.22 1.22 0 0 1-0.867 0.36z" data-name="Tracé 4892"/>  <path class="cls-2" transform="translate(-839.86 -276.51)" d="m859.14 311.94a1.227 1.227 0 0 1-0.867-2.094l9.63-9.627a1.224 1.224 0 0 1 1.732 1.732l-9.627 9.63a1.229 1.229 0 0 1-0.868 0.359z" data-name="Tracé 4893"/>  <path class="cls-2" transform="translate(-969.77 -318.78)" d="m1029.7 364.37a1.227 1.227 0 0 1-0.867-2.094l6.567-6.564a1.225 1.225 0 1 1 1.732 1.734l-6.564 6.564a1.225 1.225 0 0 1-0.868 0.36z" data-name="Tracé 4894"/> </g> <path class="cls-3" transform="translate(-443.63 -127.11)" d="m497.8 166.85v3.468l-2.451 2.453v-3.446z" fill="#999" data-name="Tracé 4895"/></svg>