<?xml version="1.0" encoding="UTF-8" standalone="no"?>
<svg
   width="67.68"
   height="67.68"
   viewBox="0 0 67.680002 67.680002"
   version="1.1"
   id="svg21"
   sodipodi:docname="Prima-p-c-logo.svg"
   inkscape:version="1.2.2 (732a01da63, 2022-12-09)"
   xmlns:inkscape="http://www.inkscape.org/namespaces/inkscape"
   xmlns:sodipodi="http://sodipodi.sourceforge.net/DTD/sodipodi-0.dtd"
   xmlns="http://www.w3.org/2000/svg"
   xmlns:svg="http://www.w3.org/2000/svg">
  <defs
     id="defs28" />
  <sodipodi:namedview
     id="namedview23"
     pagecolor="#ffffff"
     bordercolor="#000000"
     borderopacity="0.25"
     inkscape:showpageshadow="2"
     inkscape:pageopacity="0.0"
     inkscape:pagecheckerboard="0"
     inkscape:deskcolor="#d1d1d1"
     showgrid="false"
     inkscape:zoom="5.956001"
     inkscape:cx="-8.9825371"
     inkscape:cy="34.083272"
     inkscape:window-width="1826"
     inkscape:window-height="1057"
     inkscape:window-x="86"
     inkscape:window-y="-8"
     inkscape:window-maximized="1"
     inkscape:current-layer="svg21" />
  <g
     id="p-c"
     transform="matrix(0.8,0,0,0.8,-393.12,-11027.2)">
    <circle
       id="Ellipse_3594"
       data-name="Ellipse 3594"
       class="cls-1"
       cx="42.299999"
       cy="42.299999"
       r="42.299999"
       transform="translate(491.4,13784)"
       style="fill:#4266ff;fill-opacity:1"
       inkscape:label="Ellipse_3594" />
    <g
       id="Groupe_543"
       data-name="Groupe 543"
       transform="translate(498.137,13790.74)">
      <path
         id="Tracé_4828"
         data-name="Tracé 4828"
         class="cls-2"
         d="m 872.673,248.561 a 1.027,1.027 0 0 0 -1.541,-0.314 l -0.017,0.012 a 1.015,1.015 0 0 0 -0.264,1.32 33.613,33.613 0 1 1 -11.921,-12 1,1 0 0 0 1.308,-0.238 v 0 a 1.069,1.069 0 0 0 -0.3,-1.574 35.669,35.669 0 1 0 12.74,12.793 z"
         transform="translate(-806.112,-230.841)"
         style="fill:#ffffff" />
      <path
         id="Tracé_4829"
         data-name="Tracé 4829"
         class="cls-2"
         d="m 1044.777,272.023 a 3.239,3.239 0 1 0 -1.322,-2.1 3.239,3.239 0 0 0 1.322,2.1 z"
         transform="translate(-986.89,-257.732)"
         style="fill:#ffffff" />
    </g>
    <path
       id="Tracé_4830"
       data-name="Tracé 4830"
       class="cls-2"
       d="m 903.617,328.474 0.865,-0.867 -1.732,-1.732 v 0 l -8.429,-8.429 -6.226,-6.226 c -0.514,0.331 -0.819,0.545 -0.867,0.581 h -0.012 l -0.017,0.012 -0.033,0.026 -0.017,0.014 -0.031,0.026 -0.045,0.043 -0.04,0.043 L 887,312 l -0.014,0.017 a 0.278,0.278 0 0 0 -0.024,0.031 l -0.014,0.017 v 0.014 c -0.033,0.048 -0.238,0.35 -0.581,0.865 l 16.389,16.389 0.865,-0.867 z"
       transform="translate(-369.117,13498.665)"
       style="fill:#ffffff" />
    <path
       id="Tracé_4831"
       data-name="Tracé 4831"
       class="cls-2"
       d="m 982.336,397.8 v -0.331 0 -0.043 a 1.44,1.44 0 0 0 -0.038,-0.264 0.112,0.112 0 0 0 0,-0.029 c -0.017,-0.1 -0.04,-0.207 -0.067,-0.31 v -0.031 c -0.026,-0.1 -0.052,-0.188 -0.083,-0.281 v -0.033 c -0.033,-0.1 -0.069,-0.2 -0.11,-0.291 l -0.021,-0.05 c -0.038,-0.086 -0.076,-0.172 -0.119,-0.255 l -0.017,-0.033 c -0.048,-0.091 -0.1,-0.179 -0.15,-0.267 l -0.036,-0.057 c -0.052,-0.081 -0.1,-0.162 -0.162,-0.238 l -0.017,-0.021 a 2.425,2.425 0 0 0 -0.193,-0.238 l -0.048,-0.057 c -0.072,-0.081 -0.143,-0.16 -0.219,-0.238 l -2.144,-2.144 a 1.227,1.227 0 0 0 -1.667,0.067 1.279,1.279 0 0 0 0.043,1.777 l 0.029,0.033 1.717,1.717 0.286,0.286 a 1.983,1.983 0 0 1 0.162,0.183 c 0.014,0.017 0.026,0.036 0.04,0.055 a 1.429,1.429 0 0 1 0.1,0.145 0.423,0.423 0 0 1 0.036,0.062 1.464,1.464 0 0 1 0.083,0.16 l 0.024,0.05 c 0.031,0.071 0.057,0.143 0.081,0.217 a 2.117,2.117 0 0 1 -0.524,2.117 v 0 a 2.122,2.122 0 0 1 -2.991,0 l -0.843,-0.843 v 0 l -11.344,-11.315 -1.734,1.734 6.943,6.941 5.2,5.2 a 4.571,4.571 0 0 0 6.455,0 v 0 a 4.552,4.552 0 0 0 0.953,-1.393 v 0 c 0.045,-0.1 0.086,-0.2 0.122,-0.312 v 0 c 0.036,-0.1 0.069,-0.212 0.1,-0.319 v 0 c 0.029,-0.107 0.052,-0.214 0.074,-0.322 v 0 c 0.019,-0.1 0.033,-0.2 0.045,-0.3 a 0.088,0.088 0 0 0 0,-0.026 v 0 c 0,-0.1 0.019,-0.2 0.026,-0.3 a 0.155,0.155 0 0 1 0,-0.031 v -0.326 z"
       transform="translate(-427.045,13440.706)" />
    <path
       id="Tracé_4832"
       data-name="Tracé 4832"
       class="cls-2"
       d="m 899.288,288.186 c -5.24,-5.24 -12.726,-6.488 -21.674,-3.637 a 47.05,47.05 0 0 0 -11.807,5.8 h -0.012 l -0.017,0.012 -0.033,0.026 -0.017,0.014 -0.031,0.026 -0.045,0.043 -0.04,0.043 -0.029,0.033 -0.014,0.017 a 0.281,0.281 0 0 0 -0.024,0.031 l -0.014,0.017 v 0.014 a 47.037,47.037 0 0 0 -5.795,11.814 c -2.858,8.949 -1.593,16.434 3.637,21.674 a 1.222,1.222 0 0 0 1.732,0 l 8.856,-8.853 8.243,-8.246 v 0 l 8.243,-8.243 8.856,-8.855 a 1.227,1.227 0 0 0 -0.014,-1.727 z m -25.661,3.194 h 0.141 l 0.238,0.014 h 0.157 a 0.854,0.854 0 0 1 0.238,0.021 l 0.145,0.012 0.212,0.021 0.145,0.017 c 0.107,0.012 0.217,0.024 0.329,0.04 l 0.124,0.017 0.238,0.033 0.155,0.026 0.238,0.038 0.143,0.024 0.348,0.067 0.141,0.031 0.238,0.052 0.157,0.036 0.264,0.062 0.124,0.031 0.367,0.1 0.15,0.043 0.255,0.074 0.157,0.048 0.326,0.1 0.136,0.045 0.326,0.112 0.155,0.057 0.272,0.1 0.15,0.057 c 0.133,0.05 0.264,0.1 0.4,0.157 l 0.117,0.05 0.307,0.131 0.157,0.069 0.3,0.136 0.131,0.062 q 0.207,0.1 0.414,0.2 l 0.131,0.067 0.312,0.16 0.152,0.081 0.348,0.191 0.093,0.05 0.431,0.25 0.138,0.083 0.322,0.2 0.143,0.088 q 0.221,0.138 0.443,0.286 l 0.038,0.026 0.414,0.279 0.143,0.1 0.338,0.238 0.129,0.093 c 0.15,0.11 0.3,0.224 0.453,0.338 0.031,0.021 0.06,0.045 0.088,0.069 0.126,0.1 0.253,0.2 0.379,0.3 l 0.141,0.112 0.367,0.3 0.1,0.086 c 0.155,0.129 0.31,0.262 0.462,0.4 l 0.112,0.1 0.364,0.326 0.141,0.129 0.1,0.1 -6.5,6.5 -12.55,-12.55 0.1,-0.026 h 0.029 l 0.207,-0.05 h 0.033 l 0.179,-0.04 0.06,-0.012 0.188,-0.038 h 0.036 l 0.238,-0.043 h 0.067 l 0.174,-0.031 0.081,-0.012 0.222,-0.033 h 0.038 l 0.238,-0.031 0.093,-0.012 0.179,-0.021 h 0.1 l 0.262,-0.026 h 0.076 l 0.2,-0.017 h 0.114 l 0.188,-0.012 h 0.107 l 0.279,-0.012 h 1.179 z m -0.534,21.262 -0.05,-0.055 c -0.117,-0.124 -0.238,-0.25 -0.345,-0.376 l -0.141,-0.16 -0.238,-0.274 -0.155,-0.181 -0.217,-0.255 -0.157,-0.193 -0.2,-0.238 -0.157,-0.2 -0.19,-0.238 c -0.05,-0.069 -0.1,-0.136 -0.153,-0.2 l -0.181,-0.238 -0.15,-0.2 -0.174,-0.238 -0.143,-0.2 -0.167,-0.238 c -0.048,-0.067 -0.093,-0.136 -0.138,-0.2 -0.045,-0.064 -0.107,-0.162 -0.16,-0.238 -0.053,-0.076 -0.09,-0.136 -0.133,-0.2 l -0.155,-0.238 c -0.04,-0.067 -0.083,-0.133 -0.124,-0.2 -0.041,-0.067 -0.1,-0.167 -0.15,-0.25 -0.05,-0.083 -0.081,-0.133 -0.119,-0.2 -0.038,-0.067 -0.1,-0.174 -0.145,-0.26 -0.045,-0.086 -0.074,-0.129 -0.109,-0.2 -0.035,-0.071 -0.1,-0.181 -0.145,-0.271 -0.045,-0.09 -0.067,-0.121 -0.1,-0.183 l -0.155,-0.3 c -0.024,-0.052 -0.052,-0.1 -0.076,-0.152 -0.074,-0.152 -0.148,-0.3 -0.219,-0.457 a 0.149,0.149 0 0 0 0,-0.029 c -0.067,-0.143 -0.131,-0.288 -0.193,-0.431 -0.021,-0.052 -0.043,-0.1 -0.067,-0.157 l -0.126,-0.3 c -0.026,-0.062 -0.05,-0.124 -0.074,-0.183 -0.024,-0.059 -0.074,-0.188 -0.107,-0.281 -0.033,-0.093 -0.05,-0.131 -0.074,-0.2 -0.024,-0.069 -0.064,-0.181 -0.1,-0.269 -0.036,-0.088 -0.048,-0.136 -0.069,-0.2 -0.021,-0.064 -0.06,-0.176 -0.088,-0.264 l -0.064,-0.207 c -0.029,-0.088 -0.055,-0.174 -0.081,-0.262 l -0.06,-0.21 -0.071,-0.26 c -0.019,-0.071 -0.038,-0.143 -0.055,-0.212 -0.017,-0.069 -0.045,-0.174 -0.064,-0.262 l -0.05,-0.212 c -0.021,-0.086 -0.041,-0.174 -0.057,-0.262 -0.016,-0.088 -0.031,-0.141 -0.045,-0.212 l -0.05,-0.264 c -0.014,-0.069 -0.026,-0.141 -0.038,-0.21 -0.012,-0.069 -0.031,-0.179 -0.045,-0.269 -0.014,-0.09 -0.021,-0.138 -0.031,-0.207 -0.01,-0.069 -0.026,-0.183 -0.038,-0.276 -0.012,-0.093 -0.019,-0.136 -0.026,-0.2 -0.007,-0.064 -0.021,-0.193 -0.033,-0.291 0,-0.062 -0.014,-0.124 -0.019,-0.188 0,-0.107 -0.019,-0.214 -0.026,-0.322 v -0.157 c -0.012,-0.162 -0.021,-0.322 -0.029,-0.476 -0.008,-0.154 0,-0.25 -0.012,-0.372 v -1.754 l 0.014,-0.155 0.014,-0.164 a 0.462,0.462 0 0 1 0.017,-0.15 c 0.017,-0.05 0,-0.107 0.017,-0.16 0.017,-0.053 0,-0.1 0.019,-0.145 0.019,-0.045 0,-0.1 0.019,-0.152 a 0.609,0.609 0 0 0 0.019,-0.141 l 0.021,-0.148 0.021,-0.138 a 0.9,0.9 0 0 1 0.024,-0.141 c 0.007,-0.045 0.014,-0.088 0.024,-0.131 0.01,-0.043 0.014,-0.093 0.024,-0.138 0.01,-0.045 0.017,-0.083 0.024,-0.126 0.007,-0.043 0.017,-0.086 0.026,-0.129 0.009,-0.043 0.017,-0.081 0.026,-0.121 0.009,-0.04 0.017,-0.083 0.026,-0.126 0.009,-0.043 0.017,-0.076 0.026,-0.114 0.009,-0.038 0.017,-0.079 0.026,-0.119 0.009,-0.04 0.019,-0.074 0.026,-0.11 l 0.029,-0.112 0.014,-0.06 11.909,11.909 0.636,0.636 z m -8.839,8.836 c -3.878,-4.525 -4.623,-10.651 -2.217,-18.242 a 41.441,41.441 0 0 1 2.044,-5.152 c 0,0.114 0,0.226 0,0.341 a 3.083,3.083 0 0 0 0.017,0.383 v 0.126 c 0,0.088 0.012,0.179 0.019,0.267 v 0.16 l 0.021,0.238 a 0.557,0.557 0 0 0 0.019,0.176 1.616,1.616 0 0 1 0.026,0.238 l 0.021,0.191 c 0.012,0.079 0.021,0.157 0.031,0.238 0.01,0.081 0.019,0.136 0.031,0.2 0.012,0.064 0.021,0.157 0.033,0.238 l 0.036,0.21 c 0.014,0.079 0.026,0.16 0.041,0.238 l 0.043,0.217 c 0.014,0.081 0.031,0.16 0.045,0.238 0.014,0.078 0.033,0.15 0.048,0.224 0.015,0.074 0.036,0.162 0.055,0.238 0.019,0.076 0.036,0.155 0.052,0.238 0.016,0.083 0.04,0.162 0.062,0.238 0.022,0.076 0.038,0.157 0.06,0.238 0.022,0.081 0.045,0.167 0.067,0.25 0.022,0.083 0.045,0.16 0.069,0.238 0.024,0.078 0.048,0.167 0.074,0.252 0.026,0.085 0.05,0.162 0.076,0.238 0.026,0.076 0.052,0.169 0.081,0.255 0.029,0.086 0.055,0.167 0.083,0.25 0.028,0.083 0.06,0.172 0.09,0.26 0.03,0.088 0.06,0.169 0.091,0.252 0.031,0.083 0.064,0.176 0.1,0.264 l 0.1,0.257 0.11,0.267 c 0.036,0.086 0.069,0.171 0.1,0.26 0.031,0.089 0.079,0.181 0.119,0.272 0.04,0.091 0.074,0.174 0.114,0.26 0.04,0.086 0.086,0.188 0.129,0.281 0.043,0.093 0.079,0.172 0.122,0.26 0.043,0.088 0.1,0.193 0.143,0.288 0.043,0.095 0.083,0.171 0.126,0.257 0.043,0.086 0.109,0.21 0.164,0.314 0.055,0.104 0.081,0.157 0.124,0.238 0.076,0.141 0.157,0.283 0.238,0.426 0.05,0.09 0.1,0.183 0.157,0.274 0.079,0.136 0.157,0.272 0.238,0.41 0.045,0.076 0.1,0.152 0.143,0.238 0.043,0.086 0.136,0.221 0.207,0.333 l 0.164,0.238 0.21,0.319 c 0.057,0.086 0.119,0.174 0.179,0.26 0.06,0.086 0.143,0.21 0.219,0.314 l 0.188,0.262 0.238,0.314 c 0.064,0.09 0.133,0.179 0.2,0.267 l 0.238,0.314 c 0.069,0.09 0.141,0.179 0.212,0.269 0.071,0.09 0.169,0.21 0.257,0.314 0.088,0.104 0.148,0.181 0.224,0.269 0.076,0.088 0.179,0.212 0.269,0.319 l 0.238,0.269 0.283,0.319 0.238,0.269 c 0.055,0.057 0.107,0.117 0.162,0.176 z m 25.3,-25.29 -0.171,-0.155 -0.276,-0.255 -0.312,-0.276 -0.276,-0.238 -0.31,-0.264 -0.276,-0.238 -0.31,-0.238 -0.274,-0.219 q -0.153,-0.121 -0.307,-0.238 c -0.091,-0.071 -0.183,-0.141 -0.274,-0.207 l -0.307,-0.226 c -0.09,-0.064 -0.179,-0.131 -0.269,-0.193 -0.09,-0.062 -0.2,-0.143 -0.31,-0.214 -0.11,-0.071 -0.176,-0.124 -0.264,-0.181 l -0.312,-0.207 c -0.086,-0.055 -0.171,-0.114 -0.257,-0.167 l -0.324,-0.2 -0.238,-0.15 c -0.131,-0.079 -0.26,-0.155 -0.391,-0.238 -0.131,-0.083 -0.207,-0.119 -0.31,-0.179 l -0.41,-0.238 -0.238,-0.129 c -0.1,-0.052 -0.207,-0.11 -0.31,-0.16 -0.103,-0.05 -0.171,-0.086 -0.257,-0.129 l -0.288,-0.143 -0.26,-0.121 -0.279,-0.129 -0.262,-0.114 -0.272,-0.117 -0.26,-0.107 -0.267,-0.107 -0.257,-0.1 -0.262,-0.1 -0.255,-0.09 -0.26,-0.091 -0.238,-0.081 -0.257,-0.083 -0.238,-0.074 -0.252,-0.076 -0.238,-0.067 -0.238,-0.067 -0.238,-0.062 -0.238,-0.06 -0.238,-0.055 -0.238,-0.052 -0.221,-0.048 -0.238,-0.048 -0.248,-0.021 -0.238,-0.04 -0.207,-0.036 -0.238,-0.036 -0.2,-0.029 -0.238,-0.031 -0.186,-0.024 -0.238,-0.026 -0.174,-0.017 -0.252,-0.021 -0.155,-0.014 -0.281,-0.017 h -0.112 l -0.386,-0.019 h -0.338 a 41.046,41.046 0 0 1 5.149,-2.044 c 7.593,-2.408 13.721,-1.667 18.245,2.217 z"
       transform="translate(-347.689,13520.121)"
       style="fill:#ffffff" />
    <path
       id="Tracé_4833"
       data-name="Tracé 4833"
       class="cls-2"
       d="m 918.3,333.647 v -0.331 0 -0.043 a 1.445,1.445 0 0 0 -0.038,-0.264 0.118,0.118 0 0 0 0,-0.029 c -0.017,-0.1 -0.041,-0.207 -0.067,-0.31 v -0.031 c -0.026,-0.1 -0.052,-0.188 -0.083,-0.281 v -0.033 c -0.033,-0.1 -0.069,-0.2 -0.11,-0.291 l -0.021,-0.05 c -0.038,-0.086 -0.076,-0.171 -0.119,-0.255 l -0.017,-0.033 c -0.048,-0.091 -0.1,-0.179 -0.15,-0.267 l -0.036,-0.057 c -0.052,-0.081 -0.1,-0.162 -0.162,-0.238 l -0.017,-0.021 a 2.387,2.387 0 0 0 -0.193,-0.238 l -0.048,-0.057 c -0.071,-0.081 -0.143,-0.16 -0.219,-0.238 l -2.144,-2.144 a 1.227,1.227 0 0 0 -1.667,0.067 1.279,1.279 0 0 0 0.043,1.777 l 0.029,0.033 1.719,1.717 0.286,0.286 a 1.982,1.982 0 0 1 0.162,0.183 c 0.014,0.017 0.026,0.036 0.041,0.055 a 1.414,1.414 0 0 1 0.1,0.145 0.413,0.413 0 0 1 0.036,0.062 1.459,1.459 0 0 1 0.083,0.16 l 0.024,0.05 c 0.031,0.071 0.057,0.143 0.081,0.217 a 2.118,2.118 0 0 1 -0.524,2.117 v 0 a 2.122,2.122 0 0 1 -2.992,0 l -0.843,-0.843 v 0 l -31.037,-31.013 a 1.159,1.159 0 0 0 -0.219,-0.172 v 0 a 1.165,1.165 0 0 0 -0.374,-0.155 v 0 a 1.265,1.265 0 0 0 -0.191,-0.026 h -0.014 a 1.045,1.045 0 0 0 -0.193,0 v 0 a 1.277,1.277 0 0 0 -0.186,0.036 v 0 a 1.061,1.061 0 0 0 -0.172,0.064 l -0.029,0.014 a 1.283,1.283 0 0 0 -0.157,0.09 l -0.026,0.019 a 1.187,1.187 0 0 0 -0.148,0.124 1.238,1.238 0 0 0 -0.126,0.15 l -0.017,0.024 a 1.05,1.05 0 0 0 -0.093,0.157 0.147,0.147 0 0 0 -0.012,0.029 1.264,1.264 0 0 0 -0.064,0.172 0.026,0.026 0 0 0 0,0.012 1.012,1.012 0 0 0 -0.036,0.188 v 0 a 1.289,1.289 0 0 0 0,0.191 v 0.017 a 1.05,1.05 0 0 0 0.026,0.191 v 0 a 1.26,1.26 0 0 0 0.124,0.4 v 0 a 1.234,1.234 0 0 0 0.174,0.219 l 26.636,26.628 5.2,5.2 a 4.571,4.571 0 0 0 6.455,0 v 0 a 4.552,4.552 0 0 0 0.953,-1.393 v 0 c 0.045,-0.1 0.086,-0.2 0.122,-0.312 v 0 c 0.036,-0.1 0.069,-0.212 0.1,-0.319 v 0 c 0.029,-0.107 0.052,-0.214 0.074,-0.322 v 0 c 0.019,-0.1 0.033,-0.2 0.045,-0.3 a 0.086,0.086 0 0 0 0,-0.026 v 0 c 0,-0.1 0.019,-0.2 0.026,-0.3 a 0.146,0.146 0 0 1 0,-0.031 v -0.326 z"
       transform="translate(-363.011,13504.858)"
       style="fill:#ffffff" />
    <path
       id="Tracé_4834"
       data-name="Tracé 4834"
       class="cls-3"
       d="m 432.062,177.48 -0.867,0.867 v 0 l -0.865,0.867 1.732,1.732 1.734,-1.732 z"
       transform="translate(103.303,13648.792)"
       style="fill:#ffffff" />
  </g>
</svg>
