<svg xmlns="http://www.w3.org/2000/svg" width="58" height="56" viewBox="-0.5 -0.5 58 56" xmlns:v="https://vecta.io/nano"><path d="M51.88 54.51a1.18 1.18 0 0 0 1.13-1.18c0-.47-.46-1.07-1.13-1.07-.73 0-1.12.66-1.12 1.07 0 .65.51 1.18 1.12 1.18zm2.63-1.11c0 1.38-1.23 2.6-2.59 2.6-1.51 0-2.65-1.26-2.65-2.57V37.39c-1.36-.68-2.99-2.25-2.99-5.05.07-2.24 1.38-3.94 2.99-4.79v4.55l2.61 1.49 2.63-1.49v-4.56c1.57.77 2.99 2.63 2.99 4.93a5.65 5.65 0 0 1-2.99 4.92zm-14.25 2.59c-.38 0-.72-.32-.72-.75V44.02c0-.34.31-.72.7-.72h.79l.01-10.44-.3-2.48v-3.51h2.08l.01 3.51-.3 2.48V43.3h.76c.43 0 .74.27.74.76v11.21a.71.71 0 0 1-.72.72zM22.52 24.86c-6.04 0-11.42-5.03-11.42-12.74C11.1 6.13 15.65 0 22.3 0c6.49 0 11.25 5.93 11.25 12.4 0 7.49-5.6 12.46-11.03 12.46zM-.5 49.95C.02 44.43.72 36.91 2.04 33.09c.61-1.72 1.5-2.96 2.94-4 .93-.69 4.23-2.51 4.84-2.81 1.05-.54 2.15-.83 3.09 0 5.6 4.95 13.35 4.8 19.03.02.66-.67 1.7-.5 2.39-.23.77.3 2.77 1.43 4.08 2.2v2.24l.3 2.49v8.44a2.98 2.98 0 0 0-1.49 2.58l-.01 5.93z" fill="#505050" pointer-events="all"/></svg>