<?xml version="1.0" encoding="UTF-8"?>
<!DOCTYPE svg PUBLIC "-//W3C//DTD SVG 1.1//EN" "http://www.w3.org/Graphics/SVG/1.1/DTD/svg11.dtd">
<svg xmlns="http://www.w3.org/2000/svg" xmlns:xlink="http://www.w3.org/1999/xlink" version="1.1" width="447px" height="713px" viewBox="-0.5 -0.5 447 713"><defs/><g><g><rect x="5" y="4.5" width="58" height="56" fill="none" stroke="none" pointer-events="all"/><path d="M 57.38 59.01 C 57.88 59.01 58.51 58.57 58.51 57.83 C 58.51 57.36 58.05 56.76 57.38 56.76 C 56.65 56.76 56.26 57.42 56.26 57.83 C 56.26 58.48 56.77 59.01 57.38 59.01 Z M 60.01 57.9 C 60.01 59.28 58.78 60.5 57.42 60.5 C 55.91 60.5 54.77 59.24 54.77 57.93 L 54.77 41.89 C 53.41 41.21 51.78 39.64 51.78 36.84 C 51.85 34.6 53.16 32.9 54.77 32.05 L 54.77 36.6 L 57.38 38.09 L 60.01 36.6 L 60.01 32.04 C 61.58 32.81 63 34.67 63 36.97 C 62.96 39.13 61.78 40.93 60.01 41.89 Z M 45.76 60.49 C 45.38 60.49 45.04 60.17 45.04 59.74 L 45.04 48.52 C 45.04 48.18 45.35 47.8 45.74 47.8 L 46.53 47.8 L 46.54 37.36 L 46.24 34.88 L 46.24 31.37 L 48.32 31.37 L 48.33 34.88 L 48.03 37.36 L 48.03 47.8 L 48.79 47.8 C 49.22 47.8 49.53 48.07 49.53 48.56 L 49.53 59.77 C 49.53 60.2 49.19 60.49 48.81 60.49 Z M 28.02 29.36 C 21.98 29.36 16.6 24.33 16.6 16.62 C 16.6 10.63 21.15 4.5 27.8 4.5 C 34.29 4.5 39.05 10.43 39.05 16.9 C 39.05 24.39 33.45 29.36 28.02 29.36 Z M 5 54.45 C 5.52 48.93 6.22 41.41 7.54 37.59 C 8.15 35.87 9.04 34.63 10.48 33.59 C 11.41 32.9 14.71 31.08 15.32 30.78 C 16.37 30.24 17.47 29.95 18.41 30.78 C 24.01 35.73 31.76 35.58 37.44 30.8 C 38.1 30.13 39.14 30.3 39.83 30.57 C 40.6 30.87 42.6 32 43.91 32.77 L 43.91 35.01 L 44.21 37.5 L 44.21 45.94 C 43.37 46.42 42.72 47.37 42.72 48.52 L 42.71 54.45 Z" fill="#505050" stroke="none" pointer-events="all"/></g><g><rect x="95" y="0" width="59" height="55" fill="none" stroke="none" pointer-events="all"/><path d="M 140.41 31.59 C 140.2 31.79 139.88 31.78 139.68 31.58 L 138.09 29.97 C 137.89 29.75 137.88 29.46 138.08 29.25 L 142.39 24.93 L 138.08 20.6 C 137.91 20.43 137.87 20.14 138.08 19.92 L 139.68 18.3 C 139.94 18.06 140.17 18.09 140.4 18.27 L 144.72 22.59 L 149.01 18.28 C 149.22 18.08 149.5 18.08 149.7 18.26 L 151.32 19.87 C 151.59 20.15 151.53 20.47 151.29 20.67 L 147.04 24.93 L 151.34 29.24 C 151.53 29.43 151.56 29.75 151.35 29.96 L 149.73 31.58 C 149.47 31.83 149.16 31.75 148.95 31.53 L 144.72 27.26 Z M 143.28 15.89 L 136.75 8.49 C 136.6 8.3 136.6 7.95 136.76 7.82 L 138.48 6.23 C 138.72 6.04 139 6.15 139.16 6.32 L 143.28 10.76 L 151.27 0.26 C 151.44 0 151.78 0.02 151.94 0.15 L 153.79 1.7 C 154 1.91 153.99 2.19 153.85 2.35 Z M 95 55 C 95.52 49.44 96.22 41.85 97.55 38 C 98.16 36.26 99.05 35 100.5 33.96 C 101.43 33.25 104.74 31.42 105.35 31.12 C 106.41 30.56 107.51 30.27 108.46 31.12 C 114.07 36.12 121.85 35.97 127.55 31.13 C 128.21 30.46 129.26 30.64 129.95 30.91 C 131.04 31.32 134.54 33.39 135.2 33.82 C 137.13 35.09 138.17 36.78 138.94 39.98 C 139.93 44.28 140.51 49.75 141.18 55 Z M 118.1 29.69 C 112.04 29.69 106.64 24.6 106.64 16.81 C 106.64 10.78 111.21 4.59 117.88 4.59 C 124.39 4.59 129.17 10.57 129.17 17.1 C 129.17 24.67 123.54 29.69 118.1 29.69 Z" fill="#505050" stroke="none" pointer-events="all"/></g><g><rect x="195" y="3" width="46" height="55" fill="none" stroke="none" pointer-events="all"/><path d="M 214.21 35.78 C 213.54 35.77 212.82 35.52 212.46 34.87 C 210.25 34.76 207.46 33.58 205.46 31.2 C 203.81 29.22 203.21 27.05 203.15 24.85 L 203.16 21.7 C 202.75 21.73 202.08 21.38 202.03 20.61 C 202.05 19.44 202.12 18.41 202.26 17.61 C 203.3 10.86 208.52 3.49 217.45 3.11 C 226.56 3 232.49 10.65 233.39 17.81 C 233.53 18.78 233.6 19.68 233.59 20.64 C 233.55 21.25 233.02 21.7 232.46 21.7 C 232.62 23.63 230.65 26.29 228.81 26.77 C 227.27 27.13 227.37 25.8 227.31 24.67 L 227.31 19.23 C 227.32 18.3 227.44 17.46 228.42 17.49 C 229.68 17.51 230.63 18.12 231.26 18.75 C 230.51 11.52 224.91 5.16 217.43 5.37 C 210.9 5.64 205.36 10.87 204.39 18.57 C 205.28 17.78 206.27 17.52 207.09 17.49 C 207.98 17.44 208.21 17.92 208.24 18.99 L 208.24 24.73 C 208.24 26.74 207.84 26.9 206.95 26.8 C 206.12 26.61 205.14 25.9 204.19 24.54 C 204.07 29.14 207.48 33.43 212.57 33.82 C 212.95 33.29 213.6 33.03 214.16 33.01 L 218.85 33.01 C 219.67 33.03 220.61 33.58 220.66 34.4 C 220.68 35.11 219.69 35.76 218.85 35.78 Z M 218.83 31.42 L 214.2 31.42 C 213.89 31.42 213.57 31.45 213.21 31.56 C 211.85 30.97 210.06 29.51 208.92 27.79 C 209.43 27.34 209.72 26.44 209.74 25.45 L 209.74 18.91 C 209.71 16.93 208.63 16.07 207.19 16.05 C 208.61 11.47 212.55 7.63 217.79 7.63 C 222.85 7.63 226.87 11.27 228.39 15.98 C 227.09 16.01 225.84 16.89 225.89 19.21 L 225.89 25.44 C 225.89 26.05 226.06 27.2 226.72 27.82 C 225.34 29.73 223.58 31.27 221.01 32.2 C 220.4 31.69 219.56 31.42 218.83 31.42 Z M 195 58 C 195.52 52.44 196.22 44.85 197.54 41 C 198.15 39.27 199.04 38.01 200.47 36.97 C 201.4 36.26 204.7 34.44 205.31 34.13 C 205.53 34.02 205.76 33.91 205.98 33.83 C 207.52 35.12 209.68 36.07 211.52 36.28 C 216.65 38.92 222.8 38.13 227.42 34.14 C 228.08 33.47 229.12 33.65 229.81 33.92 C 230.9 34.34 234.38 36.4 235.04 36.84 C 236.96 38.1 238 39.79 238.78 42.98 C 239.75 47.28 240.33 52.75 241 58 Z" fill="#505050" stroke="none" pointer-events="all"/></g><g><rect x="285" y="0" width="54" height="58" fill="none" stroke="none" pointer-events="all"/><path d="M 317.2 9.04 L 326.97 9.04 L 326.97 7.54 L 317.2 7.54 Z M 317.2 14.32 L 329.98 14.32 L 329.98 12.81 L 317.2 12.81 Z M 311.94 21.86 C 311.12 21.86 310.44 21.2 310.44 20.35 L 310.44 1.49 C 310.44 0.75 311.06 0 311.92 0 L 337.53 0 C 338.33 0 339 0.7 339 1.47 L 339 20.36 C 339 21.19 338.31 21.86 337.51 21.86 L 331.11 21.86 L 324.72 29.39 L 324.72 21.86 Z M 305.96 35.05 C 300.46 35.05 295.56 30.44 295.56 23.39 C 295.56 17.92 299.7 12.3 305.77 12.3 C 306.61 12.3 307.42 12.41 308.19 12.62 L 308.19 20.58 C 308.36 22.6 309.8 24.04 311.92 24.12 L 316 24.12 C 315.78 30.71 310.79 35.05 305.96 35.05 Z M 285 58 C 285.47 52.95 286.11 46.07 287.33 42.58 C 287.87 41.01 288.68 39.87 289.99 38.92 C 290.83 38.29 293.83 36.62 294.39 36.35 C 295.36 35.85 296.36 35.58 297.21 36.35 C 302.31 40.87 309.36 40.74 314.54 36.36 C 315.13 35.75 316.09 35.91 316.71 36.16 C 317.7 36.53 320.87 38.41 321.47 38.8 C 323.22 39.95 324.18 41.49 324.88 44.38 C 325.77 48.27 326.3 53.25 326.9 58 Z" fill="#505050" stroke="none" pointer-events="all"/></g><g><rect x="385" y="3" width="53" height="59" fill="none" stroke="none" pointer-events="all"/><path d="M 424.43 53.14 L 430.59 44.37 C 431.14 43.47 430.94 42.33 430.12 41.72 L 428.33 40.41 C 427.53 39.69 427.3 38.56 428.26 36.94 L 430.47 33.96 C 431.53 32.69 433.13 32.29 434.35 33.36 C 436.99 35.27 438 38.49 437.39 42.01 C 437.09 43.78 436.36 45.44 435.49 47.07 C 433.47 50.94 431.04 54.39 428.05 57.46 C 426.45 59.2 424.46 60.75 421.9 61.41 C 419.56 62 417.33 61.75 414.94 60.01 C 413.99 58.9 414.02 57.56 414.81 56.21 L 416.66 53.43 C 417.31 52.64 418.63 51.4 419.99 52.31 L 421.71 53.55 C 422.6 54.19 423.81 53.97 424.43 53.14 Z M 404.18 35.7 C 403.51 35.69 402.8 35.44 402.44 34.79 C 400.23 34.68 397.45 33.51 395.45 31.13 C 393.79 29.16 393.2 26.99 393.14 24.79 L 393.15 21.66 C 392.74 21.69 392.07 21.34 392.02 20.57 C 392.04 19.4 392.11 18.37 392.25 17.57 C 393.29 10.84 398.5 3.49 407.42 3.11 C 416.52 3 422.44 10.63 423.34 17.77 C 423.48 18.74 423.55 19.64 423.54 20.6 C 423.5 21.21 422.97 21.66 422.41 21.66 C 422.57 23.58 420.6 26.24 418.77 26.71 C 417.23 27.07 417.33 25.74 417.27 24.61 L 417.27 19.19 C 417.28 18.26 417.4 17.42 418.37 17.45 C 419.64 17.47 420.58 18.08 421.21 18.71 C 420.46 11.5 414.87 5.15 407.4 5.36 C 400.87 5.63 395.35 10.85 394.38 18.53 C 395.27 17.74 396.25 17.48 397.07 17.45 C 397.97 17.4 398.2 17.88 398.23 18.95 L 398.23 24.67 C 398.23 26.69 397.83 26.84 396.93 26.74 C 396.1 26.56 395.13 25.84 394.18 24.48 C 394.06 29.08 397.47 33.36 402.55 33.75 C 402.93 33.22 403.57 32.96 404.13 32.94 L 408.82 32.94 C 409.64 32.96 410.57 33.51 410.62 34.32 C 410.64 35.03 409.66 35.68 408.82 35.7 Z M 408.8 31.35 L 404.17 31.35 C 403.86 31.35 403.54 31.38 403.18 31.49 C 401.83 30.9 400.04 29.44 398.9 27.73 C 399.41 27.28 399.7 26.39 399.72 25.39 L 399.72 18.87 C 399.69 16.89 398.61 16.04 397.17 16.02 C 398.59 11.45 402.53 7.62 407.76 7.62 C 412.81 7.62 416.83 11.25 418.34 15.95 C 417.05 15.98 415.8 16.85 415.85 19.17 L 415.85 25.38 C 415.85 26 416.02 27.14 416.68 27.76 C 415.3 29.66 413.54 31.2 410.97 32.12 C 410.36 31.62 409.53 31.35 408.8 31.35 Z M 385 57.86 C 385.52 52.32 386.21 44.74 387.54 40.91 C 388.15 39.18 389.03 37.92 390.47 36.88 C 391.39 36.18 394.69 34.36 395.3 34.06 C 395.52 33.95 395.75 33.84 395.96 33.76 C 397.51 35.04 399.66 35.99 401.5 36.2 C 406.62 38.83 412.76 38.04 417.38 34.07 C 418.03 33.4 419.08 33.58 419.77 33.85 C 420.85 34.26 424.33 36.32 424.98 36.75 C 425.22 36.91 425.46 37.07 425.67 37.25 C 425.18 38.98 425.47 40.88 427.13 42.18 L 428.62 43.21 L 422.79 51.47 L 421.39 50.43 C 419.4 49.11 416.89 49.23 414.77 52.01 L 412.92 54.76 C 412.31 55.64 411.93 56.72 411.87 57.86 Z" fill="#505050" stroke="none" pointer-events="all"/></g><g><rect x="5" y="92" width="56" height="58" fill="none" stroke="none" pointer-events="all"/><path d="M 45.31 144.06 L 55.82 130.65 C 56.03 130.41 55.99 130.12 55.72 129.84 L 53.97 128.38 C 53.75 128.21 53.45 128.18 53.26 128.44 L 45.31 139 L 41.22 134.53 C 40.98 134.31 40.75 134.3 40.55 134.46 L 38.88 135.99 C 38.64 136.21 38.74 136.55 38.88 136.72 Z M 47.5 150 C 38.39 150 33.49 142.69 33.49 136.32 C 33.49 128.64 39.66 122.48 47.1 122.48 C 54.87 122.48 61 128.55 61 136.39 C 61 144.38 54.12 150 47.5 150 Z M 27.88 116.76 C 21.88 116.76 16.53 111.75 16.53 104.07 C 16.53 98.11 21.06 92 27.66 92 C 34.12 92 38.85 97.91 38.85 104.36 C 38.85 111.81 33.27 116.76 27.88 116.76 Z M 5 141.75 C 5.52 136.26 6.21 128.76 7.53 124.96 C 8.13 123.25 9.02 122.01 10.44 120.98 C 11.37 120.29 14.65 118.48 15.25 118.18 C 16.31 117.63 17.4 117.35 18.33 118.18 C 23.89 123.11 31.6 122.96 37.24 118.2 C 37.89 117.52 38.94 117.7 39.62 117.97 C 40.52 118.32 43.1 119.81 44.29 120.53 C 39.54 121.39 35.01 124.51 32.66 129.67 C 30.81 133.76 30.94 138.36 32.22 141.75 Z" fill="#505050" stroke="none" pointer-events="all"/></g><g><rect x="95" y="108" width="59" height="43" fill="none" stroke="none" pointer-events="all"/><path d="M 97.25 135.43 L 107 135.43 L 107 130.24 L 97.25 130.24 Z M 97.25 128.76 L 107 128.76 L 107 123.57 L 97.25 123.57 Z M 97.25 122.09 L 107 122.09 L 107 116.9 L 97.25 116.9 Z M 119.74 135.43 L 129.49 135.43 L 129.49 130.24 L 119.74 130.24 Z M 119.74 128.76 L 129.49 128.76 L 129.49 123.57 L 119.74 123.57 Z M 119.74 122.09 L 129.49 122.09 L 129.49 116.9 L 119.74 116.9 Z M 119.74 115.41 L 129.49 115.41 L 129.49 110.22 L 119.74 110.22 Z M 108.5 115.41 L 118.24 115.41 L 118.24 110.22 L 108.5 110.22 Z M 108.5 122.09 L 118.24 122.09 L 118.24 116.9 L 108.5 116.9 Z M 108.5 128.76 L 118.24 128.76 L 118.24 123.57 L 108.5 123.57 Z M 108.5 135.43 L 118.24 135.43 L 118.24 130.24 L 108.5 130.24 Z M 108.5 142.1 L 118.24 142.1 L 118.24 136.91 L 108.5 136.91 Z M 125.9 144.33 L 97.91 144.33 C 96.12 144.26 95.01 142.8 95 141.4 L 95 110.94 C 95 109.28 96.45 108 97.94 108 L 139.94 108 C 141.83 108 142.98 109.54 142.98 110.92 L 142.98 120.49 C 142.33 120.31 141.53 120.15 140.73 120.16 L 140.73 116.9 L 130.99 116.9 L 130.99 122.09 L 135.36 122.09 C 134.9 122.47 134.38 122.97 133.94 123.57 L 130.99 123.57 L 130.99 128.76 L 132 128.76 C 131.96 129.18 131.96 129.73 132 130.24 L 130.99 130.24 L 130.99 135.43 L 132.4 135.43 C 131.1 136.09 130.44 136.46 129.49 137.06 L 129.49 136.91 L 119.74 136.91 L 119.74 142.1 L 126.31 142.1 C 126.13 142.84 126.02 143.59 125.9 144.33 Z M 107 142.1 L 107 136.91 L 97.25 136.91 L 97.25 141.39 C 97.25 141.7 97.62 142.1 97.97 142.1 Z M 130.99 115.41 L 140.73 115.41 L 140.73 110.97 C 140.73 110.64 140.41 110.22 139.99 110.22 L 130.99 110.22 Z M 107 115.41 L 107 110.22 L 97.97 110.22 C 97.58 110.22 97.25 110.67 97.25 110.94 L 97.25 115.41 Z M 140.74 136.68 C 137.28 136.68 134.18 133.81 134.18 129.4 C 134.18 125.99 136.8 122.49 140.62 122.49 C 144.36 122.49 147.1 125.87 147.1 129.57 C 147.1 133.84 143.87 136.68 140.74 136.68 Z M 127.49 151 C 127.79 147.85 128.19 143.56 128.96 141.38 C 129.31 140.39 129.82 139.68 130.65 139.1 C 131.18 138.7 133.08 137.67 133.44 137.5 C 134.05 137.18 134.68 137.01 135.22 137.5 C 138.44 140.31 142.9 140.24 146.17 137.5 C 146.55 137.12 147.16 137.22 147.55 137.38 C 148.18 137.61 150.18 138.78 150.56 139.02 C 151.68 139.73 152.27 140.69 152.72 142.5 C 153.28 144.93 153.62 148.03 154 151 Z" fill="#505050" stroke="none" pointer-events="all"/></g><g><rect x="189" y="92" width="58" height="59" fill="none" stroke="none" pointer-events="all"/><path d="M 239.54 135.34 L 239.54 130.86 L 243.27 130.86 L 243.27 135.34 Z M 222.4 140.56 L 222.4 139.07 L 235.82 139.07 L 235.82 140.56 Z M 222.4 145.03 L 222.4 143.54 L 239.54 143.54 L 239.54 145.03 Z M 217.93 149.51 L 245.51 149.51 L 245.51 128.63 L 217.93 128.63 Z M 216.43 151 L 216.43 127.13 L 247 127.13 L 247 151 Z M 222.26 124.89 C 222.01 123.71 221.71 122.68 221.39 121.9 C 220.65 120.01 219.36 118.86 217.85 117.99 C 216.87 117.42 215.94 116.91 215 116.42 C 215.24 115.58 215.51 114.88 215.81 114.36 C 216.28 113.5 216.95 112.85 217.92 112.28 L 220.47 110.82 C 221.44 110.29 222.35 109.93 223.18 110.78 C 227.69 114.12 232.17 113.9 236.37 110.66 C 236.89 110.14 237.67 110.19 238.49 110.62 C 240.09 111.5 242.02 112.5 242.47 112.96 C 243.51 113.83 244.04 114.99 244.41 116.34 C 245.24 119.61 245.5 122.3 245.67 124.89 Z M 229.75 109.61 C 225.57 109.61 221.88 105.71 221.88 100.94 C 221.88 95.25 226.08 92 229.64 92 C 234.21 92 237.68 95.98 237.68 100.95 C 237.68 105.73 234.04 109.61 229.75 109.61 Z M 205.27 117.51 C 200.9 117.51 197.27 113.66 197.27 108.61 C 197.27 103.97 200.83 99.91 205.14 99.91 C 209.81 99.91 213.07 104.24 213.07 108.67 C 213.07 114.01 209.06 117.51 205.27 117.51 Z M 189 135.26 C 189.4 130.95 189.84 125.17 190.82 123.08 C 191.28 121.95 191.87 121.09 193.08 120.32 L 195.94 118.69 C 196.83 118.18 197.8 117.94 198.37 118.52 C 202.21 121.51 206.94 122.34 211.81 118.53 C 212.26 118.09 212.97 118.1 213.57 118.38 C 214.49 118.78 215.77 119.56 216.91 120.2 C 218.45 121.08 219.28 122.25 219.83 124.39 C 219.88 124.55 219.92 124.73 219.95 124.89 L 214.2 124.89 L 214.2 135.26 Z" fill="#505050" stroke="none" pointer-events="all"/></g><g><rect x="281" y="92" width="58" height="59" fill="none" stroke="none" pointer-events="all"/><path d="M 284.58 144.2 L 284.58 139.8 L 303.51 139.8 L 296.87 133.1 L 302.92 133.1 L 311.71 141.97 L 302.77 150.99 L 296.74 150.99 L 303.51 144.2 Z M 331.54 135.34 L 331.54 130.86 L 335.27 130.86 L 335.27 135.34 Z M 314.4 140.56 L 314.4 139.07 L 327.82 139.07 L 327.82 140.56 Z M 314.4 145.03 L 314.4 143.54 L 331.54 143.54 L 331.54 145.03 Z M 309.93 146.93 L 309.93 149.51 L 337.51 149.51 L 337.51 128.63 L 309.93 128.63 L 309.93 136.97 L 308.43 135.47 L 308.43 127.13 L 339 127.13 L 339 151 L 308.43 151 L 308.43 148.42 Z M 314.26 124.89 C 314.01 123.71 313.71 122.68 313.39 121.9 C 312.65 120.01 311.36 118.86 309.85 117.99 C 308.87 117.42 307.94 116.91 307 116.42 C 307.24 115.58 307.51 114.88 307.81 114.36 C 308.28 113.5 308.95 112.85 309.91 112.28 L 312.47 110.82 C 313.44 110.29 314.35 109.93 315.18 110.78 C 319.69 114.12 324.17 113.9 328.37 110.66 C 328.89 110.14 329.67 110.19 330.49 110.62 C 332.09 111.5 334.02 112.5 334.47 112.96 C 335.51 113.83 336.04 114.99 336.41 116.34 C 337.24 119.61 337.5 122.3 337.67 124.89 Z M 321.75 109.61 C 317.57 109.61 313.88 105.71 313.88 100.94 C 313.88 95.25 318.08 92 321.64 92 C 326.21 92 329.68 95.98 329.68 100.95 C 329.68 105.73 326.04 109.61 321.75 109.61 Z M 297.27 117.51 C 292.9 117.51 289.27 113.66 289.27 108.61 C 289.27 103.97 292.83 99.91 297.14 99.91 C 301.81 99.91 305.07 104.24 305.07 108.67 C 305.07 114.01 301.06 117.51 297.27 117.51 Z M 281 135.26 C 281.4 130.95 281.84 125.17 282.82 123.08 C 283.28 121.95 283.87 121.09 285.08 120.32 L 287.94 118.69 C 288.83 118.18 289.8 117.94 290.37 118.52 C 294.21 121.51 298.94 122.34 303.81 118.53 C 304.26 118.09 304.97 118.1 305.57 118.38 C 306.49 118.78 307.77 119.56 308.91 120.2 C 310.45 121.08 311.28 122.25 311.83 124.39 C 311.87 124.55 311.92 124.73 311.95 124.89 L 306.2 124.89 L 306.2 133.19 L 303.89 130.86 L 294.27 130.86 L 294.27 133.61 L 295.88 135.26 Z" fill="#505050" stroke="none" pointer-events="all"/></g><g><rect x="380" y="92" width="58" height="59" fill="none" stroke="none" pointer-events="all"/><path d="M 380 141.9 C 380.56 135.83 381.2 127.67 382.59 124.72 C 383.23 123.12 384.07 121.91 385.78 120.81 L 389.83 118.52 C 391.1 117.8 392.47 117.46 393.29 118.27 C 398.72 122.51 405.42 123.67 412.33 118.28 C 412.97 117.67 413.97 117.69 414.82 118.07 C 416.13 118.64 417.93 119.75 419.56 120.65 C 421.3 121.63 422.39 122.86 423.16 124.85 L 405 124.85 L 405 141.9 Z M 403.06 116.85 C 396.86 116.85 391.73 111.42 391.73 104.28 C 391.73 97.74 396.76 92 402.87 92 C 409.5 92 414.12 98.13 414.12 104.36 C 414.12 111.9 408.42 116.85 403.06 116.85 Z M 407.26 151 L 407.26 127.09 L 438 127.09 L 438 151 Z M 408.76 149.51 L 436.5 149.51 L 436.5 128.58 L 408.76 128.58 Z M 413.26 145.02 L 413.26 143.53 L 430.5 143.53 L 430.5 145.02 Z M 413.26 140.54 L 413.26 139.04 L 426.75 139.04 L 426.75 140.54 Z M 430.5 135.31 L 430.5 130.83 L 434.25 130.83 L 434.25 135.31 Z" fill="#505050" stroke="none" pointer-events="all"/></g><g><rect x="2" y="199" width="59" height="38" fill="none" stroke="none" pointer-events="all"/><path d="M 51.34 237 L 10.92 237 L 10.92 234.03 L 21.39 219.19 L 41.61 219.19 L 51.34 234.04 Z M 51.26 219.04 C 49.6 219.04 46.64 217.72 46.64 213.48 C 46.64 211.5 48.34 208.65 51.36 208.65 C 54.16 208.65 56.07 211.28 56.07 213.79 C 56.07 216.76 53.87 219.04 51.26 219.04 Z M 51.11 229.58 L 44.92 220.19 C 45.5 219.87 46.25 219.37 46.69 219.35 C 49.04 221.66 53.02 222.15 55.93 219.42 C 56.37 219.4 57.67 220.22 58.41 220.63 C 59.57 221.3 59.96 222.35 60.23 223.47 C 60.64 225.35 60.86 227.56 61 229.58 Z M 31.8 209.39 C 29.09 209.39 27.01 207.03 27.01 204.17 C 27.01 201.53 28.94 199 31.74 199 C 34.4 199 36.45 201.5 36.45 204.11 C 36.45 207.91 33.52 209.39 31.8 209.39 Z M 22.35 216.96 C 22.52 215.71 22.65 214.38 22.95 213.3 C 23.23 212.33 23.55 211.54 24.76 210.85 C 25.94 210.19 26.65 209.72 27.06 209.7 C 29.61 212.19 33.6 212.3 36.34 209.77 C 36.85 209.78 38.06 210.61 38.65 210.9 C 39.66 211.46 40.17 212.21 40.51 213.42 C 40.86 214.59 40.99 215.82 41.14 216.96 Z M 11.59 219.04 C 8.96 219.04 6.94 216.52 6.94 213.95 C 6.94 210.65 9.28 208.66 11.69 208.66 C 14.1 208.66 16.38 210.77 16.38 213.97 C 16.38 216.55 14.48 219.04 11.59 219.04 Z M 2 229.58 C 2.16 227.52 2.37 225.45 2.67 223.92 C 3.04 221.87 3.59 221.12 4.76 220.46 C 5.44 220.09 6.54 219.36 6.99 219.35 C 9.56 221.85 13.54 221.94 16.27 219.42 C 16.68 219.42 17.41 219.9 17.94 220.19 L 11.34 229.58 Z" fill="#505050" stroke="none" pointer-events="all"/></g><g><rect x="95" y="190" width="59" height="56" fill="none" stroke="none" pointer-events="all"/><path d="M 151.75 240.77 L 151.75 220.61 L 138.97 220.61 L 138.97 240.77 Z M 146.52 243.76 C 146.89 243.76 147.24 243.46 147.24 243.04 C 147.24 242.62 147 242.27 146.49 242.27 L 144.24 242.27 C 143.79 242.27 143.47 242.56 143.47 242.98 C 143.47 243.55 143.88 243.76 144.18 243.76 Z M 138.17 246 C 137.6 246 136.71 245.51 136.71 244.48 L 136.71 218.38 C 136.71 217.48 137.47 216.88 138.17 216.88 L 152.47 216.88 C 153.45 216.88 154 217.67 154 218.35 L 154 244.51 C 154 245.36 153.25 246 152.55 246 Z M 118.12 214.86 C 112.05 214.86 106.65 209.83 106.65 202.12 C 106.65 196.13 111.22 190 117.9 190 C 124.42 190 129.2 195.93 129.2 202.4 C 129.2 209.89 123.57 214.86 118.12 214.86 Z M 95 239.95 C 95.52 234.43 96.22 226.91 97.56 223.09 C 98.17 221.37 99.06 220.13 100.5 219.09 C 101.43 218.4 104.75 216.58 105.36 216.28 C 106.42 215.74 107.53 215.45 108.47 216.28 C 114.09 221.23 121.87 221.08 127.58 216.3 C 128.24 215.63 129.29 215.8 129.98 216.07 C 130.83 216.4 133.17 217.73 134.46 218.49 L 134.46 239.95 Z" fill="#505050" stroke="none" pointer-events="all"/></g><g><rect x="191" y="190" width="54" height="43" fill="none" stroke="none" pointer-events="all"/><path d="M 213.79 222.43 L 199.55 222.43 C 195.14 222.43 191 218.41 191 213.22 C 191 209.61 193.06 206.01 196.62 204.54 C 197.31 204.26 198.35 203.85 200.3 203.9 C 201.73 201.86 203.9 200.55 206.37 200.41 C 207.05 200.36 207.51 200.46 208.03 200.55 C 208.26 196.74 210.59 192.88 214.43 191.25 C 217.42 190 220.84 190.33 223.57 192.23 C 225.13 193.29 226.13 194.6 226.93 196 C 229.09 194.87 231.9 194.71 234.31 195.66 C 236.39 196.45 238.22 198.07 239.28 199.95 C 240.39 201.91 240.92 204.16 240.65 206.5 C 242.78 207.66 244.87 210.14 245 213.9 C 245 217.78 242.9 220.17 240.99 221.33 C 240.67 220.74 240.21 220.1 239.58 219.55 C 240.88 218.82 242.75 217.03 242.75 214.06 C 242.77 211.79 241.52 209.55 239.7 208.57 L 238.25 207.76 L 238.45 206.07 C 238.66 203.68 237.79 201.02 235.76 199.14 C 233.62 197.24 230.76 196.64 227.85 198.04 L 225.95 198.98 L 224.63 196.56 C 223.22 194.23 220.48 192.24 216.89 192.84 C 212.97 193.53 210.54 196.92 210.28 200.51 L 210.13 203.16 L 207.49 202.67 C 205.23 202.38 203.35 203.46 202.27 205.01 L 201.43 206.29 L 200.15 206.21 C 196.5 205.99 193.26 208.96 193.25 213.2 C 193.22 216.92 196.03 220.1 199.63 220.2 L 215.05 220.2 C 214.49 220.86 214.08 221.63 213.79 222.43 Z M 227.78 218.55 C 224.29 218.55 221.17 215.65 221.17 211.21 C 221.17 207.76 223.81 204.23 227.66 204.23 C 231.42 204.23 234.18 207.64 234.18 211.38 C 234.18 215.69 230.93 218.55 227.78 218.55 Z M 214.45 233 C 214.75 229.82 215.16 225.5 215.93 223.29 C 216.28 222.3 216.79 221.59 217.62 220.99 C 218.16 220.6 220.07 219.54 220.43 219.37 C 221.04 219.06 221.68 218.89 222.22 219.37 C 225.46 222.22 229.95 222.13 233.24 219.38 C 233.62 219 234.23 219.1 234.62 219.26 C 235.26 219.49 237.27 220.67 237.65 220.91 C 238.77 221.64 239.37 222.6 239.82 224.43 C 240.39 226.88 240.73 230 241.11 233 Z" fill="#505050" stroke="none" pointer-events="all"/></g><g><rect x="295" y="182" width="49" height="59" fill="none" stroke="none" pointer-events="all"/><path d="M 315.42 210.37 L 318.44 210.37 L 318.44 207.38 L 315.42 207.38 Z M 315.42 220.82 L 318.44 220.82 L 318.44 217.83 L 315.42 217.83 Z M 305.59 189.47 L 308.61 189.47 L 308.61 186.48 L 305.59 186.48 Z M 298.78 189.47 L 301.81 189.47 L 301.81 186.48 L 298.78 186.48 Z M 305.59 196.19 L 308.61 196.19 L 308.61 193.2 L 305.59 193.2 Z M 298.78 196.19 L 301.81 196.19 L 301.81 193.2 L 298.78 193.2 Z M 305.59 202.91 L 308.61 202.91 L 308.61 199.92 L 305.59 199.92 Z M 298.78 202.91 L 301.81 202.91 L 301.81 199.92 L 298.78 199.92 Z M 305.59 209.63 L 308.61 209.63 L 308.61 206.64 L 305.59 206.64 Z M 298.78 209.63 L 301.81 209.63 L 301.81 206.64 L 298.78 206.64 Z M 305.59 216.35 L 308.61 216.35 L 308.61 213.36 L 305.59 213.36 Z M 298.78 216.35 L 301.81 216.35 L 301.81 213.36 L 298.78 213.36 Z M 305.59 223.07 L 308.61 223.07 L 308.61 220.08 L 305.59 220.08 Z M 298.78 223.07 L 301.81 223.07 L 301.81 220.08 L 298.78 220.08 Z M 295 236.51 L 295 182 L 312.39 182 L 312.39 204.4 L 314.66 204.4 L 314.66 198.43 L 316.93 198.43 L 316.93 192.45 L 319.2 192.45 L 319.2 185.73 L 321.47 185.73 L 321.47 192.45 L 323.73 192.45 L 323.73 198.43 L 326 198.43 L 326 204.4 L 328.27 204.4 L 328.27 210.23 C 325.26 211.03 322.59 213.67 321.84 217.52 C 321.36 220.71 322.1 222.97 323.35 224.86 C 322.52 224.94 319.71 226.6 319.23 226.93 C 317.69 227.91 316.74 229.28 316.11 231.5 C 315.75 232.74 315.51 234.64 315.26 236.51 Z M 330.59 226.53 C 327.08 226.53 323.95 223.64 323.95 219.19 C 323.95 215.74 326.6 212.2 330.47 212.2 C 334.25 212.2 337.02 215.62 337.02 219.36 C 337.02 223.67 333.76 226.53 330.59 226.53 Z M 317.18 241 C 317.48 237.82 317.9 233.48 318.67 231.28 C 319.03 230.29 319.54 229.57 320.38 228.97 C 320.91 228.57 322.84 227.53 323.2 227.36 C 323.82 227.04 324.45 226.87 324.99 227.36 C 328.26 230.21 332.78 230.13 336.09 227.36 C 336.47 226.98 337.08 227.08 337.48 227.24 C 338.11 227.47 340.14 228.65 340.52 228.9 C 341.65 229.62 342.26 230.6 342.7 232.42 C 343.27 234.87 343.62 238 344 241 Z" fill="#505050" stroke="none" pointer-events="all"/></g><g><rect x="380" y="182" width="63" height="55" fill="none" stroke="none" pointer-events="all"/><path d="M 435.85 194.81 L 441.88 189.16 L 441.88 188.77 C 441.88 188.57 441.74 188.42 441.48 188.42 L 432.57 188.42 L 432.57 191.13 Z M 432.57 199.73 L 441.53 199.73 C 441.68 199.73 441.86 199.62 441.88 199.39 L 441.88 190.68 L 436.21 196.03 C 435.97 196.27 435.62 196.19 435.46 196.02 L 432.57 192.86 Z M 425.11 196.94 C 424.07 196.94 423.26 195.86 423.26 194.08 C 423.26 192.68 423.96 191.21 425.29 191.21 C 426.42 191.21 427.08 192.56 427.08 194.04 C 427.08 195.33 426.55 196.96 425.11 196.94 Z M 425.39 198.61 C 427.21 198.58 428.87 196.91 428.86 193.82 C 428.86 191.9 427.85 189.45 425.37 189.45 C 422.93 189.48 421.8 191.86 421.7 193.79 C 421.59 196.99 423.27 198.65 425.39 198.61 Z M 418.41 203.87 L 418.41 184.26 L 432.57 182 L 432.57 187.28 L 441.5 187.28 C 442.4 187.28 443 188.06 443 188.76 L 443 199.34 C 443 200.29 442.23 200.86 441.54 200.86 L 432.57 200.86 L 432.57 206.14 Z" fill="#2372ba" stroke="none" pointer-events="all"/><rect x="380" y="182" width="0" height="0" fill="none" stroke="none" pointer-events="all"/><path d="M 402.92 211.65 C 396.91 211.65 391.55 206.57 391.55 198.78 C 391.55 192.73 396.09 186.54 402.7 186.54 C 409.17 186.54 413.91 192.53 413.91 199.07 C 413.91 206.63 408.33 211.65 402.92 211.65 Z M 380 237 C 380.52 231.43 381.21 223.82 382.53 219.97 C 383.14 218.23 384.02 216.97 385.45 215.93 C 386.38 215.23 389.67 213.39 390.27 213.09 C 391.33 212.54 392.42 212.25 393.35 213.09 C 398.93 218.09 406.65 217.94 412.3 213.11 C 412.96 212.43 414 212.61 414.68 212.88 C 415.77 213.29 419.23 215.37 419.89 215.8 C 421.81 217.06 422.84 218.76 423.61 221.95 C 424.59 226.26 425.17 231.74 425.83 237 Z" fill="#505050" stroke="none" pointer-events="all"/></g><g><rect x="5" y="282" width="58" height="54" fill="none" stroke="none" pointer-events="all"/><path d="M 45.16 310.21 C 45.57 310.21 45.91 309.92 45.91 309.52 L 45.91 307.91 C 45.91 307.6 45.71 307.17 45.16 307.17 L 41.35 307.17 C 40.96 307.17 40.63 307.46 40.63 307.91 L 40.63 309.46 C 40.63 310.04 41.08 310.21 41.33 310.21 Z M 45.16 304.9 C 45.57 304.9 45.91 304.6 45.91 304.21 L 45.91 302.6 C 45.91 302.29 45.71 301.86 45.16 301.86 L 41.35 301.86 C 40.96 301.86 40.63 302.15 40.63 302.6 L 40.63 304.16 C 40.63 304.73 41.08 304.9 41.33 304.9 Z M 37.62 310.21 C 38.03 310.21 38.35 309.92 38.35 309.52 L 38.35 307.91 C 38.35 307.6 38.16 307.17 37.61 307.17 L 33.81 307.17 C 33.42 307.17 33.08 307.46 33.08 307.91 L 33.08 309.46 C 33.08 310.04 33.54 310.21 33.79 310.21 Z M 37.62 304.9 C 38.03 304.9 38.35 304.6 38.35 304.21 L 38.35 302.6 C 38.35 302.29 38.16 301.86 37.61 301.86 L 33.81 301.86 C 33.42 301.86 33.08 302.15 33.08 302.6 L 33.08 304.16 C 33.08 304.73 33.54 304.9 33.79 304.9 Z M 30.08 304.9 C 30.49 304.9 30.81 304.6 30.81 304.21 L 30.81 302.6 C 30.81 302.29 30.62 301.86 30.07 301.86 L 26.27 301.86 C 25.88 301.86 25.54 302.15 25.54 302.6 L 25.54 304.16 C 25.54 304.73 26 304.9 26.24 304.9 Z M 30.08 310.21 C 30.49 310.21 30.81 309.92 30.81 309.52 L 30.81 307.91 C 30.81 307.6 30.62 307.17 30.07 307.17 L 26.27 307.17 C 25.88 307.17 25.54 307.46 25.54 307.91 L 25.54 309.46 C 25.54 310.04 26 310.21 26.24 310.21 Z M 30.08 315.52 C 30.49 315.52 30.81 315.23 30.81 314.82 L 30.81 313.22 C 30.81 312.91 30.62 312.49 30.07 312.49 L 26.27 312.49 C 25.88 312.49 25.54 312.77 25.54 313.21 L 25.54 314.77 C 25.54 315.34 26 315.52 26.24 315.52 Z M 30.16 324.63 L 20.97 324.63 C 19.3 324.63 18 323.14 18 321.69 L 18 285.13 C 18.06 283.34 19.47 282.15 20.96 282.13 L 51.14 282.13 C 53.06 282.13 54.2 283.72 54.2 285.13 L 54.2 307.31 C 51.65 306.92 48.64 308.19 47.12 311.12 C 45.93 313.49 45.84 316.22 47.18 318.71 C 46.62 318.9 45.99 319.37 45.45 319.62 C 45.45 315.53 42.39 312.03 38.38 312.03 C 33.22 312.17 31.19 316.77 31.26 319.69 C 31.27 321.28 31.76 322.52 32.26 323.48 C 31.8 323.62 30.79 324.28 30.16 324.63 Z M 47.45 296.55 C 47.81 296.55 48.17 296.29 48.17 295.79 L 48.17 287.41 C 48.17 286.94 47.8 286.68 47.47 286.68 L 24.77 286.68 C 24.3 286.68 24.04 287.05 24.04 287.38 L 24.04 295.82 C 24.04 296.29 24.41 296.55 24.77 296.55 Z M 15.72 321.34 C 15.63 322.79 14.86 323.85 13.27 324.25 C 11.35 324.71 9.34 324.83 7.11 324.12 C 6.02 323.69 5 322.83 5.08 320.46 C 5.07 319.35 5.1 318.36 5.14 317.39 C 5.5 308.51 5.52 298.58 5.1 287.96 C 5.08 287.05 5.04 286.14 5.12 285.26 C 5.32 283.51 6.24 282.85 7.91 282.38 C 9.1 282 11.43 282.07 12.61 282.29 C 14.2 282.67 15.34 283.37 15.66 284.99 C 15.85 286.05 15.76 287.35 15.74 288.61 C 15.39 298.36 15.45 308.41 15.76 318.64 C 15.77 319.58 15.79 320.53 15.72 321.34 Z M 48.92 331.15 C 48.74 329.82 48.46 328.6 48.13 327.82 C 47.68 326.66 46.89 325.95 45.98 325.43 C 45.38 325.07 44.81 324.76 44.25 324.47 C 44.39 323.94 44.55 323.51 44.73 323.2 C 45.02 322.66 45.42 322.27 46.02 321.93 L 47.57 321.04 C 48.17 320.7 48.71 320.49 49.22 321.02 C 51.97 323.05 54.7 322.92 57.26 320.93 C 57.57 320.61 58.04 320.64 58.56 320.9 C 59.52 321.44 60.7 322.06 60.97 322.34 C 61.6 322.87 61.92 323.59 62.15 324.41 C 62.82 327.05 62.89 329.08 63 331.15 Z M 53.23 320.29 C 50.68 320.29 48.43 317.9 48.43 314.97 C 48.43 311.49 50.98 309.5 53.16 309.5 C 55.94 309.5 58.05 311.94 58.05 314.98 C 58.05 317.91 55.84 320.29 53.23 320.29 Z M 38.31 325.12 C 35.65 325.12 33.45 322.78 33.45 319.68 C 33.45 316.84 35.61 314.35 38.23 314.35 C 41.08 314.35 43.07 317 43.07 319.71 C 43.07 322.98 40.62 325.12 38.31 325.12 Z M 28.4 336 C 28.65 333.36 28.92 329.82 29.52 328.54 C 29.79 327.85 30.16 327.32 30.88 326.85 L 32.63 325.85 C 33.18 325.54 33.76 325.4 34.11 325.75 C 36.45 327.58 39.33 328.09 42.31 325.75 C 42.58 325.49 43 325.5 43.37 325.66 C 43.93 325.9 44.71 326.39 45.4 326.77 C 46.35 327.31 46.84 328.03 47.18 329.34 C 47.74 331.61 47.94 333.82 48.11 336 Z" fill="#505050" stroke="none" pointer-events="all"/></g><g><rect x="95" y="282" width="59" height="56" fill="none" stroke="none" pointer-events="all"/><path d="M 140.94 320.93 C 141.6 320.93 142.47 320.42 142.47 319.32 C 142.47 318.49 141.74 317.79 140.88 317.79 C 140.11 317.79 139.32 318.43 139.32 319.37 C 139.32 320.19 140 320.93 140.94 320.93 Z M 140.89 336.29 L 143.08 334.04 L 141.58 332.48 L 143.18 330.81 L 141.41 328.91 L 142.84 327.41 L 142.84 325.32 C 144.75 324.35 145.85 322.56 145.83 320.68 C 145.83 318.32 144.06 315.62 140.8 315.62 C 138.68 315.69 136.29 317.17 135.95 320.61 C 135.95 322.8 137.31 324.51 138.96 325.32 L 138.96 334.2 Z M 130.79 338 C 129.5 338 128.54 337 128.54 335.83 L 128.54 314.86 C 128.54 313.55 129.64 312.65 130.71 312.65 L 151.77 312.65 C 153.08 312.65 154 313.7 154 314.85 L 154 335.79 C 154 337.07 152.96 338 151.79 338 Z M 130.73 310.41 C 129.82 310.39 128.37 310.8 127.53 311.89 C 126.79 310 125.49 308.85 123.97 307.99 C 122.99 307.41 122.05 306.9 121.12 306.42 C 121.36 305.57 121.62 304.88 121.92 304.36 C 122.39 303.49 123.07 302.85 124.03 302.27 L 126.61 300.82 C 127.58 300.28 128.49 299.92 129.33 300.78 C 133.85 304.11 138.36 303.89 142.58 300.65 C 143.1 300.13 143.88 300.18 144.71 300.61 C 146.31 301.5 148.25 302.49 148.7 302.96 C 149.75 303.82 150.28 304.98 150.65 306.34 C 151.02 307.8 151.27 309.14 151.46 310.41 Z M 135.93 299.61 C 131.73 299.61 128.02 295.71 128.02 290.94 C 128.02 285.25 132.24 282 135.82 282 C 140.4 282 143.89 285.98 143.89 290.95 C 143.89 295.73 140.23 299.61 135.93 299.61 Z M 111.34 307.5 C 106.95 307.5 103.31 303.65 103.31 298.6 C 103.31 293.97 106.88 289.9 111.21 289.9 C 115.9 289.9 119.18 294.24 119.18 298.66 C 119.18 304 115.15 307.5 111.34 307.5 Z M 95 325.25 C 95.4 320.94 95.85 315.16 96.83 313.07 C 97.29 311.94 97.89 311.08 99.09 310.31 L 101.97 308.68 C 102.87 308.18 103.84 307.94 104.41 308.51 C 108.27 311.51 113.02 312.33 117.91 308.52 C 118.36 308.09 119.07 308.1 119.68 308.37 C 120.6 308.77 121.88 309.55 123.03 310.19 C 124.58 311.07 125.41 312.24 125.97 314.38 C 126.09 314.85 126.2 315.32 126.3 315.79 L 126.3 325.25 Z" fill="#505050" stroke="none" pointer-events="all"/></g><g><rect x="191" y="272" width="59" height="56" fill="none" stroke="none" pointer-events="all"/><path d="M 213.88 302.86 C 207.88 302.86 202.53 297.82 202.53 290.09 C 202.53 284.1 207.05 277.95 213.66 277.95 C 220.11 277.95 224.84 283.89 224.84 290.38 C 224.84 297.88 219.27 302.86 213.88 302.86 Z M 191 328 C 191.52 322.47 192.21 314.94 193.53 311.12 C 194.13 309.38 195.02 308.14 196.44 307.1 C 197.37 306.41 200.65 304.58 201.25 304.3 C 202.3 303.74 203.39 303.45 204.33 304.3 C 209.89 309.24 217.59 309.1 223.24 304.31 C 223.89 303.63 224.93 303.81 225.62 304.09 C 226.7 304.49 230.16 306.55 230.81 306.97 C 232.73 308.23 233.76 309.91 234.52 313.08 C 235.5 317.34 236.08 322.79 236.74 328 Z" fill="#505050" stroke="none" pointer-events="all"/><path d="M 239.88 290 C 241.19 289.82 242.56 289.26 243.29 288.1 C 243.67 287.45 243.91 286.67 243.76 285.51 C 243.48 283.61 241.83 282.89 240.63 282.61 L 238.2 282.07 C 237.62 281.97 237.34 281.9 236.93 281.69 C 236.56 281.46 236.08 281.17 236.25 280.41 C 236.35 279.85 236.78 279.42 237.55 279.28 C 238.61 279.12 239.38 279.3 239.9 279.6 C 240.35 279.86 240.71 280.33 241.1 280.74 C 241.59 281.21 242.25 281.15 242.7 280.89 C 243.17 280.63 243.34 280.04 243.1 279.36 C 242.68 278.33 241.58 277.75 240.5 277.38 C 239.39 277.03 238.02 276.89 236.45 277.28 C 235.52 277.53 234.26 278.1 233.75 279.34 C 233.36 280.22 233.31 281.77 234.01 282.75 C 234.51 283.47 235.37 283.92 236.43 284.21 L 239.83 285.09 C 240.54 285.28 241.09 285.73 240.96 286.53 C 240.89 287.1 240.28 287.77 239.26 287.98 C 238.08 288.17 236.94 287.92 236.3 287.14 C 236 286.84 235.8 286.46 235.49 286.13 C 235.1 285.7 234.48 285.57 233.92 285.92 C 233.41 286.27 233.33 286.8 233.42 287.24 C 233.69 288.5 234.92 289.27 235.94 289.64 C 237.27 290.13 238.75 290.13 239.88 290 Z M 240.53 293.66 C 237.04 294.24 233.89 293.14 231.46 290.72 C 229.51 288.66 228.1 285.7 228.7 281.77 C 227.46 279.63 227.58 276.87 229.38 274.76 C 231.28 272.56 234.31 272 236.82 273.46 C 241.03 272.83 244.02 274.49 245.75 276.27 C 248.58 279.13 249.08 282.66 248.63 285.36 C 250 287.91 249.77 290.43 247.96 292.51 C 245.87 294.75 242.81 294.99 240.53 293.66 Z" fill="#29aae1" stroke="none" pointer-events="all"/></g><g><rect x="290" y="274" width="59" height="56" fill="none" stroke="none" pointer-events="all"/><path d="M 312.9 304.8 C 306.9 304.8 301.55 299.75 301.55 292 C 301.55 286 306.07 279.83 312.68 279.83 C 319.15 279.83 323.88 285.79 323.88 292.29 C 323.88 299.81 318.3 304.8 312.9 304.8 Z M 290 330 C 290.52 324.46 291.21 316.91 292.53 313.08 C 293.14 311.34 294.02 310.09 295.45 309.05 C 296.37 308.36 299.66 306.53 300.27 306.24 C 301.32 305.68 302.41 305.39 303.34 306.24 C 308.91 311.2 316.63 311.06 322.27 306.25 C 322.93 305.57 323.97 305.75 324.66 306.03 C 325.74 306.44 329.2 308.5 329.86 308.92 C 331.78 310.18 332.81 311.87 333.57 315.05 C 334.56 319.32 335.13 324.78 335.8 330 Z" fill="#505050" stroke="none" pointer-events="all"/><path d="M 340.86 290.88 C 339.59 291.6 337.99 291.78 336.41 291.58 C 334.52 291.31 332.98 290.41 332.59 289.01 C 332.43 288.33 332.62 287.83 333.22 287.55 C 333.67 287.4 334.12 287.4 334.54 287.77 C 334.94 288.1 335.3 289.04 336.21 289.44 C 336.83 289.73 337.84 289.82 338.6 289.55 C 338.93 289.42 339.35 289.24 339.67 288.68 C 340.1 287.87 339.67 287.05 338.86 286.84 C 337.29 286.39 335 286.02 334.23 285.49 C 333.81 285.23 333.39 284.95 333.06 284.37 C 332.65 283.64 332.67 282.94 332.71 282.24 C 332.91 280.95 333.56 280.4 334.1 280.02 C 334.99 279.41 335.97 279.23 336.9 279.15 C 337.71 279.08 338.63 279.16 339.73 279.53 C 340.63 279.88 341.55 280.38 341.98 281.22 C 342.26 281.82 342.21 282.39 341.67 282.75 C 341.28 282.96 340.57 283.15 340.04 282.58 C 339.58 282.03 339.11 281.57 338.66 281.4 C 338.1 281.18 337.47 281.08 336.7 281.21 C 336.28 281.32 335.7 281.41 335.4 282.22 C 335.25 282.98 335.58 283.37 336.26 283.65 C 338.53 284.33 339.17 284.28 340.31 284.7 C 341.48 285.15 342.33 285.87 342.55 287.1 C 342.64 287.84 342.61 288.58 342.28 289.33 C 342.04 289.86 341.67 290.38 340.86 290.88 Z M 339.68 293.83 C 341.2 294.84 343.35 295.29 345.37 293.63 C 346.92 292.3 347.56 289.9 346.02 287.53 C 346.66 284.25 345.74 280.75 342.64 278.44 C 339.81 276.46 337.24 276.71 335.6 277.02 C 333.59 275.72 331.25 275.76 329.49 277.65 C 327.79 279.7 328.27 282.02 329.25 283.33 L 329.11 284.27 C 328.72 287.37 329.97 290.01 331.82 291.75 C 333.22 293.06 335.5 294.27 338.4 294.02 Z M 339.46 295.47 C 336.22 296.01 333.18 295.07 330.89 293 C 328.38 290.75 327.08 287.34 327.7 283.63 C 326.32 281.37 326.69 278.3 328.7 276.26 C 330.68 274.42 333.5 274 335.89 275.38 C 339.07 274.87 341.91 275.72 344.22 277.66 C 347.14 280.2 348.23 283.79 347.65 287.22 C 349 289.55 348.53 292.26 347.23 293.93 C 345.06 296.7 341.68 296.81 339.46 295.47 Z" fill="#00adeb" stroke="none" pointer-events="all"/></g><g><rect x="380" y="272" width="56" height="58" fill="none" stroke="none" pointer-events="all"/><path d="M 415.71 312.67 L 423.97 312.67 L 423.97 310.41 L 415.71 310.41 Z M 403.68 317.19 L 403.68 316.23 C 403.68 314.41 405.38 312.67 407.15 312.67 L 414.2 312.67 L 414.2 310.38 C 414.2 309.38 414.96 308.92 415.65 308.92 L 424.02 308.92 C 424.88 308.92 425.48 309.57 425.48 310.33 L 425.48 312.67 L 432.39 312.67 C 434.06 312.67 436 314.37 436 316.24 L 436 317.19 L 429.24 317.19 L 429.24 316.65 C 429.2 316.02 428.56 315.68 428.06 315.7 C 427.46 315.71 426.97 316.16 426.98 316.64 L 426.98 317.19 L 412.7 317.19 L 412.7 316.64 C 412.7 316.17 412.17 315.69 411.58 315.69 C 410.96 315.69 410.45 316.17 410.45 316.62 L 410.45 317.19 Z M 403.68 330 L 403.68 318.7 L 410.45 318.7 L 410.45 320.02 C 410.45 320.4 410.86 320.97 411.59 320.97 C 412.15 320.97 412.7 320.51 412.7 320 L 412.7 318.7 L 426.98 318.7 L 426.98 320.01 C 426.98 320.48 427.46 320.96 428.1 320.96 C 428.76 320.96 429.24 320.45 429.24 320.03 L 429.24 318.7 L 436 318.7 L 436 330 Z M 403.12 297.08 C 397.06 297.08 391.65 292.01 391.65 284.22 C 391.65 278.19 396.22 272 402.9 272 C 409.42 272 414.2 277.99 414.2 284.52 C 414.2 292.07 408.57 297.08 403.12 297.08 Z M 380 322.4 C 380.52 316.83 381.22 309.24 382.56 305.39 C 383.17 303.65 384.06 302.4 385.5 301.35 C 386.43 300.66 389.75 298.82 390.36 298.52 C 391.42 297.97 392.53 297.68 393.47 298.52 C 399.09 303.51 406.88 303.36 412.58 298.54 C 413.24 297.86 414.29 298.04 414.98 298.31 C 416.08 298.73 419.57 300.8 420.24 301.22 C 422.02 302.39 423.05 303.92 423.8 306.66 L 415.61 306.66 C 413.27 306.75 411.97 308.38 411.95 310.41 L 407.06 310.41 C 403.75 310.56 401.51 313.31 401.43 316.22 L 401.42 322.4 Z" fill="#505050" stroke="none" pointer-events="all"/></g><g><rect x="96" y="382" width="58" height="58" fill="none" stroke="none" pointer-events="all"/><path d="M 149.71 426.34 C 150.18 426.34 150.83 425.92 150.83 425.2 C 150.83 424.46 150.12 424.07 149.72 424.07 C 149.03 424.07 148.56 424.56 148.56 425.21 C 148.56 425.86 149.11 426.34 149.71 426.34 Z M 149.84 440 L 148.17 438.19 L 148.17 430.64 C 146.99 430.24 145.42 428.96 145.37 426.66 C 145.37 424.01 147.59 422.34 149.63 422.34 C 151.96 422.34 154 424.1 154 426.74 C 154 428.47 152.82 430.07 151.28 430.64 L 151.28 432.38 L 150.22 433.67 L 151.77 435.27 L 150.38 436.74 L 151.66 438.1 Z M 133.7 422.81 L 142.79 422.81 L 142.79 418.77 C 142.71 416.5 140.86 414.49 138.32 414.42 C 135.91 414.39 133.79 416.26 133.7 418.86 Z M 130.34 436.97 C 129.77 436.97 129.09 436.4 129.09 435.73 L 129.09 424.11 C 129.09 423.36 129.73 422.8 130.37 422.8 L 131.06 422.81 L 131.06 418.75 C 131.06 415.81 133.53 411.86 138.33 411.86 C 142.25 411.86 145.3 415.28 145.3 418.76 L 145.3 421.68 C 144.1 422.77 142.87 424.54 143.15 427.38 C 143.47 429.64 144.65 431.03 145.9 431.92 L 145.9 436.97 Z M 139.07 409.64 C 136 409.38 131.94 410.57 129.74 415 C 129.49 413.92 129.21 412.96 128.91 412.24 C 128.15 410.33 126.84 409.16 125.3 408.29 C 124.31 407.7 123.36 407.19 122.42 406.7 C 122.66 405.84 122.93 405.14 123.23 404.61 C 123.71 403.74 124.39 403.09 125.37 402.5 L 127.97 401.04 C 128.96 400.49 129.88 400.13 130.73 400.99 C 135.3 404.36 139.85 404.14 144.12 400.86 C 144.65 400.34 145.44 400.39 146.28 400.82 C 147.9 401.72 149.86 402.72 150.31 403.2 C 151.37 404.07 151.91 405.25 152.28 406.62 C 153.39 410.97 153.52 414.32 153.71 417.75 L 147.57 417.75 C 147.22 414.6 144.56 410.14 139.07 409.64 Z M 137.4 399.81 C 133.15 399.81 129.4 395.87 129.4 391.04 C 129.4 385.29 133.66 382 137.29 382 C 141.92 382 145.45 386.02 145.45 391.05 C 145.45 395.89 141.75 399.81 137.4 399.81 Z M 112.53 407.79 C 108.09 407.79 104.4 403.9 104.4 398.79 C 104.4 394.11 108.02 389.99 112.4 389.99 C 117.14 389.99 120.46 394.38 120.46 398.85 C 120.46 404.25 116.38 407.79 112.53 407.79 Z M 96 425.74 C 96.4 421.39 96.86 415.55 97.85 413.42 C 98.31 412.29 98.92 411.41 100.14 410.64 L 103.05 408.99 C 103.96 408.48 104.94 408.23 105.52 408.82 C 109.42 411.84 114.23 412.68 119.17 408.83 C 119.63 408.39 120.35 408.4 120.96 408.68 C 121.89 409.08 123.19 409.86 124.35 410.52 C 125.92 411.4 126.76 412.59 127.32 414.75 C 127.87 416.94 128.2 419.11 128.45 421.26 C 127.79 421.7 126.98 422.49 126.89 424.03 L 126.9 425.74 Z" fill="#505050" stroke="none" pointer-events="all"/></g><g><rect x="5" y="372" width="58" height="59" fill="none" stroke="none" pointer-events="all"/><path d="M 34.06 408.2 C 34.05 406.92 34.76 406.2 35.97 405.98 C 36.82 405.83 37.87 405.85 38.43 405.96 C 39.45 406.16 40.36 406.77 40.36 408.04 C 40.09 415.15 40.1 421.83 40.29 428.6 C 40.34 429.6 39.77 430.51 38.62 430.73 C 37.86 430.86 37.1 431 36.13 430.8 C 34.88 430.6 34.01 429.98 34.04 428.37 C 34.24 421.65 34.26 414.92 34.06 408.2 Z M 42.08 407.41 C 42.11 406.31 42.75 405.98 43.49 405.95 L 61.52 405.95 C 62.5 405.97 62.95 406.47 63 407.34 L 63 429.41 C 62.97 430.12 62.62 430.79 61.57 430.82 L 43.52 430.82 C 42.58 430.8 42.1 430.29 42.08 429.34 Z M 45.81 408.97 L 45.81 414.24 L 59.27 414.24 L 59.27 408.97 Z M 46.57 418.8 C 46.61 419.22 46.87 419.47 47.26 419.51 L 48.86 419.51 C 49.26 419.49 49.55 419.23 49.56 418.77 L 49.56 417.94 C 49.52 417.51 49.24 417.27 48.86 417.26 L 47.26 417.26 C 46.82 417.28 46.6 417.57 46.57 417.96 Z M 51.04 418.8 C 51.08 419.22 51.34 419.47 51.73 419.51 L 53.33 419.51 C 53.72 419.49 54.02 419.23 54.03 418.77 L 54.03 417.94 C 53.99 417.52 53.71 417.27 53.33 417.26 L 51.73 417.26 C 51.29 417.28 51.07 417.57 51.04 417.97 Z M 55.54 418.8 C 55.58 419.22 55.84 419.47 56.23 419.51 L 57.83 419.51 C 58.23 419.49 58.52 419.23 58.53 418.77 L 58.53 417.94 C 58.49 417.52 58.21 417.27 57.83 417.26 L 56.23 417.26 C 55.79 417.28 55.57 417.57 55.54 417.97 Z M 46.57 422.57 C 46.61 422.99 46.87 423.24 47.26 423.29 L 48.86 423.29 C 49.26 423.27 49.55 423 49.56 422.54 L 49.56 421.71 C 49.52 421.29 49.24 421.04 48.86 421.03 L 47.26 421.03 C 46.82 421.06 46.6 421.34 46.57 421.75 Z M 51.04 422.58 C 51.08 423 51.34 423.24 51.73 423.29 L 53.33 423.29 C 53.72 423.27 54.02 423.01 54.03 422.55 L 54.03 421.72 C 53.99 421.29 53.71 421.04 53.33 421.03 L 51.73 421.03 C 51.29 421.06 51.07 421.35 51.04 421.75 Z M 55.54 422.58 C 55.58 423 55.84 423.24 56.23 423.29 L 57.83 423.29 C 58.23 423.27 58.52 423.01 58.53 422.55 L 58.53 421.72 C 58.49 421.29 58.21 421.04 57.83 421.03 L 56.23 421.03 C 55.79 421.06 55.57 421.35 55.54 421.75 Z M 46.57 426.32 C 46.61 426.75 46.87 427.01 47.26 427.05 L 48.86 427.05 C 49.26 427.03 49.55 426.76 49.56 426.3 L 49.56 425.48 C 49.52 425.04 49.24 424.8 48.86 424.79 L 47.26 424.79 C 46.82 424.81 46.6 425.11 46.57 425.5 Z M 51.04 426.33 C 51.08 426.75 51.34 427.01 51.73 427.05 L 53.33 427.05 C 53.72 427.03 54.02 426.76 54.03 426.3 L 54.03 425.48 C 53.99 425.05 53.71 424.8 53.33 424.79 L 51.73 424.79 C 51.29 424.81 51.07 425.11 51.04 425.51 Z M 55.54 426.33 C 55.58 426.75 55.84 427.01 56.23 427.05 L 57.83 427.05 C 58.23 427.03 58.52 426.76 58.53 426.3 L 58.53 425.48 C 58.49 425.05 58.21 424.8 57.83 424.79 L 56.23 424.79 C 55.79 424.81 55.57 425.11 55.54 425.51 Z M 28.02 397.12 C 21.98 397.12 16.6 392.04 16.6 384.24 C 16.6 378.2 21.15 372 27.8 372 C 34.29 372 39.05 378 39.05 384.53 C 39.05 392.1 33.45 397.12 28.02 397.12 Z M 5 422.47 C 5.52 416.9 6.22 409.29 7.54 405.44 C 8.15 403.7 9.04 402.44 10.48 401.39 C 11.41 400.7 14.71 398.86 15.32 398.56 C 16.37 398 17.47 397.71 18.41 398.56 C 24.01 403.56 31.76 403.41 37.44 398.58 C 38.1 397.89 39.14 398.07 39.83 398.35 C 40.92 398.77 44.4 400.84 45.06 401.26 C 46.05 401.91 46.8 402.67 47.39 403.68 L 43.41 403.68 C 42.51 403.72 41.66 404 40.92 404.65 C 40.19 404.02 38.83 403.75 38.06 403.7 C 37.07 403.67 36.01 403.64 34.92 403.96 C 32.72 404.62 31.91 406.21 31.84 408.21 C 32 413.16 32.07 417.94 31.99 422.47 Z" fill="#505050" stroke="none" pointer-events="all"/></g><g><rect x="195" y="376.5" width="46" height="50" fill="none" stroke="none" pointer-events="all"/><path d="M 218 401.39 C 211.97 401.39 206.6 396.35 206.6 388.63 C 206.6 382.64 211.14 376.5 217.79 376.5 C 224.28 376.5 229.03 382.44 229.03 388.92 C 229.03 396.41 223.43 401.39 218 401.39 Z M 195 426.5 C 195.52 420.98 196.22 413.44 197.54 409.63 C 198.15 407.9 199.04 406.66 200.47 405.62 C 201.4 404.93 204.7 403.11 205.31 402.81 C 206.37 402.26 207.46 401.97 208.4 402.81 C 214 407.76 221.74 407.61 227.42 402.83 C 228.08 402.15 229.12 402.33 229.81 402.6 C 230.9 403.02 234.38 405.07 235.04 405.49 C 236.96 406.75 238 408.43 238.77 411.59 C 239.75 415.86 240.33 421.29 241 426.5 Z" fill="#505050" stroke="none" pointer-events="all"/></g><g><rect x="290" y="376.5" width="46" height="50" fill="none" stroke="none" pointer-events="all"/><path d="M 313 401.39 C 306.97 401.39 301.6 396.35 301.6 388.63 C 301.6 382.64 306.14 376.5 312.79 376.5 C 319.28 376.5 324.03 382.44 324.03 388.92 C 324.03 396.41 318.43 401.39 313 401.39 Z M 290 426.5 C 290.52 420.98 291.22 413.44 292.54 409.63 C 293.15 407.9 294.04 406.66 295.47 405.62 C 296.4 404.93 299.7 403.11 300.31 402.81 C 301.37 402.26 302.46 401.97 303.4 402.81 C 309 407.76 316.74 407.61 322.42 402.83 C 323.08 402.15 324.12 402.33 324.81 402.6 C 325.9 403.02 329.38 405.07 330.04 405.49 C 331.96 406.75 333 408.43 333.77 411.59 C 334.75 415.86 335.33 421.29 336 426.5 Z" fill="#2072b8" stroke="none" pointer-events="all"/></g><g><rect x="386" y="376.5" width="46" height="50" fill="none" stroke="none" pointer-events="all"/><path d="M 409 401.39 C 402.97 401.39 397.6 396.35 397.6 388.63 C 397.6 382.64 402.14 376.5 408.79 376.5 C 415.28 376.5 420.03 382.44 420.03 388.92 C 420.03 396.41 414.43 401.39 409 401.39 Z M 386 426.5 C 386.52 420.98 387.22 413.44 388.54 409.63 C 389.15 407.9 390.04 406.66 391.47 405.62 C 392.4 404.93 395.7 403.11 396.31 402.81 C 397.37 402.26 398.46 401.97 399.4 402.81 C 405 407.76 412.74 407.61 418.42 402.83 C 419.08 402.15 420.12 402.33 420.81 402.6 C 421.9 403.02 425.38 405.07 426.04 405.49 C 427.96 406.75 429 408.43 429.77 411.59 C 430.75 415.86 431.33 421.29 432 426.5 Z" fill="#da4026" stroke="none" pointer-events="all"/></g><g><rect x="2" y="472" width="46" height="50" fill="none" stroke="none" pointer-events="all"/><path d="M 25 496.89 C 18.97 496.89 13.6 491.85 13.6 484.13 C 13.6 478.14 18.14 472 24.79 472 C 31.28 472 36.03 477.94 36.03 484.42 C 36.03 491.91 30.43 496.89 25 496.89 Z M 2 522 C 2.52 516.48 3.22 508.94 4.54 505.13 C 5.15 503.4 6.04 502.16 7.47 501.12 C 8.4 500.43 11.7 498.61 12.31 498.31 C 13.37 497.76 14.46 497.47 15.4 498.31 C 21 503.26 28.74 503.11 34.42 498.33 C 35.08 497.65 36.12 497.83 36.81 498.1 C 37.9 498.52 41.38 500.57 42.04 500.99 C 43.96 502.25 45 503.93 45.77 507.09 C 46.75 511.36 47.33 516.79 48 522 Z" fill="#7fba42" stroke="none" pointer-events="all"/></g><g><rect x="102" y="472" width="46" height="50" fill="none" stroke="none" pointer-events="all"/><path d="M 125 496.89 C 118.97 496.89 113.6 491.85 113.6 484.13 C 113.6 478.14 118.14 472 124.79 472 C 131.28 472 136.03 477.94 136.03 484.42 C 136.03 491.91 130.43 496.89 125 496.89 Z M 102 522 C 102.52 516.48 103.22 508.94 104.54 505.13 C 105.15 503.4 106.04 502.16 107.47 501.12 C 108.4 500.43 111.7 498.61 112.31 498.31 C 113.37 497.76 114.46 497.47 115.4 498.31 C 121 503.26 128.74 503.11 134.42 498.33 C 135.08 497.65 136.12 497.83 136.81 498.1 C 137.9 498.52 141.38 500.57 142.04 500.99 C 143.96 502.25 145 503.93 145.77 507.09 C 146.75 511.36 147.33 516.79 148 522 Z" fill="#cccbcb" stroke="none" pointer-events="all"/></g><g><rect x="202" y="489.5" width="32" height="35" fill="none" stroke="none" pointer-events="all"/><path d="M 218 506.92 C 213.81 506.92 210.07 503.4 210.07 497.99 C 210.07 493.8 213.23 489.5 217.85 489.5 C 222.37 489.5 225.68 493.66 225.68 498.19 C 225.68 503.44 221.78 506.92 218 506.92 Z M 202 524.5 C 202.36 520.64 202.85 515.36 203.77 512.69 C 204.19 511.48 204.81 510.61 205.81 509.88 C 206.45 509.4 208.75 508.13 209.17 507.92 C 209.91 507.53 210.67 507.33 211.32 507.92 C 215.21 511.38 220.6 511.28 224.55 507.93 C 225.01 507.46 225.74 507.58 226.22 507.77 C 226.97 508.06 229.39 509.5 229.85 509.79 C 231.19 510.67 231.91 511.85 232.45 514.06 C 233.13 517.05 233.54 520.85 234 524.5 Z" fill="#505050" stroke="none" pointer-events="all"/></g><g><rect x="296.5" y="472" width="46" height="50" fill="none" stroke="none" pointer-events="all"/><path d="M 330.21 504.05 C 332.51 500.4 332.66 495.22 330.1 491.23 C 331.95 490.97 333.45 490.38 334.87 488.96 C 335.3 488.57 335.92 488.64 336.53 488.99 C 337.27 489.37 338.04 489.91 338.8 490.38 C 340.26 491.33 340.88 492.62 341.2 494.04 C 341.91 497.24 342.2 500.82 342.5 504.4 L 331.26 504.4 C 330.95 504.26 330.65 504.12 330.21 504.05 Z M 296.5 511.53 C 296.75 508.35 297.2 503.66 297.78 501.2 C 298.1 499.88 298.56 498.7 299.86 497.76 C 300.77 497.15 301.66 496.49 302.5 496.02 C 303.03 495.72 303.69 495.62 304.13 496.02 C 307.14 499.12 311.63 499.33 315.34 495.91 C 314.88 499.12 315.65 501.96 316.98 504.05 C 316.12 504.12 314.13 505.43 312.52 506.67 C 311.09 507.83 310.28 509.44 309.83 511.53 Z M 329.59 488.09 C 325.89 488.09 323.06 484.53 323.06 479.97 C 323.06 476.16 325.52 472 329.5 472 C 332.95 472 335.84 475.66 335.84 479.99 C 335.84 484.74 332.64 488.09 329.59 488.09 Z M 309.81 495.36 C 304.9 495.36 303.16 490.23 303.16 487.45 C 303.16 482.8 306.03 479.27 309.51 479.27 C 313 479.27 315.94 482.82 315.94 487.45 C 315.99 491.88 312.72 495.36 309.81 495.36 Z M 323.72 505.76 C 320.16 505.76 317.21 502.45 317.21 497.55 C 317.21 493.13 320.3 489.68 323.42 489.68 C 327.54 489.68 329.97 493.86 329.97 497.52 C 329.97 503.38 326.07 505.76 323.72 505.76 Z M 310.48 522 C 310.76 518.47 311.21 513.85 311.8 511.48 C 312.22 509.78 312.98 508.84 313.86 508.21 L 315.71 506.97 C 316.38 506.51 317.32 505.84 318.1 506.48 C 321.15 509.58 325.43 509.78 329.03 506.53 C 329.35 506.27 329.96 506.24 330.28 506.41 C 331.08 506.75 332.13 507.54 333.06 508.14 C 334.61 509.24 335.13 510.51 335.53 512.5 C 336.11 515.09 336.42 519.1 336.64 522 Z" fill="#505050" stroke="none" pointer-events="all"/></g><g><rect x="386" y="474.5" width="46" height="50" fill="none" stroke="none" pointer-events="all"/><path d="M 419.71 506.55 C 422.01 502.9 422.16 497.72 419.6 493.73 C 421.45 493.47 422.95 492.88 424.37 491.46 C 424.8 491.07 425.42 491.14 426.03 491.49 C 426.77 491.87 427.54 492.41 428.3 492.88 C 429.76 493.83 430.38 495.12 430.7 496.54 C 431.41 499.74 431.7 503.32 432 506.9 L 420.76 506.9 C 420.45 506.76 420.15 506.62 419.71 506.55 Z M 386 514.03 C 386.25 510.85 386.7 506.16 387.28 503.7 C 387.6 502.38 388.06 501.2 389.36 500.26 C 390.27 499.65 391.16 498.99 392 498.52 C 392.53 498.22 393.19 498.12 393.63 498.52 C 396.64 501.62 401.13 501.83 404.84 498.41 C 404.38 501.62 405.15 504.46 406.48 506.55 C 405.62 506.62 403.63 507.93 402.02 509.17 C 400.59 510.33 399.78 511.94 399.33 514.03 Z M 419.09 490.59 C 415.39 490.59 412.56 487.03 412.56 482.47 C 412.56 478.66 415.02 474.5 419 474.5 C 422.45 474.5 425.34 478.16 425.34 482.49 C 425.34 487.24 422.14 490.59 419.09 490.59 Z M 399.31 497.86 C 394.4 497.86 392.66 492.73 392.66 489.95 C 392.66 485.3 395.53 481.77 399.01 481.77 C 402.5 481.77 405.44 485.32 405.44 489.95 C 405.49 494.38 402.22 497.86 399.31 497.86 Z M 413.22 508.26 C 409.66 508.26 406.71 504.95 406.71 500.05 C 406.71 495.63 409.8 492.18 412.92 492.18 C 417.04 492.18 419.47 496.36 419.47 500.02 C 419.47 505.88 415.57 508.26 413.22 508.26 Z M 399.98 524.5 C 400.26 520.97 400.71 516.35 401.3 513.98 C 401.72 512.28 402.48 511.34 403.36 510.71 L 405.21 509.47 C 405.88 509.01 406.82 508.34 407.6 508.98 C 410.65 512.08 414.93 512.28 418.53 509.03 C 418.85 508.77 419.46 508.74 419.78 508.91 C 420.58 509.25 421.63 510.04 422.56 510.64 C 424.11 511.74 424.63 513.01 425.03 515 C 425.61 517.59 425.92 521.6 426.14 524.5 Z" fill="#2072b8" stroke="none" pointer-events="all"/></g><g><rect x="388" y="562" width="59" height="50" fill="none" stroke="none" pointer-events="all"/><path d="M 434.31 578.4 L 431.23 575.33 L 440.26 566.51 L 431.08 566.51 L 434.84 562.86 L 447 562.86 L 447 574.89 L 443.28 578.62 L 443.28 569.5 Z M 411.16 586.89 C 405.09 586.89 399.68 581.85 399.68 574.13 C 399.68 568.14 404.25 562 410.94 562 C 417.47 562 422.26 567.94 422.26 574.42 C 422.26 581.91 416.62 586.89 411.16 586.89 Z M 388 612 C 388.52 606.48 389.22 598.94 390.56 595.13 C 391.17 593.4 392.07 592.16 393.51 591.12 C 394.45 590.43 397.77 588.61 398.38 588.31 C 399.44 587.76 400.55 587.47 401.49 588.31 C 407.12 593.26 414.92 593.11 420.64 588.33 C 421.3 587.65 422.35 587.83 423.05 588.1 C 424.14 588.52 427.64 590.57 428.31 590.99 C 430.24 592.25 431.29 593.93 432.06 597.09 C 433.06 601.36 433.64 606.79 434.31 612 Z" fill="#505050" stroke="none" pointer-events="all"/></g><g><rect x="290" y="562" width="59" height="59" fill="none" stroke="none" pointer-events="all"/><path d="M 290 602.33 L 290 570.22 L 314.65 570.22 L 314.65 572.46 L 292.24 572.46 L 292.24 600.09 L 305.68 600.09 L 305.68 602.33 Z M 342.28 594.11 L 342.28 591.87 L 346.76 591.87 L 346.76 564.24 L 319.13 564.24 L 319.13 586.64 L 316.89 586.64 L 316.89 562 L 349 562 L 349 594.11 Z M 310.16 618.76 L 337.8 618.76 L 337.8 591.13 L 310.16 591.13 Z M 307.92 621 L 307.92 588.89 L 340.04 588.89 L 340.04 621 Z M 306.06 586.08 C 303.61 586.08 301.43 584.04 301.43 580.9 C 301.43 578.47 303.27 575.97 305.97 575.97 C 308.61 575.97 310.54 578.38 310.54 581.02 C 310.54 584.06 308.26 586.08 306.06 586.08 Z M 296.72 596.27 C 296.94 594.03 297.22 590.98 297.76 589.42 C 298.01 588.73 298.36 588.22 298.95 587.8 C 299.32 587.52 300.66 586.78 300.91 586.67 C 301.34 586.44 301.78 586.32 302.17 586.67 C 303.2 587.58 304.44 588.07 305.68 588.14 L 305.68 596.27 Z M 333.03 577.88 C 330.59 577.88 328.4 575.84 328.4 572.7 C 328.4 570.27 330.25 567.79 332.95 567.79 C 335.58 567.79 337.51 570.2 337.51 572.82 C 337.51 575.87 335.24 577.88 333.03 577.88 Z M 323.73 586.64 C 323.94 584.4 324.2 582.78 324.73 581.24 C 324.97 580.53 325.34 580.02 325.92 579.61 C 326.3 579.33 327.63 578.59 327.88 578.47 C 328.31 578.24 328.76 578.12 329.13 578.47 C 331.4 580.47 334.55 580.42 336.85 578.47 C 337.12 578.2 337.55 578.27 337.82 578.38 C 338.27 578.55 339.68 579.39 339.94 579.56 C 340.73 580.06 341.14 580.75 341.46 582.04 C 341.86 583.76 341.99 585.07 342.16 586.64 Z M 323.99 604.75 C 321.54 604.75 319.36 602.71 319.36 599.57 C 319.36 597.14 321.2 594.65 323.9 594.65 C 326.53 594.65 328.46 597.06 328.46 599.69 C 328.46 602.74 326.19 604.75 323.99 604.75 Z M 314.65 614.95 C 314.85 612.71 315.14 609.65 315.68 608.1 C 315.93 607.4 316.29 606.89 316.87 606.47 C 317.24 606.19 318.59 605.46 318.84 605.34 C 319.27 605.11 319.7 604.99 320.08 605.34 C 322.36 607.34 325.5 607.28 327.8 605.34 C 328.07 605.07 328.5 605.14 328.78 605.25 C 329.21 605.42 330.63 606.25 330.9 606.42 C 331.68 606.93 332.1 607.62 332.41 608.9 C 332.81 610.62 333.05 612.83 333.32 614.95 Z" fill="#505050" stroke="none" pointer-events="all"/></g><g><rect x="188" y="562" width="57" height="43" fill="none" stroke="none" pointer-events="all"/><path d="M 221.8 597.14 C 221.5 594.97 221.04 592.99 220.5 591.72 C 219.76 589.85 218.46 588.7 216.94 587.84 C 215.97 587.27 215.03 586.76 214.09 586.28 C 214.33 585.44 214.6 584.75 214.9 584.23 C 215.37 583.37 216.05 582.73 217 582.16 L 219.58 580.71 C 220.55 580.18 221.46 579.82 222.3 580.67 C 226.82 583.98 231.32 583.77 235.53 580.54 C 236.05 580.03 236.83 580.08 237.66 580.5 C 239.27 581.38 241.2 582.37 241.65 582.84 C 242.7 583.7 243.22 584.85 243.59 586.2 C 244.69 590.48 244.81 593.77 245 597.14 Z M 228.89 579.51 C 224.69 579.51 220.99 575.63 220.99 570.89 C 220.99 565.23 225.2 562 228.78 562 C 233.36 562 236.84 565.95 236.84 570.9 C 236.84 575.65 233.19 579.51 228.89 579.51 Z M 204.33 587.36 C 199.94 587.36 196.3 583.53 196.3 578.51 C 196.3 573.9 199.87 569.86 204.2 569.86 C 208.89 569.86 212.16 574.17 212.16 578.57 C 212.16 583.88 208.13 587.36 204.33 587.36 Z M 188 605 C 188.4 600.72 188.85 594.98 189.83 592.89 C 190.28 591.77 190.88 590.91 192.09 590.15 L 194.96 588.53 C 195.86 588.03 196.83 587.79 197.41 588.36 C 201.26 591.34 206 592.16 210.89 588.37 C 211.34 587.94 212.05 587.95 212.66 588.23 C 213.57 588.62 214.86 589.39 216.01 590.03 C 217.55 590.9 218.38 592.07 218.94 594.2 C 219.86 597.87 220.18 601.48 220.46 605 Z" fill="#cccbcb" stroke="none" pointer-events="all"/></g><g><rect x="95" y="562" width="57" height="43" fill="none" stroke="none" pointer-events="all"/><path d="M 128.8 597.14 C 128.5 594.97 128.04 592.99 127.5 591.72 C 126.76 589.85 125.46 588.7 123.94 587.84 C 122.97 587.27 122.03 586.76 121.09 586.28 C 121.33 585.44 121.6 584.75 121.9 584.23 C 122.37 583.37 123.05 582.73 124 582.16 L 126.58 580.71 C 127.55 580.18 128.46 579.82 129.3 580.67 C 133.82 583.98 138.32 583.77 142.53 580.54 C 143.05 580.03 143.83 580.08 144.66 580.5 C 146.27 581.38 148.2 582.37 148.65 582.84 C 149.7 583.7 150.22 584.85 150.59 586.2 C 151.69 590.48 151.81 593.77 152 597.14 Z M 135.89 579.51 C 131.69 579.51 127.99 575.63 127.99 570.89 C 127.99 565.23 132.2 562 135.78 562 C 140.36 562 143.84 565.95 143.84 570.9 C 143.84 575.65 140.19 579.51 135.89 579.51 Z M 111.33 587.36 C 106.94 587.36 103.3 583.53 103.3 578.51 C 103.3 573.9 106.87 569.86 111.2 569.86 C 115.89 569.86 119.16 574.17 119.16 578.57 C 119.16 583.88 115.13 587.36 111.33 587.36 Z M 95 605 C 95.4 600.72 95.85 594.98 96.83 592.89 C 97.28 591.77 97.88 590.91 99.09 590.15 L 101.96 588.53 C 102.86 588.03 103.83 587.79 104.41 588.36 C 108.26 591.34 113 592.16 117.89 588.37 C 118.34 587.94 119.05 587.95 119.66 588.23 C 120.57 588.62 121.86 589.39 123.01 590.03 C 124.55 590.9 125.38 592.07 125.94 594.2 C 126.86 597.87 127.18 601.48 127.46 605 Z" fill="#7fba42" stroke="none" pointer-events="all"/></g><g><rect x="2" y="562" width="57" height="43" fill="none" stroke="none" pointer-events="all"/><path d="M 35.8 597.14 C 35.5 594.97 35.04 592.99 34.5 591.72 C 33.76 589.85 32.46 588.7 30.94 587.84 C 29.97 587.27 29.03 586.76 28.09 586.28 C 28.33 585.44 28.6 584.75 28.9 584.23 C 29.37 583.37 30.05 582.73 31 582.16 L 33.58 580.71 C 34.55 580.18 35.46 579.82 36.3 580.67 C 40.82 583.98 45.32 583.77 49.53 580.54 C 50.05 580.03 50.83 580.08 51.66 580.5 C 53.27 581.38 55.2 582.37 55.65 582.84 C 56.7 583.7 57.22 584.85 57.59 586.2 C 58.69 590.48 58.81 593.77 59 597.14 Z M 42.89 579.51 C 38.69 579.51 34.99 575.63 34.99 570.89 C 34.99 565.23 39.2 562 42.78 562 C 47.36 562 50.84 565.95 50.84 570.9 C 50.84 575.65 47.19 579.51 42.89 579.51 Z M 18.33 587.36 C 13.94 587.36 10.3 583.53 10.3 578.51 C 10.3 573.9 13.87 569.86 18.2 569.86 C 22.89 569.86 26.16 574.17 26.16 578.57 C 26.16 583.88 22.13 587.36 18.33 587.36 Z M 2 605 C 2.4 600.72 2.85 594.98 3.83 592.89 C 4.28 591.77 4.88 590.91 6.09 590.15 L 8.96 588.53 C 9.86 588.03 10.83 587.79 11.41 588.36 C 15.26 591.34 20 592.16 24.89 588.37 C 25.34 587.94 26.05 587.95 26.66 588.23 C 27.57 588.62 28.86 589.39 30.01 590.03 C 31.55 590.9 32.38 592.07 32.94 594.2 C 33.86 597.87 34.18 601.48 34.46 605 Z" fill="#da4026" stroke="none" pointer-events="all"/></g><g><rect x="0" y="654" width="59" height="59" fill="none" stroke="none" pointer-events="all"/><path d="M 33.1 696.32 L 30.04 695.06 C 29.6 694.82 29.42 694.47 29.59 693.96 L 30.75 691.2 C 31.01 690.78 31.34 690.54 31.86 690.74 L 34.72 692.17 C 35.63 691.1 36.62 690.04 37.73 689.12 L 36.48 686.08 C 36.39 685.72 36.35 685.36 36.88 685.01 L 39.75 683.82 C 40.3 683.64 40.61 683.88 40.8 684.2 L 42.08 687.32 C 43.37 687.06 44.64 686.94 46.15 687.38 L 47.44 684.22 C 47.72 683.78 48.08 683.66 48.51 683.82 L 51.36 685.02 C 51.83 685.31 51.88 685.67 51.76 686.04 L 50.49 689.16 C 51.61 690.04 52.64 690.98 53.47 692.06 L 56.54 690.81 C 57.09 690.67 57.42 690.87 57.63 691.28 L 58.83 694.11 C 58.91 694.53 58.82 694.88 58.4 695.11 L 55.28 696.37 C 55.42 697.58 55.41 699.1 55.27 700.44 L 58.4 701.7 C 58.82 701.96 59 702.28 58.87 702.73 L 57.74 705.38 C 57.51 705.72 57.21 705.9 56.75 705.78 L 53.6 704.53 C 52.77 705.65 51.73 706.64 50.57 707.52 L 51.82 710.57 C 52.01 711.05 51.76 711.47 51.46 711.62 L 48.45 712.87 C 48.04 712.94 47.68 712.91 47.5 712.4 L 46.22 709.29 C 45.07 709.6 43.63 709.68 42.16 709.32 L 40.9 712.39 C 40.7 712.71 40.47 713 39.91 712.86 L 36.95 711.64 C 36.54 711.35 36.35 710.98 36.61 710.49 L 38.01 707.72 C 36.77 706.78 35.74 705.79 34.93 704.75 L 31.92 705.97 C 31.44 706.15 31.06 706.03 30.78 705.59 L 29.58 702.73 C 29.46 702.35 29.55 701.92 30 701.7 L 33.11 700.35 C 32.99 699.01 32.98 697.67 33.1 696.32 Z M 36.47 698.27 C 36.47 703.03 40.42 705.99 44.27 705.99 C 48.47 705.99 51.92 702.45 51.92 698.34 C 51.92 693.93 48.2 690.64 44.3 690.64 C 40.47 690.64 36.47 693.5 36.47 698.27 Z M 23.06 678.8 C 17.01 678.8 11.62 673.78 11.62 666.09 C 11.62 660.12 16.18 654 22.84 654 C 29.35 654 34.11 659.92 34.11 666.37 C 34.11 673.84 28.5 678.8 23.06 678.8 Z M 0 703.82 C 0.52 698.32 1.22 690.81 2.55 687.01 C 3.16 685.29 4.05 684.05 5.49 683.02 C 6.42 682.33 9.73 680.52 10.33 680.22 C 11.39 679.67 12.49 679.38 13.43 680.22 C 19.04 685.15 26.81 685 32.49 680.24 C 33.15 679.56 34.2 679.74 34.89 680.01 C 35.59 680.28 37.27 681.21 38.56 681.96 L 36 683.03 C 34.35 683.85 33.95 685.64 34.54 687 L 35.18 688.48 L 34.35 689.3 L 32.73 688.6 C 31.36 688.08 29.69 688.6 28.94 690.14 L 27.66 693.17 C 27.09 694.82 27.89 696.41 29.2 696.98 L 30.9 697.72 L 30.9 698.91 L 29.22 699.63 C 27.59 700.39 27.15 702.17 27.68 703.5 L 27.82 703.82 Z" fill="#505050" stroke="none" pointer-events="all"/></g><g><rect x="100" y="654" width="50" height="55" fill="none" stroke="none" pointer-events="all"/><path d="M 135.23 659.69 C 135.19 661.01 133.81 661.98 132.71 662.56 C 130.32 663.85 126.35 664.71 123.05 665.02 C 118.17 665.48 112.92 665.44 107.69 664.32 C 105.15 663.78 102.54 662.88 100.99 661.52 C 100.64 661.19 100.05 660.61 100 659.71 C 100 658.17 101.64 657.25 102.41 656.78 C 106.64 654.58 112.68 654.01 117.96 654 C 122.41 654.07 126.99 654.49 131.13 656.03 C 132.72 656.66 135.24 657.84 135.23 659.69 Z M 121.81 702.82 C 116.73 703.24 110.37 702.81 106.38 701.68 C 103.54 700.85 100.23 699.32 100 696.17 L 100 663.65 C 102.73 665.68 106.51 666.57 110.58 667.13 C 116.45 667.91 123 667.56 127.62 666.64 C 130.78 666.01 133.45 665.02 135.23 663.64 L 135.23 677.78 C 131.54 678.47 129.06 681.45 128.29 684.5 C 127.48 687.44 128.17 690.65 129.61 692.73 C 128.86 692.79 126.11 694.38 125.3 694.96 C 124.06 695.82 123.09 697.12 122.46 699.36 C 122.17 700.39 121.99 701.59 121.81 702.82 Z M 136.73 694.42 C 133.25 694.42 130.15 691.5 130.15 687.02 C 130.15 683.55 132.77 679.98 136.61 679.98 C 140.35 679.98 143.09 683.43 143.09 687.19 C 143.09 691.54 139.87 694.42 136.73 694.42 Z M 123.46 709 C 123.76 705.79 124.17 701.42 124.93 699.21 C 125.27 698.21 125.78 697.49 126.61 696.88 C 127.15 696.48 129.05 695.43 129.41 695.26 C 130.02 694.93 130.65 694.76 131.19 695.26 C 134.42 698.13 138.9 698.04 142.16 695.27 C 142.54 694.87 143.15 694.97 143.54 695.13 C 144.17 695.38 146.17 696.56 146.56 696.81 C 147.67 697.54 148.27 698.51 148.71 700.35 C 149.28 702.82 149.62 705.98 150 709 Z" fill="#505050" stroke="none" pointer-events="all"/></g><g><rect x="191" y="652" width="54" height="59" fill="none" stroke="none" pointer-events="all"/><path d="M 220.99 705.33 L 218.82 703.14 L 216.04 707.59 L 216.49 708.04 Z M 228.57 702.46 L 236.21 694.65 L 237.11 702.46 Z M 222.49 705.48 L 213.87 710.82 C 213.58 711 213.06 710.58 213.27 710.23 L 218.66 701.63 L 240.65 679.54 C 241.1 679.09 241.86 678.94 242.39 679.47 L 244.42 681.49 C 245 682.17 244.73 683.01 244.3 683.49 Z M 213.71 677.14 C 208.43 677.12 202.7 672.2 202.7 664.59 C 202.7 657.95 207.36 652 214.11 652 C 219.44 652 225.19 656.82 225.19 664.88 C 225.04 671.51 220.21 677.25 213.71 677.14 Z M 191 702.46 C 191.39 697.87 191.86 692.99 192.73 688.65 C 193.48 684.76 194.54 682.56 197 681.07 C 197.58 680.7 200.66 678.85 201.9 678.33 C 202.55 678.04 203.52 677.86 204.39 678.4 C 209.52 683.1 217.23 683.82 223.71 678.4 C 224.23 677.97 225.14 677.95 225.94 678.31 C 227.62 679.05 229.31 680.14 230.99 681.1 C 232.17 681.83 232.94 682.65 233.47 683.45 L 216.85 700.2 L 215.46 702.46 Z" fill="#505050" stroke="none" pointer-events="all"/></g></g></svg>