<svg xmlns="http://www.w3.org/2000/svg" width="59" height="56" viewBox="-0.5 -0.5 59 56" xmlns:v="https://vecta.io/nano"><path d="M56.75 50.77V30.61H43.97v20.16zm-5.23 2.99c.37 0 .72-.3.72-.72s-.24-.77-.75-.77h-2.25c-.45 0-.77.29-.77.71 0 .57.41.78.71.78zM43.17 56c-.57 0-1.46-.49-1.46-1.52v-26.1c0-.9.76-1.5 1.46-1.5h14.3c.98 0 1.53.79 1.53 1.47v26.16c0 .85-.75 1.49-1.45 1.49zM23.12 24.86c-6.07 0-11.47-5.03-11.47-12.74C11.65 6.13 16.22 0 22.9 0c6.52 0 11.3 5.93 11.3 12.4 0 7.49-5.63 12.46-11.08 12.46zM0 49.95c.52-5.52 1.22-13.04 2.56-16.86.61-1.72 1.5-2.96 2.94-4 .93-.69 4.25-2.51 4.86-2.81 1.06-.54 2.17-.83 3.11 0 5.62 4.95 13.4 4.8 19.11.02.66-.67 1.71-.5 2.4-.23.85.33 3.19 1.66 4.48 2.42v21.46z" fill="#505050" pointer-events="all"/></svg>