<?xml version="1.0" encoding="UTF-8"?>
<!DOCTYPE svg PUBLIC "-//W3C//DTD SVG 1.1//EN" "http://www.w3.org/Graphics/SVG/1.1/DTD/svg11.dtd">
<svg xmlns="http://www.w3.org/2000/svg" xmlns:xlink="http://www.w3.org/1999/xlink" version="1.1" width="46px" height="50px" viewBox="-0.5 -0.5 46 50"><defs/><g><rect x="0" y="0" width="46" height="50" fill="none" stroke="none" pointer-events="all"/><path d="M 33.71 32.05 C 36.01 28.4 36.16 23.22 33.6 19.23 C 35.45 18.97 36.95 18.38 38.37 16.96 C 38.8 16.57 39.42 16.64 40.03 16.99 C 40.77 17.37 41.54 17.91 42.3 18.38 C 43.76 19.33 44.38 20.62 44.7 22.04 C 45.41 25.24 45.7 28.82 46 32.4 L 34.76 32.4 C 34.45 32.26 34.15 32.12 33.71 32.05 Z M 0 39.53 C 0.25 36.35 0.7 31.66 1.28 29.2 C 1.6 27.88 2.06 26.7 3.36 25.76 C 4.27 25.15 5.16 24.49 6 24.02 C 6.53 23.72 7.19 23.62 7.63 24.02 C 10.64 27.12 15.13 27.33 18.84 23.91 C 18.38 27.12 19.15 29.96 20.48 32.05 C 19.62 32.12 17.63 33.43 16.02 34.67 C 14.59 35.83 13.78 37.44 13.33 39.53 Z M 33.09 16.09 C 29.39 16.09 26.56 12.53 26.56 7.97 C 26.56 4.16 29.02 0 33 0 C 36.45 0 39.34 3.66 39.34 7.99 C 39.34 12.74 36.14 16.09 33.09 16.09 Z M 13.31 23.36 C 8.4 23.36 6.66 18.23 6.66 15.45 C 6.66 10.8 9.53 7.27 13.01 7.27 C 16.5 7.27 19.44 10.82 19.44 15.45 C 19.49 19.88 16.22 23.36 13.31 23.36 Z M 27.22 33.76 C 23.66 33.76 20.71 30.45 20.71 25.55 C 20.71 21.13 23.8 17.68 26.92 17.68 C 31.04 17.68 33.47 21.86 33.47 25.52 C 33.47 31.38 29.57 33.76 27.22 33.76 Z M 13.98 50 C 14.26 46.47 14.71 41.85 15.3 39.48 C 15.72 37.78 16.48 36.84 17.36 36.21 L 19.21 34.97 C 19.88 34.51 20.82 33.84 21.6 34.48 C 24.65 37.58 28.93 37.78 32.53 34.53 C 32.85 34.27 33.46 34.24 33.78 34.41 C 34.58 34.75 35.63 35.54 36.56 36.14 C 38.11 37.24 38.63 38.51 39.03 40.5 C 39.61 43.09 39.92 47.1 40.14 50 Z" fill="#505050" stroke="none" pointer-events="all"/></g></svg>