<?xml version="1.0" encoding="UTF-8" standalone="no"?>
<svg
   version="1.1"
   width="45.875725"
   height="49.786667"
   viewBox="-0.5 -0.5 45.875725 49.786667"
   id="svg70"
   sodipodi:docname="User_driver.svg"
   inkscape:version="1.2.2 (732a01da63, 2022-12-09)"
   xmlns:inkscape="http://www.inkscape.org/namespaces/inkscape"
   xmlns:sodipodi="http://sodipodi.sourceforge.net/DTD/sodipodi-0.dtd"
   xmlns="http://www.w3.org/2000/svg"
   xmlns:svg="http://www.w3.org/2000/svg">
  <sodipodi:namedview
     id="namedview72"
     pagecolor="#ffffff"
     bordercolor="#000000"
     borderopacity="0.25"
     inkscape:showpageshadow="2"
     inkscape:pageopacity="0.0"
     inkscape:pagecheckerboard="0"
     inkscape:deskcolor="#d1d1d1"
     showgrid="false"
     inkscape:zoom="12.352113"
     inkscape:cx="12.750855"
     inkscape:cy="16.758267"
     inkscape:window-width="1826"
     inkscape:window-height="1057"
     inkscape:window-x="86"
     inkscape:window-y="-8"
     inkscape:window-maximized="1"
     inkscape:current-layer="layer1" />
  <defs
     id="defs38" />
  <g
     inkscape:groupmode="layer"
     id="layer1"
     inkscape:label="Body"
     style="fill:#505050;fill-opacity:1"
     transform="translate(-8.4196123,-0.58181715)">
    <path
       style="fill:#505050;fill-opacity:1;stroke-width:0.146566"
       d="m 7.9196123,49.581071 c 0,-0.345225 0.4566312,-4.880094 0.6937853,-6.890079 0.414685,-3.514638 0.8922391,-6.367297 1.3812081,-8.250612 0.7403263,-2.851449 1.7700003,-4.409712 3.7944473,-5.742352 0.8579,-0.564733 3.364737,-1.989716 4.397549,-2.499737 0.795715,-0.392938 0.993787,-0.457485 1.50442,-0.490256 0.722418,-0.04636 1.081855,0.09578 1.789023,0.707457 1.727164,1.493953 4.226744,2.712222 6.498059,3.167088 1.100319,0.220355 3.244101,0.298542 4.354263,0.158805 2.759436,-0.347332 5.340119,-1.467113 7.718454,-3.349106 0.751895,-0.594981 0.959071,-0.664819 1.777617,-0.599223 0.466316,0.03737 0.701938,0.125622 1.75309,0.656624 1.194436,0.603385 3.457538,1.893131 4.331242,2.468382 0.618405,0.407161 1.636435,1.39541 2.000166,1.941653 1.481884,2.225461 2.143925,5.2101 3.454913,15.575575 l 0.427489,3.379989 h -4.55032 -4.550321 l -0.0506,-0.252993 c -0.02783,-0.139146 -0.0506,-0.390543 -0.0506,-0.55866 0,-0.497309 -0.299625,-2.101879 -0.521943,-2.795147 -0.189634,-0.591347 -0.195407,-0.650045 -0.07125,-0.724443 0.373664,-0.223911 0.754623,-0.6524 0.918293,-1.03286 0.554714,-1.289469 0.07357,-3.151569 -1.12154,-4.34049 -0.707089,-0.70343 -1.307952,-1.003333 -2.099007,-1.047659 -0.513877,-0.02879 -0.644608,-0.0053 -1.035207,0.185768 -0.245881,0.120298 -0.503386,0.304694 -0.572234,0.40977 l -0.125179,0.191046 -0.499249,-0.390776 c -4.120646,-3.225343 -9.746787,-3.790074 -14.416168,-1.44704 -0.797706,0.400278 -1.406079,0.773628 -2.162159,1.326885 -0.367605,0.268994 -0.375422,0.270744 -0.5159,0.115517 -0.445862,-0.492672 -1.595759,-0.539121 -2.486824,-0.100451 -1.010987,0.497707 -2.012356,1.825407 -2.253754,2.988216 -0.05282,0.254422 -0.08105,0.774023 -0.06275,1.154668 0.02754,0.57269 0.07393,0.766683 0.268903,1.124533 0.129591,0.237847 0.317994,0.497246 0.418673,0.57644 l 0.183052,0.143989 -0.152826,0.435532 c -0.338366,0.964291 -0.561865,2.081224 -0.698691,3.49169 l -0.05301,0.546465 H 12.72717 7.9196123 Z"
       id="path632" />
    <path
       style="fill:#505050;fill-opacity:1;stroke-width:0.165772"
       d="m 26.282031,48.475683 c -2.489236,-0.774429 -4.669792,-1.456841 -4.845677,-1.51647 L 21.11656,46.8508 21.381674,46.240929 c 0.773803,-1.780074 2.271831,-3.742905 3.671625,-4.810841 3.01093,-2.297113 6.586302,-2.795216 9.981623,-1.390592 1.433469,0.593018 2.83979,1.635259 3.992173,2.958645 0.434443,0.498909 0.789895,0.94208 0.789895,0.984823 0,0.102894 -8.681008,5.865638 -8.865833,5.885435 -0.07878,0.0085 -2.179889,-0.618282 -4.669126,-1.39271 z"
       id="path634" />
    <path
       style="fill:#505050;fill-opacity:1;stroke-width:0.146566"
       d="m 30.511992,25.302991 c -4.920791,-0.506418 -8.908589,-4.260066 -10.023825,-9.43526 -0.389185,-1.805995 -0.426539,-4.147447 -0.09126,-5.720363 0.909421,-4.266406 3.890997,-7.8188496 7.59648,-9.0509422 1.250821,-0.41590465 1.883715,-0.51469514 3.296805,-0.51460859 1.39926,8.581e-5 2.296834,0.14684111 3.479477,0.56890279 1.653828,0.5902176 3.371742,1.7996326 4.571085,3.2180526 3.391811,4.0113742 4.108743,9.6778874 1.823601,14.4134394 -1.101522,2.282711 -2.70056,4.011524 -4.854779,5.248784 -1.697185,0.974766 -3.928598,1.46434 -5.797586,1.271995 z"
       id="path636"
       transform="translate(-0.5,-0.5)" />
  </g>
</svg>
