<?xml version="1.0" encoding="UTF-8"?>
<!DOCTYPE svg PUBLIC "-//W3C//DTD SVG 1.1//EN" "http://www.w3.org/Graphics/SVG/1.1/DTD/svg11.dtd">
<svg xmlns="http://www.w3.org/2000/svg" xmlns:xlink="http://www.w3.org/1999/xlink" version="1.1" width="53px" height="46px" viewBox="-0.5 -0.5 53 46"><defs/><g><g><rect x="0" y="0" width="53" height="46" fill="none" stroke="none" pointer-events="all"/><path d="M 26.64 21.66 C 28.86 21.66 31 19.86 31 17.4 C 31 14.6 28.69 13 26.7 13 C 24.36 13 22.23 14.69 22.23 17.46 C 22.23 19.69 24.21 21.66 26.64 21.66 Z M 36.76 40.85 C 38.99 40.85 41.12 39.04 41.12 36.58 C 41.12 33.8 38.82 32.19 36.82 32.19 C 34.48 32.19 32.36 33.89 32.36 36.65 C 32.36 38.87 34.33 40.85 36.76 40.85 Z M 33.18 31.87 C 33.67 31.51 34.42 31.11 35.09 30.92 L 30.38 21.8 C 29.86 22.23 29.27 22.59 28.5 22.85 Z M 20.14 31.93 L 24.83 22.88 C 24.13 22.65 23.48 22.32 22.92 21.86 L 18.15 30.93 C 18.85 31.13 19.6 31.52 20.14 31.93 Z M 22.27 37.64 L 30.96 37.64 C 30.83 36.96 30.81 36.23 30.94 35.55 L 22.3 35.55 C 22.43 36.27 22.41 36.98 22.27 37.64 Z M 16.51 40.84 C 18.74 40.84 20.87 39.04 20.87 36.58 C 20.87 33.79 18.57 32.18 16.56 32.18 C 14.23 32.18 12.11 33.88 12.11 36.64 C 12.11 38.87 14.08 40.84 16.51 40.84 Z M 2.94 46 C 1.35 46 0 44.94 1.02 42.89 L 24.84 1.53 C 25.88 0 27.43 0.13 28.35 1.58 L 52.01 42.68 C 53 44.26 52.47 45.89 50.37 45.99 Z" fill="#505050" stroke="none" pointer-events="all"/></g></g></svg>