<?xml version="1.0" encoding="UTF-8"?>
<!DOCTYPE svg PUBLIC "-//W3C//DTD SVG 1.1//EN" "http://www.w3.org/Graphics/SVG/1.1/DTD/svg11.dtd">
<svg xmlns="http://www.w3.org/2000/svg" xmlns:xlink="http://www.w3.org/1999/xlink" version="1.1" width="352px" height="734px" viewBox="-0.5 -0.5 352 734"><defs/><g><g><rect x="0" y="2" width="53" height="46" fill="none" stroke="none" pointer-events="all"/><path d="M 26.64 23.66 C 28.86 23.66 31 21.86 31 19.4 C 31 16.6 28.69 15 26.7 15 C 24.36 15 22.23 16.69 22.23 19.46 C 22.23 21.69 24.21 23.66 26.64 23.66 Z M 36.76 42.85 C 38.99 42.85 41.12 41.04 41.12 38.58 C 41.12 35.8 38.82 34.19 36.82 34.19 C 34.48 34.19 32.36 35.89 32.36 38.65 C 32.36 40.87 34.33 42.85 36.76 42.85 Z M 33.18 33.87 C 33.67 33.51 34.42 33.11 35.09 32.92 L 30.38 23.8 C 29.86 24.23 29.27 24.59 28.5 24.85 Z M 20.14 33.93 L 24.83 24.88 C 24.13 24.65 23.48 24.32 22.92 23.86 L 18.15 32.93 C 18.85 33.13 19.6 33.52 20.14 33.93 Z M 22.27 39.64 L 30.96 39.64 C 30.83 38.96 30.81 38.23 30.94 37.55 L 22.3 37.55 C 22.43 38.27 22.41 38.98 22.27 39.64 Z M 16.51 42.84 C 18.74 42.84 20.87 41.04 20.87 38.58 C 20.87 35.79 18.57 34.18 16.56 34.18 C 14.23 34.18 12.11 35.88 12.11 38.64 C 12.11 40.87 14.08 42.84 16.51 42.84 Z M 2.94 48 C 1.35 48 0 46.94 1.02 44.89 L 24.84 3.53 C 25.88 2 27.43 2.13 28.35 3.58 L 52.01 44.68 C 53 46.26 52.47 47.89 50.37 47.99 Z" fill="#505050" stroke="none" pointer-events="all"/></g><g><rect x="80" y="2" width="55" height="53" fill="none" stroke="none" pointer-events="all"/><path d="M 123.04 48.27 L 123.04 46.78 L 129.02 46.78 L 129.02 48.27 Z M 123.04 42.29 C 123.06 41.73 123.14 40.91 123.3 40.16 C 123.36 39.89 123.47 39.65 123.74 39.46 L 124.25 39.13 C 124.55 38.95 124.77 38.97 124.95 39.11 C 125.58 39.53 126.43 39.61 127.06 39.03 C 127.22 38.87 127.41 38.79 127.62 38.89 C 127.74 38.95 128.24 39.22 128.43 39.4 C 128.62 39.56 128.71 39.77 128.76 40 C 128.89 40.7 128.99 41.63 129.01 42.29 Z M 125.99 38.85 C 125.16 38.85 124.54 37.99 124.54 37.31 C 124.54 36.05 125.41 35.56 126.05 35.56 C 126.71 35.56 127.53 36.16 127.53 37.22 C 127.53 38.14 126.82 38.85 125.99 38.85 Z M 123.04 45.29 L 123.04 43.79 L 129.02 43.79 L 129.02 45.29 Z M 111.09 48.27 L 111.09 46.78 L 117.07 46.78 L 117.07 48.27 Z M 111.09 42.29 C 111.11 41.73 111.19 40.91 111.35 40.16 C 111.41 39.89 111.52 39.65 111.78 39.46 L 112.29 39.13 C 112.59 38.95 112.81 38.97 112.99 39.11 C 113.64 39.53 114.47 39.61 115.1 39.03 C 115.27 38.87 115.45 38.79 115.67 38.89 C 115.78 38.95 116.29 39.22 116.48 39.4 C 116.67 39.56 116.77 39.77 116.81 40 C 116.94 40.7 117.04 41.63 117.07 42.29 Z M 114.05 38.85 C 113.2 38.85 112.58 37.99 112.58 37.31 C 112.58 36.05 113.46 35.56 114.1 35.56 C 114.75 35.56 115.57 36.16 115.57 37.22 C 115.57 38.14 114.86 38.85 114.05 38.85 Z M 111.09 45.29 L 111.09 43.79 L 117.07 43.79 L 117.07 45.29 Z M 132.76 50.52 C 133.24 50.5 133.51 50.19 133.51 49.79 L 133.51 46.73 C 133.51 46.37 133.23 46.03 132.76 46.03 C 133.23 46.03 133.51 45.71 133.51 45.33 L 133.51 42.28 C 133.51 41.9 133.26 41.54 132.77 41.54 C 133.21 41.54 133.51 41.24 133.51 40.83 L 133.51 37.79 C 133.51 37.39 133.22 37.06 132.76 37.06 Z M 120.8 52.01 C 121.17 51.86 121.57 51.67 121.89 51.57 C 122.36 51.39 122.85 51.26 123.38 51.27 L 131.26 51.27 L 131.26 33.71 C 131.26 33.51 131.13 33.32 130.91 33.32 L 123.76 33.32 C 122.18 33.32 120.8 34.84 120.8 36.25 Z M 108.85 51.27 L 116.77 51.27 C 117.31 51.28 117.84 51.36 118.36 51.58 L 119.31 52.02 L 119.31 36.33 C 119.31 34.82 117.99 33.32 116.31 33.32 L 109.22 33.32 C 108.96 33.32 108.85 33.49 108.85 33.7 Z M 107.38 54.25 C 106.39 54.25 105.86 53.5 105.86 52.87 L 105.86 36.28 C 105.86 35.54 106.48 34.81 107.35 34.81 L 107.35 33.66 C 107.35 32.76 108.11 31.83 109.18 31.83 L 117.03 31.83 C 118.3 31.83 119.42 33 120.05 34.08 C 120.78 32.91 121.86 31.83 123.08 31.83 L 130.94 31.83 C 131.83 31.83 132.76 32.57 132.76 33.66 L 132.76 34.82 L 133.56 34.81 C 134.3 34.81 135 35.48 135 36.29 L 135 52.81 C 135 53.78 134.18 54.25 133.59 54.25 L 122.3 54.25 C 122.3 54.75 121.93 55 121.6 55 L 118.56 55 C 118.11 55 117.81 54.71 117.81 54.25 Z M 125.29 13.51 L 125.29 8.01 C 125.29 5.89 127.14 4.24 129.06 4.24 L 131.49 4.24 C 132.93 6.84 132.22 9.34 131.26 10.78 C 130.14 12.29 128.59 13.63 125.29 13.51 Z M 87.92 36.31 L 87.92 8.5 C 87.92 5.48 90.52 2 94.58 2 L 127.21 2 C 127.66 2 127.99 2.06 128.26 2.14 C 125.16 2.47 123.11 5.32 123.11 7.75 L 123.11 29.58 C 122.02 29.59 121 29.98 120.05 30.7 C 119.12 29.99 118.1 29.58 117.01 29.58 L 109.16 29.58 C 107.4 29.58 105.38 30.91 105.11 33.32 C 104 34.14 103.64 35.31 103.61 36.31 Z M 85.81 50.51 C 83.1 50.51 80 48.21 80 44.54 C 80 41.09 82.8 38.56 85.98 38.56 L 103.61 38.56 L 103.61 50.51 Z" fill="#505050" stroke="none" pointer-events="all"/></g><g><rect x="160" y="3.5" width="58" height="50" fill="none" stroke="none" pointer-events="all"/><path d="M 160 15.62 L 160 14.86 L 171.31 3.5 L 172.07 3.5 L 172.07 15.62 Z M 202.22 33.04 C 205.18 33.04 207.89 30.75 207.89 27.26 C 207.89 24.51 205.54 21.68 202.2 21.68 C 199.14 21.68 196.57 24.29 196.57 27.33 C 196.57 30.67 199.3 33.04 202.22 33.04 Z M 202.33 34.56 C 198.28 34.56 195.08 31.19 195.08 27.66 C 195.08 22.93 198.64 20.16 202.27 20.16 C 206.25 20.16 209.41 23.46 209.41 27.26 C 209.41 31.91 205.53 34.56 202.33 34.56 Z M 202.23 36.84 C 207.46 36.84 211.66 32.51 211.66 27.61 C 211.66 22.03 207.56 17.9 202.03 17.9 C 197.4 17.9 192.8 21.77 192.8 27.59 C 192.8 31.9 196.43 36.84 202.23 36.84 Z M 188.44 50.37 L 195.53 36.91 C 192.75 34.89 190.29 31.5 190.59 26.35 C 191.1 20.57 195.88 15.62 202.45 15.62 C 208.31 15.62 213.94 20.45 213.94 27.58 C 213.8 31.48 212.12 34.42 209.34 36.68 L 218 49.4 L 211.15 47.8 L 207.38 53.04 L 202.38 39.33 L 198.47 53.5 L 194.54 49.32 Z M 160 40.61 L 160 17.89 L 174.33 17.89 L 174.33 3.5 L 209.78 3.5 L 209.78 15.58 C 207.93 14.41 205.45 13.35 202.29 13.35 C 194.74 13.35 188.29 19.26 188.29 27.59 C 188.3 31.43 190.13 35.18 192.66 37.51 L 191.02 40.61 Z" fill="#505050" stroke="none" pointer-events="all"/></g><g><rect x="230" y="15" width="39" height="33" fill="none" stroke="none" pointer-events="all"/><path d="M 230 23 L 230 22.5 L 237.61 15 L 238.12 15 L 238.12 23 Z M 258.39 34.5 C 260.38 34.5 262.2 32.98 262.2 30.68 C 262.2 28.86 260.62 27 258.38 27 C 256.32 27 254.59 28.72 254.59 30.73 C 254.59 32.93 256.43 34.5 258.39 34.5 Z M 258.46 35.5 C 255.74 35.5 253.59 33.28 253.59 30.94 C 253.59 27.82 255.98 26 258.42 26 C 261.1 26 263.22 28.17 263.22 30.68 C 263.22 33.75 260.61 35.5 258.46 35.5 Z M 258.4 37 C 261.91 37 264.74 34.15 264.74 30.91 C 264.74 27.23 261.98 24.5 258.26 24.5 C 255.15 24.5 252.05 27.06 252.05 30.9 C 252.05 33.74 254.49 37 258.4 37 Z M 249.12 45.93 L 253.89 37.05 C 252.02 35.72 250.37 33.48 250.57 30.08 C 250.91 26.26 254.13 23 258.54 23 C 262.49 23 266.27 26.18 266.27 30.89 C 266.17 33.47 265.04 35.41 263.18 36.9 L 269 45.29 L 264.39 44.24 L 261.86 47.69 L 258.5 38.65 L 255.87 48 L 253.22 45.24 Z M 230 39.5 L 230 24.5 L 239.64 24.5 L 239.64 15 L 263.47 15 L 263.47 22.97 C 262.23 22.2 260.56 21.5 258.44 21.5 C 253.36 21.5 249.02 25.4 249.02 30.9 C 249.03 33.44 250.26 35.91 251.96 37.45 L 250.86 39.5 Z" fill="#505050" stroke="none" pointer-events="all"/></g><g><rect x="290" y="-0.5" width="56" height="58" fill="none" stroke="none" pointer-events="all"/><path d="M 330.29 51.56 L 340.84 38.11 C 341.06 37.86 340.89 37.5 340.73 37.36 L 338.92 35.85 C 338.75 35.72 338.47 35.7 338.32 35.87 L 330.3 46.48 L 326.21 42.02 C 326.03 41.85 325.76 41.78 325.57 41.94 L 323.87 43.49 C 323.66 43.69 323.7 44.04 323.87 44.22 Z M 332.09 57.5 C 324.64 57.5 318.49 51.17 318.49 44.04 C 318.49 35.7 324.82 30 332.29 30 C 340.32 30 346 36.63 346 43.63 C 346 51.64 339.64 57.5 332.09 57.5 Z M 312.55 24.27 C 306.86 24.27 301.45 19.06 301.45 11.91 C 301.45 5.43 306.05 -0.5 312.75 -0.5 C 317.91 -0.5 323.76 4.11 323.76 12.02 C 323.76 17.63 319.75 24.27 312.55 24.27 Z M 290 49.25 C 290.39 44.17 291.17 37.75 292.04 34.12 C 292.74 31.14 293.94 29.36 296.02 28.07 C 296.39 27.84 300.2 25.57 301.15 25.3 C 301.91 25.05 302.54 25.17 303.1 25.47 C 308.78 30.71 316.7 30.46 322.43 25.52 C 322.88 25.19 323.58 25.2 323.94 25.27 C 325.01 25.42 327.76 27.14 329.3 28.02 C 322.67 29.33 319 33.86 317.5 37.5 C 315.75 41.47 316.02 46.07 317.22 49.25 Z" fill="#505050" stroke="none" pointer-events="all"/></g><g><rect x="0" y="75" width="53" height="46" fill="none" stroke="none" pointer-events="all"/><path d="M 2.93 121 C 1.73 121 0 120.17 1.11 117.88 L 24.9 76.5 C 25.92 75 27.42 75.1 28.36 76.54 L 52.14 117.91 C 53 119.59 52.18 120.94 50.28 121 Z" fill="#505050" stroke="none" pointer-events="all"/></g><g><rect x="87" y="85" width="41" height="36" fill="none" stroke="none" pointer-events="all"/><path d="M 89.26 121 C 88.34 121 87 120.35 87.86 118.56 L 106.26 86.18 C 107.05 85 108.21 85.08 108.94 86.21 L 127.33 118.58 C 128 119.89 127.36 120.95 125.89 121 Z" fill="#505050" stroke="none" pointer-events="all"/></g><g><rect x="152" y="81" width="55" height="53" fill="none" stroke="none" pointer-events="all"/><path d="M 199.53 119.04 L 199.53 114.57 L 203.26 114.57 L 203.26 119.04 Z M 183.83 124.27 L 183.83 122.79 L 195.04 122.79 L 195.04 124.27 Z M 183.83 128.01 L 183.83 126.53 L 198.78 126.53 L 198.78 128.01 Z M 179.35 132.51 L 205.51 132.51 L 205.51 112.32 L 179.35 112.32 Z M 177.86 134 L 177.86 110.83 L 207 110.83 L 207 134 Z M 197.29 92.52 L 197.29 87.02 C 197.29 84.97 199.1 83.24 201.04 83.24 L 203.49 83.24 C 204.68 85.38 204.55 87.79 203.27 89.75 C 201.81 91.89 199.71 92.62 197.29 92.52 Z M 159.92 115.31 L 159.92 87.6 C 159.92 84.21 162.79 81 166.57 81 L 199.1 81 C 199.53 81 199.93 81.05 200.26 81.15 C 196.89 81.54 195.11 84.58 195.11 86.76 L 195.11 108.58 L 175.61 108.58 L 175.61 115.31 Z M 157.88 129.52 C 154.86 129.52 152 126.33 152 123.54 C 152 120.74 155.06 117.56 157.88 117.56 L 175.61 117.56 L 175.61 129.52 Z" fill="#505050" stroke="none" pointer-events="all"/></g><g><rect x="220.5" y="85" width="58" height="59" fill="none" stroke="none" pointer-events="all"/><path d="M 255.93 129.27 C 255.93 134.03 259.88 136.99 263.75 136.99 C 267.94 136.99 271.41 133.45 271.41 129.34 C 271.41 124.93 267.67 121.64 263.77 121.64 C 259.94 121.64 255.93 124.49 255.93 129.27 Z M 252.57 127.32 L 249.51 126.05 C 249.06 125.82 248.87 125.47 249.04 124.95 L 250.21 122.19 C 250.47 121.77 250.8 121.54 251.32 121.74 L 254.18 123.17 C 255.09 122.1 256.09 121.04 257.2 120.12 L 255.95 117.07 C 255.85 116.71 255.82 116.35 256.34 116.01 L 259.21 114.81 C 259.76 114.64 260.07 114.88 260.26 115.19 L 261.55 118.31 C 262.84 118.06 264.12 117.94 265.63 118.38 L 266.91 115.22 C 267.2 114.77 267.56 114.65 267.99 114.81 L 270.85 116.01 C 271.32 116.31 271.37 116.66 271.25 117.04 L 269.98 120.15 C 271.1 121.04 272.13 121.98 272.97 123.06 L 276.04 121.81 C 276.6 121.66 276.92 121.86 277.13 122.28 L 278.33 125.11 C 278.41 125.52 278.32 125.88 277.9 126.1 L 274.78 127.37 C 274.92 128.58 274.91 130.1 274.77 131.44 L 277.9 132.7 C 278.32 132.96 278.5 133.28 278.37 133.73 L 277.24 136.38 C 277.02 136.73 276.71 136.9 276.25 136.79 L 273.1 135.53 C 272.26 136.65 271.22 137.65 270.06 138.52 L 271.31 141.57 C 271.5 142.05 271.25 142.47 270.95 142.62 L 267.93 143.88 C 267.52 143.95 267.15 143.91 266.98 143.41 L 265.7 140.29 C 264.55 140.61 263.11 140.69 261.64 140.32 L 260.36 143.39 C 260.17 143.72 259.93 144 259.37 143.86 L 256.42 142.65 C 256 142.35 255.81 141.99 256.08 141.49 L 257.48 138.72 C 256.24 137.78 255.2 136.79 254.39 135.75 L 251.38 136.97 C 250.9 137.15 250.52 137.03 250.24 136.59 L 249.03 133.73 C 248.91 133.35 249 132.92 249.45 132.7 L 252.58 131.35 C 252.45 130.01 252.44 128.66 252.57 127.32 Z M 246.27 116.19 L 249.49 116.19 L 249.49 113.01 L 246.27 113.01 Z M 240.64 121.76 L 243.86 121.76 L 243.86 118.57 L 240.64 118.57 Z M 240.64 111.4 L 243.86 111.4 L 243.86 108.2 L 240.64 108.2 Z M 230.17 124.18 L 233.39 124.18 L 233.39 120.98 L 230.17 120.98 Z M 223.72 124.18 L 226.95 124.18 L 226.95 120.98 L 223.72 120.98 Z M 230.17 117.78 L 233.39 117.78 L 233.39 114.58 L 230.17 114.58 Z M 223.72 117.78 L 226.95 117.78 L 226.95 114.58 L 223.72 114.58 Z M 223.72 111.4 L 226.95 111.4 L 226.95 108.2 L 223.72 108.2 Z M 230.17 111.4 L 233.39 111.4 L 233.39 108.2 L 230.17 108.2 Z M 230.17 104.99 L 233.39 104.99 L 233.39 101.79 L 230.17 101.79 Z M 223.72 104.99 L 226.95 104.99 L 226.95 101.79 L 223.72 101.79 Z M 230.17 98.6 L 233.39 98.6 L 233.39 95.4 L 230.17 95.4 Z M 223.72 98.6 L 226.95 98.6 L 226.95 95.4 L 223.72 95.4 Z M 230.17 92.2 L 233.39 92.2 L 233.39 89 L 230.17 89 Z M 223.72 92.2 L 226.95 92.2 L 226.95 89 L 223.72 89 Z M 220.5 137.74 L 220.5 85 L 236.61 85 L 236.61 105.79 L 239.03 105.79 L 239.03 100.19 L 241.45 100.19 L 241.45 94.59 L 243.86 94.59 L 243.86 88.29 L 246.28 88.29 L 246.28 94.59 L 248.69 94.59 L 248.69 100.19 L 251.11 100.19 L 251.11 105.79 L 253.53 105.79 L 253.53 120.19 L 252.25 119.65 C 250.41 118.9 248.89 120.12 248.43 121.1 L 247.11 124.23 C 246.54 125.86 247.37 127.42 248.64 127.99 L 250.38 128.73 L 250.38 129.93 L 248.65 130.64 C 247 131.43 246.65 133.25 247.11 134.44 L 248.52 137.74 Z M 258.78 104.38 L 258.78 101.4 L 272.14 101.4 L 267.65 96.92 L 271.39 96.92 L 277.1 102.89 L 271.39 108.84 L 267.65 108.84 L 272.14 104.38 Z M 260.13 98.42 L 254.36 92.46 L 260.13 86.5 L 263.89 86.5 L 259.38 90.97 L 273.05 90.97 L 273.05 93.95 L 259.38 93.95 L 263.88 98.42 Z" fill="#505050" stroke="none" pointer-events="all"/></g><g><rect x="294" y="85" width="58" height="59" fill="none" stroke="none" pointer-events="all"/><path d="M 336.12 138.05 L 346.79 124.55 C 346.93 124.39 347.01 124.09 346.75 123.83 L 344.84 122.25 C 344.65 122.12 344.34 122.12 344.2 122.31 L 336.12 132.95 L 331.93 128.43 C 331.78 128.31 331.49 128.24 331.32 128.38 L 329.6 129.93 C 329.38 130.13 329.42 130.47 329.58 130.66 Z M 333.78 98.47 L 327.98 92.49 L 333.78 86.51 L 337.55 86.51 L 333.02 90.99 L 346.74 90.99 L 346.74 93.98 L 333.02 93.98 L 337.54 98.47 Z M 332.42 104.45 L 332.42 101.46 L 345.83 101.46 L 341.32 96.97 L 345.09 96.97 L 350.8 102.96 L 345.08 108.94 L 341.32 108.94 L 345.83 104.45 Z M 294 137.96 L 294 85 L 310.17 85 L 310.17 105.87 L 312.59 105.87 L 312.59 100.26 L 315.02 100.26 L 315.02 94.63 L 317.45 94.63 L 317.45 88.3 L 319.88 88.3 L 319.88 94.63 L 322.3 94.63 L 322.3 100.26 L 324.72 100.26 L 324.72 105.87 L 327.15 105.87 L 327.15 118.29 C 324.5 120.66 322.85 123.9 322.21 126.91 C 321.34 131.12 322.19 134.69 323.87 137.96 Z M 297.23 92.23 L 300.47 92.23 L 300.47 89.02 L 297.23 89.02 Z M 303.7 92.23 L 306.94 92.23 L 306.94 89.02 L 303.7 89.02 Z M 297.23 98.65 L 300.47 98.65 L 300.47 95.44 L 297.23 95.44 Z M 303.7 98.65 L 306.94 98.65 L 306.94 95.44 L 303.7 95.44 Z M 297.23 105.07 L 300.47 105.07 L 300.47 101.86 L 297.23 101.86 Z M 303.7 105.07 L 306.94 105.07 L 306.94 101.86 L 303.7 101.86 Z M 303.7 111.5 L 306.94 111.5 L 306.94 108.29 L 303.7 108.29 Z M 297.23 111.5 L 300.47 111.5 L 300.47 108.29 L 297.23 108.29 Z M 297.23 117.92 L 300.47 117.92 L 300.47 114.7 L 297.23 114.7 Z M 303.7 117.92 L 306.94 117.92 L 306.94 114.7 L 303.7 114.7 Z M 297.23 124.34 L 300.47 124.34 L 300.47 121.13 L 297.23 121.13 Z M 303.7 124.34 L 306.94 124.34 L 306.94 121.13 L 303.7 121.13 Z M 314.21 111.5 L 317.45 111.5 L 317.45 108.29 L 314.21 108.29 Z M 314.21 121.91 L 317.45 121.91 L 317.45 118.7 L 314.21 118.7 Z M 319.87 116.32 L 323.1 116.32 L 323.1 113.12 L 319.87 113.12 Z M 324.19 130.12 C 324.19 138.69 331.29 144 338.23 144 C 345.76 144 352 137.64 352 130.25 C 352 122.33 345.28 116.4 338.27 116.4 C 331.39 116.4 324.19 121.53 324.19 130.12 Z" fill="#505050" stroke="none" pointer-events="all"/></g><g><rect x="10" y="165" width="56" height="50" fill="none" stroke="none" pointer-events="all"/><path d="M 10 168.8 L 10 165 L 56.92 165 L 56.92 168.79 L 35.66 184.67 C 34.42 185.48 32.57 185.58 31.17 184.6 Z M 10 202.12 L 10 171.6 L 29.98 186.56 C 31.88 187.91 35.05 187.98 37.08 186.45 L 56.92 171.6 L 56.92 185.46 C 50.35 183.44 44.57 185.81 41.47 188.56 C 37.79 191.7 35.36 196.65 35.77 202.12 Z M 59.95 202.9 L 59.95 199.09 L 44.05 199.09 L 44.05 202.9 Z M 38 201.03 C 38 192.95 44.65 186.98 51.85 186.98 C 59.82 186.98 66 193.32 66 200.83 C 66 209.13 59.31 215 52.15 215 C 44.79 215 38 209.24 38 201.03 Z" fill="#505050" stroke="none" pointer-events="all"/></g><g><rect x="95" y="165" width="25" height="53" fill="none" stroke="none" pointer-events="all"/><path d="M 107.41 178.53 C 109.72 178.53 111.35 176.68 111.35 174.6 C 111.35 172.64 109.83 170.67 107.35 170.67 C 105.58 170.67 103.5 172.08 103.5 174.7 C 103.5 176.65 105.16 178.53 107.41 178.53 Z M 102.53 212.56 L 102.53 189.86 C 98.51 187.96 95 183.38 95 178.17 C 95 170.8 100.55 165 107.43 165 C 114.44 165 120 170.77 120 178.35 C 120 182.98 116.64 187.6 112.32 189.87 L 112.32 195.16 L 108.69 199.03 L 113.22 203.71 L 113.22 203.94 L 109.16 208.25 L 112.99 212.33 L 107.5 218 Z" fill="#505050" stroke="none" pointer-events="all"/></g><g><rect x="170" y="165" width="25" height="53" fill="none" stroke="none" pointer-events="all"/><path d="M 182.41 178.53 C 184.72 178.53 186.35 176.68 186.35 174.6 C 186.35 172.64 184.83 170.67 182.35 170.67 C 180.58 170.67 178.5 172.08 178.5 174.7 C 178.5 176.65 180.16 178.53 182.41 178.53 Z M 177.53 212.56 L 177.53 189.86 C 173.51 187.96 170 183.38 170 178.17 C 170 170.8 175.55 165 182.43 165 C 189.44 165 195 170.77 195 178.35 C 195 182.98 191.64 187.6 187.32 189.87 L 187.32 195.16 L 183.69 199.03 L 188.22 203.71 L 188.22 203.94 L 184.16 208.25 L 187.99 212.33 L 182.5 218 Z" fill="#2072b8" stroke="none" pointer-events="all"/></g><g><rect x="237" y="165" width="25" height="53" fill="none" stroke="none" pointer-events="all"/><path d="M 249.41 178.53 C 251.72 178.53 253.35 176.68 253.35 174.6 C 253.35 172.64 251.83 170.67 249.35 170.67 C 247.58 170.67 245.5 172.08 245.5 174.7 C 245.5 176.65 247.16 178.53 249.41 178.53 Z M 244.53 212.56 L 244.53 189.86 C 240.51 187.96 237 183.38 237 178.17 C 237 170.8 242.55 165 249.43 165 C 256.44 165 262 170.77 262 178.35 C 262 182.98 258.64 187.6 254.32 189.87 L 254.32 195.16 L 250.69 199.03 L 255.22 203.71 L 255.22 203.94 L 251.16 208.25 L 254.99 212.33 L 249.5 218 Z" fill="#da4026" stroke="none" pointer-events="all"/></g><g><rect x="305.5" y="165" width="25" height="53" fill="none" stroke="none" pointer-events="all"/><path d="M 317.91 178.53 C 320.22 178.53 321.85 176.68 321.85 174.6 C 321.85 172.64 320.33 170.67 317.85 170.67 C 316.08 170.67 314 172.08 314 174.7 C 314 176.65 315.66 178.53 317.91 178.53 Z M 313.03 212.56 L 313.03 189.86 C 309.01 187.96 305.5 183.38 305.5 178.17 C 305.5 170.8 311.05 165 317.93 165 C 324.94 165 330.5 170.77 330.5 178.35 C 330.5 182.98 327.14 187.6 322.82 189.87 L 322.82 195.16 L 319.19 199.03 L 323.72 203.71 L 323.72 203.94 L 319.66 208.25 L 323.49 212.33 L 318 218 Z" fill="#7fba42" stroke="none" pointer-events="all"/></g><g><rect x="23" y="235" width="25" height="53" fill="none" stroke="none" pointer-events="all"/><path d="M 35.41 248.53 C 37.72 248.53 39.35 246.68 39.35 244.6 C 39.35 242.64 37.83 240.67 35.35 240.67 C 33.58 240.67 31.5 242.08 31.5 244.7 C 31.5 246.65 33.16 248.53 35.41 248.53 Z M 30.53 282.56 L 30.53 259.86 C 26.51 257.96 23 253.38 23 248.17 C 23 240.8 28.55 235 35.43 235 C 42.44 235 48 240.77 48 248.35 C 48 252.98 44.64 257.6 40.32 259.87 L 40.32 265.16 L 36.69 269.03 L 41.22 273.71 L 41.22 273.94 L 37.16 278.25 L 40.99 282.33 L 35.5 288 Z" fill="#cccbcb" stroke="none" pointer-events="all"/></g><g><rect x="101" y="241" width="19" height="40" fill="none" stroke="none" pointer-events="all"/><path d="M 110.43 251.21 C 112.19 251.21 113.42 249.82 113.42 248.24 C 113.42 246.77 112.27 245.28 110.39 245.28 C 109.04 245.28 107.46 246.34 107.46 248.32 C 107.46 249.8 108.72 251.21 110.43 251.21 Z M 106.72 276.89 L 106.72 259.76 C 103.67 258.33 101 254.87 101 250.94 C 101 245.38 105.22 241 110.45 241 C 115.77 241 120 245.35 120 251.07 C 120 254.57 117.44 258.06 114.16 259.77 L 114.16 263.77 L 111.41 266.68 L 114.85 270.22 L 114.85 270.39 L 111.76 273.64 L 114.67 276.72 L 110.5 281 Z" fill="#505050" stroke="none" pointer-events="all"/></g><g><rect x="163.5" y="235" width="38" height="52" fill="none" stroke="none" pointer-events="all"/><path d="M 193.3 258.03 L 193.3 249.86 C 193.3 244.98 189.04 239.46 182.52 239.46 C 175.96 239.46 171.7 244.95 171.7 250.14 L 171.7 258.03 Z M 166.43 287 C 164.87 287 163.5 285.65 163.5 284.1 L 163.5 260.92 C 163.5 259.4 164.87 258.03 166.37 258.03 L 167.23 258.03 L 167.23 249.99 C 167.23 242.08 174.06 235 182.3 235 C 191.23 235 197.77 242 197.77 250.01 L 197.77 258.03 L 198.59 258.03 C 200.1 258.03 201.5 259.33 201.5 261 L 201.5 284.07 C 201.5 285.68 200.12 287 198.57 287 Z" fill="#505050" stroke="none" pointer-events="all"/></g><g><rect x="231" y="235" width="38" height="52" fill="none" stroke="none" pointer-events="all"/><path d="M 260.8 258.03 L 260.8 249.86 C 260.8 244.98 256.54 239.46 250.02 239.46 C 243.46 239.46 239.2 244.95 239.2 250.14 L 239.2 258.03 Z M 233.93 287 C 232.37 287 231 285.65 231 284.1 L 231 260.92 C 231 259.4 232.37 258.03 233.87 258.03 L 234.73 258.03 L 234.73 249.99 C 234.73 242.08 241.56 235 249.8 235 C 258.73 235 265.27 242 265.27 250.01 L 265.27 258.03 L 266.09 258.03 C 267.6 258.03 269 259.33 269 261 L 269 284.07 C 269 285.68 267.62 287 266.07 287 Z" fill="#2072b8" stroke="none" pointer-events="all"/></g><g><rect x="299" y="235" width="38" height="52" fill="none" stroke="none" pointer-events="all"/><path d="M 328.8 258.03 L 328.8 249.86 C 328.8 244.98 324.54 239.46 318.02 239.46 C 311.46 239.46 307.2 244.95 307.2 250.14 L 307.2 258.03 Z M 301.93 287 C 300.37 287 299 285.65 299 284.1 L 299 260.92 C 299 259.4 300.37 258.03 301.87 258.03 L 302.73 258.03 L 302.73 249.99 C 302.73 242.08 309.56 235 317.8 235 C 326.73 235 333.27 242 333.27 250.01 L 333.27 258.03 L 334.09 258.03 C 335.6 258.03 337 259.33 337 261 L 337 284.07 C 337 285.68 335.62 287 334.07 287 Z" fill="#da4026" stroke="none" pointer-events="all"/></g><g><rect x="15" y="302" width="38" height="52" fill="none" stroke="none" pointer-events="all"/><path d="M 44.8 325.03 L 44.8 316.86 C 44.8 311.98 40.54 306.46 34.02 306.46 C 27.46 306.46 23.2 311.95 23.2 317.14 L 23.2 325.03 Z M 17.93 354 C 16.37 354 15 352.65 15 351.1 L 15 327.92 C 15 326.4 16.37 325.03 17.87 325.03 L 18.73 325.03 L 18.73 316.99 C 18.73 309.08 25.56 302 33.8 302 C 42.73 302 49.27 309 49.27 317.01 L 49.27 325.03 L 50.09 325.03 C 51.6 325.03 53 326.33 53 328 L 53 351.07 C 53 352.68 51.62 354 50.07 354 Z" fill="#7fba42" stroke="none" pointer-events="all"/></g><g><rect x="91.5" y="299" width="38" height="52" fill="none" stroke="none" pointer-events="all"/><path d="M 121.3 322.03 L 121.3 313.86 C 121.3 308.98 117.04 303.46 110.52 303.46 C 103.96 303.46 99.7 308.95 99.7 314.14 L 99.7 322.03 Z M 94.43 351 C 92.87 351 91.5 349.65 91.5 348.1 L 91.5 324.92 C 91.5 323.4 92.87 322.03 94.37 322.03 L 95.23 322.03 L 95.23 313.99 C 95.23 306.08 102.06 299 110.3 299 C 119.23 299 125.77 306 125.77 314.01 L 125.77 322.03 L 126.59 322.03 C 128.1 322.03 129.5 323.33 129.5 325 L 129.5 348.07 C 129.5 349.68 128.12 351 126.57 351 Z" fill="#cccbcb" stroke="none" pointer-events="all"/></g><g><rect x="168.5" y="314" width="28" height="37" fill="none" stroke="none" pointer-events="all"/><path d="M 190.46 330.39 L 190.46 324.57 C 190.46 321.1 187.32 317.17 182.52 317.17 C 177.68 317.17 174.54 321.08 174.54 324.77 L 174.54 330.39 Z M 170.66 351 C 169.51 351 168.5 350.04 168.5 348.93 L 168.5 332.44 C 168.5 331.36 169.51 330.39 170.62 330.39 L 171.25 330.39 L 171.25 324.67 C 171.25 319.04 176.28 314 182.35 314 C 188.93 314 193.75 318.98 193.75 324.68 L 193.75 330.39 L 194.36 330.39 C 195.47 330.39 196.5 331.31 196.5 332.5 L 196.5 348.91 C 196.5 350.06 195.48 351 194.34 351 Z" fill="#505050" stroke="none" pointer-events="all"/></g><g><rect x="231.5" y="299" width="38" height="55" fill="none" stroke="none" pointer-events="all"/><path d="M 261.3 324.63 L 261.3 314.15 C 261.3 309.2 257.06 303.5 250.54 303.5 C 243.99 303.5 239.7 309 239.7 314.26 L 239.7 317.07 L 235.23 317.08 L 235.23 314.29 C 235.23 305.27 242.82 299 250.3 299 C 259.23 299 265.77 306.19 265.77 314.42 L 265.77 324.63 L 266.59 324.63 C 268.1 324.63 269.5 325.94 269.5 327.63 L 269.5 351.03 C 269.5 352.66 268.12 354 266.57 354 L 234.43 354 C 232.87 354 231.5 352.63 231.5 351.05 L 231.5 327.55 C 231.5 326 232.82 324.63 234.5 324.63 Z" fill="#505050" stroke="none" pointer-events="all"/></g><g><rect x="299" y="299" width="38" height="55" fill="none" stroke="none" pointer-events="all"/><path d="M 328.8 324.63 L 328.8 314.15 C 328.8 309.2 324.56 303.5 318.04 303.5 C 311.49 303.5 307.2 309 307.2 314.26 L 307.2 317.07 L 302.73 317.08 L 302.73 314.29 C 302.73 305.27 310.32 299 317.8 299 C 326.73 299 333.27 306.19 333.27 314.42 L 333.27 324.63 L 334.09 324.63 C 335.6 324.63 337 325.94 337 327.63 L 337 351.03 C 337 352.66 335.62 354 334.07 354 L 301.93 354 C 300.37 354 299 352.63 299 351.05 L 299 327.55 C 299 326 300.32 324.63 302 324.63 Z" fill="#2072b8" stroke="none" pointer-events="all"/></g><g><rect x="17" y="368.5" width="47" height="58" fill="none" stroke="none" pointer-events="all"/><path d="M 54.24 411.02 C 52.35 410.37 49.68 408.09 49.62 404.45 C 49.62 400.41 52.82 397.19 56.8 397.19 C 60.85 397.19 64 400.51 64 404.33 C 64 407.35 62.17 409.82 59.46 410.94 L 59.46 413.79 L 57.64 415.98 L 60.22 418.54 L 60.22 418.69 L 57.94 421.1 L 60.14 423.35 L 57.04 426.5 L 54.24 423.49 Z M 56.81 403.96 C 58.02 403.96 58.7 402.97 58.7 402.13 C 58.7 400.86 57.74 400.2 56.81 400.2 C 55.68 400.2 54.91 401.1 54.91 402.06 C 54.91 403.2 55.81 403.96 56.81 403.96 Z" fill="#2072b8" stroke="none" pointer-events="all"/><rect x="17" y="368.5" width="0" height="0" fill="none" stroke="none" pointer-events="all"/><path d="M 19.91 421.09 C 18.54 421.09 17 419.84 17 418.11 L 17 394.74 C 17 393.08 18.5 391.94 19.93 391.94 L 20.78 391.94 L 20.78 383.56 C 20.78 376.45 26.73 368.5 36.63 368.5 C 44.83 368.5 51.81 375.7 51.81 383.55 L 51.81 391.94 L 52.64 391.94 C 54.24 391.94 55.59 393.21 55.59 394.71 L 55.59 394.92 C 50.87 395.48 47.48 399.32 47.21 403.75 C 47.05 407.3 48.73 410.51 51.82 412.3 L 51.82 421.09 Z M 47.27 391.94 L 47.27 383.64 C 47.27 378.85 43.19 373 36.41 373 C 29.85 373 25.32 378.32 25.32 383.63 L 25.32 391.94 Z" fill="#505050" stroke="none" pointer-events="all"/></g><g><rect x="91.5" y="368.5" width="47" height="58" fill="none" stroke="none" pointer-events="all"/><path d="M 128.74 411.02 C 126.85 410.37 124.18 408.09 124.12 404.45 C 124.12 400.41 127.32 397.19 131.3 397.19 C 135.35 397.19 138.5 400.51 138.5 404.33 C 138.5 407.35 136.67 409.82 133.96 410.94 L 133.96 413.79 L 132.14 415.98 L 134.72 418.54 L 134.72 418.69 L 132.44 421.1 L 134.64 423.35 L 131.54 426.5 L 128.74 423.49 Z M 131.31 403.96 C 132.52 403.96 133.2 402.97 133.2 402.13 C 133.2 400.86 132.24 400.2 131.31 400.2 C 130.18 400.2 129.41 401.1 129.41 402.06 C 129.41 403.2 130.31 403.96 131.31 403.96 Z" fill="#da4026" stroke="none" pointer-events="all"/><rect x="91.5" y="368.5" width="0" height="0" fill="none" stroke="none" pointer-events="all"/><path d="M 94.41 421.09 C 93.04 421.09 91.5 419.84 91.5 418.11 L 91.5 394.74 C 91.5 393.08 93 391.94 94.43 391.94 L 95.28 391.94 L 95.28 383.56 C 95.28 376.45 101.23 368.5 111.13 368.5 C 119.33 368.5 126.31 375.7 126.31 383.55 L 126.31 391.94 L 127.14 391.94 C 128.74 391.94 130.09 393.21 130.09 394.71 L 130.09 394.92 C 125.37 395.48 121.98 399.32 121.71 403.75 C 121.55 407.3 123.23 410.51 126.32 412.3 L 126.32 421.09 Z M 121.77 391.94 L 121.77 383.64 C 121.77 378.85 117.69 373 110.91 373 C 104.35 373 99.82 378.32 99.82 383.63 L 99.82 391.94 Z" fill="#505050" stroke="none" pointer-events="all"/></g><g><rect x="164" y="368.5" width="47" height="58" fill="none" stroke="none" pointer-events="all"/><path d="M 201.24 411.02 C 199.35 410.37 196.68 408.09 196.62 404.45 C 196.62 400.41 199.82 397.19 203.8 397.19 C 207.85 397.19 211 400.51 211 404.33 C 211 407.35 209.17 409.82 206.46 410.94 L 206.46 413.79 L 204.64 415.98 L 207.22 418.54 L 207.22 418.69 L 204.94 421.1 L 207.14 423.35 L 204.04 426.5 L 201.24 423.49 Z M 203.81 403.96 C 205.02 403.96 205.7 402.97 205.7 402.13 C 205.7 400.86 204.74 400.2 203.81 400.2 C 202.68 400.2 201.91 401.1 201.91 402.06 C 201.91 403.2 202.81 403.96 203.81 403.96 Z" fill="#7fba42" stroke="none" pointer-events="all"/><rect x="164" y="368.5" width="0" height="0" fill="none" stroke="none" pointer-events="all"/><path d="M 166.91 421.09 C 165.54 421.09 164 419.84 164 418.11 L 164 394.74 C 164 393.08 165.5 391.94 166.93 391.94 L 167.78 391.94 L 167.78 383.56 C 167.78 376.45 173.73 368.5 183.63 368.5 C 191.83 368.5 198.81 375.7 198.81 383.55 L 198.81 391.94 L 199.64 391.94 C 201.24 391.94 202.59 393.21 202.59 394.71 L 202.59 394.92 C 197.87 395.48 194.48 399.32 194.21 403.75 C 194.05 407.3 195.73 410.51 198.82 412.3 L 198.82 421.09 Z M 194.27 391.94 L 194.27 383.64 C 194.27 378.85 190.19 373 183.41 373 C 176.85 373 172.32 378.32 172.32 383.63 L 172.32 391.94 Z" fill="#505050" stroke="none" pointer-events="all"/></g><g><rect x="231.5" y="368.5" width="47" height="58" fill="none" stroke="none" pointer-events="all"/><path d="M 268.74 411.02 C 266.85 410.37 264.18 408.09 264.12 404.45 C 264.12 400.41 267.32 397.19 271.3 397.19 C 275.35 397.19 278.5 400.51 278.5 404.33 C 278.5 407.35 276.67 409.82 273.96 410.94 L 273.96 413.79 L 272.14 415.98 L 274.72 418.54 L 274.72 418.69 L 272.44 421.1 L 274.64 423.35 L 271.54 426.5 L 268.74 423.49 Z M 271.31 403.96 C 272.52 403.96 273.2 402.97 273.2 402.13 C 273.2 400.86 272.24 400.2 271.31 400.2 C 270.18 400.2 269.41 401.1 269.41 402.06 C 269.41 403.2 270.31 403.96 271.31 403.96 Z" fill="#cccbcb" stroke="none" pointer-events="all"/><rect x="231.5" y="368.5" width="0" height="0" fill="none" stroke="none" pointer-events="all"/><path d="M 234.41 421.09 C 233.04 421.09 231.5 419.84 231.5 418.11 L 231.5 394.74 C 231.5 393.08 233 391.94 234.43 391.94 L 235.28 391.94 L 235.28 383.56 C 235.28 376.45 241.23 368.5 251.13 368.5 C 259.33 368.5 266.31 375.7 266.31 383.55 L 266.31 391.94 L 267.14 391.94 C 268.74 391.94 270.09 393.21 270.09 394.71 L 270.09 394.92 C 265.37 395.48 261.98 399.32 261.71 403.75 C 261.55 407.3 263.23 410.51 266.32 412.3 L 266.32 421.09 Z M 261.77 391.94 L 261.77 383.64 C 261.77 378.85 257.69 373 250.91 373 C 244.35 373 239.82 378.32 239.82 383.63 L 239.82 391.94 Z" fill="#505050" stroke="none" pointer-events="all"/></g><g><rect x="299" y="375" width="45" height="45" fill="none" stroke="none" pointer-events="all"/><path d="M 321.42 390.17 C 320.12 390.17 318.99 389.15 318.99 387.78 C 318.99 386.48 320.08 385.36 321.38 385.36 C 322.73 385.36 323.79 386.46 323.79 387.75 C 323.79 389.19 322.67 390.17 321.42 390.17 Z M 321.47 414.06 L 324.78 410.6 L 322.44 408.13 L 324.93 405.5 L 324.93 405.34 L 322.22 402.5 L 324.41 400.16 L 324.4 397.01 C 327.47 395.38 329.05 392.5 329.05 390.09 C 329.05 385.6 325.84 381.98 321.35 381.98 C 317.59 381.98 313.88 385.21 313.88 389.91 C 313.88 393.05 316.05 395.8 318.53 397.02 L 318.53 410.75 Z M 301.84 419.99 C 300.35 419.99 299 418.69 299 417.13 L 299 377.87 C 299 376.19 300.49 375 301.82 375 L 341.04 375 C 342.89 375 344 376.5 344 377.92 L 344 417.1 C 344 418.63 342.72 420 341.11 420 Z" fill="#505050" stroke="none" pointer-events="all"/></g><g><rect x="11" y="442" width="53" height="49" fill="none" stroke="none" pointer-events="all"/><path d="M 56.36 453.61 L 56.36 448.09 C 56.36 445.98 58.19 444.26 60.14 444.26 L 62.58 444.26 C 64 446.91 63.35 449.36 62.32 450.88 C 60.77 453.08 58.61 453.75 56.36 453.61 Z M 54.19 484.29 C 54.19 487.77 51.26 491 48.2 491 C 45.86 491 42.61 488.89 42.51 484.96 C 42.51 482.47 43.98 480.59 45.79 479.61 C 46.11 479.44 46.48 478.66 46.1 477.76 C 45.71 476.92 45.01 476.6 44.41 476.6 L 18.94 476.6 L 18.94 448.55 C 18.94 445.07 22.03 442 25.52 442 L 58.28 442 C 58.69 442.01 59.04 442.05 59.35 442.13 C 56.32 442.5 54.19 445.14 54.19 447.79 Z M 16.87 490.92 C 13.73 490.92 11 488.22 11 484.88 C 11 481.43 13.88 478.85 16.96 478.85 L 42.81 478.85 C 41.19 480.58 40.27 482.38 40.27 485.02 C 40.32 487.47 41.3 489.47 42.81 490.92 Z" fill="#505050" stroke="none" pointer-events="all"/></g><g><rect x="90.5" y="446" width="39" height="36" fill="none" stroke="none" pointer-events="all"/><path d="M 123.88 454.53 L 123.88 450.48 C 123.88 448.92 125.23 447.66 126.66 447.66 L 128.46 447.66 C 129.5 449.6 129.02 451.41 128.27 452.52 C 127.12 454.14 125.53 454.63 123.88 454.53 Z M 122.28 477.07 C 122.28 479.63 120.13 482 117.87 482 C 116.15 482 113.76 480.45 113.69 477.56 C 113.69 475.73 114.77 474.35 116.1 473.63 C 116.34 473.51 116.61 472.93 116.33 472.27 C 116.04 471.65 115.52 471.42 115.08 471.42 L 96.34 471.42 L 96.34 450.81 C 96.34 448.25 98.62 446 101.19 446 L 125.29 446 C 125.59 446.01 125.85 446.04 126.08 446.1 C 123.85 446.37 122.28 448.3 122.28 450.25 Z M 94.82 481.94 C 92.51 481.94 90.5 479.95 90.5 477.5 C 90.5 474.97 92.62 473.07 94.88 473.07 L 113.91 473.07 C 112.72 474.34 112.04 475.66 112.04 477.61 C 112.08 479.41 112.8 480.88 113.91 481.94 Z" fill="#505050" stroke="none" pointer-events="all"/></g><g><rect x="156" y="440" width="59" height="51" fill="none" stroke="none" pointer-events="all"/><path d="M 194.59 461.52 C 191.97 461.52 189.47 459.35 189.47 456.37 C 189.47 453.17 192.11 451.17 194.57 451.17 C 197.23 451.17 199.76 453.23 199.76 456.4 C 199.76 459.2 197.46 461.52 194.59 461.52 Z M 171.13 461.52 C 168.02 461.52 165.95 458.9 165.95 456.43 C 165.95 453.26 168.48 451.18 171.07 451.18 C 174.15 451.18 176.24 453.74 176.24 456.27 C 176.24 459.45 173.73 461.52 171.13 461.52 Z M 158.68 473.67 C 157.34 473.67 156.03 472.57 156.03 470.99 L 156.03 442.66 C 156 441.29 157.2 440 158.65 440 L 207.13 440 C 208.36 440 209.7 440.95 209.7 442.63 L 209.7 460.87 C 207.64 459.72 205.47 459.28 203.14 459.58 C 203.55 458.54 203.8 457.18 203.72 455.78 C 203.72 452.04 200.25 447.19 194.49 447.19 C 189.77 447.19 185.27 451.32 185.54 456.8 C 185.61 458.05 185.91 459.19 186.44 460.3 C 186.84 461.06 186.4 462.18 185.39 462.19 L 180.37 462.19 C 179.38 462.19 178.88 461.24 179.25 460.38 C 179.85 459.16 180.17 457.86 180.19 456.53 C 180.19 450.84 175.88 447.19 171.01 447.19 C 165.24 447.19 161.81 452.25 161.98 456.52 C 161.98 461.84 166.85 465.5 171.25 465.5 L 194.5 465.5 C 194.75 465.5 194.94 465.48 195.13 465.46 C 194.44 466.87 194.1 468.43 194.1 469.99 L 194.1 472.54 C 193.57 472.79 193.05 473.15 192.66 473.67 Z M 209.77 474.5 L 209.77 469.9 C 209.77 467.04 207.33 464.75 204.66 464.75 C 201.33 464.75 199.32 467.36 199.32 469.86 L 199.32 474.5 Z M 195.52 491 C 194.82 491 194.1 490.31 194.1 489.56 L 194.1 475.99 C 194.1 475.05 194.94 474.5 195.5 474.5 L 196.34 474.5 L 196.34 469.82 C 196.34 465.49 200.08 461.74 204.38 461.74 C 209.6 461.74 212.75 465.88 212.75 469.82 L 212.75 474.5 L 213.52 474.5 C 214.25 474.5 215 475.09 215 476.02 L 215 489.48 C 215 490.49 214.14 491 213.56 491 Z" fill="#505050" stroke="none" pointer-events="all"/></g><g><rect x="222.5" y="438" width="54" height="55" fill="none" stroke="none" pointer-events="all"/><path d="M 261.84 475.48 L 258.83 473.77 L 260.17 471.66 C 260.56 471.11 261.23 470.85 261.63 470.85 L 265.99 470.84 C 266.36 470.89 266.98 471.12 267.37 471.69 L 268.12 472.95 L 269.25 472.28 L 267.75 475.63 L 264.05 475.33 L 265.09 474.66 L 263.94 472.75 C 263.86 472.64 263.65 472.64 263.59 472.73 Z M 265.93 484.76 L 263.66 481.99 L 265.93 479.31 L 265.93 480.54 L 268.13 480.54 C 268.26 480.54 268.43 480.35 268.34 480.2 L 266.69 477.44 L 269.71 475.72 L 270.97 477.83 C 271.3 478.46 271.23 479.04 271.06 479.38 L 269.12 482.72 C 268.81 483.19 268.16 483.53 267.7 483.53 L 265.92 483.53 Z M 257.3 476.61 L 256.2 475.94 L 259.81 475.48 L 261.38 478.85 L 260.34 478.25 L 259.31 480.07 C 259.15 480.34 259.24 480.54 259.46 480.54 L 263.2 480.54 L 263.2 483.53 L 259.92 483.53 C 259.51 483.53 258.71 483.24 258.45 482.74 L 256.6 479.5 C 256.34 479.01 256.36 478.41 256.65 477.85 Z M 252.55 463.21 C 254.24 465.3 260.09 465.64 264.5 465.6 C 268.77 465.56 273.39 464.98 274.92 463.29 C 273.56 461.59 268.33 461.12 264.18 461.12 C 259.25 461.08 254.21 461.55 252.55 463.21 Z M 255.2 486.78 C 258.06 489.21 268.16 489.8 272.27 486.78 L 274.84 465.23 C 273.17 466.1 271.3 466.45 269.47 466.71 C 265.43 467.3 259.27 467.05 256.06 466.38 C 254.97 466.13 253.66 465.79 252.63 465.24 Z M 253.92 489.18 L 250.86 463.06 C 251.45 461.25 254.52 460.51 256.54 460.18 C 261.79 459.41 269.33 459.57 273.07 460.68 C 274.24 461.01 276.26 461.79 276.5 463.21 L 276.5 463.51 L 273.48 489.17 C 270.5 492.35 258.23 493 253.92 489.18 Z M 268.27 449.52 L 268.27 443.99 C 268.43 441.57 270.36 440.27 272.05 440.24 L 274.55 440.24 C 275.99 442.73 275.3 445.37 274.27 446.83 C 272.97 448.79 270.76 449.67 268.27 449.52 Z M 230.51 472.35 L 230.51 444.6 C 230.51 441.16 233.42 438 237.29 438 L 270.25 438 C 270.64 438.01 270.98 438.05 271.28 438.14 C 268.13 438.51 266.08 441.26 266.08 443.76 L 266.08 457.41 C 261.19 457.23 255.79 457.52 252.45 458.89 C 250.31 459.75 248.4 461.44 248.63 463.57 L 249.68 472.35 Z M 228.16 486.56 C 226.51 486.56 222.5 485 222.5 480.35 C 222.5 477.13 225.56 474.59 228.28 474.59 L 249.94 474.59 L 251.37 486.56 Z" fill="#505050" stroke="none" pointer-events="all"/></g><g><rect x="293.5" y="435" width="56" height="58" fill="none" stroke="none" pointer-events="all"/><path d="M 338.97 446.59 L 338.97 441.08 C 338.97 439.06 340.7 437.26 342.83 437.26 L 345.22 437.26 C 346.61 439.67 345.99 442.32 345.11 443.63 C 344.02 445.39 341.94 446.79 338.98 446.59 Z M 301.47 469.53 L 301.47 441.59 C 301.47 438.08 304.56 435 308.02 435 L 340.7 435 C 341.25 435.02 341.62 435.11 341.96 435.21 C 338.96 435.58 336.86 438.14 336.86 440.87 L 336.86 461.52 C 332.6 461.09 329.46 462.03 326.65 463.54 C 323.9 465.06 321.7 467.31 320.41 469.53 Z M 334.04 479.33 C 333.86 479.18 333.72 478.95 333.72 478.69 L 333.72 468.16 C 333.72 467.67 334.08 467.42 334.46 467.42 C 335 467.42 335.22 467.83 335.22 468.12 L 335.22 478.32 L 341.7 483.39 C 342 483.66 342.07 484.13 341.77 484.49 C 341.52 484.76 341.11 484.8 340.83 484.62 Z M 334.98 490.6 C 341.27 490.6 347.16 485.3 347.16 478.41 C 347.16 472.02 342.37 466.05 334.5 466.05 C 329.15 466.05 322.65 470.86 322.65 478.25 C 322.65 485.9 328.82 490.6 334.98 490.6 Z M 335.01 493 C 327.11 493 320.18 486.99 320.18 478.17 C 320.18 470.21 326.86 463.66 334.86 463.66 C 343.02 463.66 349.5 470.15 349.5 478.26 C 349.5 486.51 342.81 493 335.01 493 Z M 299.39 483.82 C 296.09 483.82 293.5 480.87 293.5 477.95 C 293.5 473.53 297.33 471.79 299.17 471.79 L 319.24 471.79 C 317.57 475.76 317.54 480.07 318.84 483.82 Z" fill="#505050" stroke="none" pointer-events="all"/></g><g><rect x="9" y="515" width="55" height="54" fill="none" stroke="none" pointer-events="all"/><path d="M 54.29 526.57 L 54.29 521.11 C 54.29 518.85 56.22 517.26 58.06 517.26 L 60.5 517.26 C 61.88 519.7 61.3 522.16 60.32 523.71 C 58.78 526.07 56.46 526.71 54.29 526.57 Z M 16.92 549.48 L 16.92 521.58 C 16.92 517.84 20.22 515 23.45 515 L 55.93 515 C 56.61 515 56.97 515.05 57.27 515.15 C 54.82 515.4 52.11 517.59 52.11 520.79 L 52.11 541.23 L 40.74 541.23 C 38.27 541.23 36.35 543.45 36.35 545.62 L 36.35 549.48 Z M 50.91 551.81 C 50.3 551.81 49.34 551.32 49.34 550.19 C 49.34 549.58 49.92 548.66 50.87 548.66 C 51.87 548.66 52.5 549.42 52.5 550.28 C 52.5 551 51.98 551.78 50.91 551.81 Z M 50.93 567.28 L 53.09 565.03 L 51.61 563.45 L 53.17 561.8 L 53.17 561.72 L 51.45 559.85 L 52.87 558.35 L 52.87 556.24 C 54.18 555.66 55.86 553.84 55.86 551.78 C 55.86 548.39 53.26 546.48 51 546.48 C 48.2 546.48 46 548.74 46 551.72 C 46 553.57 47.33 555.44 48.98 556.24 L 48.98 565.18 Z M 40.75 569 C 39.72 569 38.59 568.15 38.59 566.79 L 38.59 545.75 C 38.59 544.51 39.52 543.48 40.78 543.48 L 61.82 543.48 C 63.04 543.48 64 544.5 64 545.69 L 64 566.81 C 64 568.09 62.9 569 61.86 569 Z M 14.76 563.75 C 12.41 563.75 9 561.66 9 557.69 C 9 554.22 11.97 551.73 14.88 551.73 L 36.35 551.73 L 36.35 563.75 Z" fill="#505050" stroke="none" pointer-events="all"/></g><g><rect x="81" y="505" width="59" height="56" fill="none" stroke="none" pointer-events="all"/><path d="M 122.14 522.53 C 117.77 522.53 114.02 518.98 114.02 513.39 C 114.02 508.84 117.8 505 121.86 505 C 126.96 505 129.89 509.67 129.89 513.63 C 129.89 519.23 125.86 522.53 122.14 522.53 Z M 113.53 534.76 C 113.04 533.46 111.91 532.18 110.63 531.37 C 109.6 530.74 108.43 530.09 107.18 529.43 C 107.39 528.72 107.58 528.01 107.98 527.31 C 108.57 526.27 109.26 525.74 110.06 525.24 L 112.68 523.76 C 113.23 523.47 114.27 522.87 115.08 523.45 C 118.63 526.68 124.57 527.29 128.82 523.45 C 129.13 523.25 129.5 523.18 129.88 523.24 C 130.8 523.36 134.38 525.45 134.9 526.01 C 135.78 526.78 136.23 527.73 136.52 528.63 C 137.02 530.1 137.22 531.75 137.46 533.37 L 116.63 533.37 C 116 533.37 114.61 533.64 113.53 534.76 Z M 97.14 530.45 C 93.46 530.45 89.31 527.04 89.31 521.72 C 89.31 516.73 92.94 512.83 97.22 512.83 C 101.63 512.83 105.18 516.78 105.18 521.74 C 105.18 525.67 102.36 530.45 97.14 530.45 Z M 81 548.22 L 81.69 542.06 C 82.26 537.82 82.57 534.68 85.54 533.06 C 85.78 532.92 87.57 531.84 88.68 531.34 C 89.12 531.13 89.83 531 90.35 531.35 C 94.56 535.11 100.35 534.7 104.1 531.39 C 104.52 531.08 105.09 531.08 105.48 531.22 C 106.42 531.55 109.16 533.16 109.56 533.44 C 111.58 534.71 111.99 537.08 112.3 538.39 L 112.3 548.22 Z M 116.71 561 C 115.67 561 114.54 560.14 114.54 558.79 L 114.54 537.87 C 114.54 536.64 115.46 535.62 116.74 535.62 L 137.81 535.62 C 139.04 535.62 140 536.63 140 537.81 L 140 558.81 C 140 560.09 138.9 561 137.85 561 Z M 126.9 559.28 L 129.07 557.05 L 127.58 555.47 L 129.15 553.84 L 129.15 553.76 L 127.42 551.89 L 128.85 550.41 L 128.85 548.3 C 130.16 547.73 131.83 545.91 131.83 543.87 C 131.83 540.5 129.24 538.6 126.97 538.6 C 124.17 538.6 121.96 540.86 121.96 543.81 C 121.96 545.65 123.3 547.51 124.95 548.3 L 124.95 557.2 Z M 126.88 543.9 C 126.27 543.9 125.31 543.42 125.31 542.29 C 125.31 541.68 125.88 540.77 126.84 540.77 C 127.85 540.77 128.47 541.52 128.47 542.38 C 128.47 543.1 127.96 543.87 126.88 543.9 Z" fill="#505050" stroke="none" pointer-events="all"/></g><g><rect x="160" y="508.5" width="55" height="46" fill="none" stroke="none" pointer-events="all"/><path d="M 209.73 537.91 L 209.73 533.28 C 209.73 530.52 207.55 528.11 204.35 528.11 C 201.63 528.11 199.18 530.35 199.18 533.35 L 199.18 537.91 Z M 195.35 554.5 C 194.65 554.5 193.9 553.87 193.9 553 L 193.9 539.36 C 193.9 538.61 194.58 537.91 195.37 537.91 L 196.16 537.91 L 196.16 533.19 C 196.16 529.36 199.38 525.09 204.44 525.09 C 209.32 525.09 212.74 529.15 212.74 533.2 L 212.74 537.91 L 213.5 537.91 C 214.33 537.91 215 538.59 215 539.43 L 215 553 C 215 553.83 214.29 554.5 213.55 554.5 Z M 196.16 520.57 L 196.16 513.78 L 202.19 513.78 L 202.19 520.57 Z M 169.04 529.61 L 169.04 527.35 L 190.14 527.35 L 190.14 529.61 Z M 169.04 535.65 L 169.04 533.39 L 193.9 533.39 L 193.9 535.65 Z M 160 545.45 L 160 508.5 L 207.47 508.5 L 207.47 523.27 C 206.71 523.05 205.96 522.9 205.21 522.86 L 205.21 510.76 L 162.26 510.76 L 162.26 543.19 L 191.64 543.19 L 191.64 545.45 Z" fill="#505050" stroke="none" pointer-events="all"/></g><g><rect x="230" y="503" width="64" height="55" fill="none" stroke="none" pointer-events="all"/><path d="M 260.06 528.54 L 260.06 520.38 C 260.06 514.46 254.95 509.66 249.22 509.66 C 243.55 509.66 238.27 514.16 238.27 520.62 L 238.27 528.54 Z M 232.96 558 C 231.38 558 230 556.61 230 555.07 L 230 531.54 C 230 529.78 231.48 528.54 232.92 528.54 L 233.76 528.54 L 233.76 520.38 C 233.76 513.04 239.74 505.13 249.34 505.13 C 257.76 505.13 264.56 512.43 264.56 520.25 L 264.56 528.54 L 265.39 528.54 C 266.7 528.54 268.32 529.66 268.32 531.53 L 268.32 555.04 C 268.32 556.62 266.96 558 265.39 558 Z" fill="#505050" stroke="none" pointer-events="all"/><path d="M 268.99 524.82 L 268.99 505.08 L 283.29 503 L 283.29 527.03 Z M 273.5 518.74 C 274.26 519.23 275.15 519.46 276.05 519.4 C 276.95 519.39 277.8 518.97 278.36 518.26 C 278.93 517.31 278.93 516.12 278.36 515.17 C 277.81 514.49 277.13 513.94 276.35 513.55 C 276.03 513.39 275.75 513.17 275.52 512.9 C 275.17 512.42 275.22 511.76 275.64 511.35 C 276.11 511.09 276.68 511.07 277.18 511.29 L 278.36 511.76 L 278.36 509.74 C 277.74 509.63 277.1 509.59 276.47 509.62 C 275.75 509.67 275.05 509.92 274.45 510.33 C 274.05 510.72 273.76 511.22 273.62 511.76 C 273.43 512.41 273.47 513.11 273.73 513.74 C 274.02 514.28 274.43 514.74 274.92 515.11 L 276.41 516 C 276.74 516.33 276.85 516.81 276.7 517.25 C 276.42 517.65 275.93 517.84 275.46 517.72 C 274.74 517.6 274.06 517.29 273.5 516.83 Z M 284.17 519.4 C 285.13 518.9 286.31 519.12 287.03 519.93 C 288.39 519.37 289.46 518.27 289.99 516.89 C 289.49 516.43 289.21 515.77 289.22 515.09 C 289.23 514.41 289.53 513.76 290.04 513.31 C 289.5 511.95 288.43 510.88 287.08 510.33 C 286.32 511.13 285.12 511.3 284.17 510.75 L 284.17 506.58 C 284.97 506.21 285.91 506.32 286.6 506.85 C 287.3 507.39 287.64 508.27 287.5 509.14 C 289.1 509.8 290.38 511.06 291.05 512.66 C 292 512.51 292.95 512.93 293.48 513.74 C 294 514.55 294 515.6 293.48 516.41 C 292.95 517.22 292 517.64 291.05 517.49 C 290.42 519.09 289.19 520.38 287.62 521.07 C 287.76 521.96 287.39 522.86 286.66 523.39 C 285.93 523.92 284.97 523.99 284.17 523.57 Z" fill="#2372ba" stroke="none" pointer-events="all"/></g><g><rect x="291" y="505" width="56" height="53" fill="none" stroke="none" pointer-events="all"/><path d="M 296.96 553.51 C 293.64 553.51 291 550.79 291 547.48 C 291 543.96 294.12 541.55 296.76 541.55 L 317.19 541.55 C 316.84 543.68 316.9 545.72 317.36 547.69 C 317.82 549.95 318.88 551.98 319.96 553.51 Z M 325.08 546.95 C 326.69 551.54 330.79 552.86 332.89 552.92 C 332.65 552.38 332.44 551.7 332.44 550.9 C 330.5 550.63 327.96 549.36 326.88 546.35 C 327.34 545.92 327.85 545.31 327.89 544.31 C 327.89 542.66 326.67 541.51 325.2 541.51 C 323.62 541.51 322.49 542.82 322.49 544.12 C 322.48 545.78 323.68 546.79 325.08 546.95 Z M 339.19 550.6 C 340.77 549.21 341.82 547.41 342.08 545.03 C 342.35 542.46 341.38 540.31 340.32 538.94 C 340.04 539.58 339.64 540.13 339.12 540.59 C 340.89 543.38 340.31 546.58 338.29 548.89 C 337.78 548.46 337.19 548.25 336.51 548.25 C 335.21 548.25 333.83 549.34 333.83 550.87 C 333.83 552.56 335.16 553.63 336.47 553.63 C 338.26 553.63 339.46 552.08 339.19 550.6 Z M 333.72 537.46 C 333.83 538.61 334.81 540.1 336.52 540.1 C 338.08 540.1 339.23 538.84 339.23 537.48 C 339.23 535.83 337.99 534.71 336.5 534.71 C 335.84 534.71 335.12 534.98 334.54 535.57 C 329.53 534.96 326.63 538.2 325.61 540.14 C 326.31 540.2 326.89 540.47 327.41 540.81 C 328.81 538.53 331.14 537.31 333.72 537.46 Z M 298.97 539.32 L 298.97 511.59 C 298.98 508.41 301.57 505.05 305.66 505 L 338.43 505 C 338.79 505.02 339.15 505.03 339.49 505.14 C 336.32 505.47 334.31 508.32 334.31 510.75 L 334.31 528.14 C 325.39 527.6 319.61 533.47 317.71 539.32 Z M 332.86 558 C 326.28 558 319.23 552.59 319.23 544.04 C 319.23 537.26 324.84 530.34 333.16 530.34 C 340.48 530.34 347 536.28 347 544.4 C 347 550.36 342.21 558 332.86 558 Z M 336.49 516.51 L 336.49 511.06 C 336.52 509.5 337.62 507.38 340.3 507.24 L 342.73 507.24 C 344.14 509.67 343.57 512.34 342.4 513.92 C 340.9 515.95 338.77 516.63 336.5 516.51 Z" fill="#505050" stroke="none" pointer-events="all"/></g><g><rect x="301" y="582" width="46" height="57" fill="none" stroke="none" pointer-events="all"/><path d="M 322.52 591 L 322.52 588.75 L 306.19 588.75 L 306.19 591 Z M 333.19 639 C 325.51 639 319.55 632.56 319.55 625.02 C 319.55 617.92 325.32 611.25 333.26 611.25 C 340.49 611.25 347 617.07 347 625.18 C 347 632.66 340.97 639 333.19 639 Z M 331.35 633 L 341.88 619.43 C 342.05 619.2 342.01 618.92 341.83 618.74 L 339.96 617.18 C 339.78 617.05 339.47 617 339.29 617.25 L 331.35 627.89 L 327.3 623.44 C 327.11 623.22 326.8 623.13 326.6 623.34 L 324.93 624.87 C 324.7 625.05 324.8 625.46 324.9 625.58 Z M 301 634.5 L 301 584.96 C 301 583.48 302.23 582 303.95 582 L 324.84 582 C 326.45 582 327.72 583.47 327.72 584.93 L 327.72 610 C 322.85 611.84 319.81 615.57 318.32 619.5 L 306.19 619.5 L 306.19 621.75 L 317.67 621.75 C 317.36 623.25 317.26 624.82 317.37 626.25 L 306.19 626.25 L 306.19 628.5 L 317.67 628.5 C 318.18 630.88 319.14 632.85 320.28 634.5 Z" fill="#505050" stroke="none" pointer-events="all"/></g><g><rect x="218.5" y="583" width="60" height="56" fill="none" stroke="none" pointer-events="all"/><path d="M 237.67 612.28 C 243.56 612.28 250.33 607.36 250.33 599.07 C 250.33 592.04 244.3 586.17 237.67 586.17 C 229.13 586.17 224.48 593.1 224.48 599.07 C 224.48 606.52 230.3 612.28 237.67 612.28 Z M 237.67 609.11 C 232.13 609.11 227.61 604.79 227.61 599.07 C 227.61 593.95 231.85 589.25 237.67 589.25 C 242.75 589.25 247.33 593.69 247.33 599.07 C 247.33 604.96 242.43 609.11 237.67 609.11 Z M 237.67 607 C 241.54 607 245.24 603.72 245.24 599.07 C 245.24 595.23 241.99 591.36 237.67 591.36 C 232.65 591.36 229.7 595.43 229.7 599.07 C 229.7 603.28 232.82 607 237.67 607 Z M 247.26 612.04 L 249.21 614.94 C 248.88 615.23 248.66 615.58 248.5 615.91 L 247.23 618.95 C 246.66 620.51 247.38 622.21 248.76 622.81 L 250.48 623.56 L 250.48 624.76 L 248.78 625.48 C 247.2 626.23 246.73 628 247.22 629.33 L 247.61 630.25 L 244.5 634.61 L 237.63 615.74 L 232.25 635.21 L 226.87 629.49 L 218.5 630.93 L 228.28 612.34 C 224.96 610.01 221.41 605.62 221.41 599.07 C 221.41 590.94 227.93 583 237.67 583 C 245.58 583 253.55 589.67 253.55 599.07 C 253.55 604.85 250.94 609.1 247.26 612.04 Z M 252.66 622.13 L 249.6 620.85 C 249.16 620.61 248.97 620.25 249.15 619.74 L 250.31 616.95 C 250.57 616.53 250.9 616.29 251.41 616.49 L 254.27 617.95 C 255.18 616.85 256.18 615.78 257.27 614.85 L 256.03 611.77 C 255.94 611.41 255.9 611.05 256.42 610.7 L 259.28 609.49 C 259.83 609.32 260.14 609.55 260.33 609.87 L 261.61 613.02 C 262.9 612.77 264.17 612.65 265.67 613.09 L 266.95 609.89 C 267.24 609.45 267.6 609.33 268.03 609.49 L 270.89 610.7 C 271.35 611.01 271.4 611.36 271.29 611.74 L 270.01 614.89 C 271.13 615.78 272.15 616.74 272.98 617.82 L 276.05 616.56 C 276.6 616.41 276.93 616.62 277.14 617.03 L 278.33 619.9 C 278.41 620.31 278.32 620.67 277.9 620.91 L 274.78 622.18 C 274.93 623.4 274.91 624.95 274.78 626.3 L 277.9 627.58 C 278.32 627.83 278.5 628.17 278.37 628.62 L 277.24 631.3 C 277.03 631.65 276.72 631.83 276.26 631.71 L 273.12 630.43 C 272.28 631.57 271.26 632.58 270.09 633.46 L 271.34 636.54 C 271.53 637.03 271.28 637.46 270.99 637.61 L 267.97 638.88 C 267.56 638.95 267.19 638.92 267.02 638.41 L 265.75 635.25 C 264.59 635.57 263.16 635.65 261.69 635.28 L 260.43 638.39 C 260.24 638.72 260 639 259.44 638.87 L 256.5 637.63 C 256.09 637.33 255.9 636.96 256.17 636.46 L 257.55 633.65 C 256.33 632.71 255.29 631.72 254.47 630.65 L 251.47 631.89 C 251 632.07 250.62 631.95 250.34 631.52 L 249.14 628.62 C 249.01 628.24 249.11 627.79 249.56 627.57 L 252.67 626.21 C 252.54 624.85 252.53 623.49 252.66 622.13 Z M 256.02 624.1 C 256.02 628.92 259.95 631.91 263.81 631.91 C 267.98 631.91 271.44 628.34 271.44 624.17 C 271.44 619.72 267.71 616.38 263.83 616.38 C 260.01 616.38 256.02 619.27 256.02 624.1 Z" fill="#505050" stroke="none" pointer-events="all"/></g><g><rect x="170" y="585" width="29" height="37" fill="none" stroke="none" pointer-events="all"/><path d="M 183.7 605.75 C 187.91 605.75 192.75 602.27 192.75 596.39 C 192.75 591.4 188.44 587.25 183.7 587.25 C 177.6 587.25 174.27 592.16 174.27 596.39 C 174.27 601.67 178.44 605.75 183.7 605.75 Z M 183.7 603.5 C 179.74 603.5 176.51 600.44 176.51 596.39 C 176.51 592.76 179.54 589.43 183.7 589.43 C 187.33 589.43 190.61 592.58 190.61 596.39 C 190.61 600.56 187.1 603.5 183.7 603.5 Z M 183.7 602.01 C 186.47 602.01 189.11 599.69 189.11 596.39 C 189.11 593.67 186.79 590.92 183.7 590.92 C 180.11 590.92 178 593.81 178 596.39 C 178 599.37 180.23 602.01 183.7 602.01 Z M 190.51 605.59 L 199 618 L 192.26 616.46 L 188.58 621.57 L 183.67 608.2 L 179.83 622 L 175.98 617.95 L 170 618.96 L 176.99 605.79 C 174.61 604.14 172.08 601.03 172.08 596.39 C 172.08 590.63 176.74 585 183.7 585 C 189.35 585 195.05 589.73 195.05 596.39 C 195.05 600.48 193.13 603.5 190.51 605.59 Z" fill="#505050" stroke="none" pointer-events="all"/></g><g><rect x="94.5" y="585" width="41" height="52" fill="none" stroke="none" pointer-events="all"/><path d="M 113.87 614.16 C 119.83 614.16 126.66 609.27 126.66 601 C 126.66 594 120.57 588.16 113.87 588.16 C 105.24 588.16 100.54 595.06 100.54 601 C 100.54 608.43 106.43 614.16 113.87 614.16 Z M 113.87 611 C 108.27 611 103.7 606.7 103.7 601 C 103.7 595.91 107.99 591.22 113.87 591.22 C 119 591.22 123.63 595.65 123.63 601 C 123.63 606.87 118.68 611 113.87 611 Z M 113.87 608.91 C 117.78 608.91 121.52 605.64 121.52 601 C 121.52 597.18 118.24 593.32 113.87 593.32 C 108.79 593.32 105.81 597.38 105.81 601 C 105.81 605.2 108.97 608.91 113.87 608.91 Z M 123.49 613.93 L 135.5 631.39 L 125.98 629.22 L 120.77 636.4 L 113.83 617.61 L 108.39 637 L 102.96 631.31 L 94.5 632.73 L 104.39 614.22 C 101.02 611.9 97.44 607.53 97.44 601 C 97.44 592.91 104.03 585 113.87 585 C 121.86 585 129.91 591.64 129.91 601 C 129.91 606.76 127.2 611 123.49 613.93 Z" fill="#505050" stroke="none" pointer-events="all"/></g><g><rect x="11" y="595" width="59" height="55" fill="none" stroke="none" pointer-events="all"/><path d="M 29.66 619.86 L 32.64 619.86 L 32.64 616.85 L 29.66 616.85 Z M 29.66 629.66 L 32.64 629.66 L 32.64 626.64 L 29.66 626.64 Z M 19.95 601.78 L 22.94 601.78 L 22.94 598.77 L 19.95 598.77 Z M 13.98 601.78 L 16.97 601.78 L 16.97 598.77 L 13.98 598.77 Z M 19.95 607.81 L 22.94 607.81 L 22.94 604.79 L 19.95 604.79 Z M 13.98 607.81 L 16.97 607.81 L 16.97 604.79 L 13.98 604.79 Z M 19.95 613.84 L 22.94 613.84 L 22.94 610.82 L 19.95 610.82 Z M 13.98 613.84 L 16.97 613.84 L 16.97 610.82 L 13.98 610.82 Z M 19.95 619.86 L 22.94 619.86 L 22.94 616.85 L 19.95 616.85 Z M 13.98 619.86 L 16.97 619.86 L 16.97 616.85 L 13.98 616.85 Z M 19.95 625.89 L 22.94 625.89 L 22.94 622.88 L 19.95 622.88 Z M 13.98 625.89 L 16.97 625.89 L 16.97 622.88 L 13.98 622.88 Z M 19.95 631.92 L 22.94 631.92 L 22.94 628.9 L 19.95 628.9 Z M 13.98 631.92 L 16.97 631.92 L 16.97 628.9 L 13.98 628.9 Z M 11 644.73 L 11 595 L 25.92 595 L 25.92 614.59 L 28.16 614.59 L 28.16 609.32 L 30.4 609.32 L 30.4 604.04 L 32.64 604.04 L 32.64 598.09 L 34.88 598.09 L 34.88 604.04 L 37.12 604.04 L 37.12 609.32 L 39.36 609.32 L 39.36 614.59 L 41.59 614.59 L 41.59 618.11 C 43.77 616.78 46.29 616.45 48.96 617.38 C 52.46 618.73 54.49 621.97 54.95 624.83 C 57.39 624.87 59.4 626.12 60.54 627.63 C 63.6 627.68 66.62 629.47 67.93 633.09 C 70 639.22 65.56 644.73 60.5 644.73 L 54.37 644.73 C 54.26 643.97 54.15 643.21 54 642.47 L 60.59 642.47 C 63.34 642.47 66.22 639.8 66.22 636.11 C 66.19 634.69 65.79 632.83 64.1 631.28 C 63.33 630.62 62.17 629.89 60.68 629.89 L 59.5 629.89 L 58.48 628.62 C 57.72 627.82 56.49 627.1 55.02 627.1 L 53.09 627.1 L 52.77 625.11 C 52.12 621.74 49.77 619.89 47.75 619.34 C 45.99 618.85 43.63 619.03 41.59 621.01 L 41.59 622.96 C 40.35 622.9 38.94 623.25 37.86 623.87 L 37.86 621.37 L 34.88 621.37 L 34.88 624.38 L 37.05 624.38 C 35.6 625.48 34.13 627.3 33.7 630.02 C 33.33 632.59 34.07 634.51 34.8 635.88 C 34.22 636.05 31.73 637.41 30.95 638.21 C 30.08 639.01 29.48 640.08 29.15 641.2 C 28.81 642.16 28.61 643.41 28.44 644.73 Z M 30.03 650 C 30.1 648.47 30.44 645.12 30.97 642.68 C 31.44 640.69 32.16 639.93 33.2 639.32 C 33.84 638.96 34.79 638.39 35.3 638.19 C 35.73 637.98 36.2 637.97 36.53 638.2 C 38.5 640.17 42.66 641.16 46.15 638.18 C 46.61 637.96 46.97 638.01 47.31 638.16 C 47.9 638.4 49.63 639.38 50.12 639.74 C 50.96 640.36 51.26 641.16 51.53 642.05 C 52.21 644.56 52.4 647.66 52.56 650 Z M 41.41 637.56 C 38.7 637.56 35.85 635.39 35.85 631.1 C 35.85 628.65 37.85 625.22 41.34 625.22 C 44.14 625.22 46.89 627.66 46.89 631.38 C 46.89 634.98 44.21 637.56 41.41 637.56 Z" fill="#505050" stroke="none" pointer-events="all"/></g><g><rect x="0" y="675" width="55" height="53" fill="none" stroke="none" pointer-events="all"/><path d="M 45.28 686.48 L 45.28 681.12 C 45.28 678.94 47.09 677.24 49.01 677.24 L 51.47 677.24 C 52.79 679.52 52.37 681.82 51.42 683.47 C 50.19 685.47 48.05 686.68 45.28 686.48 Z M 7.91 709.23 L 7.91 681.66 C 7.91 678.01 10.88 675 14.61 675 L 47.09 675 C 47.52 675 47.92 675.04 48.25 675.14 C 44.68 675.62 43.1 678.67 43.1 680.74 L 43.1 701.03 L 35.51 701.03 C 34.54 701.05 33.69 701.36 32.94 702 C 32.44 701.54 31.22 701.1 30 701.04 C 27.92 700.94 26.54 701.25 25.52 701.99 C 24.3 702.86 23.88 704.24 23.87 705.58 C 23.89 707.22 23.94 708.11 23.97 709.23 Z M 5.87 723.41 C 2.49 723.41 0 720.51 0 717.46 C 0 714.19 2.67 711.47 5.91 711.47 L 24.02 711.47 C 24.12 715.47 24.07 719.45 23.89 723.41 Z M 49.8 716.7 C 50.22 716.7 50.53 716.36 50.53 715.95 L 50.53 715.19 C 50.53 714.86 50.25 714.45 49.8 714.45 L 48.25 714.45 C 47.78 714.45 47.54 714.78 47.54 715.19 L 47.54 715.95 C 47.54 716.56 48 716.7 48.25 716.7 Z M 45.31 716.7 C 45.73 716.7 46.04 716.36 46.04 715.95 L 46.04 715.19 C 46.04 714.86 45.76 714.45 45.31 714.45 L 43.77 714.45 C 43.28 714.45 43.04 714.78 43.04 715.19 L 43.04 715.95 C 43.04 716.56 43.51 716.7 43.77 716.7 Z M 40.82 716.7 C 41.25 716.7 41.56 716.36 41.56 715.95 L 41.56 715.19 C 41.56 714.86 41.28 714.45 40.82 714.45 L 39.29 714.45 C 38.8 714.45 38.56 714.78 38.56 715.19 L 38.56 715.95 C 38.56 716.56 39.03 716.7 39.29 716.7 Z M 49.8 720.44 C 50.22 720.44 50.53 720.1 50.53 719.69 L 50.53 718.93 C 50.53 718.6 50.25 718.19 49.8 718.19 L 48.25 718.19 C 47.78 718.19 47.54 718.52 47.54 718.93 L 47.54 719.69 C 47.54 720.3 48 720.44 48.25 720.44 Z M 45.31 720.44 C 45.73 720.44 46.04 720.1 46.04 719.69 L 46.04 718.93 C 46.04 718.6 45.76 718.19 45.31 718.19 L 43.77 718.19 C 43.28 718.19 43.04 718.52 43.04 718.93 L 43.04 719.69 C 43.04 720.3 43.51 720.44 43.77 720.44 Z M 40.82 720.44 C 41.25 720.44 41.56 720.1 41.56 719.69 L 41.56 718.93 C 41.56 718.6 41.28 718.19 40.82 718.19 L 39.29 718.19 C 38.8 718.19 38.56 718.52 38.56 718.93 L 38.56 719.69 C 38.56 720.3 39.03 720.44 39.29 720.44 Z M 49.8 724.16 C 50.22 724.16 50.53 723.82 50.53 723.41 L 50.53 722.65 C 50.53 722.32 50.25 721.91 49.8 721.91 L 48.25 721.91 C 47.78 721.91 47.54 722.24 47.54 722.65 L 47.54 723.41 C 47.54 724.02 48 724.16 48.25 724.16 Z M 45.31 724.16 C 45.73 724.16 46.04 723.82 46.04 723.41 L 46.04 722.65 C 46.04 722.32 45.76 721.91 45.31 721.91 L 43.77 721.91 C 43.28 721.91 43.04 722.24 43.04 722.65 L 43.04 723.41 C 43.04 724.02 43.51 724.16 43.77 724.16 Z M 40.82 724.16 C 41.25 724.16 41.56 723.82 41.56 723.41 L 41.56 722.65 C 41.56 722.32 41.28 721.91 40.82 721.91 L 39.29 721.91 C 38.8 721.91 38.56 722.24 38.56 722.65 L 38.56 723.41 C 38.56 724.02 39.03 724.16 39.29 724.16 Z M 37.81 711.47 L 51.27 711.47 L 51.27 706.25 L 37.81 706.25 Z M 35.68 727.88 C 34.54 727.88 34.15 727.35 34.08 726.52 L 34.08 704.72 C 34.08 703.76 34.66 703.27 35.54 703.27 L 53.48 703.27 C 54.85 703.27 55 704.21 55 704.72 L 55 726.38 C 55 727.22 54.6 727.91 53.47 727.88 Z M 27.84 727.8 C 26.87 727.57 26.07 727.11 26.06 725.52 C 26.23 718.91 26.38 712.29 26.05 705.45 C 26.1 704.26 26.7 703.44 28.21 703.27 C 28.98 703.16 29.74 703.18 30.5 703.3 C 31.93 703.6 32.36 704.42 32.37 705.45 C 32.07 712.16 32.07 718.86 32.31 725.55 C 32.3 726.77 31.85 727.58 30.44 727.83 C 29.59 727.99 28.73 728 27.84 727.8 Z" fill="#505050" stroke="none" pointer-events="all"/></g><g><rect x="87" y="675" width="58" height="58" fill="none" stroke="none" pointer-events="all"/><path d="M 140.65 719.36 C 141.37 719.36 141.82 718.75 141.82 718.22 C 141.82 717.67 141.32 717.09 140.66 717.09 C 140 717.09 139.55 717.63 139.55 718.23 C 139.55 718.92 140.21 719.36 140.65 719.36 Z M 140.83 733 L 139.16 731.19 L 139.16 723.65 C 137.5 723.07 136.37 721.43 136.37 719.74 C 136.37 717.04 138.53 715.35 140.66 715.35 C 143.01 715.35 145 717.24 145 719.64 C 145 721.59 143.75 723.11 142.27 723.65 L 142.27 725.4 L 141.21 726.68 L 142.76 728.29 L 141.36 729.77 L 142.65 731.11 Z M 133.78 715.81 L 133.78 712 C 133.78 709.56 131.88 707.43 129.18 707.43 C 126.84 707.43 124.7 709.45 124.7 711.86 L 124.7 715.81 Z M 121.32 729.98 C 120.72 729.98 120.08 729.39 120.08 728.71 L 120.08 717.01 C 120.08 716.52 120.62 715.81 121.38 715.81 L 122.05 715.82 L 122.06 711.76 C 122.06 708.3 125.06 704.87 129.15 704.87 C 133.69 704.87 136.29 708.67 136.29 711.79 L 136.29 714.69 C 135.02 715.83 134.06 717.54 134.1 719.82 C 134.21 722.31 135.52 724 136.89 724.93 L 136.89 729.98 Z M 128.28 692.81 C 124.26 692.74 120.39 689.12 120.39 683.87 C 120.47 678.66 124.26 675.04 128.41 675.01 C 133.29 675 136.68 679.78 136.44 684.28 C 136.29 688.61 133.16 692.82 128.28 692.81 Z M 138.56 710.76 C 138.31 708.06 135.78 702.75 129.32 702.61 C 125.31 702.63 122.15 704.94 120.71 708.06 C 120.1 705.01 119 702.97 116.67 701.59 C 115.62 700.97 114.57 700.37 113.39 699.77 C 113.53 699.28 113.7 698.67 113.97 698.13 C 114.58 696.71 115.52 696.01 116.51 695.42 C 117.54 694.85 118.68 694.17 119.55 693.75 C 120.27 693.41 121.05 693.39 121.5 693.81 C 125.76 697.3 130.75 697.25 135.1 693.88 C 135.54 693.46 136.17 693.39 136.82 693.64 C 138.06 694.17 139.15 694.89 140.4 695.56 C 142.26 696.63 142.93 698.2 143.33 699.87 C 144.24 703.75 144.66 708.56 144.69 710.76 Z M 103.39 700.8 C 98.72 700.8 95.4 696.37 95.4 691.98 C 95.4 686.34 99.66 683 103.33 683 C 107.81 683 111.45 686.83 111.45 692.16 C 111.45 696.15 108.3 700.8 103.39 700.8 Z M 87 718.75 C 87.25 715.23 87.68 711.53 88.19 708.86 C 88.67 706.68 89.26 705.09 90.53 704.07 C 91.01 703.66 91.51 703.38 92.01 703.12 C 92.95 702.58 93.98 701.97 94.72 701.64 C 95.4 701.31 96.15 701.33 96.57 701.74 C 100.4 704.99 105.88 705.43 110.39 701.64 C 111.11 701.18 111.85 701.49 112.43 701.8 C 113.48 702.34 114.44 702.98 115.51 703.62 C 117.4 704.76 117.98 706.36 118.38 707.98 C 118.79 709.62 119.14 712.29 119.42 714.27 C 118.64 714.78 117.91 715.81 117.89 717.08 L 117.89 718.75 Z" fill="#505050" stroke="none" pointer-events="all"/></g></g></svg>