<?xml version="1.0" encoding="UTF-8"?>
<!DOCTYPE svg PUBLIC "-//W3C//DTD SVG 1.1//EN" "http://www.w3.org/Graphics/SVG/1.1/DTD/svg11.dtd">
<svg xmlns="http://www.w3.org/2000/svg" xmlns:xlink="http://www.w3.org/1999/xlink" version="1.1" width="29px" height="37px" viewBox="-0.5 -0.5 29 37"><defs/><g><rect x="0" y="0" width="29" height="37" fill="none" stroke="none" pointer-events="all"/><path d="M 13.7 20.75 C 17.91 20.75 22.75 17.27 22.75 11.39 C 22.75 6.4 18.44 2.25 13.7 2.25 C 7.6 2.25 4.27 7.16 4.27 11.39 C 4.27 16.67 8.44 20.75 13.7 20.75 Z M 13.7 18.5 C 9.74 18.5 6.51 15.44 6.51 11.39 C 6.51 7.76 9.54 4.43 13.7 4.43 C 17.33 4.43 20.61 7.58 20.61 11.39 C 20.61 15.56 17.1 18.5 13.7 18.5 Z M 13.7 17.01 C 16.47 17.01 19.11 14.69 19.11 11.39 C 19.11 8.67 16.79 5.92 13.7 5.92 C 10.11 5.92 8 8.81 8 11.39 C 8 14.37 10.23 17.01 13.7 17.01 Z M 20.51 20.59 L 29 33 L 22.26 31.46 L 18.58 36.57 L 13.67 23.2 L 9.83 37 L 5.98 32.95 L 0 33.96 L 6.99 20.79 C 4.61 19.14 2.08 16.03 2.08 11.39 C 2.08 5.63 6.74 0 13.7 0 C 19.35 0 25.05 4.73 25.05 11.39 C 25.05 15.48 23.13 18.5 20.51 20.59 Z" fill="#505050" stroke="none" pointer-events="all"/></g></svg>