<svg xmlns="http://www.w3.org/2000/svg" width="47.405" height="47.932" xmlns:v="https://vecta.io/nano"><path d="M23.421 0c-1.955.009-3.822.176-5.464.467-4.839.855-5.718 2.644-5.718 5.944v4.358h11.435v1.452H12.24 7.948c-3.323 0-6.233 1.997-7.143 5.797-1.05 4.355-1.097 7.074 0 11.621.813 3.385 2.754 5.797 6.077 5.797h3.932v-5.224c0-3.775 3.265-7.103 7.143-7.103h11.421c3.179 0 5.717-2.618 5.717-5.811V6.411c0-3.099-2.614-5.427-5.717-5.944C27.414.14 25.376-.009 23.421 0zm-6.184 3.505c1.181 0 2.146.98 2.146 2.185s-.965 2.172-2.146 2.172-2.146-.971-2.146-2.172.961-2.185 2.146-2.185z" fill="#306998"/><path d="M36.522 12.222V17.3c0 3.937-3.337 7.25-7.143 7.25H17.957c-3.128 0-5.717 2.677-5.717 5.811v10.889c0 3.099 2.695 4.922 5.717 5.811 3.619 1.064 7.091 1.257 11.421 0 2.879-.833 5.717-2.511 5.717-5.811v-4.358H23.674v-1.452h11.421 5.717c3.323 0 4.561-2.318 5.717-5.797 1.194-3.582 1.143-7.027 0-11.621-.821-3.308-2.39-5.797-5.717-5.797zm-6.424 27.573c1.185 0 2.146.971 2.146 2.172s-.961 2.185-2.146 2.185-2.146-.98-2.146-2.185.965-2.172 2.146-2.172z" fill="#ffd43b"/></svg>