<?xml version="1.0" encoding="UTF-8"?>
<!DOCTYPE svg PUBLIC "-//W3C//DTD SVG 1.1//EN" "http://www.w3.org/Graphics/SVG/1.1/DTD/svg11.dtd">
<svg xmlns="http://www.w3.org/2000/svg" xmlns:xlink="http://www.w3.org/1999/xlink" version="1.1" width="379px" height="518px" viewBox="-0.5 -0.5 379 518"><defs/><g><g><rect x="8" y="9" width="53" height="54" fill="none" stroke="none" pointer-events="all"/><path d="M 40.96 56.42 C 42.07 56.86 43.25 57.05 44.44 56.97 C 45.72 57.12 47.01 56.65 48.01 55.68 C 48.95 54.57 49.1 53.01 48.41 51.74 C 47.85 50.95 46.99 50.42 46.03 50.29 C 47.13 50.07 48.01 49.24 48.31 48.15 C 48.59 47.23 48.4 46.23 47.81 45.46 C 46.98 44.47 45.72 43.95 44.44 44.07 C 43.38 44.06 42.34 44.26 41.36 44.66 L 41.36 47.01 C 41.97 46.56 42.69 46.3 43.45 46.26 C 43.91 46.16 44.4 46.22 44.81 46.42 C 45.22 46.63 45.52 46.97 45.63 47.36 C 45.78 47.75 45.72 48.18 45.47 48.54 C 45.23 48.89 44.82 49.15 44.34 49.25 C 43.62 49.38 42.88 49.42 42.16 49.35 L 42.16 51.54 C 42.98 51.44 43.82 51.48 44.64 51.64 C 45.35 51.79 45.92 52.33 46.13 53.04 C 46.07 54.1 45.2 54.93 44.14 54.93 C 43.02 54.94 41.92 54.62 40.96 54.03 Z M 35.6 40.08 C 35.55 38.86 36.39 37.78 37.59 37.54 L 58.74 37.54 C 60.03 37.67 61 38.78 60.97 40.08 L 60.97 61.01 C 60.78 62.03 59.96 62.83 58.93 63 L 37.79 63 C 36.53 62.85 35.59 61.78 35.6 60.51 Z M 50.27 49.85 L 51.01 49.86 L 51.02 48.11 C 51.01 47.93 51.1 47.26 51.61 47.12 C 51.8 47.09 52.06 47.06 52.2 47.16 L 52.21 46.48 C 52.01 46.34 51.58 46.43 51.38 46.61 C 51.19 46.79 51.13 46.9 51.02 47.14 L 51.01 46.49 L 50.28 46.49 Z M 54.96 49.78 L 55.78 49.79 L 55.79 44.76 L 55.04 44.76 L 55.04 46.86 C 54.64 46.2 53.92 46.3 53.53 46.44 C 52.89 46.73 52.48 47.37 52.51 48.35 C 52.6 49.16 52.96 49.69 53.49 49.81 C 54.05 49.92 54.63 49.83 54.95 49.19 Z M 54.95 48.41 L 54.95 47.79 C 54.93 47.42 54.76 47.06 54.16 47.01 C 53.94 47.05 53.29 46.94 53.26 48.18 C 53.21 48.94 53.66 49.51 54.36 49.28 C 54.65 49.17 54.84 48.8 54.95 48.41 Z M 43.74 35.32 L 49.41 35.31 C 49.62 33.36 49.58 31.37 49.35 29.36 L 54.34 27.3 C 55.1 26.85 55.12 26.33 55.02 25.81 L 53.02 21.01 C 52.8 20.51 52.02 20.09 51.35 20.39 L 46.5 22.48 C 45.07 20.85 43.54 19.29 41.85 17.83 L 43.92 12.77 C 44.09 12.32 43.89 11.6 43.24 11.25 L 38.49 9.26 C 37.88 9.04 37.19 9.38 36.97 9.87 L 34.91 14.94 C 33.22 14.48 30.98 14.41 28.19 14.8 L 26.2 9.85 C 26 9.38 25.34 9 24.66 9.22 L 19.95 11.18 C 19.05 11.57 19.2 12.61 19.35 12.96 L 21.3 17.77 C 19.8 19.07 18.27 20.53 16.68 22.41 L 11.68 20.32 C 11.2 20.2 10.69 20.24 10.15 21.03 L 8.22 25.66 C 8 26.42 8.24 26.95 8.81 27.31 L 13.93 29.4 C 13.43 31.8 13.56 33.94 13.86 36.01 L 8.92 38.07 C 8.04 38.44 8.1 39.17 8.2 39.7 L 10.19 44.48 C 10.74 45.21 11.27 45.23 11.78 45.02 L 16.75 42.96 C 18.09 44.71 19.67 46.22 21.35 47.61 L 19.24 52.71 C 19.07 53.51 19.47 53.89 19.94 54.21 L 24.52 56.14 C 25.16 56.4 25.73 56.28 26.23 55.5 L 28.3 50.43 C 29.58 50.85 31.31 50.96 33.45 50.76 L 33.45 45.04 C 32.86 45.13 32.25 45.18 31.59 45.18 C 24.72 45.18 19.14 39.6 19.14 32.69 C 19.14 25.77 24.69 20.16 31.55 20.16 C 38.42 20.16 44.02 25.77 44.02 32.69 C 44.05 33.5 43.9 34.57 43.74 35.32 Z" fill="#505050" stroke="none" pointer-events="all"/></g><g><rect x="78" y="9" width="59" height="49" fill="none" stroke="none" pointer-events="all"/><path d="M 125.73 35.25 C 126.47 35.55 126.9 36.16 126.8 36.9 L 125.7 41.43 C 125.43 42.03 124.99 42.39 124.23 42.32 L 118.92 41.12 C 117.89 43.13 116.51 44.98 114.89 46.67 L 117.64 51.22 C 118.08 51.95 117.78 52.67 117.35 52.98 L 112.89 55.77 C 112.26 55.98 111.68 56.03 111.27 55.26 L 108.44 50.6 C 106.69 51.41 104.44 51.91 102.01 51.68 L 100.8 56.93 C 100.57 57.49 100.27 58 99.35 57.93 L 94.36 56.74 C 93.62 56.38 93.23 55.84 93.52 54.97 L 95.02 50.19 C 92.82 49.01 90.94 47.71 89.37 46.24 L 84.92 48.96 C 84.21 49.36 83.58 49.27 83.02 48.65 L 80.39 44.39 C 80.09 43.82 80.13 43.09 80.78 42.62 L 85.38 39.69 C 84.83 37.57 84.47 35.43 84.32 33.25 L 84.32 33.25 L 79.15 32.02 C 78.39 31.74 78 31.23 78.15 30.37 L 79.28 25.67 C 79.58 24.94 80.04 24.47 80.92 24.67 L 85.81 26.22 C 86.99 24.28 88.29 22.33 89.8 20.57 L 87.05 16.03 C 86.8 15.48 86.65 14.91 87.41 14.24 L 91.64 11.59 C 92.47 11.17 93.01 11.47 93.39 11.93 L 96.22 16.57 C 98.2 15.85 100.2 15.33 102.69 15.64 L 103.92 10.26 C 104.26 9.5 104.81 9.21 105.53 9.35 L 110.13 10.43 L 110.13 23.93 C 107.44 21.78 103.93 20.77 100.59 21.31 C 94.54 22.29 88.92 27.87 90.15 35.51 C 91.37 43.11 98.39 46.81 104.5 45.84 C 110.6 44.85 114.97 39.26 114.82 33.27 Z" fill="#505050" stroke="none" pointer-events="all"/><path d="M 126.56 16.38 C 128.26 16.81 131.29 17.01 133.87 16.27 C 134.9 15.95 135.96 15.42 135.96 14.64 C 135.96 13.85 134.7 13.29 133.85 13.05 C 131.64 12.44 128.82 12.42 126.56 12.97 Z M 126.56 20.55 C 128.87 21.12 131.8 21.08 133.97 20.42 C 134.95 20.11 135.96 19.53 135.96 18.89 L 135.96 15.96 C 135.6 16.72 134.63 17.08 134.05 17.28 C 131.88 17.95 128.66 17.99 126.56 17.39 Z M 126.56 24.73 C 128.67 25.27 131.64 25.28 133.91 24.62 C 134.86 24.33 135.96 23.75 135.96 23.05 L 135.96 20.13 C 135.66 20.86 134.68 21.27 133.79 21.54 C 131.52 22.13 128.58 22.14 126.56 21.56 Z M 126.56 28.91 C 128.26 29.37 131.49 29.52 133.91 28.8 C 134.69 28.56 135.96 28.01 135.96 27.21 L 135.96 24.24 C 135.73 25.06 134.56 25.47 133.9 25.68 C 131.5 26.37 128.47 26.27 126.56 25.75 Z M 118.22 22 L 119.1 18.7 L 120.01 21.97 Z M 115.6 25.38 L 117.37 25.64 L 117.77 23.73 L 120.38 23.73 L 120.89 25.78 L 122.85 25.92 L 120.07 16.5 L 118.11 16.59 Z M 112.39 30.65 L 112.39 11.24 L 126.56 9 L 126.56 11.92 C 129.11 11.34 132.62 11.39 134.95 12.34 C 135.78 12.69 137 13.42 137 14.63 L 137 27.25 C 137 28.48 135.81 29.24 134.77 29.62 C 132.26 30.56 128.78 30.48 126.56 29.97 L 126.56 32.89 Z" fill="#b92025" stroke="none" pointer-events="all"/></g><g><rect x="162" y="8" width="34" height="51" fill="none" stroke="none" pointer-events="all"/><path d="M 185.42 53.74 L 196 53.74 L 196 57.5 L 185.42 57.5 Z M 177.11 50.72 L 177.11 46.21 L 180.89 46.21 L 180.89 50.72 Z M 174.09 59 L 174.09 52.23 L 183.9 52.23 L 183.9 59 Z M 162 57.5 L 162 53.74 L 172.58 53.74 L 172.58 57.5 Z M 179.1 26.2 C 174.67 26.2 170.91 22.35 170.91 16.71 C 170.91 12.93 173.99 8 179.18 8 C 183.7 8 187.39 12.06 187.39 17.14 C 187.39 22.16 183.66 26.2 179.1 26.2 Z M 162.3 44.48 C 162.53 41.5 162.93 37.56 163.62 34.18 C 163.99 32 164.79 30.42 166 29.47 C 166.45 29.02 169.54 27.24 170.14 26.99 C 170.76 26.7 171.39 26.59 171.99 26.98 C 176.84 31.11 182.36 30.36 186.31 27.05 C 186.73 26.74 187.27 26.77 187.69 26.9 C 188.64 27.23 191.82 29.11 192.07 29.36 C 193.34 30.21 193.99 31.52 194.39 33.01 C 195.27 36.18 195.7 40.7 195.99 44.48 Z" fill="#505050" stroke="none" pointer-events="all"/></g><g><rect x="233" y="0" width="50" height="59" fill="none" stroke="none" pointer-events="all"/><path d="M 259.51 20.75 L 259.51 12.43 L 262.08 9.83 L 262.08 16.09 L 271.21 7.08 L 264.87 7.08 L 267.51 4.59 L 275.96 4.59 L 275.96 12.89 L 273.4 15.49 L 273.4 9.24 L 264.26 18.25 L 270.61 18.25 L 267.97 20.75 Z M 254.14 23.83 L 281.33 23.83 L 281.33 1.49 L 254.14 1.49 Z M 252.63 25.32 L 252.63 0 L 282.84 0 L 282.84 25.32 Z M 233 55.86 L 233 6.66 C 233 4.97 234.49 3.72 235.91 3.72 L 250.37 3.72 L 250.37 10.43 L 238.29 10.43 L 238.29 12.66 L 250.37 12.66 L 250.37 27.56 L 260.18 27.56 L 260.18 28.92 C 258.57 29.47 257.71 31.26 258.37 32.94 L 259.06 34.49 L 258.21 35.3 L 256.58 34.61 C 255.18 34.07 253.5 34.65 252.79 36.08 L 251.53 39.04 C 251.29 39.58 251.18 40.19 251.35 40.97 L 238.29 40.97 L 238.29 43.2 L 253.51 43.2 L 254.74 43.73 L 254.74 44.92 L 253.04 45.63 C 252.37 45.93 251.6 46.62 251.35 47.67 L 238.29 47.67 L 238.29 49.9 L 251.66 49.9 L 252.75 52.47 C 253.37 53.82 255.03 54.64 256.66 53.99 L 258.21 53.33 L 259.05 54.15 L 258.31 55.86 Z M 257 42.37 L 253.93 41.11 C 253.49 40.88 253.3 40.53 253.48 40.02 L 254.65 37.27 C 254.9 36.85 255.23 36.61 255.75 36.81 L 258.62 38.24 C 259.54 37.17 260.54 36.12 261.65 35.2 L 260.4 32.16 C 260.31 31.8 260.27 31.45 260.79 31.1 L 263.67 29.91 C 264.22 29.74 264.53 29.97 264.73 30.29 L 266.01 33.4 C 267.3 33.15 268.59 33.03 270.09 33.46 L 271.39 30.31 C 271.67 29.87 272.04 29.75 272.47 29.91 L 275.34 31.11 C 275.81 31.4 275.86 31.75 275.74 32.13 L 274.47 35.23 C 275.59 36.11 276.62 37.05 277.45 38.13 L 280.54 36.88 C 281.1 36.73 281.43 36.94 281.63 37.35 L 282.83 40.17 C 282.91 40.58 282.83 40.94 282.41 41.16 L 279.26 42.42 C 279.42 43.63 279.41 45.15 279.26 46.48 L 282.4 47.73 C 282.82 47.99 283 48.32 282.87 48.76 L 281.74 51.4 C 281.52 51.75 281.21 51.93 280.74 51.81 L 277.58 50.55 C 276.75 51.68 275.71 52.66 274.54 53.54 L 275.8 56.58 C 275.99 57.06 275.74 57.47 275.44 57.62 L 272.41 58.87 C 272 58.94 271.63 58.91 271.45 58.4 L 270.17 55.3 C 269.01 55.62 267.58 55.7 266.1 55.33 L 264.83 58.39 C 264.63 58.72 264.39 59 263.83 58.86 L 260.87 57.65 C 260.45 57.35 260.27 56.99 260.53 56.5 L 261.93 53.73 C 260.69 52.8 259.65 51.82 258.84 50.77 L 255.82 51.99 C 255.33 52.17 254.95 52.05 254.68 51.62 L 253.47 48.77 C 253.34 48.39 253.44 47.95 253.88 47.73 L 257.01 46.39 C 256.89 45.05 256.88 43.71 257 42.37 Z M 260.38 44.31 C 260.38 49.07 264.34 52.01 268.22 52.01 C 272.43 52.01 275.9 48.48 275.9 44.38 C 275.9 39.99 272.16 36.7 268.24 36.7 C 264.4 36.7 260.38 39.56 260.38 44.31 Z" fill="#505050" stroke="none" pointer-events="all"/></g><g><rect x="312" y="6.5" width="51" height="54" fill="none" stroke="none" pointer-events="all"/><path d="M 312.05 12.44 C 312 10.52 315.3 8.7 320.15 7.75 C 326.7 6.5 333.39 6.6 339.58 7.85 C 342.23 8.39 347.19 9.98 347.16 12.46 C 347.07 14.68 343.25 16.09 340.66 16.75 C 332.9 18.63 324.18 18.23 318.29 16.68 C 315.09 15.87 312.01 14.28 312.05 12.44 Z M 333.62 54.91 C 328.34 55.32 321.49 54.88 317.17 53.38 C 314.12 52.33 312.23 50.61 312.05 48.35 L 312.05 16.36 C 314.23 18.03 317.63 19.03 320.91 19.55 C 326.92 20.52 334.21 20.49 340.29 19.17 C 342.74 18.6 345.32 17.77 347.16 16.36 L 347.16 31.53 L 346.96 31.05 C 346.37 29.76 344.73 28.91 343.12 29.55 L 340.14 30.79 C 338.7 31.48 338.04 33.12 338.65 34.67 L 339.31 36.22 L 338.51 37.03 L 336.89 36.35 C 335.4 35.77 333.77 36.49 333.11 37.83 L 331.81 40.9 C 331.26 42.45 331.96 44.03 333.26 44.64 L 335.05 45.41 L 335.05 46.6 L 333.33 47.34 C 331.81 48.07 331.29 49.71 331.81 51.1 L 333.04 53.99 C 333.24 54.49 333.44 54.69 333.62 54.91 Z M 337.21 43.92 L 334.17 42.66 C 333.73 42.43 333.55 42.07 333.71 41.57 L 334.88 38.83 C 335.13 38.41 335.46 38.17 335.98 38.38 L 338.82 39.8 C 339.73 38.73 340.72 37.67 341.82 36.76 L 340.58 33.73 C 340.49 33.38 340.45 33.02 340.98 32.68 L 343.83 31.49 C 344.37 31.32 344.68 31.56 344.87 31.86 L 346.15 34.97 C 347.43 34.72 348.71 34.6 350.2 35.03 L 351.49 31.89 C 351.76 31.46 352.12 31.34 352.55 31.49 L 355.4 32.68 C 355.87 32.98 355.91 33.33 355.8 33.7 L 354.53 36.8 C 355.64 37.67 356.66 38.61 357.49 39.68 L 360.55 38.45 C 361.1 38.3 361.43 38.5 361.64 38.91 L 362.83 41.73 C 362.91 42.13 362.82 42.49 362.4 42.71 L 359.29 43.97 C 359.44 45.17 359.42 46.69 359.29 48.02 L 362.39 49.27 C 362.81 49.52 363 49.85 362.87 50.29 L 361.74 52.92 C 361.52 53.27 361.22 53.44 360.76 53.33 L 357.62 52.07 C 356.79 53.2 355.77 54.19 354.61 55.05 L 355.85 58.08 C 356.04 58.56 355.79 58.98 355.5 59.13 L 352.49 60.37 C 352.08 60.44 351.72 60.41 351.54 59.91 L 350.27 56.8 C 349.12 57.13 347.7 57.21 346.24 56.83 L 344.97 59.9 C 344.77 60.21 344.54 60.5 343.98 60.36 L 341.05 59.15 C 340.64 58.86 340.45 58.5 340.71 58 L 342.1 55.24 C 340.87 54.31 339.84 53.34 339.03 52.29 L 336.04 53.51 C 335.56 53.68 335.18 53.57 334.9 53.14 L 333.7 50.29 C 333.59 49.92 333.68 49.47 334.12 49.26 L 337.23 47.92 C 337.1 46.59 337.09 45.25 337.21 43.92 Z M 340.56 45.86 C 340.56 50.59 344.49 53.52 348.34 53.52 C 352.5 53.52 355.96 50.02 355.96 45.93 C 355.96 41.55 352.23 38.27 348.36 38.27 C 344.55 38.27 340.56 41.1 340.56 45.86 Z" fill="#505050" stroke="none" pointer-events="all"/></g><g><rect x="8" y="100.5" width="59" height="59" fill="none" stroke="none" pointer-events="all"/><path d="M 8 142.97 L 8 100.5 L 60.15 100.5 L 60.15 129.38 L 57.91 128.44 L 57.91 102.74 L 10.23 102.74 L 10.23 140.73 L 35.71 140.73 C 35.71 141.71 36.11 142.46 36.65 142.97 Z M 43.64 128.01 C 43.69 128.55 42.93 129.29 42.47 128.69 C 40.96 127.1 38.91 125.61 36.15 124.71 C 33.82 124 31.28 123.28 27.68 123.54 C 27.42 123.64 26.52 123.86 26.79 124.35 C 26.92 124.68 27.11 125 27.15 125.36 C 27.18 125.58 27.2 125.92 26.91 126.12 C 26.75 126.2 26.59 126.27 26.43 126.29 C 26.14 126.41 26.18 126.57 26.28 126.83 C 26.51 127.6 26.71 128.38 26.86 129.15 C 26.89 129.57 26.93 129.98 26.89 130.36 C 26.85 130.63 26.98 130.79 27.11 130.9 C 27.32 131.06 27.54 131.22 27.64 131.39 C 27.74 131.52 27.82 131.78 27.6 131.97 C 26.94 132.55 25.71 133.34 25.01 133.52 C 24.8 133.56 24.59 133.68 24.39 133.42 C 24.19 133.08 24.15 132.63 24.13 132.16 C 23.75 130.76 23.22 129.25 22.7 127.76 C 22.36 126.98 22.05 126.15 21.76 125.3 L 20.9 123.47 C 19.71 123.53 18.78 122.88 18.46 121.9 C 17 122 15.96 121 15.45 119.54 C 14.85 117.52 15.51 115.94 16.12 115.17 C 16.79 114.38 17.58 114.02 18.45 114.1 C 18.76 113.14 19.65 112.48 20.75 112.46 L 28.99 112.45 C 32.12 112.33 34.48 111.56 36.7 110.65 C 39.14 109.6 40.97 108.28 42.43 106.76 C 42.83 106.24 43.66 106.77 43.64 107.37 L 43.64 114.52 C 46.43 116.29 45.8 119.46 43.64 120.85 Z M 46.24 121.53 C 48.02 119.38 48.35 116.29 46.09 113.72 L 46.99 112.46 C 50.07 115.63 49.57 119.97 47.2 122.64 Z M 48.26 110.59 L 49.14 109.4 C 53.53 113.2 54.46 120.64 49.66 125.47 L 48.68 124.35 C 52.34 120.25 52.39 114.51 48.26 110.59 Z M 41.31 142.84 L 38.27 141.59 C 37.84 141.34 37.65 140.99 37.83 140.49 L 38.98 137.72 C 39.23 137.31 39.57 137.07 40.08 137.28 L 42.91 138.71 C 43.82 137.63 44.8 136.57 45.9 135.65 L 44.66 132.61 C 44.57 132.25 44.53 131.89 45.06 131.55 L 47.9 130.35 C 48.45 130.18 48.75 130.42 48.94 130.74 L 50.21 133.85 C 51.49 133.6 52.76 133.48 54.25 133.91 L 55.53 130.76 C 55.81 130.32 56.16 130.2 56.59 130.35 L 59.43 131.55 C 59.9 131.85 59.94 132.2 59.83 132.57 L 58.57 135.69 C 59.67 136.57 60.69 137.52 61.52 138.58 L 64.57 137.35 C 65.11 137.19 65.44 137.4 65.64 137.8 L 66.83 140.63 C 66.91 141.05 66.82 141.4 66.4 141.64 L 63.31 142.89 C 63.45 144.1 63.44 145.62 63.31 146.96 L 66.4 148.21 C 66.82 148.46 67 148.8 66.87 149.24 L 65.75 151.89 C 65.53 152.24 65.22 152.41 64.78 152.3 L 61.65 151.04 C 60.82 152.16 59.8 153.16 58.65 154.03 L 59.88 157.07 C 60.07 157.56 59.82 157.97 59.53 158.12 L 56.53 159.37 C 56.12 159.44 55.77 159.41 55.59 158.9 L 54.33 155.79 C 53.17 156.11 51.75 156.19 50.29 155.81 L 49.04 158.89 C 48.84 159.22 48.61 159.5 48.06 159.36 L 45.13 158.15 C 44.72 157.85 44.53 157.49 44.79 156.99 L 46.18 154.22 C 44.95 153.29 43.93 152.31 43.12 151.25 L 40.13 152.48 C 39.67 152.66 39.28 152.54 39.01 152.11 L 37.82 149.25 C 37.69 148.87 37.79 148.42 38.23 148.2 L 41.32 146.86 C 41.19 145.52 41.19 144.18 41.31 142.84 Z M 44.64 144.79 C 44.64 149.55 48.56 152.5 52.39 152.5 C 56.55 152.5 59.98 148.96 59.98 144.86 C 59.98 140.46 56.28 137.16 52.41 137.16 C 48.62 137.16 44.64 140.02 44.64 144.79 Z" fill="#505050" stroke="none" pointer-events="all"/></g><g><rect x="82.5" y="100.5" width="50" height="54" fill="none" stroke="none" pointer-events="all"/><path d="M 128.02 114.07 L 123.54 108.85 L 127.27 108.85 C 127.39 105.86 125.33 103.3 122.29 102.91 C 121.08 102.78 119.95 103.04 118.91 103.62 L 117.43 101.91 C 118.5 101.21 120.17 100.5 122.25 100.66 C 126 100.93 128.89 103.83 129.42 107.29 C 129.51 107.82 129.51 108.33 129.5 108.85 L 132.5 108.85 Z M 125.92 115.05 C 124.85 115.73 123.62 116.24 122.02 116.31 C 117.01 116.38 113.73 112.57 113.83 108.1 L 110.86 108.1 L 115.34 102.88 L 119.81 108.1 L 116.08 108.1 C 115.9 110.7 117.74 113.85 121.52 114.07 C 122.55 114.11 123.51 113.84 124.43 113.33 Z M 85.26 148.41 C 83.88 148.41 82.5 147.03 82.5 145.53 L 82.5 104.3 C 82.5 103.04 83.58 101.41 85.48 101.41 L 105.69 101.4 C 107.23 101.4 108.61 102.71 108.61 104.35 L 108.61 123.03 C 108.29 123.04 107.96 123.11 107.64 123.23 L 105.62 124.08 L 105.62 107.37 L 85.48 107.37 L 85.48 138.71 L 98.29 138.71 L 99.5 139.23 L 99.5 140.43 L 97.88 141.12 C 97.54 141.26 97.26 141.46 97.01 141.7 L 93.66 141.7 C 93.22 141.7 92.94 142.05 92.94 142.37 L 92.94 143.98 C 92.94 144.38 93.28 144.69 93.63 144.69 L 96.18 144.69 C 96.23 144.93 96.36 145.22 96.49 145.5 L 97.47 147.84 C 97.57 148.09 97.71 148.33 97.76 148.41 Z M 101.67 137.79 L 98.63 136.53 C 98.19 136.29 98 135.93 98.17 135.42 L 99.34 132.66 C 99.58 132.24 99.92 132 100.44 132.21 L 103.29 133.64 C 104.19 132.57 105.18 131.5 106.28 130.58 L 105.04 127.52 C 104.95 127.16 104.91 126.8 105.44 126.46 L 108.28 125.26 C 108.83 125.09 109.15 125.32 109.33 125.64 L 110.6 128.76 C 111.88 128.52 113.16 128.4 114.65 128.83 L 115.93 125.66 C 116.22 125.22 116.58 125.1 117.01 125.26 L 119.85 126.46 C 120.32 126.75 120.37 127.11 120.25 127.49 L 118.99 130.61 C 120.1 131.5 121.12 132.45 121.95 133.51 L 125.01 132.27 C 125.55 132.12 125.88 132.33 126.09 132.73 L 127.29 135.57 C 127.37 135.99 127.28 136.35 126.86 136.58 L 123.74 137.84 C 123.89 139.05 123.88 140.58 123.74 141.92 L 126.85 143.17 C 127.27 143.43 127.46 143.77 127.33 144.21 L 126.2 146.87 C 125.97 147.22 125.66 147.39 125.22 147.27 L 122.08 146.01 C 121.26 147.15 120.22 148.14 119.07 149.02 L 120.31 152.07 C 120.5 152.56 120.25 152.97 119.95 153.12 L 116.95 154.38 C 116.54 154.45 116.17 154.42 116 153.91 L 114.73 150.78 C 113.58 151.11 112.15 151.19 110.69 150.81 L 109.43 153.9 C 109.24 154.22 109 154.5 108.44 154.37 L 105.5 153.15 C 105.09 152.85 104.91 152.49 105.17 151.98 L 106.56 149.21 C 105.33 148.27 104.3 147.28 103.49 146.23 L 100.5 147.45 C 100.02 147.63 99.63 147.52 99.37 147.09 L 98.16 144.22 C 98.04 143.84 98.13 143.39 98.58 143.17 L 101.68 141.83 C 101.55 140.48 101.54 139.13 101.67 137.79 Z M 105.02 139.74 C 105.02 144.52 108.96 147.47 112.79 147.47 C 116.96 147.47 120.41 143.93 120.41 139.81 C 120.41 135.4 116.69 132.09 112.81 132.09 C 109.01 132.09 105.02 134.95 105.02 139.74 Z" fill="#505050" stroke="none" pointer-events="all"/></g><g><rect x="156" y="100.5" width="58" height="48" fill="none" stroke="none" pointer-events="all"/><path d="M 192.06 112.48 L 192.06 105.74 L 198.07 105.74 L 198.07 112.48 Z M 165.02 121.47 L 165.02 119.22 L 186.05 119.22 L 186.05 121.47 Z M 165.02 127.46 L 165.02 125.21 L 184.14 125.21 C 183.92 125.48 183.49 126.7 183.15 127.46 Z M 156 137.19 L 156 100.5 L 203.33 100.5 L 203.33 116.9 C 202.58 116.87 201.77 117.11 201.08 117.76 L 201.08 102.75 L 158.25 102.75 L 158.25 134.94 L 184.66 134.94 C 183.6 135.31 182.81 136.04 182.53 137.19 Z M 188.13 131.79 L 185.07 130.53 C 184.63 130.28 184.44 129.93 184.62 129.42 L 185.77 126.66 C 186.03 126.24 186.36 126 186.88 126.2 L 189.74 127.63 C 190.65 126.56 191.64 125.5 192.75 124.57 L 191.5 121.51 C 191.41 121.16 191.37 120.81 191.89 120.46 L 194.76 119.26 C 195.31 119.09 195.62 119.32 195.81 119.64 L 197.09 122.76 C 198.37 122.51 199.66 122.39 201.16 122.82 L 202.44 119.66 C 202.72 119.22 203.08 119.1 203.51 119.26 L 206.38 120.47 C 206.84 120.76 206.89 121.11 206.78 121.49 L 205.51 124.6 C 206.62 125.5 207.65 126.44 208.48 127.51 L 211.55 126.27 C 212.1 126.12 212.43 126.33 212.63 126.74 L 213.83 129.57 C 213.91 129.99 213.82 130.34 213.4 130.58 L 210.28 131.84 C 210.43 133.05 210.41 134.57 210.28 135.92 L 213.4 137.18 C 213.82 137.44 214 137.77 213.87 138.21 L 212.74 140.87 C 212.52 141.21 212.21 141.39 211.76 141.27 L 208.61 140.01 C 207.78 141.14 206.74 142.14 205.58 143.01 L 206.83 146.06 C 207.02 146.55 206.77 146.97 206.48 147.12 L 203.45 148.38 C 203.05 148.45 202.68 148.42 202.51 147.91 L 201.23 144.79 C 200.08 145.11 198.64 145.19 197.17 144.81 L 195.91 147.9 C 195.71 148.22 195.48 148.5 194.92 148.37 L 191.97 147.14 C 191.55 146.85 191.37 146.49 191.63 145.98 L 193.02 143.21 C 191.79 142.27 190.76 141.28 189.95 140.23 L 186.94 141.46 C 186.46 141.63 186.08 141.52 185.8 141.08 L 184.6 138.22 C 184.48 137.84 184.58 137.39 185.02 137.18 L 188.14 135.83 C 188.01 134.48 188.01 133.14 188.13 131.79 Z M 191.48 133.74 C 191.48 138.52 195.43 141.47 199.28 141.47 C 203.47 141.47 206.93 137.93 206.93 133.81 C 206.93 129.4 203.2 126.09 199.3 126.09 C 195.49 126.09 191.48 128.95 191.48 133.74 Z" fill="#505050" stroke="none" pointer-events="all"/></g><g><rect x="229" y="100" width="60" height="49" fill="none" stroke="none" pointer-events="all"/><path d="M 276.95 126.22 C 277.69 126.53 278.12 127.15 278.02 127.89 L 276.91 132.41 C 276.64 133.02 276.2 133.38 275.45 133.31 L 270.11 132.1 C 269.07 134.11 267.68 135.97 266.06 137.66 L 268.82 142.21 C 269.26 142.94 268.96 143.66 268.53 143.98 L 264.05 146.76 C 263.42 146.98 262.83 147.02 262.42 146.26 L 259.58 141.59 C 257.83 142.41 255.56 142.9 253.12 142.68 L 251.9 147.92 C 251.67 148.49 251.37 149 250.44 148.93 L 245.43 147.73 C 244.69 147.37 244.3 146.84 244.59 145.97 L 246.1 141.18 C 243.89 140.01 241.99 138.69 240.43 137.23 L 235.95 139.95 C 235.24 140.36 234.6 140.27 234.04 139.64 L 231.4 135.38 C 231.1 134.81 231.14 134.07 231.8 133.61 L 236.41 130.66 C 235.86 128.55 235.5 126.4 235.35 124.22 L 235.35 124.22 L 230.16 123 C 229.39 122.72 229 122.21 229.15 121.35 L 230.29 116.64 C 230.59 115.92 231.05 115.45 231.94 115.64 L 236.85 117.19 C 238.03 115.25 239.34 113.3 240.86 111.53 L 238.09 106.99 C 237.84 106.44 237.69 105.89 238.45 105.2 L 242.7 102.55 C 243.53 102.14 244.08 102.44 244.46 102.9 L 247.31 107.55 C 249.3 106.81 251.3 106.29 253.8 106.61 L 255.04 101.23 C 255.38 100.46 255.93 100.18 256.66 100.32 L 261.28 101.4 L 261.28 114.9 C 258.58 112.76 255.05 111.74 251.69 112.28 C 245.62 113.26 239.97 118.85 241.21 126.48 C 242.43 134.1 249.49 137.81 255.62 136.82 C 261.75 135.83 266.14 130.24 265.99 124.24 Z" fill="#505050" stroke="none" pointer-events="all"/><path d="M 281.5 107.48 L 281.5 105.24 L 285.99 105.24 L 285.99 107.48 Z M 281.5 110.47 L 281.5 108.23 L 285.99 108.23 L 285.99 110.47 Z M 281.5 113.46 L 281.5 111.21 L 285.99 111.21 L 285.99 113.46 Z M 281.5 116.44 L 281.5 114.2 L 285.99 114.2 L 285.99 116.44 Z M 281.5 119.42 L 281.5 117.19 L 285.99 117.19 L 285.99 119.42 Z M 277.76 121.29 L 287.88 121.29 L 287.88 103.36 L 277.76 103.36 L 277.76 105.24 L 280.76 105.24 L 280.76 107.48 L 277.76 107.48 L 277.76 108.23 L 280.76 108.23 L 280.76 110.47 L 277.76 110.47 L 277.76 111.21 L 280.76 111.21 L 280.76 113.46 L 277.76 113.46 L 277.76 114.2 L 280.76 114.2 L 280.76 116.44 L 277.76 116.44 L 277.76 117.19 L 280.76 117.19 L 280.76 119.42 L 277.76 119.42 Z M 263.53 121.66 L 263.53 102.24 L 277.76 100 L 277.76 102.25 L 287.88 102.25 C 288.57 102.25 289 102.84 289 103.35 L 289 121.32 C 289 121.77 288.57 122.41 287.89 122.41 L 277.76 122.42 L 277.76 123.9 Z M 266.83 116.58 L 268.7 116.73 L 270.14 113.44 L 271.55 116.81 L 273.65 116.96 L 271.25 112.1 L 273.8 107.32 L 271.85 107.47 L 270.34 111.02 L 268.99 107.62 L 267.06 107.77 L 269.07 112.18 Z" fill="#02723b" stroke="none" pointer-events="all"/></g><g><rect x="312" y="95" width="58" height="59" fill="none" stroke="none" pointer-events="all"/><path d="M 338.35 128.59 L 341.36 128.59 L 341.36 125.59 L 338.35 125.59 Z M 332.32 123.36 L 335.33 123.36 L 335.33 120.37 L 332.32 120.37 Z M 332.32 133.81 L 335.33 133.81 L 335.33 130.82 L 332.32 130.82 Z M 322.54 102.47 L 325.55 102.47 L 325.55 99.48 L 322.54 99.48 Z M 315.76 102.47 L 318.77 102.47 L 318.77 99.48 L 315.76 99.48 Z M 322.54 109.18 L 325.55 109.18 L 325.55 106.19 L 322.54 106.19 Z M 315.76 109.18 L 318.77 109.18 L 318.77 106.19 L 315.76 106.19 Z M 322.54 115.9 L 325.55 115.9 L 325.55 112.91 L 322.54 112.91 Z M 315.76 115.9 L 318.77 115.9 L 318.77 112.91 L 315.76 112.91 Z M 322.54 122.61 L 325.55 122.61 L 325.55 119.62 L 322.54 119.62 Z M 315.76 122.61 L 318.77 122.61 L 318.77 119.62 L 315.76 119.62 Z M 322.54 129.33 L 325.55 129.33 L 325.55 126.34 L 322.54 126.34 Z M 315.76 129.33 L 318.77 129.33 L 318.77 126.34 L 315.76 126.34 Z M 322.54 136.04 L 325.55 136.04 L 325.55 133.06 L 322.54 133.06 Z M 315.76 136.04 L 318.77 136.04 L 318.77 133.06 L 315.76 133.06 Z M 312 148.73 L 312 95 L 329.31 95 L 329.31 117.39 L 331.57 117.39 L 331.57 111.42 L 333.83 111.42 L 333.83 105.45 L 336.09 105.45 L 336.09 98.73 L 338.35 98.73 L 338.35 105.45 L 340.6 105.45 L 340.6 111.42 L 342.86 111.42 L 342.86 117.39 L 345.12 117.39 L 345.12 130.24 L 343.81 129.68 C 342.44 129.14 340.79 129.67 340.01 131.14 L 338.69 134.24 C 338.18 135.62 338.68 137.31 340.21 138.06 L 341.95 138.8 L 341.95 139.99 L 340.19 140.75 C 338.84 141.43 338.11 142.97 338.7 144.57 L 339.98 147.57 C 340.21 148.06 340.52 148.44 340.91 148.73 Z M 350.39 114.4 L 350.39 111.42 L 363.79 111.42 L 359.28 106.94 L 363.03 106.94 L 368.76 112.91 L 363.02 118.88 L 359.28 118.88 L 363.79 114.4 Z M 351.74 108.43 L 345.95 102.46 L 351.74 96.49 L 355.5 96.49 L 350.99 100.97 L 364.68 100.97 L 364.68 103.95 L 350.98 103.95 L 355.5 108.43 Z M 344.24 137.43 L 341.19 136.19 C 340.75 135.95 340.56 135.6 340.73 135.1 L 341.9 132.35 C 342.15 131.94 342.48 131.7 343 131.9 L 345.84 133.33 C 346.75 132.26 347.74 131.21 348.84 130.29 L 347.6 127.27 C 347.5 126.91 347.47 126.56 347.99 126.22 L 350.84 125.03 C 351.39 124.86 351.7 125.09 351.88 125.41 L 353.16 128.5 C 354.44 128.25 355.72 128.13 357.21 128.56 L 358.5 125.43 C 358.78 124.99 359.13 124.87 359.56 125.03 L 362.41 126.22 C 362.87 126.51 362.92 126.86 362.81 127.23 L 361.54 130.32 C 362.65 131.21 363.68 132.14 364.51 133.21 L 367.56 131.97 C 368.11 131.82 368.44 132.03 368.65 132.44 L 369.84 135.25 C 369.92 135.65 369.83 136.01 369.41 136.24 L 366.31 137.48 C 366.45 138.69 366.44 140.2 366.3 141.53 L 369.41 142.78 C 369.83 143.04 370 143.36 369.88 143.8 L 368.76 146.44 C 368.53 146.78 368.22 146.96 367.77 146.84 L 364.64 145.59 C 363.81 146.71 362.77 147.7 361.62 148.56 L 362.86 151.59 C 363.05 152.08 362.8 152.49 362.51 152.64 L 359.5 153.88 C 359.1 153.95 358.73 153.92 358.56 153.41 L 357.28 150.32 C 356.14 150.64 354.71 150.72 353.25 150.35 L 351.98 153.4 C 351.79 153.72 351.56 154 351 153.87 L 348.06 152.66 C 347.65 152.37 347.46 152.01 347.73 151.51 L 349.11 148.76 C 347.89 147.83 346.86 146.85 346.04 145.81 L 343.05 147.03 C 342.58 147.19 342.2 147.09 341.92 146.65 L 340.72 143.81 C 340.6 143.43 340.69 143 341.15 142.78 L 344.25 141.44 C 344.12 140.11 344.11 138.78 344.24 137.43 Z M 347.58 139.37 C 347.58 144.11 351.51 147.04 355.35 147.04 C 359.52 147.04 362.96 143.53 362.96 139.44 C 362.96 135.08 359.25 131.79 355.37 131.79 C 351.56 131.79 347.58 134.63 347.58 139.37 Z" fill="#505050" stroke="none" pointer-events="all"/></g><g><rect x="8" y="183.5" width="65" height="58" fill="none" stroke="none" pointer-events="all"/><path d="M 43.1 193.32 C 43.1 194.91 40.99 196.11 38.99 196.89 C 31.47 199.35 23.9 199.24 16.33 198.03 C 11.73 197.13 8 195.49 8 193.22 C 8 191.5 11.02 189.76 15.14 188.83 C 20.46 187.54 28.37 187.36 34.33 188.5 C 37.67 189.07 43.1 190.69 43.1 193.32 Z M 29.57 235.8 C 24.62 236.14 19.13 235.91 14.26 234.63 C 10.62 233.59 8.22 231.84 8 229.25 L 8 197.23 C 9.99 198.76 13.22 199.78 16.34 200.34 C 21.67 201.29 28.52 201.4 34.7 200.35 C 37.86 199.8 40.96 198.83 43.1 197.23 L 43.1 212.44 L 42.87 211.87 C 42.07 210.36 40.44 209.92 39.17 210.38 L 35.99 211.7 C 34.82 212.36 33.94 213.79 34.56 215.49 L 35.26 217.1 L 34.43 217.92 L 32.83 217.23 C 31.52 216.73 29.82 217.18 29.04 218.73 L 27.76 221.77 C 27.19 223.35 27.93 224.96 29.33 225.58 L 31 226.3 L 31 227.47 L 29.27 228.22 C 27.69 228.97 27.26 230.77 27.78 232.06 L 29.03 234.99 C 29.18 235.35 29.38 235.59 29.57 235.8 Z M 33.13 224.89 L 30.08 223.64 C 29.65 223.4 29.46 223.04 29.63 222.54 L 30.79 219.79 C 31.04 219.38 31.38 219.14 31.9 219.35 L 34.74 220.77 C 35.65 219.7 36.64 218.64 37.74 217.72 L 36.5 214.69 C 36.41 214.33 36.37 213.98 36.9 213.63 L 39.75 212.45 C 40.3 212.27 40.61 212.5 40.8 212.82 L 42.07 215.93 C 43.36 215.68 44.63 215.56 46.13 215.98 L 47.41 212.84 C 47.69 212.41 48.06 212.29 48.49 212.45 L 51.33 213.64 C 51.8 213.93 51.85 214.28 51.73 214.65 L 50.47 217.75 C 51.57 218.64 52.6 219.58 53.43 220.65 L 56.49 219.42 C 57.04 219.26 57.37 219.46 57.58 219.87 L 58.77 222.69 C 58.85 223.1 58.76 223.46 58.34 223.69 L 55.23 224.94 C 55.38 226.15 55.37 227.66 55.23 228.99 L 58.34 230.25 C 58.76 230.51 58.94 230.83 58.81 231.28 L 57.69 233.92 C 57.46 234.26 57.16 234.43 56.7 234.32 L 53.56 233.07 C 52.74 234.18 51.7 235.18 50.55 236.04 L 51.78 239.08 C 51.98 239.57 51.73 239.98 51.43 240.13 L 48.42 241.38 C 48.02 241.45 47.65 241.42 47.48 240.92 L 46.21 237.8 C 45.05 238.13 43.63 238.21 42.16 237.83 L 40.9 240.9 C 40.7 241.22 40.47 241.5 39.91 241.37 L 36.97 240.16 C 36.56 239.86 36.37 239.5 36.63 239 L 38.02 236.24 C 36.79 235.31 35.76 234.32 34.94 233.28 L 31.96 234.5 C 31.48 234.68 31.09 234.56 30.82 234.13 L 29.62 231.28 C 29.5 230.9 29.59 230.46 30.04 230.24 L 33.14 228.91 C 33.01 227.57 33.01 226.23 33.13 224.89 Z M 36.48 226.83 C 36.48 231.57 40.42 234.52 44.26 234.52 C 48.44 234.52 51.89 231 51.89 226.91 C 51.89 222.52 48.17 219.23 44.28 219.23 C 40.48 219.23 36.48 222.07 36.48 226.83 Z" fill="#505050" stroke="none" pointer-events="all"/><path d="M 62.45 191.15 C 62.73 191.01 63.01 190.86 63.34 190.79 L 62.67 189.9 C 62.48 189.36 62.42 188.84 62.9 188.34 C 63.42 187.89 64.16 187.93 64.69 188.55 L 68.11 192.85 L 64.91 192.85 C 63.83 192.88 62.93 193.49 62.45 194.4 Z M 64.61 198.57 L 67.91 198.57 C 69.06 198.49 69.99 197.78 70.4 196.76 C 70.77 195.82 70.58 194.64 69.89 193.81 L 67.22 190.56 C 70.29 190.36 72.97 192.6 72.97 195.7 C 73 198.23 71.26 200.14 69.4 200.64 L 69.99 201.44 C 70.34 201.96 70.26 202.78 69.73 203.15 C 69.2 203.53 68.47 203.47 68.01 202.88 Z M 62.45 200.34 L 62.45 197.09 C 62.5 197.28 62.67 197.58 62.83 197.77 L 65.49 201.01 C 64.47 201.08 63.44 200.88 62.45 200.34 Z M 52.84 200 L 57.74 200.35 L 57.74 198.43 L 54.64 198.32 L 54.64 190.6 L 52.84 190.67 Z M 47.51 205.03 L 47.51 185.73 L 61.69 183.5 L 61.69 207.17 Z" fill="#2172b9" stroke="none" pointer-events="all"/></g><g><rect x="78" y="187" width="83" height="51" fill="none" stroke="none" pointer-events="all"/><path d="M 150.44 194.76 C 150.73 194.62 151.01 194.46 151.34 194.39 L 150.67 193.49 C 150.47 192.95 150.41 192.41 150.9 191.91 C 151.41 191.45 152.15 191.49 152.68 192.12 L 156.11 196.48 L 152.91 196.48 C 151.83 196.51 150.93 197.14 150.44 198.06 Z M 152.6 202.28 L 155.91 202.28 C 157.06 202.2 157.99 201.49 158.4 200.44 C 158.77 199.49 158.57 198.3 157.89 197.46 L 155.22 194.16 C 158.29 193.96 160.97 196.23 160.97 199.37 C 161 201.94 159.26 203.87 157.38 204.38 L 157.99 205.2 C 158.34 205.72 158.26 206.55 157.73 206.93 C 157.2 207.31 156.47 207.25 156.01 206.65 Z M 150.44 204.07 L 150.44 200.79 C 150.49 200.98 150.66 201.28 150.83 201.47 L 153.49 204.76 C 152.46 204.83 151.44 204.62 150.44 204.07 Z M 140.83 203.73 L 145.73 204.08 L 145.73 202.14 L 142.62 202.03 L 142.62 194.2 L 140.83 194.27 Z M 135.5 208.84 L 135.5 189.27 L 149.68 187 L 149.68 211 Z" fill="#2172b9" stroke="none" pointer-events="all"/><rect x="78" y="187" width="0" height="0" fill="none" stroke="none" pointer-events="all"/><path d="M 117.59 193.69 L 119.83 193.69 L 119.83 191.43 L 117.59 191.43 Z M 122.07 193.69 L 124.32 193.69 L 124.32 191.43 L 122.07 191.43 Z M 126.56 193.69 L 128.8 193.69 L 128.8 191.43 L 126.56 191.43 Z M 104.41 229.78 L 80.93 229.78 C 79.36 229.78 78 228.41 78 226.84 L 78 192.12 C 78 190.45 79.48 189.18 80.88 189.18 L 128.06 189.18 C 129.73 189.18 131.04 190.58 131.04 192.15 L 131.04 211.73 C 130.33 211.05 129.55 210.42 128.8 209.92 L 128.8 196.69 L 80.24 196.69 L 80.24 226.76 C 80.24 227.12 80.46 227.52 80.96 227.52 L 103.7 227.52 C 103.88 228.31 104.12 229.06 104.41 229.78 Z M 124.8 210.36 C 126.69 211.04 128.05 212.03 129.21 213.16 C 128.55 213.54 127.85 213.9 127.04 214.22 C 126.23 212.24 125.5 211.2 124.8 210.36 Z M 127.64 215.64 C 128.63 215.23 129.56 214.76 130.41 214.22 C 132.42 216.53 132.88 218.08 133.4 219.54 C 131.99 220.52 130.49 221.36 128.85 221.86 C 128.67 219.97 128.41 218.02 127.64 215.64 Z M 128.87 223.33 C 130.76 222.77 132.36 222.02 133.69 221.09 C 134.1 223.68 133.92 225.25 133.64 226.62 C 131.5 228.24 129.81 228.93 128.17 229.55 C 128.4 228.24 128.61 228.84 128.87 223.33 Z M 127.69 231.39 C 129.2 230.91 130.74 230.39 132.97 228.97 C 131 233.68 127.59 236.12 124.61 237.15 C 125.7 235.92 126.77 234.43 127.69 231.39 Z M 125.92 231.84 C 124.46 235.74 122.35 237.52 120.54 237.93 L 120.54 232.58 C 122.41 232.53 124.21 232.3 125.92 231.84 Z M 120.52 231.12 L 120.52 224.9 C 122.35 224.95 124.74 224.53 127.34 223.94 C 127.34 226.59 126.96 228.46 126.54 230.24 C 124.12 230.89 122.25 231.06 120.52 231.12 Z M 120.61 223.33 L 120.61 217.01 C 122.52 216.92 124.41 216.66 126.22 216.1 C 126.84 217.93 127.17 220.08 127.41 222.35 C 125.32 222.95 123.03 223.24 120.61 223.33 Z M 120.46 209.48 L 121.05 209.48 C 122.4 209.93 123.36 211 123.91 211.69 C 124.72 212.75 125.18 213.71 125.61 214.67 C 124.23 215.06 122.62 215.42 120.46 215.5 Z M 119.04 215.57 C 117.32 215.5 115.63 215.22 113.97 214.74 C 114.52 213.36 115.24 212.1 116.23 211.04 C 116.84 210.43 117.49 209.88 118.44 209.56 L 119.04 209.56 Z M 119.11 223.34 C 116.54 223.24 114.29 222.9 112.3 222.35 C 112.43 220.54 112.48 218.81 113.5 216.11 C 115.74 216.82 118.33 217.02 119.12 217 Z M 119.04 224.83 L 119.05 231.07 C 117.07 231.12 115.1 230.78 113.13 230.27 C 112.5 228.05 112.23 225.93 112.24 223.87 C 114.47 224.5 116.75 224.79 119.04 224.83 Z M 119.04 232.66 L 119.04 238 C 117.98 237.77 117.09 237.19 116.32 236.41 C 115.09 235.14 114.26 233.6 113.64 232.06 C 115.43 232.43 117.22 232.7 119.04 232.66 Z M 111.91 231.51 C 112.92 234.62 114 235.93 115.07 237.19 C 110.36 235.4 108.06 232.15 106.79 229.37 C 108.46 230.25 110.14 231.12 111.91 231.51 Z M 106.02 227.08 C 105.54 225.38 105.41 223.42 105.81 221.08 C 107.17 221.93 108.71 222.73 110.72 223.41 C 110.72 225.7 110.94 227.8 111.41 229.72 C 109.92 229.3 108.22 228.57 106.02 227.08 Z M 106.25 219.55 C 106.87 217.47 107.91 215.72 109.26 214.23 C 110.22 214.88 111.11 215.23 112 215.64 C 111.26 217.7 110.93 219.98 110.82 221.89 C 109.38 221.37 107.93 220.83 106.25 219.55 Z M 110.28 213.1 C 111.82 211.79 113.32 210.92 114.78 210.37 C 114.04 211.25 113.27 212.39 112.46 214.14 C 111.65 213.79 110.91 213.45 110.28 213.1 Z" fill="#505050" stroke="none" pointer-events="all"/></g><g><rect x="169" y="185" width="45" height="53" fill="none" stroke="none" pointer-events="all"/><path d="M 184.3 231.89 L 171.91 231.89 C 170.38 231.89 169 230.53 169 228.99 L 169 187.93 C 169 186.4 170.33 185 171.89 185 L 192.22 185 C 193.76 185 195.15 186.33 195.15 187.93 L 195.15 206.58 C 194.69 206.58 194.33 206.7 194 206.84 L 192.16 207.61 L 192.16 190.94 L 171.99 190.94 L 171.99 222.2 L 184.82 222.2 L 186.03 222.73 L 186.03 223.92 L 184.34 224.64 C 183.96 224.8 183.73 225 183.54 225.19 L 180.21 225.19 C 179.72 225.19 179.46 225.52 179.46 225.93 L 179.46 227.42 C 179.46 227.92 179.83 228.17 180.18 228.17 L 182.7 228.17 C 182.75 228.35 182.81 228.49 182.86 228.63 L 184.05 231.45 C 184.13 231.62 184.21 231.77 184.3 231.89 Z M 188.22 221.35 L 185.17 220.1 C 184.73 219.85 184.54 219.5 184.72 219 L 185.88 216.24 C 186.14 215.82 186.46 215.58 186.98 215.79 L 189.82 217.22 C 190.73 216.15 191.72 215.09 192.82 214.16 L 191.58 211.13 C 191.49 210.77 191.45 210.41 191.97 210.08 L 194.83 208.88 C 195.38 208.71 195.69 208.94 195.87 209.25 L 197.14 212.37 C 198.43 212.11 199.7 211.99 201.2 212.43 L 202.48 209.28 C 202.76 208.84 203.12 208.72 203.56 208.88 L 206.4 210.08 C 206.87 210.36 206.92 210.72 206.8 211.09 L 205.53 214.2 C 206.65 215.09 207.66 216.03 208.5 217.1 L 211.55 215.86 C 212.11 215.7 212.44 215.91 212.64 216.32 L 213.83 219.15 C 213.91 219.56 213.82 219.91 213.4 220.15 L 210.29 221.4 C 210.44 222.61 210.42 224.13 210.29 225.47 L 213.4 226.72 C 213.82 226.98 214 227.31 213.87 227.75 L 212.74 230.4 C 212.53 230.75 212.22 230.91 211.76 230.81 L 208.63 229.55 C 207.8 230.67 206.77 231.67 205.61 232.53 L 206.86 235.58 C 207.05 236.06 206.8 236.47 206.5 236.62 L 203.49 237.88 C 203.08 237.95 202.72 237.92 202.54 237.41 L 201.28 234.3 C 200.12 234.62 198.7 234.7 197.23 234.33 L 195.98 237.4 C 195.78 237.72 195.55 238 194.99 237.87 L 192.05 236.65 C 191.63 236.35 191.45 236 191.71 235.5 L 193.1 232.73 C 191.87 231.8 190.84 230.81 190.03 229.76 L 187.04 230.98 C 186.56 231.16 186.19 231.04 185.91 230.62 L 184.71 227.76 C 184.58 227.38 184.68 226.94 185.13 226.72 L 188.23 225.38 C 188.1 224.04 188.1 222.7 188.22 221.35 Z M 191.56 223.3 C 191.56 228.06 195.5 231 199.34 231 C 203.51 231 206.96 227.47 206.96 223.37 C 206.96 218.98 203.24 215.68 199.36 215.68 C 195.55 215.68 191.56 218.53 191.56 223.3 Z" fill="#505050" stroke="none" pointer-events="all"/></g><g><rect x="229" y="187" width="55" height="53" fill="none" stroke="none" pointer-events="all"/><path d="M 254.94 192.96 L 260.29 187.98 C 260.95 187.33 261.63 187 262.36 187 L 275.01 187 C 276.43 187 277.9 188.25 277.9 189.95 L 277.9 192.96 Z M 253.54 231.71 L 229 231.71 L 229 198.06 C 229 196.58 230.36 195.2 231.88 195.2 L 277.9 195.2 L 277.9 210.33 C 277.73 210.2 277.53 210.08 277.27 209.97 L 274.35 208.74 C 272.47 208.04 270.93 209.32 270.55 210.43 L 269.96 211.97 L 268.7 211.97 L 268.07 210.36 C 267.31 208.76 265.58 208.28 264.31 208.82 L 261.14 210.16 C 259.88 210.87 259.22 212.45 259.82 214 L 260.48 215.55 L 259.66 216.36 L 258.06 215.67 C 256.38 215.03 254.88 216.01 254.36 217.13 L 253.05 220.23 C 252.51 221.7 253.1 223.34 254.52 224.03 L 256.25 224.79 L 256.25 225.98 L 254.58 226.7 C 252.98 227.45 252.56 229.18 253.05 230.54 Z M 258.44 223.33 L 255.41 222.07 C 254.98 221.83 254.8 221.48 254.97 220.97 L 256.11 218.21 C 256.37 217.79 256.7 217.55 257.21 217.76 L 260.04 219.18 C 260.93 218.12 261.91 217.06 263.01 216.13 L 261.77 213.09 C 261.68 212.73 261.65 212.38 262.16 212.03 L 264.99 210.84 C 265.54 210.66 265.84 210.9 266.03 211.21 L 267.3 214.32 C 268.56 214.08 269.83 213.96 271.31 214.39 L 272.58 211.23 C 272.86 210.8 273.21 210.68 273.65 210.84 L 276.46 212.04 C 276.93 212.33 276.98 212.68 276.86 213.05 L 275.6 216.16 C 276.71 217.06 277.73 218 278.55 219.06 L 281.58 217.83 C 282.12 217.67 282.45 217.88 282.65 218.29 L 283.83 221.12 C 283.91 221.54 283.82 221.89 283.41 222.12 L 280.33 223.38 C 280.47 224.59 280.45 226.11 280.33 227.45 L 283.41 228.7 C 283.82 228.96 284 229.3 283.87 229.74 L 282.76 232.39 C 282.54 232.73 282.23 232.91 281.78 232.79 L 278.68 231.53 C 277.86 232.66 276.83 233.65 275.68 234.53 L 276.92 237.57 C 277.11 238.06 276.86 238.47 276.56 238.62 L 273.58 239.87 C 273.18 239.95 272.82 239.91 272.65 239.41 L 271.39 236.28 C 270.25 236.61 268.83 236.69 267.38 236.31 L 266.13 239.39 C 265.93 239.72 265.71 240 265.15 239.86 L 262.24 238.65 C 261.82 238.35 261.64 237.99 261.9 237.49 L 263.29 234.71 C 262.06 233.79 261.03 232.8 260.23 231.75 L 257.27 232.98 C 256.8 233.14 256.42 233.03 256.14 232.6 L 254.96 229.75 C 254.83 229.37 254.93 228.92 255.37 228.7 L 258.45 227.36 C 258.33 226.02 258.32 224.67 258.44 223.33 Z M 261.76 225.27 C 261.76 230.04 265.66 232.99 269.46 232.99 C 273.6 232.99 277.02 229.46 277.02 225.34 C 277.02 220.94 273.33 217.64 269.48 217.64 C 265.72 217.64 261.76 220.51 261.76 225.27 Z" fill="#505050" stroke="none" pointer-events="all"/></g><g><rect x="310" y="195" width="56" height="52" fill="none" stroke="none" pointer-events="all"/><path d="M 349.93 199.51 L 352.2 199.51 L 352.2 197.25 L 349.93 197.25 Z M 354.46 199.51 L 356.73 199.51 L 356.73 197.25 L 354.46 197.25 Z M 334.35 235.56 L 312.97 235.56 C 311.26 235.56 310 234.06 310 232.63 L 310 197.91 C 310 196.28 311.49 195 312.92 195 L 360.55 195 C 362.09 195 363.51 196.32 363.51 197.97 L 363.51 222.12 C 362.77 222.1 361.94 222.56 361.25 222.86 L 361.25 202.51 L 312.26 202.51 L 312.26 232.62 C 312.26 232.93 312.51 233.31 313 233.31 L 336.5 233.31 C 335.43 233.69 334.65 234.34 334.35 235.56 Z M 334.48 229.23 C 332.95 228.48 331.69 226.63 331.03 224.66 C 332.38 224.97 333.82 225.19 335.22 225.19 L 334.56 226.77 C 334.12 227.77 334.24 228.58 334.48 229.23 Z M 332.07 228.87 C 329.59 227.99 326.68 225.73 325.3 222.48 C 326.51 223.19 327.86 223.79 329.51 224.29 C 330.12 226.25 331 227.78 332.07 228.87 Z M 329.06 222.94 C 327.67 222.46 326.05 221.73 324.62 220.77 C 324.25 219.31 324.06 217.63 324.46 215.88 C 325.65 216.62 327.02 217.22 328.53 217.76 C 328.51 219.84 328.78 221.3 329.06 222.94 Z M 330.57 223.38 C 330.15 221.8 329.79 220.09 329.82 218.13 C 331.62 218.61 333.53 218.83 335.39 218.88 L 335.39 223.99 C 333.82 223.92 332.16 223.71 330.57 223.38 Z M 336.61 222.85 L 336.61 218.88 C 338.03 218.9 339.76 218.71 341.35 218.34 C 341 219.26 341.11 220.05 341.33 220.67 L 341.83 221.83 L 341.66 222.63 L 341.2 223.09 L 339.55 222.39 C 338.64 222.04 337.54 222.12 336.61 222.85 Z M 324.84 214.52 C 325.33 213.01 326.16 211.47 327.33 210.17 C 327.95 210.58 328.75 211 329.58 211.3 C 329.02 212.94 328.66 214.85 328.61 216.4 C 327.25 215.97 325.97 215.35 324.84 214.52 Z M 329.83 216.84 C 329.92 214.99 330.23 213.33 330.72 211.83 C 332.22 212.27 333.83 212.54 335.39 212.57 L 335.39 217.67 C 333.47 217.61 331.61 217.31 329.83 216.84 Z M 336.61 217.6 L 336.61 212.5 C 338.03 212.43 339.65 212.27 341.28 211.75 C 341.76 213.39 342.11 215.06 342.19 216.77 C 340.33 217.34 338.47 217.53 336.61 217.6 Z M 343.38 216.4 C 343.23 214.48 342.95 212.89 342.41 211.3 C 343.14 211.02 343.96 210.65 344.67 210.17 C 345.77 211.43 346.67 212.95 347.14 214.52 C 346.09 215.36 344.73 215.99 343.38 216.4 Z M 328.17 209.35 C 329.15 208.45 330.49 207.59 331.85 207.1 C 331.07 207.96 330.45 209.04 329.97 210.24 C 329.38 209.99 328.78 209.69 328.17 209.35 Z M 331.18 210.61 C 331.94 208.73 333.3 206.9 334.95 206.35 L 335.39 206.34 L 335.39 211.3 C 333.93 211.24 332.45 210.99 331.18 210.61 Z M 336.61 211.3 L 336.61 206.42 L 337.04 206.41 C 338.86 206.96 340.08 208.88 340.82 210.61 C 339.45 211.03 337.95 211.22 336.61 211.3 Z M 342.02 210.17 C 341.53 209.08 340.99 208.02 340.15 207.1 C 341.43 207.58 342.71 208.36 343.83 209.27 C 343.27 209.63 342.67 209.93 342.02 210.17 Z M 358.99 199.51 L 361.25 199.51 L 361.25 197.25 L 358.99 197.25 Z M 339.94 230.16 L 336.87 228.9 C 336.43 228.65 336.24 228.3 336.42 227.79 L 337.58 225 C 337.84 224.58 338.18 224.34 338.7 224.55 L 341.57 225.99 C 342.49 224.91 343.49 223.83 344.61 222.9 L 343.35 219.83 C 343.25 219.47 343.22 219.11 343.74 218.76 L 346.64 217.55 C 347.19 217.37 347.5 217.61 347.68 217.94 L 348.98 221.08 C 350.27 220.83 351.56 220.71 353.07 221.15 L 354.36 217.96 C 354.65 217.51 355.02 217.39 355.45 217.55 L 358.32 218.77 C 358.8 219.06 358.85 219.42 358.72 219.79 L 357.45 222.93 C 358.57 223.83 359.61 224.79 360.44 225.87 L 363.53 224.62 C 364.09 224.46 364.42 224.67 364.62 225.09 L 365.83 227.94 C 365.91 228.36 365.82 228.71 365.4 228.95 L 362.26 230.21 C 362.41 231.45 362.39 232.98 362.26 234.33 L 365.4 235.59 C 365.82 235.85 366 236.19 365.87 236.63 L 364.73 239.32 C 364.51 239.67 364.2 239.84 363.74 239.72 L 360.57 238.45 C 359.74 239.59 358.69 240.6 357.53 241.47 L 358.79 244.55 C 358.98 245.05 358.72 245.46 358.42 245.61 L 355.39 246.88 C 354.98 246.95 354.61 246.92 354.43 246.41 L 353.15 243.25 C 351.98 243.58 350.55 243.66 349.07 243.28 L 347.79 246.4 C 347.59 246.72 347.36 247 346.8 246.87 L 343.82 245.64 C 343.4 245.34 343.21 244.98 343.48 244.47 L 344.89 241.67 C 343.64 240.73 342.6 239.73 341.78 238.68 L 338.76 239.91 C 338.28 240.09 337.89 239.97 337.61 239.53 L 336.41 236.64 C 336.28 236.26 336.38 235.81 336.83 235.59 L 339.96 234.24 C 339.83 232.88 339.82 231.53 339.95 230.16 Z M 343.33 232.14 C 343.33 236.94 347.31 239.93 351.19 239.93 C 355.4 239.93 358.89 236.35 358.89 232.21 C 358.89 227.76 355.13 224.44 351.21 224.44 C 347.36 224.44 343.33 227.32 343.33 232.14 Z" fill="#505050" stroke="none" pointer-events="all"/></g><g><rect x="-0.5" y="281" width="83" height="51" fill="none" stroke="none" pointer-events="all"/><path d="M 39.49 287.76 L 41.75 287.76 L 41.75 285.5 L 39.49 285.5 Z M 44.02 287.76 L 46.28 287.76 L 46.28 285.5 L 44.02 285.5 Z M 48.55 287.76 L 50.81 287.76 L 50.81 285.5 L 48.55 285.5 Z M 26.17 323.79 L 2.46 323.79 C 0.88 323.79 -0.5 322.42 -0.5 320.86 L -0.5 286.2 C -0.5 284.51 1 283.25 2.4 283.25 L 50.06 283.25 C 51.74 283.25 53.07 284.65 53.07 286.22 L 53.07 305.77 C 52.36 305.08 51.56 304.45 50.81 303.96 L 50.81 290.76 L 1.76 290.76 L 1.76 320.78 C 1.76 321.14 1.97 321.54 2.49 321.54 L 25.45 321.54 C 25.64 322.32 25.88 323.06 26.17 323.79 Z M 46.77 304.4 C 48.68 305.08 50.05 306.07 51.22 307.2 C 50.56 307.57 49.85 307.93 49.03 308.25 C 48.2 306.28 47.48 305.24 46.77 304.4 Z M 49.63 309.67 C 50.64 309.27 51.57 308.8 52.44 308.26 C 54.47 310.56 54.92 312.1 55.46 313.57 C 54.02 314.54 52.52 315.37 50.86 315.88 C 50.68 314 50.42 312.05 49.63 309.67 Z M 50.88 317.36 C 52.79 316.8 54.4 316.03 55.75 315.1 C 56.16 317.71 55.98 319.27 55.7 320.64 C 53.54 322.25 51.84 322.94 50.18 323.56 C 50.41 322.24 50.62 322.85 50.88 317.36 Z M 49.68 325.39 C 51.21 324.91 52.77 324.4 55.01 322.97 C 53.03 327.69 49.59 330.12 46.58 331.15 C 47.68 329.93 48.76 328.44 49.68 325.39 Z M 47.89 325.85 C 46.42 329.75 44.29 331.52 42.46 331.93 L 42.46 326.58 C 44.35 326.53 46.17 326.3 47.89 325.85 Z M 42.45 325.13 L 42.45 318.91 C 44.3 318.96 46.71 318.55 49.33 317.97 C 49.34 320.6 48.95 322.46 48.52 324.25 C 46.07 324.9 44.2 325.07 42.45 325.13 Z M 42.54 317.36 L 42.54 311.04 C 44.47 310.94 46.36 310.68 48.19 310.14 C 48.83 311.96 49.16 314.11 49.41 316.36 C 47.3 316.98 44.98 317.27 42.54 317.36 Z M 42.39 303.52 L 42.98 303.52 C 44.35 303.97 45.31 305.03 45.86 305.73 C 46.69 306.79 47.16 307.75 47.59 308.7 C 46.19 309.1 44.57 309.45 42.38 309.54 Z M 40.95 309.61 C 39.22 309.53 37.51 309.25 35.83 308.78 C 36.38 307.4 37.12 306.13 38.11 305.07 C 38.73 304.47 39.38 303.91 40.35 303.59 L 40.95 303.59 Z M 41.02 317.37 C 38.42 317.27 36.15 316.92 34.15 316.37 C 34.28 314.56 34.33 312.84 35.36 310.14 C 37.62 310.84 40.24 311.05 41.03 311.03 Z M 40.95 318.85 L 40.95 325.07 C 38.96 325.13 36.97 324.79 34.98 324.28 C 34.35 322.06 34.08 319.94 34.09 317.9 C 36.34 318.52 38.63 318.8 40.95 318.85 Z M 40.95 326.66 L 40.95 332 C 39.87 331.77 38.99 331.19 38.2 330.41 C 36.96 329.14 36.12 327.61 35.5 326.06 C 37.31 326.43 39.12 326.7 40.95 326.66 Z M 33.75 325.51 C 34.77 328.62 35.86 329.93 36.95 331.19 C 32.19 329.4 29.86 326.15 28.58 323.38 C 30.27 324.25 31.96 325.13 33.75 325.51 Z M 27.79 321.1 C 27.32 319.4 27.19 317.45 27.59 315.1 C 28.97 315.94 30.51 316.75 32.55 317.43 C 32.54 319.72 32.77 321.81 33.24 323.72 C 31.74 323.3 30.02 322.57 27.79 321.1 Z M 28.03 313.58 C 28.66 311.5 29.7 309.75 31.07 308.26 C 32.05 308.92 32.94 309.26 33.85 309.68 C 33.09 311.73 32.76 314.01 32.64 315.91 C 31.19 315.39 29.73 314.85 28.03 313.58 Z M 32.11 307.13 C 33.66 305.83 35.16 304.95 36.65 304.41 C 35.89 305.29 35.11 306.42 34.31 308.18 C 33.48 307.83 32.73 307.48 32.11 307.13 Z" fill="#505050" stroke="none" pointer-events="all"/><path d="M 75.26 293.75 L 81.36 288.13 L 81.36 287.74 C 81.36 287.54 81.21 287.39 80.95 287.39 L 71.94 287.39 L 71.94 290.09 Z M 71.94 298.65 L 81.01 298.65 C 81.15 298.65 81.34 298.54 81.36 298.31 L 81.36 289.64 L 75.62 294.96 C 75.37 295.2 75.02 295.12 74.86 294.95 L 71.94 291.81 Z M 64.38 295.86 C 63.32 295.86 62.51 294.79 62.51 293.02 C 62.51 291.63 63.21 290.17 64.55 290.17 C 65.71 290.17 66.37 291.51 66.37 292.98 C 66.37 294.26 65.83 295.88 64.38 295.86 Z M 64.66 297.53 C 66.51 297.5 68.18 295.83 68.17 292.76 C 68.17 290.85 67.16 288.42 64.65 288.42 C 62.18 288.45 61.02 290.81 60.93 292.73 C 60.82 295.91 62.52 297.57 64.66 297.53 Z M 57.6 302.76 L 57.6 283.25 L 71.94 281 L 71.94 286.26 L 80.97 286.26 C 81.89 286.26 82.5 287.03 82.5 287.73 L 82.5 298.26 C 82.5 299.2 81.72 299.77 81.01 299.77 L 71.94 299.77 L 71.94 305.02 Z" fill="#2372ba" stroke="none" pointer-events="all"/></g><g><rect x="82.5" y="285" width="59" height="49" fill="none" stroke="none" pointer-events="all"/><path d="M 114.7 299.94 C 112.05 297.81 108.46 296.68 104.95 297.23 C 97.93 298.33 93.59 305.09 94.54 311.29 C 95.48 317.36 101.02 323.02 108.64 321.84 C 115.41 320.78 119.12 315.08 119.17 309.5 L 130.07 311.28 C 130.63 311.52 131.13 311.82 131.06 312.75 L 129.84 317.74 C 129.47 318.48 128.94 318.87 128.08 318.57 L 123.32 317.03 C 122.13 319.24 120.81 321.13 119.34 322.67 L 122.03 327.15 C 122.42 327.87 122.33 328.51 121.71 329.06 L 117.45 331.68 C 116.87 331.98 116.15 331.94 115.68 331.28 L 112.78 326.65 C 110.67 327.19 108.53 327.54 106.35 327.67 L 106.35 327.67 L 105.1 332.85 C 104.82 333.61 104.31 334 103.45 333.85 L 98.77 332.68 C 98.04 332.37 97.58 331.92 97.78 331.03 L 99.35 326.13 C 97.42 324.95 95.48 323.63 93.74 322.1 L 89.2 324.84 C 88.64 325.08 88.09 325.23 87.41 324.48 L 84.79 320.21 C 84.39 319.38 84.68 318.83 85.15 318.45 L 89.8 315.64 C 89.08 313.65 88.57 311.65 88.9 309.16 L 83.55 307.89 C 82.78 307.55 82.5 307 82.65 306.27 L 83.86 301.43 C 84.21 300.61 84.75 300.45 85.38 300.53 L 90.66 301.79 C 91.8 299.79 93.05 297.92 94.55 296.34 L 91.82 291.76 C 91.44 290.91 91.69 290.34 92.3 289.91 L 96.52 287.3 C 97.15 287.07 97.74 287.12 98.21 287.73 L 100.98 292.39 C 102.88 291.85 105.31 291.5 107.47 291.38 L 108.71 286.11 C 109.01 285.37 109.51 285 110.24 285.1 L 114.7 286.24 Z" fill="#505050" stroke="none" pointer-events="all"/><path d="M 133.31 294.94 L 133.31 290.45 C 135.86 290.45 137.77 292.55 137.77 294.94 Z M 131.08 305.79 L 140.01 305.79 C 140.25 305.79 140.39 305.64 140.39 305.39 L 140.39 288.97 C 140.39 288.76 140.26 288.59 140.02 288.59 L 131.08 288.59 L 131.08 291.46 C 131.59 291.27 132.08 291.2 132.57 291.2 L 132.57 295.69 L 137.03 295.69 C 137.03 297.45 136.01 298.81 134.89 299.52 C 133.44 300.38 132.06 300.25 131.08 299.91 L 131.08 302.42 L 137.78 302.42 L 137.78 303.54 L 131.08 303.54 Z M 123.44 296.88 L 123.44 294.07 C 123.77 294.01 124.18 293.9 124.62 293.99 C 124.98 294.08 125.24 294.38 125.34 294.77 C 125.45 295.25 125.45 295.76 125.33 296.12 C 125.21 296.46 124.98 296.73 124.59 296.88 C 124.2 297.02 123.8 296.96 123.44 296.88 Z M 121.7 301.91 L 123.44 302.12 L 123.44 298.68 C 123.9 298.73 124.31 298.76 124.78 298.68 C 125.87 298.51 126.61 297.76 126.99 296.75 C 127.26 296.04 127.33 294.62 126.79 293.61 C 126.41 292.74 125.83 292.3 124.39 292.33 L 121.7 292.49 Z M 116.93 306.9 L 116.93 287.46 L 131.08 285.22 L 131.08 287.46 L 139.99 287.46 C 140.95 287.46 141.5 288.26 141.5 288.94 L 141.5 305.36 C 141.5 306.43 140.64 306.9 140.03 306.9 L 131.08 306.9 L 131.08 309.15 Z" fill="#dc5b26" stroke="none" pointer-events="all"/></g><g><rect x="164" y="281" width="50" height="58" fill="none" stroke="none" pointer-events="all"/><path d="M 197.55 294.54 L 199.66 294.54 L 199.66 284.86 L 198.39 284.86 C 197.56 285.51 196.63 285.98 195.59 286.28 L 195.59 287.94 C 196.27 287.85 197.05 287.69 197.55 287.19 Z M 198.41 299.79 C 192.43 299.7 188.85 295 188.88 290.45 C 188.77 285.81 192.58 281 198.53 281.02 C 203.34 281.13 207.71 285.04 207.74 290.43 C 207.74 295.84 203.25 299.79 198.41 299.79 Z M 185.71 324.56 L 167.35 324.56 C 165.27 324.56 164 322.8 164 321.27 L 164 291.81 C 164 290.03 165.56 288.54 167.22 288.54 L 186.77 288.54 C 186.14 292.75 187.68 296.18 189.96 298.52 C 192.61 301.17 196.39 302.57 200.27 301.88 L 200.27 309.12 L 199.67 310.66 L 198.38 310.67 L 197.77 309.14 C 197.1 307.56 195.29 306.92 193.85 307.52 L 190.87 308.77 C 189.51 309.33 188.66 311.08 189.34 312.71 L 190.01 314.27 L 189.18 315.1 L 187.6 314.42 C 185.87 313.73 184.31 314.73 183.75 315.92 L 182.47 318.92 C 181.81 320.62 182.67 322.23 184.02 322.85 L 185.71 323.57 Z M 187.91 322.16 L 184.82 320.89 C 184.38 320.65 184.19 320.29 184.36 319.78 L 185.54 317 C 185.8 316.57 186.13 316.33 186.65 316.54 L 189.54 317.98 C 190.45 316.9 191.46 315.83 192.57 314.9 L 191.31 311.83 C 191.22 311.47 191.18 311.11 191.71 310.76 L 194.61 309.55 C 195.16 309.38 195.47 309.62 195.66 309.93 L 196.95 313.08 C 198.24 312.83 199.53 312.7 201.05 313.14 L 202.35 309.96 C 202.63 309.51 203 309.39 203.43 309.55 L 206.32 310.76 C 206.78 311.06 206.83 311.41 206.72 311.79 L 205.43 314.93 C 206.56 315.83 207.6 316.78 208.44 317.86 L 211.53 316.61 C 212.09 316.46 212.42 316.67 212.62 317.08 L 213.83 319.93 C 213.91 320.35 213.82 320.71 213.4 320.94 L 210.26 322.21 C 210.4 323.44 210.39 324.98 210.25 326.33 L 213.4 327.6 C 213.82 327.86 214 328.2 213.87 328.64 L 212.73 331.32 C 212.51 331.66 212.2 331.84 211.74 331.72 L 208.57 330.45 C 207.73 331.59 206.69 332.6 205.51 333.47 L 206.77 336.55 C 206.96 337.04 206.71 337.46 206.42 337.61 L 203.36 338.88 C 202.96 338.95 202.59 338.92 202.42 338.41 L 201.13 335.26 C 199.96 335.58 198.52 335.66 197.04 335.28 L 195.76 338.39 C 195.56 338.72 195.32 339 194.76 338.87 L 191.79 337.64 C 191.37 337.34 191.18 336.98 191.44 336.47 L 192.86 333.67 C 191.61 332.73 190.56 331.73 189.74 330.68 L 186.71 331.91 C 186.23 332.09 185.85 331.97 185.57 331.53 L 184.35 328.65 C 184.23 328.27 184.32 327.82 184.77 327.6 L 187.92 326.24 C 187.79 324.89 187.78 323.52 187.91 322.16 Z M 191.3 324.13 C 191.3 328.95 195.28 331.93 199.16 331.93 C 203.38 331.93 206.87 328.36 206.87 324.2 C 206.87 319.76 203.11 316.43 199.18 316.43 C 195.33 316.43 191.3 319.31 191.3 324.13 Z" fill="#505050" stroke="none" pointer-events="all"/></g><g><rect x="231" y="286" width="56" height="52" fill="none" stroke="none" pointer-events="all"/><path d="M 271.05 290.52 L 273.32 290.52 L 273.32 288.26 L 271.05 288.26 Z M 275.58 290.52 L 277.85 290.52 L 277.85 288.26 L 275.58 288.26 Z M 264.93 297.3 L 266.44 297.3 L 268.1 304.04 L 269.99 297.3 L 271.42 297.3 L 273.17 304.08 L 274.83 297.3 L 276.26 297.3 L 273.99 305.58 L 272.41 305.58 L 270.67 299.22 L 268.93 305.58 L 267.27 305.58 Z M 252.12 297.3 L 253.63 297.3 L 255.29 304.04 L 257.18 297.3 L 258.62 297.3 L 260.36 304.08 L 262.01 297.3 L 263.45 297.3 L 261.19 305.58 L 259.59 305.58 L 257.86 299.22 L 256.12 305.58 L 254.47 305.58 Z M 255.41 326.66 L 233.9 326.66 C 232.4 326.57 231.01 325.41 231 323.59 L 231 288.92 C 231 287.51 232.27 286 233.97 286 L 281.69 286 C 283.23 286 284.65 287.34 284.65 288.92 L 284.65 313.18 C 284.28 313.2 283.91 313.28 283.54 313.43 L 282.39 313.92 L 282.39 293.53 L 233.27 293.53 L 233.27 323.68 C 233.27 323.87 233.36 324.41 234.09 324.41 L 257.57 324.41 C 256.39 324.82 255.68 325.58 255.41 326.65 Z M 240.07 318.38 L 240.07 316.12 L 253.67 316.12 L 253.67 318.38 Z M 240.07 313.11 L 240.07 310.85 L 255.94 310.85 L 255.94 313.11 Z M 239.31 297.3 L 240.82 297.3 L 242.48 304.04 L 244.37 297.3 L 245.81 297.3 L 247.55 304.08 L 249.21 297.3 L 250.65 297.3 L 248.38 305.58 L 246.79 305.58 L 245.06 299.22 L 243.31 305.58 L 241.66 305.58 Z M 280.12 290.52 L 282.39 290.52 L 282.39 288.26 L 280.12 288.26 Z M 261.01 321.2 L 257.93 319.94 C 257.49 319.7 257.3 319.33 257.48 318.83 L 258.65 316.05 C 258.9 315.63 259.23 315.39 259.76 315.59 L 262.63 317.04 C 263.53 315.95 264.54 314.89 265.65 313.95 L 264.4 310.89 C 264.3 310.53 264.26 310.17 264.79 309.83 L 267.68 308.61 C 268.23 308.44 268.54 308.68 268.72 309 L 270.01 312.14 C 271.3 311.88 272.59 311.76 274.09 312.21 L 275.39 309.02 C 275.68 308.58 276.04 308.46 276.47 308.61 L 279.34 309.83 C 279.82 310.12 279.86 310.48 279.75 310.85 L 278.47 313.99 C 279.58 314.89 280.62 315.83 281.46 316.91 L 284.54 315.66 C 285.1 315.51 285.43 315.72 285.63 316.13 L 286.84 318.98 C 286.91 319.39 286.83 319.76 286.41 319.99 L 283.27 321.25 C 283.42 322.48 283.4 324 283.27 325.36 L 286.41 326.62 C 286.82 326.88 287 327.22 286.88 327.66 L 285.74 330.33 C 285.52 330.68 285.21 330.86 284.75 330.74 L 281.59 329.47 C 280.75 330.61 279.72 331.61 278.55 332.49 L 279.8 335.56 C 279.99 336.05 279.74 336.46 279.44 336.61 L 276.41 337.88 C 276 337.95 275.63 337.92 275.45 337.41 L 274.17 334.26 C 273.02 334.59 271.57 334.67 270.1 334.3 L 268.82 337.4 C 268.63 337.72 268.39 338 267.84 337.87 L 264.86 336.63 C 264.45 336.34 264.26 335.98 264.53 335.47 L 265.93 332.68 C 264.69 331.74 263.64 330.75 262.83 329.7 L 259.82 330.92 C 259.33 331.1 258.95 330.98 258.67 330.55 L 257.47 327.67 C 257.34 327.29 257.44 326.83 257.88 326.61 L 261.02 325.27 C 260.88 323.91 260.87 322.56 261.01 321.2 Z M 264.38 323.17 C 264.38 327.97 268.35 330.94 272.22 330.94 C 276.42 330.94 279.9 327.38 279.9 323.24 C 279.9 318.8 276.15 315.48 272.24 315.48 C 268.4 315.48 264.38 318.36 264.38 323.17 Z" fill="#505050" stroke="none" pointer-events="all"/></g><g><rect x="318" y="285" width="58" height="54" fill="none" stroke="none" pointer-events="all"/><path d="M 358.12 313.2 C 358.46 313.19 358.8 312.94 358.81 312.47 L 358.81 310.9 C 358.81 310.52 358.53 310.16 358.11 310.16 L 354.23 310.16 C 353.91 310.16 353.54 310.43 353.54 310.9 L 353.54 312.51 C 353.56 312.89 353.85 313.21 354.27 313.2 Z M 358.12 307.89 C 358.46 307.88 358.8 307.61 358.81 307.15 L 358.81 305.58 C 358.81 305.21 358.53 304.85 358.11 304.85 L 354.23 304.85 C 353.91 304.85 353.54 305.1 353.54 305.59 L 353.54 307.2 C 353.56 307.57 353.85 307.89 354.27 307.89 Z M 350.58 313.2 C 350.92 313.19 351.27 312.94 351.27 312.47 L 351.27 310.9 C 351.27 310.52 351 310.16 350.57 310.16 L 346.69 310.16 C 346.37 310.16 346 310.43 346 310.9 L 346 312.51 C 346.02 312.89 346.31 313.21 346.73 313.2 Z M 350.58 307.89 C 350.92 307.88 351.27 307.61 351.27 307.15 L 351.27 305.58 C 351.27 305.21 351 304.85 350.57 304.85 L 346.69 304.85 C 346.37 304.85 346 305.1 346 305.59 L 346 307.2 C 346.02 307.57 346.31 307.89 346.73 307.89 Z M 343.06 307.89 C 343.4 307.88 343.74 307.61 343.74 307.15 L 343.74 305.58 C 343.74 305.21 343.47 304.85 343.04 304.85 L 339.16 304.85 C 338.84 304.85 338.47 305.1 338.47 305.59 L 338.47 307.2 C 338.5 307.57 338.78 307.89 339.2 307.89 Z M 343.06 313.2 C 343.4 313.19 343.74 312.93 343.74 312.46 L 343.74 310.89 C 343.74 310.52 343.47 310.16 343.04 310.16 L 339.16 310.16 C 338.84 310.16 338.47 310.42 338.47 310.9 L 338.47 312.51 C 338.5 312.89 338.78 313.2 339.2 313.2 Z M 343.06 318.51 C 343.4 318.5 343.74 318.24 343.74 317.77 L 343.74 316.2 C 343.74 315.83 343.47 315.48 343.04 315.48 L 339.16 315.48 C 338.84 315.48 338.47 315.73 338.47 316.21 L 338.47 317.82 C 338.5 318.2 338.78 318.51 339.2 318.51 Z M 351.18 328.15 C 349.45 328.15 346.38 326.7 346.38 322.55 C 346.38 320.22 348.25 317.38 351.2 317.38 C 354.13 317.38 356.03 320.19 356.03 322.65 C 356.03 326 353.65 328.15 351.18 328.15 Z M 360.33 299.54 C 360.8 299.54 361.07 299.21 361.07 298.82 L 361.07 290.4 C 361.07 290.09 360.88 289.67 360.32 289.67 L 337.67 289.67 C 337.21 289.67 336.96 290.06 336.96 290.4 L 336.96 298.81 C 336.96 299.17 337.21 299.54 337.68 299.54 Z M 366.13 323.29 C 363.45 323.29 361.3 320.86 361.3 317.87 C 361.3 315.15 363.28 312.52 366.17 312.52 C 368.82 312.52 370.95 315.05 370.95 317.84 C 370.95 321.09 368.58 323.28 366.13 323.29 Z M 361.82 334.3 C 361.63 333.08 361.46 331.86 360.91 330.69 C 360.55 329.91 360.04 329.37 359.45 328.94 C 358.98 328.61 358.52 328.3 358.05 328.02 C 357.66 327.79 357.35 327.67 357.01 327.69 C 357.15 327.18 357.3 326.68 357.61 326.18 C 358 325.54 358.59 325.14 359.24 324.79 C 359.74 324.51 360.25 324.2 360.72 323.97 C 361.2 323.74 361.58 323.79 361.89 324.04 C 364.81 326.26 367.49 326.11 370.17 324.07 C 370.5 323.76 370.94 323.77 371.31 323.94 C 371.42 323.98 373.05 324.88 373.5 325.19 C 374.42 325.8 374.8 326.74 375.03 327.53 C 375.52 329.21 375.83 331.99 376 334.3 Z M 341.19 339 C 341.38 337.12 341.57 335.23 341.88 333.48 C 342.19 331.53 342.65 330.57 343.65 329.9 C 344.38 329.47 345.15 328.99 345.81 328.68 C 346.18 328.5 346.57 328.46 346.94 328.71 C 349.36 330.65 352.29 331.11 355.29 328.73 C 355.69 328.44 356.08 328.51 356.46 328.69 C 356.78 328.83 357.68 329.35 358.32 329.73 C 359.14 330.22 359.71 330.87 360.1 332.21 C 360.54 333.79 360.88 336.81 360.85 339 Z M 333.85 327.62 C 332.48 327.62 330.93 326.38 330.93 324.6 L 330.93 288.16 C 330.93 286.43 332.35 285.12 333.94 285.12 L 364.12 285.12 C 365.83 285.12 367.1 286.62 367.1 288.1 L 367.1 310.31 C 363.9 309.87 361 311.74 359.73 314.73 C 358.74 317.26 359 319.57 360.1 321.71 C 359.61 321.83 358.79 322.42 358.37 322.6 C 358.44 319.48 356.05 314.9 350.91 315.03 C 347.23 315.26 344.84 318.22 344.31 321.24 C 343.95 323.4 344.47 325.15 345.18 326.48 C 344.7 326.62 343.8 327.21 343.09 327.62 Z M 320.35 327.2 C 319.22 326.89 318.16 326.05 318.05 324.28 C 318.01 323.37 318 322.4 318.05 321.47 C 318.35 311.2 318.56 300.89 318.03 290.25 C 318.02 289.65 318 289.06 318.05 288.49 C 318.18 286.83 318.97 285.88 320.89 285.36 C 321.85 285.06 324.66 285 326 285.41 C 327.56 285.85 328.5 286.73 328.66 288.45 C 328.74 289.34 328.7 290.19 328.68 291.05 C 328.34 301.12 328.4 311.4 328.69 321.57 C 328.72 322.37 328.71 323.13 328.68 323.86 C 328.69 325.97 327.64 326.99 325.81 327.33 C 323.99 327.71 322.36 327.77 320.35 327.2 Z" fill="#505050" stroke="none" pointer-events="all"/></g><g><rect x="318" y="374" width="60" height="49" fill="none" stroke="none" pointer-events="all"/><path d="M 350.3 388.85 C 347.61 386.66 344.08 385.61 340.72 386.13 C 334.65 387.08 328.97 392.66 330.16 400.34 C 331.34 407.99 338.37 411.76 344.5 410.8 C 350.46 409.88 354.79 404.56 354.92 398.72 L 366.43 400.54 C 366.76 400.87 367.02 401.22 366.92 401.96 L 365.78 406.5 C 365.51 407.11 365.06 407.47 364.31 407.39 L 358.99 406.15 C 357.94 408.17 356.55 410.02 354.91 411.71 L 357.65 416.29 C 358.07 417.03 357.78 417.75 357.35 418.07 L 352.85 420.83 C 352.22 421.04 351.63 421.09 351.22 420.32 L 348.42 415.62 C 346.66 416.42 344.4 416.91 341.97 416.67 L 340.72 421.93 C 340.48 422.5 340.18 423 339.25 422.93 L 334.26 421.7 C 333.52 421.33 333.13 420.79 333.43 419.92 L 334.96 415.12 C 332.76 413.93 330.88 412.6 329.32 411.12 L 324.84 413.83 C 324.12 414.23 323.49 414.14 322.94 413.51 L 320.31 409.21 C 320.02 408.64 320.06 407.9 320.72 407.44 L 325.35 404.51 C 324.81 402.38 324.46 400.23 324.32 398.02 L 324.32 398.02 L 319.15 396.76 C 318.39 396.48 318 395.96 318.15 395.11 L 319.32 390.39 C 319.62 389.65 320.08 389.18 320.97 389.39 L 325.87 390.98 C 327.06 389.03 328.37 387.08 329.91 385.32 L 327.17 380.74 C 326.93 380.19 326.78 379.63 327.53 378.94 L 331.79 376.31 C 332.63 375.9 333.18 376.2 333.56 376.66 L 336.37 381.35 C 338.36 380.63 340.36 380.12 342.86 380.45 L 344.13 375.06 C 344.47 374.28 345.02 374 345.74 374.15 L 350.3 375.28 Z" fill="#505050" stroke="none" pointer-events="all"/><path d="M 366.77 394.98 L 376.5 394.98 C 376.7 394.98 376.87 394.85 376.87 394.59 L 376.87 378.08 C 376.87 377.93 376.77 377.72 376.5 377.72 L 366.77 377.72 L 366.77 379.6 L 375 379.6 L 375 380.72 L 366.77 380.72 L 366.77 382.6 L 375 382.6 L 375 383.72 L 366.77 383.72 L 366.77 385.6 L 375 385.6 L 375 386.73 L 366.77 386.73 L 366.77 388.6 L 375 388.6 L 375 389.73 L 366.77 389.73 L 366.77 391.6 L 375 391.6 L 375 392.72 L 366.77 392.72 Z M 356.33 389.8 L 357.81 389.98 L 358.8 385.28 L 360 390.05 L 361.65 390.16 L 363.52 382.13 L 361.9 382.13 L 360.99 387.44 L 359.86 382.2 L 358.48 382.24 L 357.42 387.33 L 356.58 382.59 L 354.92 382.59 Z M 352.56 396.03 L 352.56 376.53 L 366.77 374.28 L 366.77 376.6 L 376.49 376.6 C 377.25 376.6 378 377.22 377.99 378.11 L 377.99 394.61 C 377.98 395.52 377.22 396.09 376.55 396.1 L 366.77 396.1 L 366.77 398.28 Z" fill="#2c3580" stroke="none" pointer-events="all"/></g><g><rect x="233" y="367" width="60" height="56" fill="none" stroke="none" pointer-events="all"/><path d="M 241.04 373.04 C 243.67 370.71 247.04 368.58 250.76 367.54 C 249.21 369 247.24 371.42 245.48 375.39 C 244.1 374.84 242.21 373.86 241.04 373.04 Z M 234.32 383.92 C 235.49 380.3 237.21 377.35 239.53 374.78 C 241.27 376.05 243.2 376.94 244.73 377.58 C 243.49 381.32 242.97 385.05 242.77 388.31 C 240.29 387.41 237.12 386.1 234.32 383.92 Z M 233.87 396.46 C 233.18 393.36 233 390.02 233.71 386.33 C 236.4 388.16 239.39 389.62 242.69 390.64 C 242.68 394.57 243.1 398.25 243.9 401.52 C 241.03 400.6 237.13 398.83 233.87 396.46 Z M 244.57 404.17 C 246.32 409.5 248.67 412.7 250.76 414.58 C 241.7 411.84 236.95 405.35 234.85 399.86 C 237.46 401.45 240.9 403.1 244.57 404.17 Z M 256.65 405.98 L 256.65 415.19 C 254.85 414.84 253.28 414.02 251.53 412.2 C 249.48 410 248.18 407.43 247.23 404.84 C 250.09 405.49 253.13 405.91 256.65 405.98 Z M 256.65 403.72 C 253.18 403.65 249.91 403.22 246.39 402.35 C 245.31 398.55 244.98 394.84 244.96 391.4 C 249.43 392.53 253.82 392.96 256.65 392.98 Z M 256.65 390.72 C 252.34 390.62 248.45 390 245.03 389.05 C 245.12 386.33 245.69 381.74 246.92 378.33 C 251.16 379.62 255.29 379.95 256.65 379.92 Z M 256.65 377.58 C 253.95 377.52 250.56 377.05 247.68 376.14 C 248.64 373.78 250.3 371.16 252.03 369.5 C 253.43 368.18 254.97 367.29 256.65 367.01 Z M 258.92 367 C 261.25 367.39 263.38 369.07 264.71 370.74 C 266.14 372.49 267.26 374.56 267.89 376.21 C 265.58 376.9 262.69 377.55 258.92 377.65 Z M 258.92 390.73 L 258.92 380 C 262.26 379.91 265.63 379.34 268.65 378.41 C 269.87 381.87 270.4 385.91 270.54 389.06 C 267.38 389.97 263.05 390.65 258.92 390.73 Z M 258.92 403.64 L 258.92 392.91 C 262.61 392.85 266.73 392.39 270.62 391.32 L 270.62 392.06 L 269.73 392.44 C 268 393.25 267.68 395.09 268.2 396.4 L 268.88 397.98 L 268.06 398.79 L 266.36 398.07 C 265.11 397.57 263.37 398.07 262.62 399.58 L 261.37 402.57 C 261.26 402.86 261.15 403.15 261.12 403.52 Z M 264.57 408.55 L 262.82 409.28 C 261.56 409.91 260.72 411.4 261.3 413.14 L 261.7 414.12 C 260.84 414.65 259.87 415.03 258.92 415.19 L 258.92 405.98 C 259.81 405.93 260.88 405.87 261.8 405.77 C 262.2 406.24 262.57 406.47 262.96 406.64 L 264.57 407.34 Z M 272.96 390.72 C 276.53 389.56 279.69 387.93 281.92 386.33 C 282.26 387.88 282.36 389.55 282.38 390.91 C 280.94 390.67 279.58 391.6 279.13 392.79 L 278.53 394.35 L 277.27 394.35 L 276.64 392.8 C 276.15 391.58 274.63 390.51 272.87 391.12 C 272.87 390.98 272.87 390.8 272.96 390.72 Z M 270.84 377.57 C 273.18 376.65 274.72 375.78 276.13 374.78 C 279.32 378.46 280.59 381.77 281.25 383.93 C 279.55 385.23 277 386.84 272.8 388.3 C 272.57 385.19 272.16 381.66 270.84 377.57 Z M 264.73 367.53 C 268.81 368.77 272.45 371.16 274.54 373.11 C 273.48 373.88 271.41 374.92 270.01 375.47 C 268.66 372.27 267.14 369.74 264.73 367.53 Z M 266.81 406.01 L 263.72 404.73 C 263.28 404.49 263.09 404.13 263.27 403.61 L 264.44 400.81 C 264.7 400.37 265.03 400.13 265.57 400.34 L 268.45 401.8 C 269.37 400.7 270.37 399.63 271.5 398.68 L 270.23 395.59 C 270.14 395.22 270.1 394.85 270.64 394.5 L 273.53 393.28 C 274.09 393.11 274.4 393.35 274.59 393.68 L 275.89 396.85 C 277.19 396.59 278.48 396.47 280 396.91 L 281.3 393.7 C 281.59 393.25 281.95 393.12 282.4 393.28 L 285.28 394.51 C 285.76 394.8 285.81 395.17 285.69 395.55 L 284.4 398.72 C 285.53 399.63 286.57 400.58 287.41 401.67 L 290.52 400.41 C 291.07 400.25 291.41 400.46 291.61 400.89 L 292.83 403.77 C 292.9 404.19 292.82 404.55 292.39 404.78 L 289.24 406.06 C 289.39 407.3 289.37 408.85 289.24 410.22 L 292.39 411.49 C 292.81 411.75 293 412.09 292.87 412.55 L 291.72 415.25 C 291.5 415.6 291.19 415.78 290.73 415.66 L 287.55 414.37 C 286.7 415.53 285.66 416.53 284.48 417.42 L 285.74 420.53 C 285.94 421.03 285.69 421.45 285.38 421.6 L 282.33 422.88 C 281.91 422.95 281.54 422.92 281.37 422.41 L 280.08 419.22 C 278.92 419.56 277.46 419.64 275.98 419.25 L 274.7 422.4 C 274.5 422.72 274.26 423 273.69 422.87 L 270.71 421.62 C 270.28 421.33 270.1 420.96 270.36 420.45 L 271.78 417.62 C 270.53 416.68 269.48 415.67 268.66 414.6 L 265.63 415.85 C 265.14 416.02 264.75 415.91 264.47 415.47 L 263.25 412.55 C 263.13 412.16 263.22 411.71 263.67 411.49 L 266.83 410.12 C 266.7 408.75 266.69 407.38 266.82 406.01 Z M 270.21 408.01 C 270.21 412.86 274.21 415.86 278.11 415.86 C 282.35 415.86 285.85 412.27 285.85 408.08 C 285.85 403.59 282.07 400.23 278.13 400.23 C 274.27 400.23 270.21 403.14 270.21 408.01 Z" fill="#505050" stroke="none" pointer-events="all"/></g><g><rect x="164" y="364" width="57" height="59" fill="none" stroke="none" pointer-events="all"/><path d="M 183.48 399.17 L 197.25 381.6 C 197.34 381.52 197.36 381.37 197.22 381.24 L 194.81 379.32 C 194.68 379.21 194.53 379.2 194.43 379.34 L 183.56 393.57 L 177.82 387.37 C 177.72 387.28 177.56 387.27 177.43 387.38 L 175.14 389.44 C 175.02 389.55 175.04 389.74 175.12 389.85 Z M 189.99 414.65 L 188.93 415.48 C 186.8 416.98 184.14 416.72 182.42 415.37 C 170.73 406.7 164.45 393.38 164 379.64 C 164.06 378.09 164.77 376.64 166.33 376.22 C 172.51 374.23 177.71 370.12 183.07 365.4 C 184.31 364.33 186.4 364 188.11 365.16 C 194.12 370.27 198.38 373.72 205.11 376.11 C 206.6 376.55 207.46 377.94 207.5 379.53 C 207.35 384.62 206.26 389.68 204.94 393.6 L 204.81 393.3 C 204.24 392.05 202.66 391.15 201.03 391.74 L 197.94 393.01 C 196.29 393.77 195.85 395.54 196.39 396.93 L 197.08 398.49 L 196.25 399.31 L 194.59 398.61 C 192.75 397.96 191.23 399.1 190.75 400.24 L 189.48 403.22 C 188.87 404.96 189.86 406.53 191.1 407.04 L 192.77 407.75 L 192.77 408.93 L 191.06 409.67 C 189.54 410.38 188.93 412.06 189.53 413.59 Z M 194.98 406.33 L 191.91 405.08 C 191.47 404.84 191.28 404.48 191.46 403.98 L 192.63 401.22 C 192.88 400.8 193.21 400.56 193.73 400.77 L 196.61 402.2 C 197.52 401.13 198.53 400.07 199.63 399.14 L 198.39 396.11 C 198.28 395.74 198.24 395.39 198.78 395.04 L 201.66 393.85 C 202.21 393.68 202.52 393.91 202.71 394.23 L 203.99 397.34 C 205.29 397.09 206.58 396.97 208.09 397.4 L 209.38 394.25 C 209.66 393.81 210.02 393.69 210.47 393.85 L 213.34 395.05 C 213.8 395.34 213.85 395.69 213.74 396.07 L 212.46 399.18 C 213.58 400.07 214.62 401.01 215.45 402.08 L 218.53 400.84 C 219.1 400.68 219.42 400.89 219.63 401.3 L 220.83 404.13 C 220.91 404.54 220.82 404.9 220.41 405.13 L 217.26 406.38 C 217.42 407.6 217.4 409.12 217.26 410.45 L 220.4 411.71 C 220.82 411.97 221 412.3 220.87 412.74 L 219.74 415.39 C 219.51 415.74 219.21 415.92 218.74 415.8 L 215.58 414.54 C 214.75 415.67 213.71 416.66 212.54 417.53 L 213.79 420.57 C 213.98 421.07 213.73 421.48 213.44 421.63 L 210.4 422.88 C 209.99 422.95 209.62 422.92 209.45 422.41 L 208.16 419.3 C 207 419.62 205.56 419.7 204.08 419.32 L 202.82 422.4 C 202.61 422.72 202.38 423 201.82 422.87 L 198.86 421.65 C 198.44 421.36 198.24 421 198.52 420.49 L 199.92 417.73 C 198.68 416.79 197.63 415.81 196.81 414.76 L 193.79 415.99 C 193.32 416.15 192.93 416.05 192.66 415.61 L 191.45 412.75 C 191.32 412.37 191.42 411.93 191.86 411.71 L 194.99 410.36 C 194.87 409.02 194.86 407.68 194.98 406.33 Z M 198.37 408.28 C 198.37 413.05 202.33 416 206.21 416 C 210.42 416 213.89 412.46 213.89 408.35 C 213.89 403.96 210.15 400.65 206.23 400.65 C 202.39 400.65 198.37 403.51 198.37 408.28 Z" fill="#505050" stroke="none" pointer-events="all"/></g><g><rect x="82.5" y="361" width="59" height="59" fill="none" stroke="none" pointer-events="all"/><path d="M 105.39 385.8 C 99.43 385.8 94.05 380.78 94.05 373.12 C 94.05 366.5 99.27 361 105.24 361 C 111.93 361 116.54 367.06 116.54 373.5 C 116.46 381.13 110.69 385.87 105.39 385.8 Z M 110.29 410.83 L 82.5 410.83 C 82.93 406.49 83.51 399.46 84.7 395.13 C 85.42 392.44 86.59 390.84 88.59 389.61 C 88.87 389.41 92.29 387.41 93.48 386.94 C 94.2 386.63 95 386.57 95.73 387.02 C 101.15 391.92 109.1 392.32 115.08 387.16 C 115.45 386.79 116.11 386.72 116.63 386.8 C 117.72 386.96 119.59 388.15 121.06 388.96 L 118.52 390.01 C 116.87 390.8 116.39 392.59 117.05 394.08 L 117.66 395.47 L 116.83 396.31 L 115.3 395.64 C 113.83 395.02 112.11 395.68 111.42 397.13 L 110.13 400.17 C 109.49 401.95 110.51 403.44 111.63 403.97 L 113.38 404.72 L 113.38 405.91 L 111.7 406.63 C 110.07 407.36 109.61 409.23 110.15 410.51 Z M 115.6 403.32 L 112.54 402.07 C 112.1 401.82 111.91 401.47 112.09 400.97 L 113.25 398.21 C 113.5 397.79 113.84 397.54 114.36 397.75 L 117.22 399.18 C 118.13 398.11 119.12 397.04 120.23 396.12 L 118.98 393.08 C 118.89 392.72 118.85 392.37 119.38 392.02 L 122.25 390.82 C 122.8 390.65 123.11 390.89 123.29 391.2 L 124.58 394.32 C 125.87 394.06 127.13 393.95 128.64 394.38 L 129.93 391.22 C 130.21 390.79 130.57 390.67 131 390.83 L 133.87 392.03 C 134.33 392.32 134.38 392.66 134.27 393.04 L 132.99 396.16 C 134.11 397.04 135.14 397.99 135.97 399.06 L 139.04 397.82 C 139.6 397.67 139.93 397.88 140.13 398.28 L 141.33 401.11 C 141.41 401.53 141.32 401.88 140.9 402.12 L 137.78 403.37 C 137.93 404.58 137.91 406.11 137.78 407.45 L 140.9 408.7 C 141.32 408.96 141.5 409.3 141.37 409.73 L 140.24 412.38 C 140.02 412.73 139.71 412.91 139.25 412.79 L 136.1 411.53 C 135.27 412.66 134.23 413.66 133.07 414.52 L 134.32 417.57 C 134.51 418.06 134.26 418.47 133.97 418.62 L 130.94 419.88 C 130.53 419.95 130.17 419.92 129.99 419.41 L 128.71 416.29 C 127.56 416.61 126.13 416.69 124.66 416.32 L 123.4 419.4 C 123.2 419.72 122.96 420 122.41 419.87 L 119.45 418.65 C 119.03 418.35 118.85 417.99 119.11 417.49 L 120.51 414.72 C 119.27 413.78 118.24 412.8 117.42 411.75 L 114.42 412.97 C 113.94 413.15 113.56 413.03 113.28 412.6 L 112.07 409.74 C 111.95 409.37 112.05 408.92 112.49 408.7 L 115.61 407.36 C 115.48 406.01 115.48 404.67 115.6 403.32 Z M 118.96 405.27 C 118.96 410.04 122.92 412.99 126.76 412.99 C 130.96 412.99 134.42 409.46 134.42 405.34 C 134.42 400.94 130.69 397.64 126.79 397.64 C 122.97 397.64 118.96 400.5 118.96 405.27 Z" fill="#505050" stroke="none" pointer-events="all"/></g><g><rect x="11" y="365" width="62" height="58" fill="none" stroke="none" pointer-events="all"/><path d="M 11.06 374.67 C 11 373.03 13.25 371.76 15.19 371.05 C 21.54 368.54 34.24 368.32 41.75 370.91 C 44.07 371.71 46.27 373.04 46.25 374.64 C 46.19 376.66 43.11 377.9 41.42 378.48 C 32.65 381.33 19.83 380.32 14.31 377.88 C 13.17 377.36 11.12 376.29 11.06 374.67 Z M 32.67 417.31 C 27.3 417.72 20.9 417.3 16.6 415.91 C 13.22 414.78 11.24 413.09 11.06 410.73 L 11.06 378.58 C 13.15 380.21 16.83 381.3 19.87 381.78 C 25.76 382.74 33.99 382.86 40.78 381.04 C 42.37 380.59 44.49 379.91 46.25 378.58 L 46.25 393.86 C 46.1 393.49 45.96 393.11 45.74 392.85 C 44.96 391.77 43.5 391.31 42.23 391.83 L 39.24 393.08 C 37.72 393.77 37.1 395.5 37.71 396.99 L 38.38 398.55 L 37.56 399.36 L 36.03 398.71 C 34.19 397.95 32.63 399.11 32.15 400.2 L 31.01 402.88 C 30.31 404.32 30.69 406.18 32.35 407.03 L 34.12 407.78 L 34.11 408.96 L 32.39 409.7 C 31.2 410.25 30.25 411.75 30.86 413.49 L 32.13 416.51 C 32.3 416.9 32.49 417.11 32.67 417.31 Z M 36.33 406.38 L 33.28 405.13 C 32.84 404.88 32.65 404.53 32.82 404.03 L 33.98 401.28 C 34.24 400.86 34.57 400.62 35.09 400.83 L 37.93 402.25 C 38.83 401.19 39.83 400.13 40.93 399.2 L 39.69 396.17 C 39.59 395.82 39.55 395.46 40.08 395.12 L 42.93 393.92 C 43.48 393.75 43.79 393.99 43.98 394.31 L 45.25 397.41 C 46.54 397.16 47.8 397.04 49.3 397.47 L 50.59 394.33 C 50.87 393.89 51.23 393.77 51.66 393.92 L 54.5 395.12 C 54.97 395.41 55.01 395.77 54.9 396.13 L 53.63 399.24 C 54.74 400.13 55.77 401.07 56.6 402.13 L 59.65 400.9 C 60.2 400.74 60.53 400.95 60.73 401.36 L 61.93 404.18 C 62.01 404.59 61.92 404.95 61.5 405.18 L 58.4 406.43 C 58.55 407.64 58.53 409.15 58.4 410.49 L 61.5 411.74 C 61.92 412 62.1 412.33 61.97 412.77 L 60.85 415.41 C 60.62 415.75 60.31 415.93 59.86 415.81 L 56.73 414.56 C 55.9 415.68 54.87 416.68 53.71 417.54 L 54.95 420.58 C 55.14 421.06 54.89 421.48 54.6 421.63 L 51.59 422.88 C 51.19 422.95 50.82 422.92 50.65 422.41 L 49.38 419.31 C 48.23 419.62 46.8 419.7 45.34 419.34 L 44.08 422.4 C 43.88 422.72 43.65 423 43.09 422.87 L 40.16 421.65 C 39.74 421.36 39.55 421 39.82 420.5 L 41.21 417.74 C 39.98 416.8 38.94 415.82 38.13 414.78 L 35.15 416 C 34.67 416.17 34.29 416.06 34.01 415.62 L 32.81 412.77 C 32.69 412.4 32.78 411.96 33.23 411.74 L 36.34 410.4 C 36.21 409.06 36.2 407.72 36.33 406.38 Z M 39.67 408.33 C 39.67 413.07 43.6 416.02 47.44 416.02 C 51.61 416.02 55.06 412.5 55.06 408.4 C 55.06 404.01 51.34 400.71 47.46 400.71 C 43.65 400.71 39.67 403.56 39.67 408.33 Z" fill="#505050" stroke="none" pointer-events="all"/><path d="M 64.81 381.76 C 63.54 382.47 61.93 382.65 60.34 382.45 C 58.44 382.19 56.89 381.29 56.5 379.9 C 56.34 379.23 56.53 378.73 57.14 378.45 C 57.59 378.3 58.04 378.3 58.46 378.67 C 58.87 379 59.22 379.93 60.14 380.33 C 60.76 380.62 61.78 380.71 62.54 380.44 C 62.88 380.31 63.3 380.13 63.62 379.57 C 64.05 378.77 63.62 377.96 62.81 377.75 C 61.22 377.3 58.92 376.93 58.15 376.41 C 57.73 376.15 57.31 375.87 56.97 375.3 C 56.56 374.57 56.58 373.88 56.62 373.18 C 56.82 371.9 57.48 371.35 58.02 370.98 C 58.91 370.37 59.9 370.19 60.83 370.11 C 61.65 370.04 62.57 370.12 63.68 370.49 C 64.58 370.84 65.51 371.33 65.94 372.17 C 66.22 372.76 66.17 373.33 65.63 373.69 C 65.23 373.9 64.53 374.08 63.99 373.52 C 63.53 372.97 63.06 372.52 62.6 372.35 C 62.04 372.13 61.41 372.03 60.63 372.16 C 60.21 372.27 59.62 372.36 59.32 373.16 C 59.17 373.92 59.5 374.3 60.19 374.58 C 62.47 375.26 63.12 375.21 64.27 375.62 C 65.44 376.07 66.29 376.78 66.51 378.01 C 66.6 378.74 66.57 379.48 66.24 380.22 C 66 380.75 65.63 381.26 64.81 381.76 Z M 63.63 384.69 C 65.15 385.69 67.32 386.14 69.35 384.49 C 70.9 383.17 71.55 380.79 70 378.43 C 70.64 375.18 69.73 371.7 66.6 369.41 C 63.76 367.44 61.17 367.69 59.52 368 C 57.51 366.71 55.15 366.75 53.38 368.62 C 51.68 370.66 52.16 372.96 53.15 374.26 L 53.01 375.2 C 52.61 378.27 53.86 380.89 55.72 382.62 C 57.14 383.92 59.42 385.12 62.34 384.88 Z M 63.41 386.32 C 60.15 386.85 57.09 385.92 54.79 383.86 C 52.27 381.63 50.96 378.24 51.58 374.56 C 50.19 372.32 50.57 369.27 52.59 367.24 C 54.58 365.42 57.42 365 59.81 366.37 C 63.02 365.86 65.87 366.71 68.2 368.63 C 71.13 371.16 72.22 374.72 71.64 378.12 C 73 380.44 72.53 383.13 71.22 384.79 C 69.04 387.54 65.64 387.65 63.41 386.32 Z" fill="#00adeb" stroke="none" pointer-events="all"/></g><g><rect x="5.5" y="465" width="58" height="52" fill="none" stroke="none" pointer-events="all"/><path d="M 46.93 486.02 L 46.93 474.95 L 50.49 474.95 C 52.91 475.02 54.31 476.26 54.29 478.53 C 54.29 479.65 53.76 480.48 53.25 480.98 C 52.54 481.66 51.61 482.02 50.48 482.11 L 48.73 482.11 L 48.73 486.02 Z M 48.73 480.53 L 50.19 480.53 C 51.01 480.49 51.91 480.22 52.29 479.27 C 52.45 478.87 52.54 478.01 52.05 477.31 C 51.76 476.92 51.11 476.61 50.31 476.56 L 48.73 476.56 Z M 32.63 495.77 L 5.5 495.77 L 5.5 465 L 61.81 465 L 61.81 492.18 C 61 491.95 60.27 492.17 59.56 492.51 L 59.56 467.25 L 7.75 467.25 L 7.75 493.52 L 33.63 493.52 C 33.57 493.6 33.43 493.83 33.38 493.97 Z M 12.41 486.02 L 16.08 480.46 L 12.71 474.95 L 14.96 474.95 L 17.27 479.25 L 19.76 474.95 L 21.79 474.95 L 18.33 480.46 L 22.02 486.02 L 19.83 486.02 L 17.32 481.64 L 14.66 486.02 Z M 23.52 486.02 L 23.52 474.95 L 26.14 474.95 L 29.49 483.41 L 32.98 474.95 L 35.45 474.95 L 35.45 486.02 L 33.66 486.02 L 33.66 477.19 L 30.06 486.02 L 28.85 486.02 L 25.17 477.28 L 25.17 486.02 Z M 38.15 486.02 L 38.15 474.95 L 41.71 474.95 C 44.13 475.02 45.53 476.26 45.51 478.53 C 45.51 479.65 44.98 480.48 44.47 480.98 C 43.76 481.66 42.83 482.02 41.7 482.11 L 39.96 482.11 L 39.96 486.02 Z M 39.96 480.53 L 41.41 480.53 C 42.23 480.53 43.13 480.22 43.51 479.27 C 43.67 478.87 43.76 478.01 43.27 477.31 C 42.98 476.92 42.33 476.61 41.53 476.56 L 39.96 476.56 Z M 37.52 500.16 L 34.46 498.89 C 34.01 498.65 33.82 498.29 34 497.78 L 35.16 494.98 C 35.42 494.56 35.75 494.32 36.28 494.53 L 39.14 495.97 C 40.06 494.89 41.06 493.82 42.17 492.89 L 40.92 489.82 C 40.82 489.45 40.78 489.09 41.31 488.75 L 44.19 487.54 C 44.74 487.37 45.05 487.6 45.24 487.92 L 46.52 491.07 C 47.81 490.81 49.1 490.69 50.61 491.13 L 51.9 487.95 C 52.18 487.5 52.55 487.38 52.98 487.54 L 55.85 488.75 C 56.31 489.05 56.36 489.4 56.25 489.78 L 54.97 492.92 C 56.09 493.82 57.12 494.77 57.96 495.85 L 61.04 494.6 C 61.6 494.44 61.93 494.65 62.13 495.07 L 63.33 497.93 C 63.41 498.35 63.32 498.71 62.9 498.94 L 59.78 500.21 C 59.93 501.43 59.91 502.97 59.77 504.32 L 62.9 505.58 C 63.32 505.84 63.5 506.18 63.37 506.63 L 62.24 509.3 C 62.02 509.65 61.71 509.83 61.25 509.71 L 58.09 508.44 C 57.25 509.58 56.22 510.59 55.05 511.47 L 56.3 514.54 C 56.49 515.04 56.24 515.45 55.95 515.6 L 52.92 516.87 C 52.51 516.94 52.14 516.91 51.97 516.4 L 50.69 513.25 C 49.53 513.58 48.08 513.66 46.61 513.28 L 45.34 516.39 C 45.14 516.71 44.91 517 44.35 516.86 L 41.39 515.63 C 40.97 515.33 40.78 514.97 41.05 514.46 L 42.45 511.66 C 41.21 510.72 40.17 509.72 39.36 508.66 L 36.34 509.9 C 35.86 510.07 35.47 509.96 35.19 509.52 L 33.99 506.63 C 33.86 506.25 33.96 505.8 34.41 505.58 L 37.53 504.23 C 37.41 502.87 37.4 501.51 37.52 500.16 Z M 40.9 502.13 C 40.9 506.93 44.86 509.91 48.72 509.91 C 52.93 509.91 56.4 506.35 56.4 502.2 C 56.4 497.76 52.66 494.41 48.75 494.41 C 44.92 494.41 40.9 497.3 40.9 502.13 Z" fill="#505050" stroke="none" pointer-events="all"/></g></g></svg>