<?xml version="1.0" encoding="UTF-8" standalone="no"?>
<svg
   width="44.49651"
   height="45.093174"
   viewBox="0 0 33.372501 33.81988"
   color-interpolation-filters="sRGB"
   fill="none"
   fill-rule="evenodd"
   font-size="12px"
   overflow="visible"
   stroke-linecap="square"
   stroke-miterlimit="3"
   version="1.1"
   id="svg78"
   sodipodi:docname="Service.svg"
   inkscape:version="1.2.2 (732a01da63, 2022-12-09)"
   xmlns:inkscape="http://www.inkscape.org/namespaces/inkscape"
   xmlns:sodipodi="http://sodipodi.sourceforge.net/DTD/sodipodi-0.dtd"
   xmlns="http://www.w3.org/2000/svg"
   xmlns:svg="http://www.w3.org/2000/svg"
   xmlns:v="http://schemas.microsoft.com/visio/2003/SVGExtensions/">
  <defs
     id="defs82" />
  <sodipodi:namedview
     id="namedview80"
     pagecolor="#ffffff"
     bordercolor="#000000"
     borderopacity="0.25"
     inkscape:showpageshadow="2"
     inkscape:pageopacity="0.0"
     inkscape:pagecheckerboard="0"
     inkscape:deskcolor="#d1d1d1"
     showgrid="false"
     inkscape:zoom="8.5980392"
     inkscape:cx="-7.1527936"
     inkscape:cy="1.8608894"
     inkscape:window-width="1826"
     inkscape:window-height="1057"
     inkscape:window-x="86"
     inkscape:window-y="-8"
     inkscape:window-maximized="1"
     inkscape:current-layer="svg78" />
  <v:documentProperties
     v:langID="4108"
     v:metric="true"
     v:viewMarkup="false" />
  <style
     id="style43">
    .st1,.st2{fill:#fff;stroke:none;stroke-linecap:butt;stroke-width:.75}.st2{fill:#515251}
  </style>
  <g
     id="group36-1"
     transform="translate(-20.4,-42.680136)"
     v:mID="36"
     v:groupContext="group"
     v:layerMember="0">
    <g
       id="group37-2"
       v:mID="37"
       v:groupContext="group"
       v:layerMember="0">
      <g
         id="group41-8"
         transform="translate(20.325)"
         v:mID="41"
         v:groupContext="group"
         v:layerMember="0">
        <g
           id="shape42-9"
           v:mID="42"
           v:groupContext="shape"
           v:layerMember="0">
          <path
             d="m 20.85,76.5 c -1.2,0 -2.32,-0.75 -2.77,-1.87 L 17.4,73.05 h -1.28 l -0.67,1.58 c -0.37,1.12 -1.5,1.87 -2.7,1.87 -0.37,0 -0.82,-0.07 -1.12,-0.22 L 8.77,75.08 C 8.03,74.78 7.42,74.18 7.12,73.43 6.83,72.68 6.83,71.85 7.12,71.1 L 7.8,69.53 6.97,68.7 5.4,69.38 C 5.03,69.53 4.65,69.6 4.28,69.6 3.08,69.6 1.95,68.85 1.5,67.73 L 0.3,64.88 C 0,64.13 0,63.3 0.3,62.55 0.6,61.8 1.2,61.2 1.95,60.9 l 1.57,-0.67 v -1.2 L 1.95,58.35 C 1.2,58.05 0.6,57.45 0.3,56.7 0,55.95 0,55.13 0.3,54.38 l 1.2,-2.85 a 3.023,3.023 0 0 1 2.78,-1.88 c 0.37,0 0.75,0.08 1.12,0.23 L 6.97,50.55 7.8,49.73 7.12,48.15 c -0.29,-0.75 -0.29,-1.57 0,-2.32 0.3,-0.75 0.91,-1.35 1.65,-1.65 l 2.86,-1.2 c 0.37,-0.15 0.75,-0.23 1.12,-0.23 1.2,0 2.33,0.75 2.78,1.88 l 0.59,1.5 H 17.4 L 18,44.55 a 3.018,3.018 0 0 1 2.78,-1.87 c 0.37,0 0.75,0.07 1.12,0.22 l 2.85,1.2 c 0.75,0.3 1.35,0.9 1.65,1.65 0.3,0.75 0.3,1.58 0,2.33 l -0.68,1.57 0.83,0.83 1.58,-0.68 c 0.37,-0.15 0.75,-0.22 1.12,-0.22 1.2,0 2.33,0.75 2.78,1.87 l 1.2,2.85 c 0.29,0.75 0.29,1.58 0,2.33 -0.3,0.75 -0.9,1.35 -1.65,1.65 L 30,58.95 v 1.2 l 1.58,0.68 c 1.57,0.67 2.25,2.4 1.65,3.97 l -1.2,2.85 a 3.023,3.023 0 0 1 -2.78,1.88 c -0.37,0 -0.82,-0.08 -1.2,-0.23 l -1.57,-0.67 -0.83,0.82 0.68,1.58 c 0.29,0.75 0.29,1.57 0,2.32 -0.3,0.75 -0.9,1.35 -1.65,1.65 l -2.86,1.2 c -0.14,0.23 -0.59,0.3 -0.97,0.3 z M 16.8,54.15 c -3,0 -5.48,2.48 -5.48,5.48 0,3 2.48,5.47 5.48,5.47 3,0 5.47,-2.47 5.47,-5.47 0,-3 -2.47,-5.48 -5.47,-5.48 z"
             class="st1"
             id="path52" />
        </g>
        <g
           id="shape43-11"
           v:mID="43"
           v:groupContext="shape"
           v:layerMember="0"
           transform="translate(2.025,-2.1)">
          <path
             d="m 28.95,65.1 -2.4,-0.97 c -0.37,-0.15 -0.67,-0.38 -0.67,-0.45 0,-0.08 0.07,-0.53 0.07,-0.9 v -1.95 c 0,-0.45 -0.07,-0.83 -0.07,-0.9 0,-0.08 0.3,-0.3 0.67,-0.45 l 2.4,-0.98 c 0.37,-0.15 0.6,-0.6 0.45,-1.05 L 28.2,54.6 C 28.05,54.23 27.6,54 27.15,54.15 l -2.4,0.98 C 24.37,55.28 24,55.35 23.92,55.28 23.85,55.2 23.62,54.9 23.32,54.53 L 21.9,53.18 c -0.3,-0.3 -0.67,-0.53 -0.67,-0.6 -0.08,-0.08 0,-0.38 0.15,-0.83 l 0.97,-2.4 c 0.15,-0.37 0,-0.82 -0.45,-1.05 l -2.85,-1.2 c -0.38,-0.15 -0.83,0 -1.05,0.45 l -0.97,2.4 c -0.15,0.38 -0.38,0.68 -0.45,0.68 -0.08,0 -0.53,-0.08 -0.9,-0.15 0,0 -0.38,-0.08 -0.98,-0.08 -0.6,0 -0.98,0.08 -0.98,0.08 -0.45,0.07 -0.82,0.07 -0.9,0.15 -0.07,0 -0.3,-0.3 -0.44,-0.68 L 11.4,47.55 C 11.25,47.18 10.8,46.95 10.35,47.1 L 7.5,48.3 c -0.37,0.15 -0.6,0.6 -0.45,1.05 l 0.97,2.4 c 0.15,0.38 0.23,0.75 0.15,0.83 -0.07,0.07 -0.37,0.3 -0.67,0.6 L 6.08,54.6 c -0.3,0.3 -0.53,0.68 -0.6,0.75 -0.08,0.08 -0.38,0 -0.83,-0.15 L 2.4,54.08 c -0.37,-0.15 -0.82,0 -1.05,0.45 l -1.2,2.85 C 0,57.75 0.15,58.2 0.6,58.43 L 3,59.4 c 0.37,0.15 0.67,0.38 0.67,0.45 0,0.08 -0.07,0.53 -0.07,0.9 v 1.95 c 0,0.45 0.07,0.83 0.07,0.9 0,0.08 -0.3,0.3 -0.67,0.45 L 0.6,65.1 C 0.23,65.25 0,65.7 0.15,66.15 L 1.35,69 c 0.15,0.38 0.6,0.6 1.05,0.45 l 2.4,-0.97 c 0.38,-0.15 0.75,-0.23 0.83,-0.15 0.07,0.07 0.3,0.37 0.6,0.75 l 1.42,1.35 c 0.3,0.3 0.67,0.52 0.75,0.6 0.07,0.07 0,0.45 -0.15,0.82 L 7.13,74.1 c -0.15,0.38 0,0.83 0.44,1.05 l 2.86,1.2 c 0.37,0.15 0.82,0 1.05,-0.45 l 0.97,-2.4 c 0.15,-0.37 0.37,-0.67 0.45,-0.67 0.07,0 0.52,0.07 0.9,0.15 0,0 0.37,0.07 0.98,0.07 0.6,0 0.97,-0.07 0.97,-0.07 0.45,-0.08 0.83,-0.08 0.9,-0.15 0.08,0 0.3,0.3 0.45,0.67 l 0.97,2.4 c 0.15,0.38 0.6,0.6 1.05,0.45 l 2.86,-1.2 c 0.37,-0.15 0.59,-0.6 0.44,-1.05 l -0.97,-2.4 c -0.15,-0.37 -0.22,-0.75 -0.15,-0.82 0.08,-0.08 0.38,-0.3 0.75,-0.6 l 1.42,-1.43 c 0.3,-0.3 0.53,-0.67 0.6,-0.75 0.08,-0.07 0.38,0 0.83,0.15 l 2.4,0.98 c 0.37,0.15 0.82,0 1.05,-0.45 l 1.2,-2.85 C 29.48,65.7 29.33,65.25 28.95,65.1 Z M 14.78,69.45 C 10.5,69.45 7.05,66 7.05,61.73 7.05,57.45 10.5,54 14.78,54 c 4.27,0 7.72,3.45 7.72,7.73 0,4.27 -3.45,7.72 -7.72,7.72 z"
             fill="#525352"
             stroke-linecap="butt"
             stroke-width="0.75"
             id="path55" />
        </g>
      </g>
    </g>
  </g>
</svg>
